<svg id="Layer_1" data-name="Layer 1" xmlns="http://www.w3.org/2000/svg" viewBox="0 0 201.07 187.78"><path d="M100.64,163.84q-21.94,0-43.91,0c-7.76,0-13.49-4.16-15.27-11.08A18.41,18.41,0,0,1,41,148.3c0-5.09-.09-10.17.07-15.25.5-16,13.3-34,35.74-32.61,4.67.29,9.31,1.52,13.92,2.51,8.42,1.81,16.63.91,24.87-1.22,9.84-2.55,19.54-2.15,28.38,3.34,9.83,6.1,15.05,15.35,16.16,26.76a135.42,135.42,0,0,1,.18,16.74c-.29,9.42-6.37,15.23-15.8,15.26C129.92,163.87,115.28,163.84,100.64,163.84Zm.09-9.85h43.14c5.13,0,6.92-1.69,6.91-6.86,0-5,.09-10-.41-15-.89-9-5.26-15.87-13.52-19.84-6.63-3.18-13.57-2.78-20.43-.84a59,59,0,0,1-31.45.1,42.87,42.87,0,0,0-12.52-1.26,22.09,22.09,0,0,0-20.81,18.06c-1.08,6.25-.83,12.74-1,19.13-.12,4.78,1.68,6.47,6.43,6.47Z"/><path d="M66,58.87a34.82,34.82,0,0,1,34.57-34.94c19.91-.11,35.28,17.22,34.9,35.2-.39,19.05-15.91,34.8-34.92,34.68A34.8,34.8,0,0,1,66,58.87Zm59.64.07a25,25,0,1,0-25,25A24.81,24.81,0,0,0,125.61,58.94Z"/><path d="M6.08,58.81A24.77,24.77,0,0,1,30.91,33.94c13.81.09,24.62,11.24,24.6,25.37a24.72,24.72,0,1,1-49.43-.5Zm39.68,0a14.82,14.82,0,0,0-15-15A15.08,15.08,0,1,0,30.93,74,14.83,14.83,0,0,0,45.76,58.78Z"/><path d="M145.81,58.91a24.72,24.72,0,1,1,24.8,24.89A24.77,24.77,0,0,1,145.81,58.91Zm39.68,0a14.83,14.83,0,0,0-14.94-15.07,15.08,15.08,0,1,0,0,30.16A14.82,14.82,0,0,0,185.49,58.86Z"/><path d="M152,98a17.92,17.92,0,0,1,10.45-3.78,124.26,124.26,0,0,1,17.9.3c11.55,1.35,20.84,13.34,19.88,24.9a4.66,4.66,0,0,1-4.59,4.4,4.73,4.73,0,0,1-4.82-3.84c-.64-2.81-.87-5.83-2.1-8.37-2.42-5-6.61-7.84-12.36-7.73-5.38.11-10.76.4-16.14.54a3.16,3.16,0,0,1-1.93-.71C156.19,101.87,154.2,100,152,98Z"/><path d="M49.6,97.68C47.05,100,45,102,42.87,103.79a3.23,3.23,0,0,1-2,.55c-6-.12-11.93-.6-17.88-.37-5.77.21-11,5.82-12,12-.17,1.07-.27,2.15-.4,3.22-.34,2.9-2.25,4.7-4.88,4.63s-4.53-2-4.63-5.1c-.42-12.49,9.41-23.79,22-24.52,6.58-.38,13.24.27,19.83.86C45.12,95.2,47.18,96.67,49.6,97.68Z"/></svg>