<?xml version="1.0" encoding="utf-8"?>
<!-- Generator: Adobe Illustrator 26.0.1, SVG Export Plug-In . SVG Version: 6.00 Build 0)  -->
<svg version="1.1" id="Layer_1" xmlns="http://www.w3.org/2000/svg" xmlns:xlink="http://www.w3.org/1999/xlink" x="0px" y="0px"
	 viewBox="0 0 201.1 187.8" style="enable-background:new 0 0 201.1 187.8;" xml:space="preserve">
<style type="text/css">
	.st0{fill:#1E50FF;}
</style>
<path class="st0" d="M100.6,163.8c-14.6,0-29.3,0-43.9,0c-7.8,0-13.5-4.2-15.3-11.1c-0.3-1.5-0.5-3-0.5-4.5c0-5.1-0.1-10.2,0.1-15.2
	c0.5-16,13.3-34,35.7-32.6c4.7,0.3,9.3,1.5,13.9,2.5c8.4,1.8,16.6,0.9,24.9-1.2c9.8-2.6,19.5-2.2,28.4,3.3
	c9.8,6.1,15.1,15.3,16.2,26.8c0.4,5.6,0.5,11.2,0.2,16.7c-0.3,9.4-6.4,15.2-15.8,15.3C129.9,163.9,115.3,163.8,100.6,163.8z
	 M100.7,154h43.1c5.1,0,6.9-1.7,6.9-6.9c0-5,0.1-10-0.4-15c-0.9-9-5.3-15.9-13.5-19.8c-6.6-3.2-13.6-2.8-20.4-0.8
	c-10.3,2.9-21.2,2.9-31.5,0.1c-4.1-1-8.3-1.5-12.5-1.3c-10.3,0.4-18.9,7.9-20.8,18.1c-1.1,6.2-0.8,12.7-1,19.1
	c-0.1,4.8,1.7,6.5,6.4,6.5L100.7,154z"/>
<path class="st0" d="M66,58.9c-0.1-19.2,15.4-34.8,34.6-34.9c19.9-0.1,35.3,17.2,34.9,35.2c-0.4,19-15.9,34.8-34.9,34.7
	C81.4,93.7,65.9,78,66,58.9z M125.6,58.9c0-13.8-11.2-25-25-25s-25,11.2-25,25s11.2,25,25,25c13.7,0.1,24.9-10.9,25-24.6
	C125.6,59.2,125.6,59.1,125.6,58.9L125.6,58.9z"/>
<path class="st0" d="M6.1,58.8C6,45.1,17.1,34,30.7,33.9c0.1,0,0.1,0,0.2,0C44.7,34,55.5,45.2,55.5,59.3C55.6,73,44.6,84.1,31,84.2
	S6.2,73.3,6.1,59.7C6.1,59.4,6.1,59.1,6.1,58.8z M45.8,58.8c0.1-8.2-6.5-14.9-14.6-15c-0.1,0-0.2,0-0.4,0c-8.3,0-15.1,6.8-15,15.2
	S22.6,74,30.9,74c8.2,0,14.8-6.6,14.8-14.8C45.8,59,45.8,58.9,45.8,58.8L45.8,58.8z"/>
<path class="st0" d="M145.8,58.9c0.1-13.7,11.2-24.6,24.9-24.5c13.7,0.1,24.6,11.2,24.5,24.9c-0.1,13.6-11.1,24.5-24.6,24.5
	c-13.7,0-24.8-11.1-24.8-24.7C145.8,59,145.8,59,145.8,58.9z M185.5,58.9c0.1-8.2-6.4-14.9-14.6-15.1c-0.1,0-0.2,0-0.4,0
	c-8.3,0-15.1,6.7-15.1,15.1S162.2,74,170.5,74c0,0,0,0,0,0c8.2,0.1,14.9-6.5,14.9-14.7C185.5,59.2,185.5,59,185.5,58.9L185.5,58.9z"
	/>
<path class="st0" d="M152,98c3-2.3,6.7-3.7,10.4-3.8c6-0.3,11.9-0.2,17.9,0.3c11.6,1.3,20.8,13.3,19.9,24.9
	c-0.1,2.4-2.1,4.4-4.6,4.4c-2.3,0.1-4.4-1.5-4.8-3.8c-0.6-2.8-0.9-5.8-2.1-8.4c-2.4-5-6.6-7.8-12.4-7.7c-5.4,0.1-10.8,0.4-16.1,0.5
	c-0.7,0-1.4-0.3-1.9-0.7C156.2,101.9,154.2,100,152,98z"/>
<path class="st0" d="M49.6,97.7c-2.5,2.3-4.6,4.3-6.7,6.1c-0.6,0.4-1.3,0.6-2,0.6c-6-0.1-11.9-0.6-17.9-0.4c-5.8,0.2-11,5.8-12,12
	c-0.2,1.1-0.3,2.2-0.4,3.2c-0.3,2.9-2.2,4.7-4.9,4.6s-4.5-2-4.6-5.1c-0.4-12.5,9.4-23.8,22-24.5c6.6-0.4,13.2,0.3,19.8,0.9
	C45.1,95.2,47.2,96.7,49.6,97.7z"/>
</svg>
