<svg id="Layer_1" data-name="Layer 1" xmlns="http://www.w3.org/2000/svg" viewBox="0 0 201.07 187.78"><path d="M47.6,163.61a28.14,28.14,0,0,1-3.84,0c-.91-.13-2.33-.4-2.54-1a3.66,3.66,0,0,1,.64-2.86c2.3-3.15,4.76-6.19,7.17-9.26q34.11-43.52,68.23-87Q131.7,45,146.14,26.56a5.4,5.4,0,0,1,5.07-2.41c2,.15,4-.1,6,.08a3.86,3.86,0,0,1,2.63,1.24c.32.5-.22,1.88-.75,2.56q-12.23,15.75-24.55,31.4L92,113.76c-12.55,16-25.15,32-37.63,48C52.31,164.42,49.67,163.26,47.6,163.61Z"/><path d="M68.5,24.45C84.22,23,99.6,34.83,100.29,53.11a29.75,29.75,0,0,1-59,6C38.09,39.32,53.36,24.66,68.5,24.45Zm2.08,10.82c-10.92.09-18.74,8-18.69,19,0,10.31,8.51,18.86,18.71,18.6,10.52-.27,18.59-8,18.81-18.94C89.62,44,80.53,35.2,70.58,35.27Z"/><path d="M100.78,132.12c.73-17.41,15.87-28.95,30.95-28.07a29.76,29.76,0,0,1-2.07,59.49C110.86,162.91,99.53,146.74,100.78,132.12Zm48.22,3c.94-10.42-6.61-19.29-17.55-20.13a18.71,18.71,0,0,0-19.79,18c-.31,9.11,5.48,19,18.09,19.58C140.45,153.09,148.87,144.36,149,135.12Z"/></svg>