<?xml version="1.0" encoding="utf-8"?>
<!-- Generator: Adobe Illustrator 26.0.1, SVG Export Plug-In . SVG Version: 6.00 Build 0)  -->
<svg version="1.1" id="Layer_1" xmlns="http://www.w3.org/2000/svg" xmlns:xlink="http://www.w3.org/1999/xlink" x="0px" y="0px"
	 viewBox="0 0 201.1 187.8" style="enable-background:new 0 0 201.1 187.8;" xml:space="preserve">
<style type="text/css">
	.st0{fill:#1E50FF;}
</style>
<path class="st0" d="M47.6,163.6c-1.3,0.1-2.6,0.1-3.8,0c-0.9-0.1-2.3-0.4-2.5-1c-0.2-1,0-2,0.6-2.9c2.3-3.1,4.8-6.2,7.2-9.3
	c22.7-29,45.5-58,68.2-87c9.6-12.3,19.3-24.6,28.9-36.9c1.1-1.7,3.1-2.6,5.1-2.4c2,0.1,4-0.1,6,0.1c1,0.1,1.9,0.5,2.6,1.2
	c0.3,0.5-0.2,1.9-0.8,2.6c-8.2,10.5-16.3,21-24.6,31.4L92,113.8c-12.6,16-25.2,32-37.6,48C52.3,164.4,49.7,163.3,47.6,163.6z"/>
<path class="st0" d="M68.5,24.5c15.7-1.5,31.1,10.4,31.8,28.7c0.3,16.4-12.7,30-29.1,30.3c-14.6,0.3-27.2-10-29.9-24.3
	C38.1,39.3,53.4,24.7,68.5,24.5z M70.6,35.3c-10.9,0.1-18.7,8-18.7,19c0,10.3,8.5,18.9,18.7,18.6c10.5-0.3,18.6-8,18.8-18.9
	C89.6,44,80.5,35.2,70.6,35.3z"/>
<path class="st0" d="M100.8,132.1c0.7-17.4,15.9-28.9,30.9-28.1c16.4,0.6,29.3,14.4,28.7,30.8c-0.6,16.4-14.4,29.3-30.8,28.7l0,0
	C110.9,162.9,99.5,146.7,100.8,132.1z M149,135.1c0.9-10.4-6.6-19.3-17.6-20.1c-10.3-0.6-19.2,7.3-19.8,17.6c0,0.1,0,0.3,0,0.4
	c-0.3,9.1,5.5,19,18.1,19.6C140.4,153.1,148.9,144.4,149,135.1z"/>
</svg>
