<svg id="Layer_1" data-name="Layer 1" xmlns="http://www.w3.org/2000/svg" viewBox="0 0 201.07 187.78"><path d="M10.92,84.52A14.48,14.48,0,0,1,30.23,70.68a2.85,2.85,0,0,0,3.46-.76Q47.21,56.27,60.84,42.77a2.7,2.7,0,0,0,.8-3.26,14.35,14.35,0,0,1,5-16.65,15.05,15.05,0,0,1,16.64-.77A14.76,14.76,0,0,1,89.94,38a3.48,3.48,0,0,0,1,2.87Q103.44,51,116.17,60.78a3.56,3.56,0,0,0,3,.36,15.56,15.56,0,0,1,12.56,0,3.38,3.38,0,0,0,2.81-.33q12.9-10,25.63-20.22a3.32,3.32,0,0,0,.65-2.73,14.82,14.82,0,1,1,25.41,6.83,14.48,14.48,0,0,1-16.61,3.63,3.44,3.44,0,0,0-4.18.58Q153.31,58.7,141,68.23a2.8,2.8,0,0,0-1.22,3.35A14.35,14.35,0,0,1,133.66,87a15.06,15.06,0,0,1-16.45,0A14.49,14.49,0,0,1,111,71.61a2.73,2.73,0,0,0-1.17-3.33Q97.49,58.64,85.22,48.83c-1.19-.94-2.19-1.38-3.76-.59a12.73,12.73,0,0,1-10.61.42,2.62,2.62,0,0,0-3.27.68Q54,63.07,40.25,76.66a2.7,2.7,0,0,0-.7,3.25c2,6,.73,11.35-4,15.64a13.89,13.89,0,0,1-16,2.56C13.9,95.57,10.91,90.91,10.92,84.52ZM75.6,29.7a5,5,0,0,0-5.16,5.19,4.67,4.67,0,0,0,4.81,4.91,4.84,4.84,0,0,0,5.26-5A4.83,4.83,0,0,0,75.6,29.7Zm49.79,50a5.06,5.06,0,0,0,.09-10.11,5,5,0,0,0-5.15,5.21A4.69,4.69,0,0,0,125.39,79.7Zm-99.76-.13a5,5,0,0,0-5.07,5,4.68,4.68,0,0,0,4.89,5.06,5.05,5.05,0,1,0,.18-10.1ZM180.29,34.74a5,5,0,1,0-5,5.06A4.84,4.84,0,0,0,180.29,34.74Z"/><path d="M60.82,129.38q0-21.67,0-43.34c0-4.85,1.5-6.32,6.43-6.33H84c4.7,0,6.4,1.6,6.41,6.19q0,43.6,0,87.19c0,4.53-1.69,6.17-6.16,6.19-5.81,0-11.63,0-17.44,0-4.37,0-5.93-1.63-5.94-6.06Q60.81,151.31,60.82,129.38ZM80.59,89.7h-10v79.65h10Z"/><path d="M160.59,129.37q0-21.56,0-43.1c0-5.18,1.41-6.55,6.69-6.56,5.57,0,11.13,0,16.7,0,4.38,0,6.14,1.64,6.14,6q0,43.85,0,87.68c0,4.22-1.73,5.9-5.91,5.93q-9,.06-17.94,0c-4.07,0-5.67-1.71-5.68-5.82Q160.58,151.41,160.59,129.37Zm19.75,40V89.67h-10v79.66Z"/><path d="M110.7,149.45c0-8,0-16.1,0-24.15,0-3.94,1.64-5.64,5.56-5.68q9.09-.09,18.18,0c4,0,5.77,1.74,5.78,5.8q.08,24,0,48.06c0,4.14-1.79,5.78-6,5.8q-8.83.06-17.68,0c-4.22,0-5.8-1.67-5.81-5.93C110.69,165.38,110.7,157.42,110.7,149.45Zm19.75,19.88V129.56h-10v39.77Z"/><path d="M10.93,154.18c0-6.31,0-12.62,0-18.92,0-3.94,1.64-5.62,5.57-5.66,6.06-.07,12.12-.06,18.18,0,4,0,5.76,1.75,5.77,5.81q.07,19,0,38.09c0,4.06-1.76,5.75-5.79,5.79-6.06.05-12.12.06-18.18,0-3.91,0-5.53-1.74-5.55-5.68C10.91,167.12,10.93,160.65,10.93,154.18Zm9.77-14.64v29.74h10V139.54Z"/></svg>