<?xml version="1.0" encoding="utf-8"?>
<!-- Generator: Adobe Illustrator 26.0.1, SVG Export Plug-In . SVG Version: 6.00 Build 0)  -->
<svg version="1.1" id="Layer_1" xmlns="http://www.w3.org/2000/svg" xmlns:xlink="http://www.w3.org/1999/xlink" x="0px" y="0px"
	 viewBox="0 0 201.1 187.8" style="enable-background:new 0 0 201.1 187.8;" xml:space="preserve">
<style type="text/css">
	.st0{fill:#1E50FF;}
</style>
<path class="st0" d="M10.9,84.5c-0.1-8,6.3-14.6,14.3-14.7c1.7,0,3.4,0.3,5,0.8c1.2,0.6,2.6,0.3,3.5-0.8c9-9.1,18.1-18.1,27.2-27.1
	c1-0.8,1.3-2.1,0.8-3.3c-2.3-6-0.2-12.9,5-16.6c4.9-3.6,11.4-3.9,16.6-0.8c5.4,3.3,8.1,9.7,6.7,15.9c-0.1,1.1,0.2,2.1,1,2.9
	c8.3,6.8,16.7,13.4,25.2,19.9c0.9,0.6,2,0.7,3,0.4c4-1.8,8.6-1.8,12.6,0c0.9,0.3,2,0.2,2.8-0.3c8.6-6.7,17.1-13.4,25.6-20.2
	c0.6-0.8,0.8-1.8,0.6-2.7c-1.8-8,3.3-15.9,11.3-17.7c8-1.8,15.9,3.3,17.7,11.3c1,4.7-0.3,9.6-3.5,13.2c-4.2,4.7-10.9,6.1-16.6,3.6
	c-1.4-0.8-3.1-0.5-4.2,0.6c-8.1,6.5-16.2,13-24.4,19.3c-1.2,0.7-1.7,2.1-1.2,3.3c1.4,5.9-1,12.1-6.1,15.4c-5,3.3-11.5,3.3-16.4,0
	c-5.1-3.3-7.6-9.5-6.2-15.4c0.5-1.2,0-2.7-1.2-3.3c-8.2-6.4-16.4-12.9-24.6-19.4c-1.2-0.9-2.2-1.4-3.8-0.6
	c-3.3,1.7-7.2,1.8-10.6,0.4c-1.1-0.6-2.5-0.3-3.3,0.7c-9.1,9.2-18.2,18.3-27.3,27.3c-1,0.8-1.2,2.1-0.7,3.2c2,6,0.7,11.3-4,15.6
	c-4.2,4.2-10.7,5.2-16,2.6C13.9,95.6,10.9,90.9,10.9,84.5z M75.6,29.7c-2.8-0.1-5.1,2.1-5.2,4.8c0,0.1,0,0.2,0,0.4
	c-0.1,2.6,1.8,4.8,4.4,4.9c0.1,0,0.3,0,0.4,0c2.7,0.2,5-1.7,5.2-4.4c0-0.2,0-0.4,0-0.6c0.1-2.7-1.9-4.9-4.6-5.1
	C75.8,29.7,75.7,29.7,75.6,29.7z M125.4,79.7c2.8-0.1,5-2.4,4.9-5.2c-0.1-2.6-2.2-4.7-4.8-4.9c-2.8-0.1-5.1,2.1-5.2,4.8
	c0,0.1,0,0.2,0,0.4c-0.1,2.6,1.9,4.8,4.5,4.9C125,79.7,125.2,79.7,125.4,79.7z M25.6,79.6c-2.8,0-5,2.2-5.1,4.9c0,0,0,0,0,0.1
	c-0.2,2.6,1.7,4.8,4.3,5c0.2,0,0.4,0,0.6,0c2.8,0,5.1-2.2,5.1-5S28.4,79.6,25.6,79.6L25.6,79.6z M180.3,34.7c0-2.8-2.3-5-5.1-4.9
	c-2.8,0-5,2.3-4.9,5.1c0,2.7,2.3,4.9,5,4.9c2.7,0.1,4.9-2,5-4.7C180.3,35,180.3,34.9,180.3,34.7z"/>
<path class="st0" d="M60.8,129.4c0-14.4,0-28.9,0-43.3c0-4.8,1.5-6.3,6.4-6.3H84c4.7,0,6.4,1.6,6.4,6.2c0,29.1,0,58.1,0,87.2
	c0,4.5-1.7,6.2-6.2,6.2c-5.8,0-11.6,0-17.4,0c-4.4,0-5.9-1.6-5.9-6.1C60.8,158.6,60.8,144,60.8,129.4z M80.6,89.7h-10v79.7h10V89.7z
	"/>
<path class="st0" d="M160.6,129.4c0-14.4,0-28.7,0-43.1c0-5.2,1.4-6.6,6.7-6.6c5.6,0,11.1,0,16.7,0c4.4,0,6.1,1.6,6.1,6
	c0,29.2,0,58.5,0,87.7c0,4.2-1.7,5.9-5.9,5.9c-6,0-12,0-17.9,0c-4.1,0-5.7-1.7-5.7-5.8C160.6,158.8,160.6,144.1,160.6,129.4z
	 M180.3,169.4V89.7h-10v79.7L180.3,169.4z"/>
<path class="st0" d="M110.7,149.4c0-8,0-16.1,0-24.2c0-3.9,1.6-5.6,5.6-5.7c6.1-0.1,12.1-0.1,18.2,0c4,0,5.8,1.7,5.8,5.8
	c0.1,16,0.1,32,0,48.1c0,4.1-1.8,5.8-6,5.8c-5.9,0-11.8,0-17.7,0c-4.2,0-5.8-1.7-5.8-5.9C110.7,165.4,110.7,157.4,110.7,149.4z
	 M130.4,169.3v-39.8h-10v39.8H130.4z"/>
<path class="st0" d="M10.9,154.2c0-6.3,0-12.6,0-18.9c0-3.9,1.6-5.6,5.6-5.7c6.1-0.1,12.1-0.1,18.2,0c4,0,5.8,1.8,5.8,5.8
	c0,12.7,0,25.4,0,38.1c0,4.1-1.8,5.8-5.8,5.8c-6.1,0.1-12.1,0.1-18.2,0c-3.9,0-5.5-1.7-5.6-5.7C10.9,167.1,10.9,160.6,10.9,154.2z
	 M20.7,139.5v29.7h10v-29.7H20.7z"/>
</svg>
