<svg id="Layer_1" data-name="Layer 1" xmlns="http://www.w3.org/2000/svg" viewBox="0 0 201.07 187.78"><path d="M100.39,173.53H47.05c-10.27,0-16.2-5.9-16.21-16.24q0-28.78,0-57.59c0-9.34,6.32-15.6,15.65-15.61,4.18,0,4.1,0,4.19-4.24.18-7.62.17-15.27.76-22.87.78-9.84,5.15-18.26,11.62-25.6,10.08-11.43,22.82-17.21,38-17.14,24.05.11,41.84,17,47.24,36.34a65,65,0,0,1,1.82,14c.3,5.63.13,11.3,0,17,0,1.94.61,2.5,2.57,2.62,3,.19,6.25.29,8.94,1.47,5.57,2.44,8.45,7.19,8.48,13.28.1,19.94.14,39.89,0,59.83-.07,8.81-6.47,14.76-15.4,14.78Q127.56,173.58,100.39,173.53Zm0-9.65q26.66,0,53.32,0c5.08,0,7-1.84,7-6.89q.08-28.29,0-56.57c0-4.65-2.12-6.65-6.79-6.65q-53.31,0-106.63,0c-4.89,0-6.7,1.88-6.7,6.82q0,27.9,0,55.81c0,6,1.44,7.48,7.51,7.48Zm.24-79.79q18.69,0,37.38,0c1.54,0,2.8,0,2.73-2.14-.27-8-.23-15.93-.79-23.86a28.9,28.9,0,0,0-2.64-9.78c-5-10.81-13-18.46-24.37-22.33A40.74,40.74,0,0,0,92,24.92a36.36,36.36,0,0,0-18.1,9.34C66.4,41.22,61.5,49.57,61,60c-.37,7.12-.18,14.27-.39,21.4-.06,2.24.75,2.79,2.89,2.77C75.84,84.05,88.21,84.09,100.59,84.09Z"/><path d="M106.32,128.84c0,3.73.2,7.47-.07,11.18a5.52,5.52,0,0,1-4.8,4.7,5.69,5.69,0,0,1-6.19-3.18,11.43,11.43,0,0,1-.87-4.34c-.1-5.48-.16-11,0-16.44a12.25,12.25,0,0,1,1.43-5.38,5,5,0,0,1,5.82-2.34c2.44.56,4.41,2,4.59,4.61C106.5,121.37,106.31,125.11,106.32,128.84Z"/></svg>