<?xml version="1.0" encoding="utf-8"?>
<!-- Generator: Adobe Illustrator 26.0.1, SVG Export Plug-In . SVG Version: 6.00 Build 0)  -->
<svg version="1.1" id="Layer_1" xmlns="http://www.w3.org/2000/svg" xmlns:xlink="http://www.w3.org/1999/xlink" x="0px" y="0px"
	 viewBox="0 0 201.1 187.8" style="enable-background:new 0 0 201.1 187.8;" xml:space="preserve">
<style type="text/css">
	.st0{fill:#1E50FF;}
</style>
<path class="st0" d="M100.4,173.5H47c-10.3,0-16.2-5.9-16.2-16.2c0-19.2,0-38.4,0-57.6c0-9.3,6.3-15.6,15.6-15.6
	c4.2,0,4.1,0,4.2-4.2c0.2-7.6,0.2-15.3,0.8-22.9c0.8-9.8,5.2-18.3,11.6-25.6c10.1-11.4,22.8-17.2,38-17.1
	c24.1,0.1,41.8,17,47.2,36.3c1.1,4.6,1.7,9.3,1.8,14c0.3,5.6,0.1,11.3,0,17c0,1.9,0.6,2.5,2.6,2.6c3,0.2,6.2,0.3,8.9,1.5
	c5.6,2.4,8.4,7.2,8.5,13.3c0.1,19.9,0.1,39.9,0,59.8c-0.1,8.8-6.5,14.8-15.4,14.8C136.6,173.6,118.5,173.6,100.4,173.5z
	 M100.4,163.9c17.8,0,35.5,0,53.3,0c5.1,0,7-1.8,7-6.9c0.1-18.9,0.1-37.7,0-56.6c0-4.7-2.1-6.7-6.8-6.7c-35.5,0-71.1,0-106.6,0
	c-4.9,0-6.7,1.9-6.7,6.8c0,18.6,0,37.2,0,55.8c0,6,1.4,7.5,7.5,7.5H100.4z M100.6,84.1c12.5,0,24.9,0,37.4,0c1.5,0,2.8,0,2.7-2.1
	c-0.3-8-0.2-15.9-0.8-23.9c-0.3-3.4-1.2-6.7-2.6-9.8c-5-10.8-13-18.5-24.4-22.3c-6.8-2.2-14-2.5-20.9-1.1
	c-6.8,1.3-13.1,4.6-18.1,9.3C66.4,41.2,61.5,49.6,61,60c-0.4,7.1-0.2,14.3-0.4,21.4c-0.1,2.2,0.8,2.8,2.9,2.8
	C75.8,84.1,88.2,84.1,100.6,84.1L100.6,84.1z"/>
<path class="st0" d="M106.3,128.8c0,3.7,0.2,7.5-0.1,11.2c-0.4,2.5-2.3,4.4-4.8,4.7c-2.5,0.5-5.1-0.8-6.2-3.2
	c-0.6-1.4-0.9-2.9-0.9-4.3c-0.1-5.5-0.2-11,0-16.4c0.1-1.9,0.5-3.7,1.4-5.4c1.1-2.1,3.6-3,5.8-2.3c2.4,0.6,4.4,2,4.6,4.6
	C106.5,121.4,106.3,125.1,106.3,128.8z"/>
</svg>
