<svg id="Layer_1" data-name="Layer 1" xmlns="http://www.w3.org/2000/svg" viewBox="0 0 201.07 187.78"><path d="M142.53,51.13c2-1.89,3.7-3.58,5.49-5.2,2.07-1.89,3.58-1.69,6,.66s2.76,4.2.93,6.23a27.28,27.28,0,0,1-3.75,3.62c-1.8,1.36-1.32,2.51-.12,3.89a60.43,60.43,0,0,1,10.17,16.72,70.7,70.7,0,0,1,4.81,35.07c-1.69,16.11-8.47,29.71-19.79,41-12.37,12.39-27.27,19.35-44.95,20.23-13,.66-25.59-1.22-37-7.69C44,154.15,31.07,137.16,28,113.48c-2.42-18.41,1.47-35.33,12.52-50.34C49.48,50.93,61,41.9,75.73,37.69A139,139,0,0,1,89.82,34.8c1.35-.23,1.92-.67,1.91-2q0-3.36,0-6.73c0-1.39-.67-1.9-2-1.9A37.94,37.94,0,0,1,84.5,24c-2.86-.4-3.84-2-3.67-5.45.14-2.79,1.38-4.21,4.16-4.24q12-.11,23.92,0c2.7,0,3.74,1.23,3.85,3.85.18,4.12-.49,5.42-3.38,5.8a42.45,42.45,0,0,1-6,.2c-1.47,0-2.17.59-2.14,2.06v.25c.06,2.31-.65,5.15.43,6.79.87,1.31,3.92,1.26,6,1.63,12.44,2.16,23.64,7,33.29,15.23A11.51,11.51,0,0,0,142.53,51.13Zm14.11,52.79c1.13-32.48-27-58.72-56.95-59.93-35.09-1.41-63,27.09-62.86,60.06.09,33.39,27.57,58.94,58,60C129.91,165.18,158,135.45,156.64,103.92Z"/><path d="M92.12,94c0-8.31,0-16.62,0-24.93,0-4.41,4.06-6.65,7.93-4.33a4.87,4.87,0,0,1,1.54,2.38,6.32,6.32,0,0,1,.15,2.23q0,24.67,0,49.36c0,4.07-.94,5.08-4.62,5.2s-5-.91-5-4.73C92.08,110.8,92.12,102.4,92.12,94Z"/></svg>