<?xml version="1.0" encoding="utf-8"?>
<!-- Generator: Adobe Illustrator 26.0.1, SVG Export Plug-In . SVG Version: 6.00 Build 0)  -->
<svg version="1.1" id="Layer_1" xmlns="http://www.w3.org/2000/svg" xmlns:xlink="http://www.w3.org/1999/xlink" x="0px" y="0px"
	 viewBox="0 0 201.1 187.8" style="enable-background:new 0 0 201.1 187.8;" xml:space="preserve">
<style type="text/css">
	.st0{fill:#1E50FF;}
</style>
<path class="st0" d="M142.5,51.1c2-1.9,3.7-3.6,5.5-5.2c2.1-1.9,3.6-1.7,6,0.7s2.8,4.2,0.9,6.2c-1.1,1.3-2.4,2.5-3.8,3.6
	c-1.8,1.4-1.3,2.5-0.1,3.9c4.3,5,7.7,10.6,10.2,16.7c4.6,11.1,6.2,23.2,4.8,35.1c-1.7,16.1-8.5,29.7-19.8,41
	c-12.4,12.4-27.3,19.4-44.9,20.2c-13,0.7-25.6-1.2-37-7.7C44,154.1,31.1,137.2,28,113.5c-2.4-18.4,1.5-35.3,12.5-50.3
	c9-12.2,20.5-21.2,35.2-25.5c4.6-1.2,9.3-2.2,14.1-2.9c1.3-0.2,1.9-0.7,1.9-2c0-2.2,0-4.5,0-6.7c0-1.4-0.7-1.9-2-1.9
	c-1.7,0.1-3.5,0-5.2-0.2c-2.9-0.4-3.8-2-3.7-5.5c0.1-2.8,1.4-4.2,4.2-4.2c8-0.1,16-0.1,23.9,0c2.7,0,3.7,1.2,3.8,3.9
	c0.2,4.1-0.5,5.4-3.4,5.8c-2,0.2-4,0.3-6,0.2c-1.5,0-2.2,0.6-2.1,2.1v0.2c0.1,2.3-0.7,5.1,0.4,6.8c0.9,1.3,3.9,1.3,6,1.6
	c12.4,2.2,23.6,7,33.3,15.2C141.5,50.5,142,50.8,142.5,51.1z M156.6,103.9c1.1-32.5-27-58.7-56.9-59.9c-35.1-1.4-63,27.1-62.9,60.1
	c0.1,33.4,27.6,58.9,58,60C129.9,165.2,158,135.4,156.6,103.9z"/>
<path class="st0" d="M92.1,94c0-8.3,0-16.6,0-24.9c0-4.4,4.1-6.7,7.9-4.3c0.7,0.6,1.3,1.5,1.5,2.4c0.2,0.7,0.2,1.5,0.2,2.2
	c0,16.4,0,32.9,0,49.4c0,4.1-0.9,5.1-4.6,5.2s-5-0.9-5-4.7C92.1,110.8,92.1,102.4,92.1,94z"/>
</svg>
