<svg id="Layer_1" data-name="Layer 1" xmlns="http://www.w3.org/2000/svg" viewBox="0 0 201.07 187.78"><path d="M75.86,56.07C71.28,48.26,66.74,40.64,62.32,33a9.44,9.44,0,0,1,1-11.34A9.39,9.39,0,0,1,71,18.2c19.7-.05,39.39-.12,59.08,0a9.86,9.86,0,0,1,8.83,14.85c-3.85,7.07-8.28,13.83-12.46,20.72-.42.7-.83,1.41-1.39,2.37,1.44,1.08,2.78,2.17,4.2,3.13a137.14,137.14,0,0,1,31,28.63c7.63,9.63,12.6,20.75,16.2,32.39,3.11,10.05,4.57,20.45,3.15,31-1.33,9.91-7.25,16.73-15.41,21.79-5.72,3.56-12.14,4.79-18.81,4.8q-45,0-90,0c-11.33,0-20.82-4.09-28.13-13-4.84-5.9-6.64-12.75-6.45-20.2A95.57,95.57,0,0,1,32.5,100.32,110.93,110.93,0,0,1,60,68.06c4.56-3.73,9.44-7.06,14.16-10.58C74.71,57,75.26,56.56,75.86,56.07Zm24.46,112.09v.09c14.37,0,28.75.07,43.12-.05A40.09,40.09,0,0,0,153.77,167c9-2.53,17.34-10.5,16.7-22a99.2,99.2,0,0,0-3.63-22.81,89.65,89.65,0,0,0-22.13-37.91,133.55,133.55,0,0,0-25.88-20.55,4.77,4.77,0,0,0-2.3-.71q-16.08-.06-32.15,0a4.18,4.18,0,0,0-2.08.63A130.52,130.52,0,0,0,55.37,85.3a89,89,0,0,0-19.2,30.89A100.49,100.49,0,0,0,30.6,142.4c-.37,4.52-.21,9.1,2.1,13.13,4.63,8.05,11.8,12.41,21,12.56C69.24,168.35,84.78,168.16,100.32,168.16ZM71,28.29a15.25,15.25,0,0,0,.85,2.12c4.26,7,8.57,14,12.81,21.07a3.78,3.78,0,0,0,3.71,1.91c8.05-.06,16.11-.08,24.16,0a4.11,4.11,0,0,0,4-2.25c4.1-6.83,8.3-13.61,12.44-20.42a26.15,26.15,0,0,0,1.07-2.44Z"/><path d="M100.55,83.18c4.84,0,5.29.36,5.22,5.25,0,2.12.54,3,2.79,3.44a27.08,27.08,0,0,1,7.29,3c1.91,1,2,2.74.53,4.33-.56.62-1.25,1.13-1.75,1.79-1.88,2.46-3.81,2.4-6.87,1.61-4.13-1.06-8.67-.79-13-.56-2.15.12-3.21,2.23-3.31,4.41a4,4,0,0,0,3.13,4.27c4.66,1.46,9.31,3,14,4.33,8.46,2.46,12,9.33,11.65,15.93a14.48,14.48,0,0,1-11.84,13.52c-2,.31-2.81,1.07-2.59,3.06a14.05,14.05,0,0,1-.07,2.24c-.12,2.33-1.25,3.52-3.67,3.26a6.26,6.26,0,0,0-.75,0c-5.79,0-5.84,0-6-5.9,0-1.78-.81-2.39-2.43-2.83a44.53,44.53,0,0,1-7.18-2.58c-2.46-1.14-2.7-3-.81-4.93a23.64,23.64,0,0,1,3.71-3.31,3.42,3.42,0,0,1,2.86-.32c4.61,2.23,9.46,1.44,14.21,1.22,2.13-.1,3.56-1.68,3.78-4s-.66-4.1-3-4.85q-7-2.25-14-4.36c-4.67-1.41-8.29-4-10.38-8.59A14.83,14.83,0,0,1,91.78,92c1.82-.47,3.34-.71,3.2-3.37C94.74,83.68,95.45,83.18,100.55,83.18Z"/></svg>