<?xml version="1.0" encoding="utf-8"?>
<!-- Generator: Adobe Illustrator 26.0.1, SVG Export Plug-In . SVG Version: 6.00 Build 0)  -->
<svg version="1.1" id="Layer_1" xmlns="http://www.w3.org/2000/svg" xmlns:xlink="http://www.w3.org/1999/xlink" x="0px" y="0px"
	 viewBox="0 0 201.1 187.8" style="enable-background:new 0 0 201.1 187.8;" xml:space="preserve">
<style type="text/css">
	.st0{fill:#1E50FF;}
</style>
<path class="st0" d="M75.9,56.1c-4.6-7.8-9.1-15.4-13.5-23.1c-2.2-3.6-1.8-8.2,1-11.3c1.9-2.3,4.7-3.6,7.7-3.5
	c19.7,0,39.4-0.1,59.1,0c5.4-0.2,10,4.1,10.2,9.5c0.1,1.9-0.4,3.7-1.4,5.3c-3.9,7.1-8.3,13.8-12.5,20.7c-0.4,0.7-0.8,1.4-1.4,2.4
	c1.4,1.1,2.8,2.2,4.2,3.1c11.7,7.9,22.2,17.5,31,28.6c7.6,9.6,12.6,20.8,16.2,32.4c3.1,10,4.6,20.5,3.1,31
	c-1.3,9.9-7.2,16.7-15.4,21.8c-5.7,3.6-12.1,4.8-18.8,4.8c-30,0-60,0-90,0c-11.3,0-20.8-4.1-28.1-13c-4.8-5.9-6.6-12.8-6.4-20.2
	c0.2-15.5,4.2-30.7,11.7-44.4c7-12.4,16.3-23.4,27.5-32.3c4.6-3.7,9.4-7.1,14.2-10.6C74.7,57,75.3,56.6,75.9,56.1z M100.3,168.2
	L100.3,168.2c14.4,0.1,28.8,0.2,43.1,0c3.5,0.1,7-0.4,10.3-1.2c9-2.5,17.3-10.5,16.7-22c-0.3-7.7-1.5-15.4-3.6-22.8
	c-4.1-14.3-11.7-27.3-22.1-37.9c-7.7-7.9-16.4-14.8-25.9-20.5c-0.7-0.4-1.5-0.7-2.3-0.7c-10.7,0-21.4,0-32.2,0
	c-0.7,0-1.5,0.2-2.1,0.6c-9.9,6-19,13.3-26.9,21.7c-8.5,8.9-15,19.4-19.2,30.9c-3,8.4-4.9,17.3-5.6,26.2c-0.4,4.5-0.2,9.1,2.1,13.1
	c4.6,8.1,11.8,12.4,21,12.6C69.2,168.4,84.8,168.2,100.3,168.2z M71,28.3c0.2,0.7,0.5,1.4,0.8,2.1c4.3,7,8.6,14,12.8,21.1
	c0.7,1.3,2.2,2.1,3.7,1.9c8.1-0.1,16.1-0.1,24.2,0c1.7,0.1,3.2-0.8,4-2.2c4.1-6.8,8.3-13.6,12.4-20.4c0.4-0.8,0.8-1.6,1.1-2.4
	L71,28.3z"/>
<path class="st0" d="M100.6,83.2c4.8,0,5.3,0.4,5.2,5.2c0,2.1,0.5,3,2.8,3.4c2.6,0.6,5,1.6,7.3,3c1.9,1,2,2.7,0.5,4.3
	c-0.6,0.6-1.2,1.1-1.8,1.8c-1.9,2.5-3.8,2.4-6.9,1.6c-4.1-1.1-8.7-0.8-13-0.6c-2.2,0.1-3.2,2.2-3.3,4.4c-0.2,2,1.2,3.8,3.1,4.3
	c4.7,1.5,9.3,3,14,4.3c8.5,2.5,12,9.3,11.7,15.9c-0.3,6.7-5.2,12.3-11.8,13.5c-2,0.3-2.8,1.1-2.6,3.1c0,0.7,0,1.5-0.1,2.2
	c-0.1,2.3-1.2,3.5-3.7,3.3c-0.2,0-0.5,0-0.8,0c-5.8,0-5.8,0-6-5.9c0-1.8-0.8-2.4-2.4-2.8c-2.5-0.7-4.9-1.5-7.2-2.6
	c-2.5-1.1-2.7-3-0.8-4.9c1.1-1.2,2.4-2.3,3.7-3.3c0.9-0.5,1.9-0.6,2.9-0.3c4.6,2.2,9.5,1.4,14.2,1.2c2.1-0.1,3.6-1.7,3.8-4
	s-0.7-4.1-3-4.8c-4.7-1.5-9.3-3-14-4.4c-4.7-1.4-8.3-4-10.4-8.6c-3.5-7.4-0.2-16.2,7.2-19.7c0.8-0.4,1.7-0.7,2.5-0.9
	c1.8-0.5,3.3-0.7,3.2-3.4C94.7,83.7,95.4,83.2,100.6,83.2z"/>
</svg>
