<?xml version="1.0" encoding="utf-8"?>
<!-- Generator: Adobe Illustrator 25.4.1, SVG Export Plug-In . SVG Version: 6.00 Build 0)  -->
<svg version="1.1" id="Layer_1" xmlns="http://www.w3.org/2000/svg" xmlns:xlink="http://www.w3.org/1999/xlink" x="0px" y="0px"
	 viewBox="0 0 1024 710" style="enable-background:new 0 0 1024 710;" xml:space="preserve">
<style type="text/css">
	.st0{fill:none;stroke:#92E5B6;stroke-width:2;}
	.st1{fill:none;stroke:#7C7B54;stroke-width:2;}
	.st2{fill:none;stroke:#166B62;stroke-width:2;}
	.st3{fill:none;stroke:#78E2D8;stroke-width:2;}
	.st4{fill:none;stroke:#627876;stroke-width:2;}
	.st5{fill:none;stroke:#E2F7F5;stroke-width:2;}
	.st6{fill:none;stroke:#808080;stroke-width:2;}
	.st7{fill:none;stroke:#96EAE2;stroke-width:2;}
	.st8{fill:none;stroke:#5FBAD4;stroke-width:2;}
	.st9{fill:none;stroke:#C9CFF2;stroke-width:2;}
	.st10{fill:#F7F5A8;}
	.st11{fill:#2CD5C4;}
	.st12{fill:#C4EFEB;}
	.st13{fill:#FFFFFF;}
	.st14{fill:#929FE4;}
</style>
<g>
	<path vector-effect="non-scaling-stroke" class="st0" d="M808,661.8c0.1-0.9,0.2-1.8,0.3-2.7c0.2-1,0.3-1.9,0.4-2.9
		c0.7-8.4,1.5-16.7,2.3-25.2c1.3-12.8,1.6-27.2,0.9-43.2c-1.1-26.6-3.8-49.6-7.8-80.1c-2-15.2-5.2-31.1-8.4-45.7
		c-2-9.2-4.4-18.3-7.1-27.4c-1.9-6.4-3.8-12.9-5.5-19.3c-2.1-7.5-4.2-14-6.4-19.3c-3.1-7.7-6.4-15.4-9.9-23.1
		c-6.4-14.3-14-27.9-22.9-40.8c-6.4-9.3-15.3-17.4-25.1-22.8c-0.8-0.5-1.8-0.7-2.7-0.7c-20.1-0.6-39.9-0.5-59.8-1
		c-13.7-0.3-30.1-0.6-49.2-0.9c-96-1.3-191.3-2.6-285.9-4.1c-2.3,0-4.7,0.5-7.1,1.5c-6,2.6-11.7,5.9-17.2,9.7
		c-12.8,9.1-25.7,17.9-36.5,28.4c-9.1,8.8-18.1,17.7-26.7,26.6c-11.4,11.7-21.5,24.6-30.5,38.8c-8.3,13.1-15.3,24.4-20.8,33.9
		c-2,3.4-5.8,10.8-11.3,22.1c-2,4.1-4,8.5-6,13.1c-3.9,9.3-8.1,18.4-11.8,28.1c-2.6,6.6-4.3,11.8-5.2,15.4
		c-2.8,11.1-5.7,22.6-7.5,33.4c-2.7,16.7-4.4,29.3-5.2,38c-0.8,9.6-0.7,21.5,0.3,35.7"/>
	<path vector-effect="non-scaling-stroke" class="st1" d="M135.5,627.2c-0.9,0.6-1.4,1.5-1.6,2.8c-0.2,1.2,0.4,2,1.7,2.3"/>
	<path vector-effect="non-scaling-stroke" class="st0" d="M135.6,632.3l0.9,5.4"/>
	<path vector-effect="non-scaling-stroke" class="st2" d="M760.2,675c1.4-6,2.2-12.9,2.5-20.7c0.3-11.1,0.3-20-0.1-26.8
		c-0.9-15.5-3.7-30.5-8.3-45.2c-4-13-11.5-28.3-22.7-35.9c-9.2-6.2-20.8-3.6-28.1,4.1c-11.6,12.1-18.1,29.9-21.6,46.2
		c-5.2,24.7-6.1,50.3-2.6,76.6c0.1,0.7-0.2,1.1-0.9,1l-30.3-0.7"/>
	<path vector-effect="non-scaling-stroke" class="st2" d="M557.3,672c0.3-1.2,0.6-2.6,1.1-4c0.4-1.3,0.7-2.7,0.9-4
		c1.3-7.1,2.5-14.1,3.7-21.1c0.1-0.5,0.5-0.9,1-0.9c17.6,0,35-0.3,52.3-0.9c8.8-0.3,17.3-1,26.2-1.7c3.8-0.3,7.3-0.3,10.5,0
		c5.7,0.5,11.6,0.3,17.5-0.6c0.1,0,0.2,0,0.3-0.1c1.7-0.5,2.5-1.4,2.4-2.5c-0.1-0.9-0.6-1.3-1.5-1.3c-35.3,0.8-73,0.2-106.3,1.4
		c-0.6,0-0.9-0.3-0.8-0.9c2.3-17.8,4.5-35.6,5.1-53.5c0.5-15.6,0.7-27.3,0.6-34.9c-0.2-12.8-0.2-22.7,0.1-29.8
		c0.4-9,0.4-18,0.8-27.1c0.3-6.8,0.2-13.4-0.2-19.9c-0.9-13.5-1.1-26.5-2.7-40c-1.6-13.8-2.6-27.5-4.3-41.8
		c-0.9-7.5-1.9-15.2-3.1-23c-1.2-8.1-3.4-18.9-6.8-32.7c-0.1-0.3-0.4-0.5-0.7-0.4c0,0,0,0,0,0l-0.4,0.1c-0.5,0.1-0.8,0.7-0.8,1.2
		c2.8,17.2,4.7,30.7,6.4,49.8c0.6,7,1.1,13.6,1.5,19.9c0.9,15.6,2.7,32.4,3.5,48c0.4,8.6,0.8,17.4,1.2,26.4c0.2,6.1,0,12.6,0,19
		c0,4.8,0,9.5-0.2,14.2c-0.3,10.8-0.4,21.3-0.3,31.7c0.2,31.2-1.3,61.8-5.8,93.4c-0.1,0.4-0.4,0.8-0.9,0.8
		c-18.1,0-36.3,0.5-54.3,1.5c-1.1,0.1-1.7,0.7-1.7,1.8l0,0.8c0,0.6,0.5,1.1,1.1,1.1c0,0,0,0,0,0l54.5,0.1c0.3,0,0.5,0.2,0.5,0.5
		c0,0,0,0.1,0,0.1c-1.2,7.3-2.3,14.7-3.3,22.1c-0.4,2.8-1.2,5.2-2.3,7.4"/>
	<path vector-effect="non-scaling-stroke" class="st2" d="M494.6,670.6c-0.5-0.2-0.5-0.8,0-1.9c0.3-0.7,0.6-1.5,0.7-2.4
		c2.3-15.5,3.1-31.6,2.3-48.2c-1.1-25.6-6.6-52.8-20.5-74.3c-10.1-15.6-27-23.2-42.1-8.1c-3.9,3.9-7,7.9-9.3,12
		c-6.3,11.3-11.1,24.8-13.8,37.6c-5.7,27.5-5.7,55.3-1.4,83.4c0,0.2-0.1,0.4-0.3,0.4c0,0,0,0-0.1,0l-28.6-0.7"/>
	<path vector-effect="non-scaling-stroke" class="st2" d="M335.4,667.9c0-2.5,0.1-4.9,0.1-7.4c0.2-8.2,0-16.1-0.6-23.6
		c0-0.3,0.1-0.5,0.5-0.6c7.9-0.6,15.6-0.9,23.2-0.8c13.1,0,26.8-0.9,40.3,0.5c0.3,0,0.6-0.2,0.7-0.5c0-0.2,0-0.3-0.1-0.4
		c-0.1-0.2-0.3-0.3-0.5-0.5c-0.3-0.2-0.6-0.3-0.9-0.4c-15-2.5-30.9-2.1-46.5-3.1c-2.6-0.1-6.4-0.1-11.6,0.2
		c-9.8,0.6-19.7-0.9-29.5-1.1c-10.1-0.2-19.4-0.5-27.9-0.8c-11.5-0.4-23.3,0.4-34.7-0.3c-8.8-0.6-17.1-0.8-25-0.7
		c-11.5,0.2-22.9-1.1-34.6-1.1c-17.6-0.1-35.2-0.1-52.8-0.2"/>
	<path vector-effect="non-scaling-stroke" class="st2" d="M467.5,333.7c-1,0.8-1.9,1.6-2.7,2.4c-5.2,5.1-10.6,10.2-16.1,15.3
		c-11.5,10.6-20.9,22.9-30.1,35.5c-6.6,8.9-11.9,18.5-17.8,27.6c-3.5,5.5-5.8,11.3-8.9,16.9c-4.4,7.9-7.7,16-11.5,24.2
		c-1.6,3.5-3.1,7.2-4.5,11.1c-3.8,11.1-7.2,22.4-10.1,33.8c-1.8,7.1-3.2,14.5-4.1,22.4c-0.1,1.1,0.3,1.8,1.4,2.1
		c0.1,0,0.2,0.1,0.4,0.1c0.7,0.2,1.4-0.2,1.5-0.9c0,0,0-0.1,0-0.1c3.3-17.7,7.8-35,13.8-52c2.3-6.5,4.8-12.8,7.6-18.7
		c6.8-14.6,12.5-25.8,17-33.6c6.8-11.8,12.4-20.9,16.9-27.3c3.7-5.3,7.4-10.7,11.2-16c3-4.3,6.7-8.2,9.9-12.5
		c2.1-2.9,4.5-5.5,7.1-8.1c4-3.8,7.9-7.9,11.7-12.2c3.1-3.6,6.5-6.7,10-9.9c1.7-1.5,1.4-2-0.7-1.3C469,332.6,468.4,333,467.5,333.7"
		/>
	<path vector-effect="non-scaling-stroke" class="st2" d="M186.6,465.3c-2.2,1.7-3.7,5-4.4,9.8c-0.1,0.6,0.2,0.9,0.8,1
		c8.5,0.3,17.6,0.7,27.3,1.1c19.4,0.9,42.9,1.4,70.5,1.6c17.4,0.1,34.4,1.2,52.3,2.6c6.7,0.5,13.4,0.2,20.3-1
		c0.6-0.1,1.1-0.6,1.2-1.2l2.2-9.7"/>
	<path vector-effect="non-scaling-stroke" class="st3" d="M356.8,469.5c2.3-8.7,4.6-15.3,6.7-19.7c2.6-5.5,5.1-11.8,7.5-16.6
		c8.1-16.2,17.9-31.7,29.5-46.4c2.7-3.5,5.9-6.5,8.8-10c2.1-2.6,4.4-5,6.7-7.3c7.9-7.7,15.1-16.2,23.4-23.6c1.8-1.6,1.5-2.3-0.9-2.2
		c-1.9,0.1-3.7,0.1-5.5,0c-46.6-2.6-93.3-5.2-140.1-7.8c-1.2-0.1-2.4,0.3-3.4,1.1c-12.2,9.8-24.7,19.8-35.9,31
		c-5.3,5.3-10.3,10.6-15.2,16c-1.3,1.5-2.7,3-4,4.4c-14.3,15.8-26.9,33.9-37.7,54.1c-1.3,2.4-2.6,5.2-3.9,8.4
		c-1.1,2.7-2.3,5.6-3.6,8.5c-0.8,1.9-1.7,3.9-2.6,6"/>
	<path vector-effect="non-scaling-stroke" class="st4" d="M356.8,469.5l-7.4-0.7"/>
	<path vector-effect="non-scaling-stroke" class="st5" d="M349.4,468.7c-0.8-4.1-1.3-8.7-1.7-13.7c-0.4-6.9-2.4-13.6-5.8-20.2
		c-1.6-3.1-4.5-7.4-8.6-6.8c-6.7,1.1-13.7,2.1-20,4.8c-6.2,2.7-11.9,6-17.1,10.1c-4.2,3.2-8.7,7.4-13.6,12.5
		c-0.7,0.7-0.9,1.4-1.4,2.3c-0.3,0.6-0.7,1.1-1.2,1.6c-2,2-3.8,4.2-5.5,6.6"/>
	<path vector-effect="non-scaling-stroke" class="st4" d="M274.5,465.9h-5"/>
	<path vector-effect="non-scaling-stroke" class="st5" d="M269.5,465.9c0.3-0.1,0.4-0.1,0.5-0.1c0.3-0.1,0.6-0.4,0.5-0.7
		c0,0,0-0.1,0-0.1c-0.7-2.2-1.5-4.6-1.4-7c0.4-9.4-1.1-20.3-4.4-32.6c-0.7-2.7-2.3-5.7-5.5-5.6c-17.2,0.5-32,6-44.5,16.5
		c-5.7,4.8-9.9,8.8-12.5,12c-2.1,2.5-4.3,5-6.6,7.4c-0.2,0.2-0.4,0.5-0.6,0.9c-0.2,0.5-0.4,1-0.5,1.5c-0.2,0.7-0.1,1,0.2,0.9"/>
	<path vector-effect="non-scaling-stroke" class="st4" d="M194.8,459c-1.1,0.5-1.8,1.1-2.1,1.8c-0.1,0.4,0,0.5,0.4,0.5l28.9-4.9
		c0.3-0.1,0.6,0.1,0.8,0.4c1.6,2.8,3.7,5.5,6,8.2c0.1,0.1,0.1,0.3,0,0.4c0,0-0.1,0.1-0.2,0.1l-42.1,0"/>
	<path vector-effect="non-scaling-stroke" class="st6" d="M349.4,468.7l-23.1-1.4c-0.4,0-0.8-0.3-1-0.6c-2-3.6-4.3-6.9-7-10
		c-0.3-0.4-0.3-0.7,0.2-0.9c0.8-0.3,1.6-0.5,2.5-0.5c4.8-0.5,9.6-1,14.5-1.5c1.3-0.1,2.7-0.5,4-1c0.5-0.2,0.7-0.5,0.7-1.1l-0.1-2.7
		c0-0.6-0.5-1.1-1.1-1.1c-0.1,0-0.2,0-0.3,0c-3.1,0.9-6.2,1.6-9.3,2.1c-11.3,1.8-22.4,4.2-34,6.6c-3.5,0.7-7.9,1.3-13.1,1.7
		c-0.4,0-0.6,0.2-0.6,0.6l0,0.4c0,0.6,0.4,0.9,1,0.9c3.6,0,5.9-0.1,7-0.3c7.3-1.2,14-2.2,19.9-3.2c0.5-0.1,1,0.1,1.2,0.6l5.4,8.8
		c0.2,0.4,0.1,0.6-0.3,0.6l-41.5-0.9"/>
	<path vector-effect="non-scaling-stroke" class="st6" d="M269.5,465.9l-32.2,0.2c-0.8,0-1.6-0.4-2.1-1.1l-6.8-9
		c-0.2-0.2-0.1-0.5,0.1-0.7c0.1,0,0.1-0.1,0.2-0.1l14.6-2.6c0.7-0.1,0.9-0.5,0.8-1.2l-0.3-1.8c-0.1-0.6-0.6-0.9-1.1-0.9
		c0,0,0,0-0.1,0L194.8,459"/>
	<path vector-effect="non-scaling-stroke" class="st2" d="M418.8,471.7c0.1,0,0.2,0.1,0.4,0.2c0.2,0.2,0.4,0.2,0.7,0.2l106.4,0.4"/>
	<path vector-effect="non-scaling-stroke" class="st7" d="M526.3,472.5l24.2-0.1c0.7,0,1.3-0.6,1.3-1.3c0.2-7.4,0.2-14.6-0.2-21.7
		c-0.4-7.1-0.6-14.7-0.8-22.8c-0.2-7.3-1-14.6-1.1-22c-0.1-6.3-0.5-12-1.3-17c-1.9-13.3-4.2-26.6-6.9-40c-0.1-0.5-0.5-0.9-1.1-0.9
		c-4,0-7.9-0.1-11.7-0.2c-13.4-0.5-28.3-1-44.7-1.5c-3.3-0.1-6.9-1-9.6,1.5c-3.4,3.1-6.6,6.3-10.3,9.3c-3.6,2.9-6.7,6-9.5,9.1
		c-7.5,8.5-15,17.8-22.5,28c-3.7,5-7.2,10.5-10.5,16.5c-6.6,11.9-10.7,19.7-12.3,23.3c-5,11.5-9.4,24.1-13.2,37.7
		c-0.1,0.5,0.2,1.1,0.7,1.2c0.1,0,0.2,0,0.3,0l21.8,0"/>
	<path vector-effect="non-scaling-stroke" class="st6" d="M526.3,472.5c-0.6-6.1-1.3-10.5-2.2-13.3c-1-2.8-3-6.7-6.2-11.6
		c-2.6-4-6.9-6.9-11.2-8.9c-0.4-0.2-0.7-0.1-1.1,0.1c-7.4,4.9-25.9,18.4-30.1,2.2c0-0.2-0.2-0.3-0.4-0.3c-0.1,0-0.1,0-0.1,0.1
		c-4.4,3.5-8.9,7-13.4,10.4c-4.4,3.3-8.4,2.6-13.4,2.2c-12.3-1-22.2,8.5-29.4,18.2"/>
	<path vector-effect="non-scaling-stroke" class="st2" d="M597.7,471.8c0.1,0.4,0.3,0.5,0.5,0.5c13.1-0.3,26.2-0.3,39.2-0.1
		c0.7,0,1-0.3,1-0.9"/>
	<path vector-effect="non-scaling-stroke" class="st7" d="M638.5,471.3c0.8,0.5,1.7,0.8,2.5,0.8c8.6,0,17.2,0,25.8,0.1
		c0.9,0,1.4-0.3,1.3-0.8"/>
	<path vector-effect="non-scaling-stroke" class="st2" d="M668,471.3l0.6,0.5c0.3,0.2,0.5,0.3,0.9,0.3l16.6,0"/>
	<path vector-effect="non-scaling-stroke" class="st7" d="M686.2,472.1l7.4-0.2"/>
	<path vector-effect="non-scaling-stroke" class="st2" d="M693.6,472c16.1,0.3,30,0.3,41.8,0.1c0.3,0,0.7-0.3,1-0.9"/>
	<path vector-effect="non-scaling-stroke" class="st7" d="M736.4,471.2c0.4,0.5,0.8,0.8,1.1,0.8c8.7-0.2,17.3-0.2,25.7,0.1
		c0.4,0,0.7-0.3,0.7-0.7c0,0,0,0,0,0c0-0.8,0-1.6-0.1-2.3c-0.9-6-2-12.3-3.3-18.8c-1.3-6.3-3.3-13.5-6-21.3
		c-6.7-19.5-14.1-37.6-22.1-54.5c-4.6-9.6-9.4-17.9-15.2-26.5c-0.6-0.9-1.7-1.3-3.1-1.3c-29.4,0.7-55,1.4-76.6,2
		c-13.5,0.4-26.6,0.7-39.2,0.9c-8.2,0.1-16.7,0.9-25,0.6c-0.3,0-0.5,0.2-0.5,0.4c0,0,0,0.1,0,0.1c2.5,10.5,4.5,21,5.9,31.8
		c1.6,11.9,3.2,23.7,4.8,35.4c2.5,17.6,3.4,35.5,2.9,53.2c0,0.6,0.4,1,1,1c0,0,0.1,0,0.1,0l10.2-0.5"/>
	<path vector-effect="non-scaling-stroke" class="st6" d="M736.4,471.2c-1.5-3-3.6-5.7-6.3-8.1c-0.4-0.4-0.8-0.4-1.3-0.1
		c-0.9,0.5-1.8,1.1-2.8,1.8c-4.6,3.3-9.6,4.1-14.8,2.5c-2.2-0.7-3.6-2.5-5-4.2c-0.3-0.4-0.9-0.5-1.3-0.2c-3.8,2.3-7.5,5.3-11.2,9.1"
		/>
	<path vector-effect="non-scaling-stroke" class="st6" d="M686.2,472.1c-1-0.6-2-1.6-3-3.1c-3.4-4.9-6.3-10.1-8.7-15.6
		c-0.1-0.2,0-0.5,0.2-0.6c0,0,0.1,0,0.1,0c0.6-0.1,1.2-0.1,1.9,0.2c1.5,0.7,3,1.2,4.6,1.4c2.4,0.3,4.4-1.2,6.6-2
		c0.3-0.1,0.6-0.4,0.7-0.8c0.2-1,0.1-1.8-0.5-2.6c-0.2-0.3-0.5-0.5-0.8-0.6l-2.4-0.9c-0.5-0.2-0.6-0.5-0.5-0.9
		c0.9-2.9,1.9-5.8,2.8-8.7c1.1-3.3,0.9-5.6-2.6-7.1c-0.4-0.2-0.9-0.1-1.2,0.2c-3.3,3-5.6,7.3-10.6,7.6c-0.3,0-0.7-0.1-0.9-0.3
		c-2.4-2.1-3.5-4.2-7.2-2.2c-3.8,2-6.6,2.8-6.8,7.9c0,0.4-0.2,0.6-0.5,0.9c-3.7,2.6-8,6.6-8.4,11.4c-0.3,3,2.5,3.6,4.9,2.9
		c2.7-0.8,5.3-1.7,7.8-2.6c0.3-0.1,0.5,0,0.6,0.3c0.9,5.2,2.8,10,5.7,14.5"/>
	<path vector-effect="non-scaling-stroke" class="st6" d="M638.5,471.3c-1-4.1-3.2-7.6-6.5-10.4c-0.3-0.2-0.7-0.2-0.9-0.1
		c-4.2,2.9-8.8,5.4-14,5.2c-3-0.1-3.7-2.6-4.5-4.9c-0.2-0.6-0.9-1-1.6-0.8c-0.1,0-0.1,0.1-0.2,0.1c-4.9,2.9-9.3,6.7-13.1,11.3"/>
	<path vector-effect="non-scaling-stroke" class="st2" d="M715.8,535.8l2.2-0.1c0.4,0,0.7-0.3,0.6-0.7c0,0,0,0,0,0v-0.1
		c-0.8-31.2-2.1-56.5-2.9-56.5l-0.7,0c-0.8,0-0.7,25.3,0.1,56.5c0,0,0,0,0,0v0.1C715.2,535.5,715.5,535.8,715.8,535.8
		C715.8,535.8,715.8,535.8,715.8,535.8"/>
	<path vector-effect="non-scaling-stroke" class="st2" d="M547.7,512.5c0,0.3-0.3,0.6-0.7,0.6l-15.2,0.5c-0.8,0-1.4-0.6-1.4-1.3
		l-0.3-5.4c0-0.4-0.3-0.7-0.7-0.7l-1.6-0.2c-0.6-0.1-0.9,0.2-0.9,0.8c-0.3,3.4-0.3,6.6,0.1,9.8c0.1,0.7,0.6,1.2,1.3,1.3
		c6.5,0.6,13.5,0.5,20.9-0.3c2.3-0.2,2.6-2.3,2.2-4.2c-0.4-2.1-0.6-4-0.6-5.8c0-0.5-0.4-0.9-0.9-0.9l-0.3,0c-0.9,0-1.4,0.4-1.5,1.3
		L547.7,512.5"/>
	<path vector-effect="non-scaling-stroke" class="st2" d="M582.2,514.7c-0.3,0-0.5-0.2-0.5-0.5l-0.4-7c0-0.3-0.2-0.5-0.5-0.5
		l-2.6-0.1c-0.3,0-0.6,0.2-0.6,0.5c0,0,0,0,0,0l0.5,10.8c0,0.3,0.3,0.5,0.6,0.5l25.9-0.6c0.3,0,0.5-0.2,0.5-0.5l1.5-10.4
		c0-0.3-0.2-0.6-0.5-0.6c-0.1,0-0.1,0-0.2,0l-1.7,0.4c-0.2,0-0.4,0.2-0.4,0.4l-1.5,7.1c-0.1,0.3-0.3,0.4-0.5,0.4L582.2,514.7"/>
	<path vector-effect="non-scaling-stroke" class="st2" d="M309.6,559.8c9.2,0.5,18.1,0.9,26.9,1.3c3.2,0.1,3.6-3.6,3.9-5.9
		c0.6-5.8,1.7-11.1,3.2-16c1.4-4.4-3.5-5-6.3-5.2c-16.9-1.1-33.7-2.4-50.2-3.8c-8.1-0.7-16.4-1.1-24.2-1.5
		c-11.2-0.7-23-1.9-34.6-2.4c-5.8-0.3-11.3-0.6-16.5-0.9c-17.4-1.3-29.1-2.2-44-2.8c-3.2-0.1-5.1,1.1-5.7,3.7
		c-1.5,6.2-2.1,12.9-1.8,20.1c0.1,3.4,1.9,5.4,5.2,5.8c2.1,0.3,4,0.4,5.8,0.4c6.8-0.1,13.2,0.1,19,0.5c8.3,0.6,16.7,0.3,24.9,0.9
		c13.6,1,27.2,1.9,40.9,2.7c6.1,0.4,12.3,1.3,18.4,1.5C286.2,558.2,298.6,559.2,309.6,559.8"/>
	<path vector-effect="non-scaling-stroke" class="st5" d="M322.6,369.7c0.6,3.5,0.6,7.5,2,10.9c0.5,1.3,1.6,1.7,3.2,1.2
		c0.1,0,0.2-0.1,0.2-0.1c1.1-1,1.4-2.2,0.9-3.7c-1.5-4.3-1.8-8.1-0.8-11.5c0.1-0.3,0.1-0.7-0.1-1c-0.6-1.5-1.4-2.6-1.7-4.2
		c-0.6-2.8-1.2-5.7-1.8-8.5c-0.3-1.5-1.1-2.6-2.4-3.3c-0.8-0.4-1.9-0.1-2.3,0.7c0,0,0,0.1-0.1,0.1c-2.6,5.9-4.9,10.5-8.8,17.4
		c-1.6,2.9-3,5.8-4.3,8.6c-0.2,0.5,0,1,0.5,1.2c0.1,0.1,0.2,0.1,0.4,0.1c0.8,0,1.3-0.3,1.6-1c1.1-2.6,2.5-5,4.1-7.2
		c0.5-0.7,1.3-1.1,2.2-1.1l5.4,0.1C321.8,368.3,322.5,368.9,322.6,369.7"/>
	<path vector-effect="non-scaling-stroke" class="st5" d="M293,360.9c0.7,1.5,0.2,3.2,0.4,4.8c0.4,3.1,0.8,6.4,1.3,9.8
		c0.3,2.1,3,3.8,4.7,2.2c1.3-1.2,2.4-2.9,3.1-5c2-5.3,3.8-10.6,5.6-15.8c0.5-1.5,0-2.4-1.5-2.7c-0.2,0-0.4-0.1-0.7,0
		c-1.2,0.1-2,0.7-2.4,1.9l-4.7,15.2c-0.1,0.3-0.4,0.4-0.6,0.3c0,0-0.1,0-0.1-0.1c-0.5-0.4-0.8-0.9-0.8-1.5
		c-0.2-5.2-0.2-11.7-2.3-16.6c-0.4-0.9-1.4-1.3-2.3-0.9c-0.4,0.2-0.7,0.4-0.9,0.8c-2.7,4.9-4.5,8.8-5.2,11.8
		c-1.1,4.3-1.7,4.3-1.8-0.2c-0.1-4.5-0.3-9.1-0.4-13.6c0-0.8-0.4-1.3-1.2-1.4c-0.3-0.1-0.7,0.1-1,0.6c0,0.1-0.1,0.2-0.1,0.2
		l-0.2,28.2c0,0.7,0.6,1.3,1.3,1.3c0.2,0,0.3,0,0.5-0.1c1.3-0.5,2.2-1.4,2.5-2.9c1.2-5.3,3.3-10.7,6.2-16.2c0.1-0.2,0.3-0.2,0.5-0.2
		C293,360.8,293,360.9,293,360.9"/>
	<path vector-effect="non-scaling-stroke" class="st5" d="M341.9,377.5c-1.8,0.6-3.5,0.1-5.2-1.5c-1.1-1.1-1.7-0.8-1.6,0.7
		c0.2,2.7,3.9,3.8,6.1,3.9c2.9,0.2,5.4-2.7,5.8-5.3c0.2-1.1,0-2.2-0.6-3.5c-1.5-3.3-3-6.5-4.6-9.4c-0.5-1.1-0.5-2.1,0.1-3.1
		c0.2-0.3,0.5-0.6,0.9-0.7c5.3-1.1,6.4,4.1,11,3.9c0.7,0,1.3-0.6,1.2-1.3c0-0.1,0-0.1,0-0.2c-0.3-2-1.7-2.7-3.1-3.9
		c-2.6-2.4-5.7-3.4-9.3-2.9c-5.6,0.7-6.6,5.8-4.3,10c1.8,3.2,4.7,7.3,5,10.9C343.5,376.2,342.9,377.1,341.9,377.5"/>
	<path vector-effect="non-scaling-stroke" class="st5" d="M372.7,375.7c1.4-0.2,2,0.4,1.7,1.8c-0.8,3.9-1.2,7.2-1.2,10
		c0,1.2,0.6,1.7,1.8,1.6l0.7,0c1.3-0.1,2-0.8,2.1-2l2.5-25.7c0.1-1.4-0.4-1.8-1.7-1.2l-0.3,0.1c-1.3,0.6-2,1.5-2.2,2.9
		c-0.2,2.2-0.4,5.4-1.5,7.3c-0.2,0.3-0.4,0.5-0.7,0.6c-2.8,0.9-5.6,1.3-8.3,1.1c-0.6,0-1-0.5-0.9-1.1c0,0,0,0,0-0.1
		c0.4-3.5,1.5-7,3-10.5c0.2-0.4,0-0.9-0.4-1c0,0-0.1,0-0.1,0l-0.3-0.1c-0.5-0.1-0.9,0-1.2,0.5c-0.8,1.4-1.5,2.8-1.9,4.2
		c-2.7,9.2-5.5,17.1-8.3,23.7c-0.5,1.2-0.1,1.9,1.2,2c0.2,0,0.3,0,0.5,0c1.2-0.2,2-0.9,2.3-2.1l2.5-8.7c0.4-1.5,1.8-2.6,3.4-2.6
		C367.8,376.3,370.3,376.1,372.7,375.7"/>
	<path vector-effect="non-scaling-stroke" class="st5" d="M297.4,397.3c-0.2,4.6-0.8,9.6-1.6,15c-0.2,1.6,0.4,2.5,1.9,3
		c0.3,0.1,0.5,0.1,0.8,0.1c1.2,0.1,1.8-0.4,2-1.6c1.3-8.6,2-17.3,2-26.1c0-0.8-0.6-1.4-1.4-1.4c-1.6-0.1-2.9,0.6-3.9,2.1
		c-2.2,3.2-4.4,6.7-6.7,10.4c-0.3,0.4-0.6,0.4-1.1,0.1c-0.2-0.2-0.4-0.4-0.4-0.7l0.3-9.4c0-0.9-0.4-1.4-1.2-1.6
		c-1.4-0.4-3-0.1-3.6,1.4c-0.7,1.7-1.6,3.3-2.6,4.8c-2.5,3.7-4.8,7.4-7,11.1c-0.7,1.3-1.3,2.6-1.7,4.1c-0.2,0.9,0,1.6,0.7,2.1
		l0.6,0.4c0.8,0.5,1.3,0.4,1.6-0.5c1.6-4.3,4-8.6,7.1-12.8c1.1-1.6,1.7-1.4,1.7,0.6c0,2.4-0.4,6.1,2.1,7.4c1.8,0.9,4.2-1,5-2.3
		c1.6-2.4,3.2-4.6,4.8-6.5C297.3,396.6,297.5,396.7,297.4,397.3"/>
	<path vector-effect="non-scaling-stroke" class="st5" d="M314.9,398.7c-0.3-1.7,0.4-3.8,2.4-4c3.6-0.4,7-0.4,10.1-0.1
		c1.3,0.1,1.9-0.4,2-1.7l0.1-1c0.1-1-0.4-1.6-1.5-1.6c-4.8-0.2-9.3-0.2-13.6,0.1c-1,0.1-1.8,0.8-1.9,1.8c-0.5,4.6-2,8.9-2.3,13.5
		c-0.2,2.6-0.5,5.3-0.9,8c-0.2,1.6,0.8,3,2.4,3.2c0.4,0.1,0.8,0,1.2-0.1c3.4-0.9,7-1.9,10.7-2.8c1.5-0.4,2.5-1.3,2.9-2.7
		c0.2-0.8-0.2-1.6-1-1.9c-0.1,0-0.3-0.1-0.4-0.1c-3.4-0.1-6.8,1.3-10,2.4c-1.7,0.6-2.3,0-1.9-1.8l0.8-3.1c0.3-1.3,1.3-2.3,2.5-2.7
		c2.5-0.8,5.1-1.5,7.9-2.1c1.5-0.3,2.6-1.2,2.7-2.9c0.1-1-0.4-1.6-1.5-1.6c-2.8,0-5.8,0.6-8.8,2.1c-0.7,0.3-1.5,0-1.8-0.6
		C315,398.9,314.9,398.8,314.9,398.7"/>
	<path vector-effect="non-scaling-stroke" class="st6" d="M468.7,390.4c0,1-0.4,1.2-1.2,0.5c-2.3-2-4.2-1.8-5.6,0.7
		c-1.4,2.7-1.8,5.5-1.2,8.6c0.1,0.3,0,0.7-0.2,1c-3.9,6.2-6.9,11.1-1.2,17.4c1.2,1.3,2.6,2.4,4.2,3.4c1.2,0.7,2.2,0.4,3.4,0.4
		c1.1,0,2.2,0.7,2.7,1.7c0.7,1.5,1.5,2.9,2.4,4.3c3.1,4.9,11.6,7.4,17,7.3c7.2-0.2,15.7-4,19.2-10.7c2.9-5.6,3.2-12.3,3.3-18.5
		c0-0.8,0.4-1.2,1.3-1.1c5.2,0.6,9.5-1.2,12.8-5.3c2.9-3.6,4.6-6.8,5.2-9.8c1.3-6.5-1.6-17.2-9.7-18.4c-7.4-1.1-12.3,3.9-15.9,9.5
		c-0.2,0.4-0.8,0.5-1.2,0.3c0,0-0.1,0-0.1-0.1c-10.5-8.4-20.9-8.4-31.1,0C470.2,383.9,468.8,386.8,468.7,390.4"/>
	<path vector-effect="non-scaling-stroke" class="st6" d="M630,427.7c5.3-0.3,7.4,10.8,7.4,14.3c0,2.6-0.8,4.9-2.5,6.7
		c-5,5.5-12,5.1-19.1,3.7c-1.4-0.3-3-1.1-3.8-2.3c-3.9-5.6-5-11.9-3.4-18.8c0.5-2.1,1-4,1.5-5.9c0.2-0.6-0.2-1.2-0.8-1.4
		c-0.3-0.1-0.6,0-0.9,0.1c-4.2,2.4-4.7,12-4.3,16c0.4,4.2,4.4,13.6,9.1,14.8c3.6,0.9,7.5,2.2,11.1,2.2c4.1,0,8-1.6,11.7-4.7
		c2.8-2.4,5.1-7.5,6-11c0.8-3.2,1.4-6.8,1.6-10.9c0.3-4.8-1.6-8.5-4.8-11.8c-1.6-1.6-5.1-1.7-7.3-2c-6.6-0.8-11.2-5.7-14.6-11.2
		c-0.2-0.3-0.4-0.5-0.7-0.6c-1.1-0.4-2.1-0.2-3.1,0.5c-4,3.1-7.6,9.4-4.3,14.2c3.4,5,6,9,12.9,8.5
		C624.4,428.1,627.1,427.9,630,427.7"/>
	<path vector-effect="non-scaling-stroke" class="st6" d="M726.9,419.7c0.1-0.7,0.4-1.2,1-1.6c0.7-0.5,0.8-1.5,0.3-2.2
		c-0.1-0.2-0.3-0.3-0.5-0.4c-2.8-1.5-5.7-2.5-9-1.9c-4.6,0.8-9.9,2.2-12.8,5.7c-3.4,4-4.9,9.6-4.9,14.9c0,0.6,0.5,1.1,1.1,1.1
		c0.2,0,0.4-0.1,0.6-0.2c5.1-3.2,10.1-4.8,15.2-4.7c0.9,0,1.7-0.3,2.4-0.8l3.8-3.2c0.2-0.2,0.5-0.2,0.7,0c5.3,4.8,7.5,10.7,6.6,17.9
		c-0.3,2.6-0.6,4.8-2.6,6.7c-5.1,4.8-12.1,4.7-18.1,2.1c-5.8-2.5-6.9-8.3-7.5-14.1c0-0.4-0.2-0.8-0.6-1.1c-0.3-0.2-0.7-0.3-1-0.2
		c-0.4,0.1-0.6,0.4-0.7,0.8c-0.6,2.8-0.4,5.7,0.6,8.6c3,8.9,11.5,12.1,20.3,10.9c4.9-0.6,10.5-4.4,11.4-9.7c0.2-1.2,0.4-2.5,0.5-3.8
		c0-0.5,0.2-0.9,0.6-1.2c3-3.1,6.2-6,6.1-10.5c-0.1-5.1-1.5-9.7-4.8-13.9c-2.6-3.4-5.7-1.1-7.9,1.1
		C727,420.9,726.8,420.7,726.9,419.7"/>
	<path vector-effect="non-scaling-stroke" class="st5" d="M317.2,362.2c-0.4,0.7-0.1,1.5,0.6,1.9c0,0,0.1,0,0.2,0.1
		c1.2,0.5,2.3,0.4,3.3-0.1c0.4-0.2,0.6-0.5,0.7-1c0.2-1.7,0.2-3.3-0.1-5c-0.1-0.5-0.5-0.8-1-0.7c-0.2,0-0.3,0.1-0.5,0.3
		C319.2,359,318.1,360.5,317.2,362.2"/>
	<path vector-effect="non-scaling-stroke" class="st6" d="M470.5,391.8c-0.1,0.1-0.3,0.1-0.4,0.1c-0.4,0-0.7,0.2-0.7,0.6
		c-0.1,1.7,0,3.3,0.2,4.8c0,0.3,0.2,0.4,0.5,0.5c0.3,0,0.6-0.2,0.6-0.5c0,0,0,0,0,0l0.3-4.4c0-0.5,0.3-0.8,0.7-1l2.7-1.2
		c0.5-0.2,0.9-0.1,1.2,0.3c0.9,1.4,2.4,1.7,2.8,3.6c0.2,1.2,0.3,2.4,0.2,3.7c0,0.6,0.4,1.1,0.9,1.1c4.4,0.4,8.2,0.9,11.6,1.5
		c0.1,0,0.3,0,0.4-0.1c0.6-0.4,0.6-0.8-0.1-1.1c-3.7-2-7.2-4.3-10.6-7.1c-2.6-2.2-4.3-5.1-5.4-8.4c-0.1-0.3-0.4-0.5-0.7-0.4
		c0,0,0,0,0,0c-3.5,1.3-3.5,4-3.8,7.2C471,391.3,470.8,391.6,470.5,391.8"/>
	<path vector-effect="non-scaling-stroke" class="st6" d="M470.8,420.8c1.4,4.6,4.2,7.8,8.5,9.6c7.6,3.3,15.1,2.2,22.4-3.5
		c1-0.7,1.6-1.6,1.9-2.8c2.2-7.8,0-14.1-6.4-18.7c-0.4-0.3-0.8-0.4-1.2-0.5c-3.8-0.4-7.7-0.7-11.6-1c-1.8-0.1-3.4-0.9-5.1-1.1
		c-0.5-0.1-0.7,0.1-0.8,0.6c-0.5,2.2-2,7.6-5.4,6.3c-2.5-1-3.3-5.9-3.5-8.2c0-0.3-0.2-0.5-0.5-0.4c-4,0.5-7,2.6-9,6.3
		c-2.5,4.6-0.8,7.9,2.4,11.1c2.3,2.3,4.6,1.6,7.6,1.6C470.4,420.1,470.7,420.4,470.8,420.8"/>
	<path vector-effect="non-scaling-stroke" class="st6" d="M673.7,444.5c2.5,1.1,5.3,1.5,8.5,1.2c0.4,0,0.6-0.2,0.7-0.6
		c1-3.2,1.9-6,2.9-8.7c0.4-1,0.4-2,0-3c-0.3-0.6-1-0.9-1.6-0.7c-0.2,0.1-0.4,0.2-0.5,0.4c-1.8,2.5-4,4.6-6.3,6.4
		c-0.4,0.3-0.8,0.4-1.3,0.4c-2-0.2-3,0.7-3.1,2.9c0,0.4-0.2,0.8-0.5,1c-2,1.3-3.9,2.4-5.8,3.5c-2.3,1.3-4.2,1-6.4-0.1
		c-0.3-0.2-0.7-0.2-1,0c-3.8,2-6.3,4.7-7.7,8.2c-0.2,0.7,0.1,1.4,0.7,1.6c0.3,0.1,0.5,0.1,0.8,0c4.2-1.2,8.1-2,11.6-4.7
		c3-2.4,10.5-1,14.1,0c2.1,0.6,5.1,1,6.6-0.9c0.3-0.3,0.2-0.7-0.1-0.9c-2.8-2.1-5.7-3.2-8.7-3.4c-1.5-0.1-2.5-0.9-3-2.4
		C673.3,444.5,673.4,444.4,673.7,444.5"/>
	<path vector-effect="non-scaling-stroke" class="st6" d="M665.5,440.8c0-0.4,0.4-0.7,0.8-0.7c0.1,0,0.2,0,0.3,0.1
		c1.4,0.9,1.7,2.1,0.8,3.5c-0.1,0.1,0,0.2,0,0.2c0,0,0.1,0,0.2,0l2.4-0.8c1-0.4,1.5-1.4,1.2-2.4c-0.1-0.2-0.2-0.3-0.3-0.5
		c-0.9-1.2-2-1.9-3.5-2.3c-0.4-0.1-0.9-0.1-1.3,0.2l-4.1,2.3c-1.1,0.6-1.7,1.6-1.8,2.9l0,0.8c0,1.4,0.6,1.8,1.8,1.3
		c1-0.4,1.9-0.9,2.9-1.6c0.3-0.2,0.5-0.6,0.5-1L665.5,440.8"/>
	<path vector-effect="non-scaling-stroke" class="st6" d="M168.1,526c-1.2-0.1-2.2,0.8-2.3,1.9c0,0,0,0,0,0.1l-1.2,17.3
		c-0.1,1.2,0.8,2.2,2,2.3c0,0,0,0,0.1,0l35.1,1.2c1.1,0,2.1-0.8,2.2-2l1-15.3c0.1-1.1-0.8-2.1-1.9-2.2L168.1,526"/>
	<path vector-effect="non-scaling-stroke" class="st2" d="M244.9,531.5c-6.9-0.5-15-0.9-24.3-1.1c-1.9,0-3.1,0.9-3.5,2.7
		c0,0.1-0.1,0.2-0.1,0.3c-0.6,1.6-0.1,2.4,1.6,2.5c9.3,0.2,18.6-0.3,28.2,0c11.1,0.4,21.6,0.9,31.5,1.4c0.5,0,0.8-0.2,0.9-0.8
		l0.2-1.9c0.1-0.6-0.2-0.9-0.8-0.9C271.3,533.4,260.1,532.6,244.9,531.5"/>
	<path vector-effect="non-scaling-stroke" class="st6" d="M335.1,556.6c0.2,0,0.3-0.1,0.3-0.3l4.1-17.8c0-0.2-0.1-0.4-0.2-0.4
		c0,0,0,0-0.1,0l-43.8-3.1c-0.2,0-0.3,0.1-0.4,0.3l-2.6,18.8c0,0.2,0.1,0.4,0.3,0.4c0,0,0,0,0,0L335.1,556.6"/>
	<path vector-effect="non-scaling-stroke" class="st2" d="M261.6,541.3c-14.1-1.6-28.7-2.4-43.9-2.6c-0.9,0-1.3,0.4-1.3,1.3l0,2.9
		c0,0.5,0.4,0.9,0.9,0.9c0,0,0,0,0,0c15.9-0.2,27.4-0.1,34.5,0.5c8.1,0.7,16.3,1.2,24.4,1.6c0.8,0,1.2-0.3,1.4-1.1l0.4-1.7
		c0.1-0.5-0.2-1-0.7-1.1c-0.1,0-0.1,0-0.2,0C271.6,542,266.4,541.8,261.6,541.3"/>
	<path vector-effect="non-scaling-stroke" class="st2" d="M276.6,552c0-0.6-0.4-1.1-1-1.1l-57.8-4.2c-0.6,0-1.1,0.4-1.1,1l0,0.6
		c0,0.6,0.4,1.1,1,1.1l57.8,4.2c0.6,0,1.1-0.4,1.1-1L276.6,552"/>
	<path vector-effect="non-scaling-stroke" class="st6" d="M467.6,663.8c5.3-10.7,8.4-22.8,9.2-36.3c0.4-7.6,0.8-14.2,0.9-19.8
		c0.3-11.1-1.7-22-6-32.7c-3.8-9.4-13.1-17.4-23.6-12.9c-5.5,2.4-8.3,7.5-11.1,12.7c-3.4,6.5-5.5,13.2-6.3,20
		c-0.7,6.1-1.9,12.1-1.8,18.3c0.1,9.2-0.9,18,0.9,27.2c2.6,13.1,5,25.8,16.2,34.5c4.4,3.5,10.5,3.9,14.6-0.5
		C463.4,671.4,465.9,667.2,467.6,663.8"/>
	<path vector-effect="non-scaling-stroke" class="st6" d="M698.7,657c2.5,10.1,11.7,26.5,24.8,22.5c2.5-0.8,5.6-4.5,7-6.8
		c5.3-8.7,8.9-17.6,10.6-26.5c1.6-8.4,2.6-19.2,2.8-32.5c0.2-10.4-1.7-20.4-5.7-30.1c-1.4-3.3-2.9-5.9-4.4-7.8
		c-3.9-4.7-12.6-8.8-18.9-5.7c-11.3,5.6-16.5,20.3-18.3,32.6c-1.4,9-1.5,18-1.7,26.9c-0.1,3,0,5.9,0.2,8.6
		C695.4,644.5,697.2,650.9,698.7,657"/>
	<path vector-effect="non-scaling-stroke" class="st2" d="M331.4,668.1c-1-9.2-1.2-18.3-0.6-27.3c0.1-1.5,0-2.7-0.3-3.7
		c-0.2-0.6-0.8-1.1-1.4-1.1c-16.3-0.4-31.9-0.9-46.7-1.4c-7.7-0.3-15.7-0.1-23.4-0.2c-10.3-0.1-21.2-0.9-32-0.7
		c-8.7,0.2-17.6-0.5-26.2-1.1c-10.1-0.7-19.9-0.2-30.4-0.5c-11.6-0.3-23.1-0.3-34.7,0.2"/>
	<path vector-effect="non-scaling-stroke" class="st2" d="M272.8,666.6c-9.2-0.4-18.3-0.7-27.3-0.9c-6.4-0.1-13.1-0.3-20-0.5
		c-10.6-0.3-21.1-0.4-31.5-0.3"/>
	<path vector-effect="non-scaling-stroke" class="st8" d="M243.4,661.7c1.2,0,2.3-1,2.3-2.2c0-0.1,0-0.2,0-0.4l-2.9-19.8
		c-0.2-1.1-1.1-1.9-2.2-1.9l-49.5-0.6c-1.2,0-2.3,1-2.3,2.2c0,0.1,0,0.1,0,0.2l1.7,19.7c0.1,1.1,1,2,2.2,2L243.4,661.7"/>
	<path vector-effect="non-scaling-stroke" class="st9" d="M203.9,644.1c-0.2-0.6-0.8-1-1.4-0.8l-0.2,0c-0.6,0.2-1,0.8-0.8,1.4
		l2.5,9.3c0.2,0.6,0.8,1,1.4,0.8l0.2,0c0.6-0.2,1-0.8,0.8-1.4L203.9,644.1"/>
	<path vector-effect="non-scaling-stroke" class="st9" d="M217.3,655.2l2.1-0.2c0.2,0,0.3-0.2,0.3-0.3c0,0,0,0,0,0l0-0.2
		c-0.5-6.2-1.4-11.3-1.8-11.2c0,0,0,0,0,0l-0.9,0.1c-0.5,0-0.4,5.1,0.1,11.4c0,0,0,0,0,0l0,0.2C217,655.1,217.2,655.2,217.3,655.2
		C217.3,655.2,217.3,655.2,217.3,655.2"/>
	<path vector-effect="non-scaling-stroke" class="st9" d="M225.7,643.9c-0.1-0.5-0.6-0.8-1.1-0.7c-0.2,0-0.4,0.2-0.5,0.3l-0.7,0.8
		c-0.2,0.2-0.2,0.4-0.2,0.7l1,8.2c0,0.2,0.1,0.3,0.2,0.5l2,2.5c0.3,0.4,0.9,0.5,1.3,0.1c0.3-0.2,0.4-0.6,0.3-0.9L225.7,643.9"/>
	<path vector-effect="non-scaling-stroke" class="st9" d="M197,654.4l1.4-0.1c0.2,0,0.4-0.2,0.4-0.4c0,0,0,0,0,0l0-0.1
		c-0.3-5.1-1-9.2-1.6-9.2c0,0,0,0,0,0l-0.3,0c-0.5,0-0.7,4.1-0.3,9.3c0,0,0,0,0,0.1l0,0.1C196.6,654.2,196.8,654.4,197,654.4
		C197,654.4,197,654.4,197,654.4"/>
	<path vector-effect="non-scaling-stroke" class="st9" d="M211.1,645.4c-0.1-0.4-0.5-0.6-0.9-0.6l-1,0.2c-0.4,0.1-0.6,0.5-0.6,0.9
		c0,0,0,0,0,0l1.7,8.3c0.1,0.4,0.5,0.6,0.9,0.6l1-0.2c0.4-0.1,0.6-0.5,0.6-0.9c0,0,0,0,0,0L211.1,645.4"/>
	<path vector-effect="non-scaling-stroke" class="st9" d="M233.3,645.8c-0.1-0.6-0.6-1-1.2-1c0,0,0,0,0,0l-0.9,0.1
		c-0.6,0.1-1,0.6-1,1.2l0,0l1.1,9.6c0.1,0.6,0.6,1,1.2,1c0,0,0,0,0,0l0.9-0.1c0.6-0.1,1-0.6,1-1.2c0,0,0,0,0,0L233.3,645.8"/>
</g>
<path class="st10" d="M808,661.8c0.1-0.9,0.2-1.8,0.3-2.7c0.2-1,0.3-1.9,0.4-2.9c0.7-8.4,1.5-16.7,2.3-25.2
	c1.3-12.8,1.6-27.2,0.9-43.2c-1.1-26.6-3.8-49.6-7.8-80.1c-2-15.2-5.2-31.1-8.4-45.7c-2-9.2-4.4-18.3-7.1-27.4
	c-1.9-6.4-3.8-12.9-5.5-19.3c-2.1-7.5-4.2-14-6.4-19.3c-3.1-7.7-6.4-15.4-9.9-23.1c-6.4-14.3-14-27.9-22.9-40.8
	c-6.4-9.3-15.3-17.4-25.1-22.8c-0.8-0.5-1.8-0.7-2.7-0.7c-20.1-0.6-39.9-0.5-59.8-1c-13.7-0.3-30.1-0.6-49.2-0.9
	c-96-1.3-191.3-2.6-285.9-4.1c-2.3,0-4.7,0.5-7.1,1.5c-6,2.6-11.7,5.9-17.2,9.7c-12.8,9.1-25.7,17.9-36.5,28.4
	c-9.1,8.8-18.1,17.7-26.7,26.6c-11.4,11.7-21.5,24.6-30.5,38.8c-8.3,13.1-15.3,24.4-20.8,33.9c-2,3.4-5.8,10.8-11.3,22.1
	c-2,4.1-4,8.5-6,13.1c-3.9,9.3-8.1,18.4-11.8,28.1c-2.6,6.6-4.3,11.8-5.2,15.4c-2.8,11.1-5.7,22.6-7.5,33.4
	c-2.7,16.7-4.4,29.3-5.2,38c-0.8,9.6-0.7,21.5,0.3,35.7c-0.9,0.6-1.4,1.5-1.6,2.8c-0.2,1.2,0.4,2,1.7,2.3l0.9,5.4
	c-8.1-0.9-15.1-1.9-21-2.9c-15.1-2.7-30.2-7.2-45.1-13.7c-5.7-2.5-11.3-5.8-16.6-9.1c-20.1-12.6-36.4-31.6-44.8-54
	c-4.7-12.5-7.2-25.5-7.7-39c-0.6-16.3,0.6-31.2,3.5-44.6c3.4-15.7,8.1-30.6,14.1-44.6c12.6-29.3,29.1-55.8,49.3-79.5
	c3-3.6,6.3-7.3,9.8-11.2c3.3-3.7,6.8-7.3,10.4-10.8c40.7-39.2,89.9-68.4,146.5-74.2c10.1-1,21.6-0.5,32.2-1
	c13.8-0.6,26.7-2.4,38.7-5.2c7.7-1.8,15-4.4,21.8-7.8c16.6-8.1,27.2-20.5,31.7-37.2c2.3-8.4,3.2-17.5,2.8-27.1
	c-0.8-18.6-4.2-36.8-8.1-54.7c-2.2-10.2-4.1-20-5.6-29.4c-2.4-15.4-3.7-30.6-0.1-45.7c3.8-15.9,15.4-27.6,30.5-33.5
	c8.6-3.4,18.2-5.7,28.6-6.8c26.9-2.8,54.7-0.3,81.6,3.6c26.4,3.8,55.8,9.7,88.1,17.4c39.5,9.5,79.9,20.7,121.2,33.5
	C733.5,71.3,768,83.8,801.9,98c23.9,10,46.1,21.1,66.8,33.4c2.1,1.3,4.3,2.6,6.5,3.9c13.9,8.3,27.2,18,39.9,29.1
	c5.2,4.5,9.1,8.3,11.7,11.2c6.3,6.9,12.7,14.4,17.5,22.3c4.1,6.7,7.6,14,10.4,22.1c2.8,7.9,3.8,15.1,4.4,23.2
	c0.2,2.5,0.3,5.1,0.2,7.8c-0.4,11.3-2.6,22.3-6.7,33.2c-3.3,8.8-7.2,17.6-11.9,25.7c-7.8,13.6-16.7,26.7-26.5,39.3
	c-9.6,12.3-19.9,25.3-30.9,39.2c-6.5,8.1-12.1,16-17,23.6c-6.5,10.2-13.1,23.7-11.2,36.2c1.1,7.3,5.3,12,12.4,14.2
	c5.6,1.7,11.4,2.4,17.6,2.2c6.1-0.3,12.8-0.9,19.9-2c11.8-1.7,23.7-3.6,35.8-5.5c11.9-1.9,22.8-2.8,32.8-2.9
	c6.2,0,12.5,0.6,18.9,1.9c15,3,25.9,13.3,28.5,28.6c5.3,31.4-7.2,60.6-26.4,84.8C974,595.3,947,616.2,918,632
	c-4.6,2.5-11.6,6-21.2,10.6c-7.8,3.7-17.3,7.3-28.6,10.6c-11.6,3.4-24.5,5.3-35.7,6.2c-7.6,0.6-15,1.3-22.2,2
	C809.7,661.5,809,661.6,808,661.8z"/>
<path class="st11" d="M808,661.8l-1.9,14.4c0,0.3-0.2,0.5-0.6,0.5c-9.7-0.3-19.4-0.4-29.2-0.5c-6.2-0.1-11.5-0.4-16-1.2
	c1.4-6,2.2-12.9,2.5-20.7c0.3-11.1,0.3-20-0.1-26.8c-0.9-15.5-3.7-30.5-8.3-45.2c-4-13-11.5-28.3-22.7-35.9
	c-9.2-6.2-20.8-3.6-28.1,4.1c-11.6,12.1-18.1,29.9-21.6,46.2c-5.2,24.7-6.1,50.3-2.6,76.6c0.1,0.7-0.2,1.1-0.9,1l-30.3-0.7
	l-90.8-1.6c0.3-1.2,0.6-2.6,1.1-4c0.4-1.3,0.7-2.7,0.9-4c1.3-7.1,2.5-14.1,3.7-21.1c0.1-0.5,0.5-0.9,1-0.9c17.6,0,35-0.3,52.3-0.9
	c8.8-0.3,17.3-1,26.2-1.7c3.8-0.3,7.3-0.3,10.5,0c5.7,0.5,11.6,0.3,17.5-0.6c0.1,0,0.2,0,0.3-0.1c1.7-0.5,2.5-1.4,2.4-2.5
	c-0.1-0.9-0.6-1.3-1.5-1.3c-35.3,0.8-73,0.2-106.3,1.4c-0.6,0-0.9-0.3-0.8-0.9c2.3-17.8,4.5-35.6,5.1-53.5
	c0.5-15.6,0.7-27.3,0.6-34.9c-0.2-12.8-0.2-22.7,0.1-29.8c0.4-9,0.4-18,0.8-27.1c0.3-6.8,0.2-13.4-0.2-19.9
	c-0.9-13.5-1.1-26.5-2.7-40c-1.6-13.8-2.6-27.5-4.3-41.8c-0.9-7.5-1.9-15.2-3.1-23c-1.2-8.1-3.4-18.9-6.8-32.7
	c-0.1-0.3-0.4-0.5-0.7-0.4c0,0,0,0,0,0l-0.4,0.1c-0.5,0.1-0.8,0.7-0.8,1.2c2.8,17.2,4.7,30.7,6.4,49.8c0.6,7,1.1,13.6,1.5,19.9
	c0.9,15.6,2.7,32.4,3.5,48c0.4,8.6,0.8,17.4,1.2,26.4c0.2,6.1,0,12.6,0,19c0,4.8,0,9.5-0.2,14.2c-0.3,10.8-0.4,21.3-0.3,31.7
	c0.2,31.2-1.3,61.8-5.8,93.4c-0.1,0.4-0.4,0.8-0.9,0.8c-18.1,0-36.3,0.5-54.3,1.5c-1.1,0.1-1.7,0.7-1.7,1.8l0,0.8
	c0,0.6,0.5,1.1,1.1,1.1c0,0,0,0,0,0l54.5,0.1c0.3,0,0.5,0.2,0.5,0.5c0,0,0,0.1,0,0.1c-1.2,7.3-2.3,14.7-3.3,22.1
	c-0.4,2.8-1.2,5.2-2.3,7.4c-0.8-0.2-1.7-0.4-2.6-0.4c-18.4-0.6-36.7-0.9-54.9-1.1c-0.5-0.2-0.5-0.8,0-1.9c0.3-0.7,0.6-1.5,0.7-2.4
	c2.3-15.5,3.1-31.6,2.3-48.2c-1.1-25.6-6.6-52.8-20.5-74.3c-10.1-15.6-27-23.2-42.1-8.1c-3.9,3.9-7,7.9-9.3,12
	c-6.3,11.3-11.1,24.8-13.8,37.6c-5.7,27.5-5.7,55.3-1.4,83.4c0,0.2-0.1,0.4-0.3,0.4c0,0,0,0-0.1,0l-28.6-0.7
	c-14.6-0.5-29.3-0.8-44-0.9c-0.5,0-1.2,0.1-2.1,0.3c0-2.5,0.1-4.9,0.1-7.4c0.2-8.2,0-16.1-0.6-23.6c0-0.3,0.1-0.5,0.5-0.6
	c7.9-0.6,15.6-0.9,23.2-0.8c13.1,0,26.8-0.9,40.3,0.5c0.3,0,0.6-0.2,0.7-0.5c0-0.2,0-0.3-0.1-0.4c-0.1-0.2-0.3-0.3-0.5-0.5
	c-0.3-0.2-0.6-0.3-0.9-0.4c-15-2.5-30.9-2.1-46.5-3.1c-2.6-0.1-6.4-0.1-11.6,0.2c-9.8,0.6-19.7-0.9-29.5-1.1
	c-10.1-0.2-19.4-0.5-27.9-0.8c-11.5-0.4-23.3,0.4-34.7-0.3c-8.8-0.6-17.1-0.8-25-0.7c-11.5,0.2-22.9-1.1-34.6-1.1
	c-17.6-0.1-35.2-0.1-52.8-0.2c-1-14.2-1.1-26-0.3-35.7c0.7-8.6,2.4-21.3,5.2-38c1.8-10.8,4.7-22.3,7.5-33.4
	c0.9-3.6,2.7-8.8,5.2-15.4c3.8-9.7,7.9-18.8,11.8-28.1c2-4.7,3.9-9,6-13.1c5.5-11.3,9.3-18.6,11.3-22.1c5.5-9.4,12.5-20.7,20.8-33.9
	c9-14.2,19.2-27.1,30.5-38.8c8.7-8.9,17.6-17.8,26.7-26.6c10.9-10.5,23.7-19.3,36.5-28.4c5.5-3.9,11.2-7.1,17.2-9.7
	c2.4-1.1,4.8-1.6,7.1-1.5c94.6,1.5,189.9,2.9,285.9,4.1c19.2,0.3,35.6,0.5,49.2,0.9c20,0.5,39.8,0.4,59.8,1c0.9,0,1.9,0.3,2.7,0.7
	c9.9,5.4,18.8,13.5,25.1,22.8c8.9,12.9,16.5,26.5,22.9,40.8c3.5,7.8,6.7,15.5,9.9,23.1c2.2,5.3,4.3,11.8,6.4,19.3
	c1.8,6.4,3.6,12.9,5.5,19.3c2.7,9.1,5.1,18.2,7.1,27.4c3.2,14.6,6.4,30.5,8.4,45.7c4,30.4,6.7,53.5,7.8,80.1
	c0.7,16,0.3,30.4-0.9,43.2c-0.8,8.4-1.6,16.8-2.3,25.2c-0.1,1-0.2,1.9-0.4,2.9C808.1,660,808,660.9,808,661.8z M467.5,333.7
	c-1,0.8-1.9,1.6-2.7,2.4c-5.2,5.1-10.6,10.2-16.1,15.3c-11.5,10.6-20.9,22.9-30.1,35.5c-6.6,8.9-11.9,18.5-17.8,27.6
	c-3.5,5.5-5.8,11.3-8.9,16.9c-4.4,7.9-7.7,16-11.5,24.2c-1.6,3.5-3.1,7.2-4.5,11.1c-3.8,11.1-7.2,22.4-10.1,33.8
	c-1.8,7.1-3.2,14.5-4.1,22.4c-0.1,1.1,0.3,1.8,1.4,2.1c0.1,0,0.2,0.1,0.4,0.1c0.7,0.2,1.4-0.2,1.5-0.9c0,0,0-0.1,0-0.1
	c3.3-17.7,7.8-35,13.8-52c2.3-6.5,4.8-12.8,7.6-18.7c6.8-14.6,12.5-25.8,17-33.6c6.8-11.8,12.4-20.9,16.9-27.3
	c3.7-5.3,7.4-10.7,11.2-16c3-4.3,6.7-8.2,9.9-12.5c2.1-2.9,4.5-5.5,7.1-8.1c4-3.8,7.9-7.9,11.7-12.2c3.1-3.6,6.5-6.7,10-9.9
	c1.7-1.5,1.4-2-0.7-1.3C469,332.6,468.4,333,467.5,333.7z M186.6,465.3c-2.2,1.7-3.7,5-4.4,9.8c-0.1,0.6,0.2,0.9,0.8,1
	c8.5,0.3,17.6,0.7,27.3,1.1c19.4,0.9,42.9,1.4,70.5,1.6c17.4,0.1,34.4,1.2,52.3,2.6c6.7,0.5,13.4,0.2,20.3-1
	c0.6-0.1,1.1-0.6,1.2-1.2l2.2-9.7c2.3-8.7,4.6-15.3,6.7-19.7c2.6-5.5,5.1-11.8,7.5-16.6c8.1-16.2,17.9-31.7,29.5-46.4
	c2.7-3.5,5.9-6.5,8.8-10c2.1-2.6,4.4-5,6.7-7.3c7.9-7.7,15.1-16.2,23.4-23.6c1.8-1.6,1.5-2.3-0.9-2.2c-1.9,0.1-3.7,0.1-5.5,0
	c-46.6-2.6-93.3-5.2-140.1-7.8c-1.2-0.1-2.4,0.3-3.4,1.1c-12.2,9.8-24.7,19.8-35.9,31c-5.3,5.3-10.3,10.6-15.2,16
	c-1.3,1.5-2.7,3-4,4.4c-14.3,15.8-26.9,33.9-37.7,54.1c-1.3,2.4-2.6,5.2-3.9,8.4c-1.1,2.7-2.3,5.6-3.6,8.5
	C188.4,461.2,187.5,463.2,186.6,465.3z M418.8,471.7c0.1,0,0.2,0.1,0.4,0.2c0.2,0.2,0.4,0.2,0.7,0.2l106.4,0.4l24.2-0.1
	c0.7,0,1.3-0.6,1.3-1.3c0.2-7.4,0.2-14.6-0.2-21.7c-0.4-7.1-0.6-14.7-0.8-22.8c-0.2-7.3-1-14.6-1.1-22c-0.1-6.3-0.5-12-1.3-17
	c-1.9-13.3-4.2-26.6-6.9-40c-0.1-0.5-0.5-0.9-1.1-0.9c-4,0-7.9-0.1-11.7-0.2c-13.4-0.5-28.3-1-44.7-1.5c-3.3-0.1-6.9-1-9.6,1.5
	c-3.4,3.1-6.6,6.3-10.3,9.3c-3.6,2.9-6.7,6-9.5,9.1c-7.5,8.5-15,17.8-22.5,28c-3.7,5-7.2,10.5-10.5,16.5
	c-6.6,11.9-10.7,19.7-12.3,23.3c-5,11.5-9.4,24.1-13.2,37.7c-0.1,0.5,0.2,1.1,0.7,1.2c0.1,0,0.2,0,0.3,0L418.8,471.7z M597.7,471.8
	c0.1,0.4,0.3,0.5,0.5,0.5c13.1-0.3,26.2-0.3,39.2-0.1c0.7,0,1-0.3,1-0.9c0.8,0.5,1.7,0.8,2.5,0.8c8.6,0,17.2,0,25.8,0.1
	c0.9,0,1.4-0.3,1.3-0.8l0.6,0.5c0.3,0.2,0.5,0.3,0.9,0.3l16.6,0l7.4-0.2c16.1,0.3,30,0.3,41.8,0.1c0.3,0,0.7-0.3,1-0.9
	c0.4,0.5,0.8,0.8,1.1,0.8c8.7-0.2,17.3-0.2,25.7,0.1c0.4,0,0.7-0.3,0.7-0.7c0,0,0,0,0,0c0-0.8,0-1.6-0.1-2.3c-0.9-6-2-12.3-3.3-18.8
	c-1.3-6.3-3.3-13.5-6-21.3c-6.7-19.5-14.1-37.6-22.1-54.5c-4.6-9.6-9.4-17.9-15.2-26.5c-0.6-0.9-1.7-1.3-3.1-1.3
	c-29.4,0.7-55,1.4-76.6,2c-13.5,0.4-26.6,0.7-39.2,0.9c-8.2,0.1-16.7,0.9-25,0.6c-0.3,0-0.5,0.2-0.5,0.4c0,0,0,0.1,0,0.1
	c2.5,10.5,4.5,21,5.9,31.8c1.6,11.9,3.2,23.7,4.8,35.4c2.5,17.6,3.4,35.5,2.9,53.2c0,0.6,0.4,1,1,1c0,0,0.1,0,0.1,0L597.7,471.8z
	 M715.8,535.8l2.2-0.1c0.4,0,0.7-0.3,0.6-0.7c0,0,0,0,0,0v-0.1c-0.8-31.2-2.1-56.5-2.9-56.5l-0.7,0c-0.8,0-0.7,25.3,0.1,56.5
	c0,0,0,0,0,0v0.1C715.2,535.5,715.5,535.8,715.8,535.8C715.8,535.8,715.8,535.8,715.8,535.8z M547.7,512.5c0,0.3-0.3,0.6-0.7,0.6
	l-15.2,0.5c-0.8,0-1.4-0.6-1.4-1.3l-0.3-5.4c0-0.4-0.3-0.7-0.7-0.7l-1.6-0.2c-0.6-0.1-0.9,0.2-0.9,0.8c-0.3,3.4-0.3,6.6,0.1,9.8
	c0.1,0.7,0.6,1.2,1.3,1.3c6.5,0.6,13.5,0.5,20.9-0.3c2.3-0.2,2.6-2.3,2.2-4.2c-0.4-2.1-0.6-4-0.6-5.8c0-0.5-0.4-0.9-0.9-0.9l-0.3,0
	c-0.9,0-1.4,0.4-1.5,1.3L547.7,512.5z M582.2,514.7c-0.3,0-0.5-0.2-0.5-0.5l-0.4-7c0-0.3-0.2-0.5-0.5-0.5l-2.6-0.1
	c-0.3,0-0.6,0.2-0.6,0.5c0,0,0,0,0,0l0.5,10.8c0,0.3,0.3,0.5,0.6,0.5l25.9-0.6c0.3,0,0.5-0.2,0.5-0.5l1.5-10.4
	c0-0.3-0.2-0.6-0.5-0.6c-0.1,0-0.1,0-0.2,0l-1.7,0.4c-0.2,0-0.4,0.2-0.4,0.4l-1.5,7.1c-0.1,0.3-0.3,0.4-0.5,0.4L582.2,514.7z
	 M309.6,559.8c9.2,0.5,18.1,0.9,26.9,1.3c3.2,0.1,3.6-3.6,3.9-5.9c0.6-5.8,1.7-11.1,3.2-16c1.4-4.4-3.5-5-6.3-5.2
	c-16.9-1.1-33.7-2.4-50.2-3.8c-8.1-0.7-16.4-1.1-24.2-1.5c-11.2-0.7-23-1.9-34.6-2.4c-5.8-0.3-11.3-0.6-16.5-0.9
	c-17.4-1.3-29.1-2.2-44-2.8c-3.2-0.1-5.1,1.1-5.7,3.7c-1.5,6.2-2.1,12.9-1.8,20.1c0.1,3.4,1.9,5.4,5.2,5.8c2.1,0.3,4,0.4,5.8,0.4
	c6.8-0.1,13.2,0.1,19,0.5c8.3,0.6,16.7,0.3,24.9,0.9c13.6,1,27.2,1.9,40.9,2.7c6.1,0.4,12.3,1.3,18.4,1.5
	C286.2,558.2,298.6,559.2,309.6,559.8z"/>
<path d="M467.5,333.7c0.9-0.7,1.4-1.1,1.8-1.2c2.2-0.6,2.4-0.2,0.7,1.3c-3.5,3.1-6.9,6.3-10,9.9c-3.8,4.3-7.7,8.4-11.7,12.2
	c-2.6,2.5-5,5.2-7.1,8.1c-3.1,4.3-6.8,8.2-9.9,12.5c-3.8,5.4-7.5,10.7-11.2,16c-4.5,6.4-10.1,15.5-16.9,27.3
	c-4.5,7.8-10.2,19-17,33.6c-2.8,5.9-5.3,12.1-7.6,18.7c-5.9,16.9-10.5,34.3-13.8,52c-0.1,0.7-0.8,1.1-1.5,1c0,0-0.1,0-0.1,0
	c-0.1,0-0.2-0.1-0.4-0.1c-1.1-0.3-1.6-1-1.4-2.1c1-7.8,2.4-15.3,4.1-22.4c2.9-11.4,6.3-22.7,10.1-33.8c1.3-3.9,2.8-7.6,4.5-11.1
	c3.8-8.1,7-16.2,11.5-24.2c3.1-5.5,5.4-11.4,8.9-16.9c5.9-9.2,11.2-18.7,17.8-27.6c9.2-12.6,18.6-24.9,30.1-35.5
	c5.6-5.1,10.9-10.2,16.1-15.3C465.7,335.3,466.6,334.5,467.5,333.7z"/>
<path d="M557.3,672c-1.6,2.4-3.4,2.5-5.2,0.1c1.1-2.1,1.9-4.6,2.3-7.4c1.1-7.4,2.2-14.7,3.3-22.1c0-0.3-0.1-0.5-0.4-0.6
	c0,0-0.1,0-0.1,0l-54.5-0.1c-0.6,0-1.1-0.5-1.1-1.1c0,0,0,0,0,0l0-0.8c0-1.1,0.6-1.7,1.7-1.8c18.1-1.1,36.2-1.6,54.3-1.5
	c0.4,0,0.8-0.3,0.9-0.8c4.5-31.6,6-62.2,5.8-93.4c-0.1-10.4,0.1-21,0.3-31.7c0.1-4.7,0.2-9.4,0.2-14.2c0-6.4,0.2-12.9,0-19
	c-0.4-9-0.8-17.8-1.2-26.4c-0.8-15.6-2.6-32.5-3.5-48c-0.4-6.3-0.9-12.9-1.5-19.9c-1.7-19-3.6-32.5-6.4-49.8
	c-0.1-0.5,0.2-1.1,0.8-1.2l0.4-0.1c0.3-0.1,0.6,0.1,0.7,0.4c0,0,0,0,0,0c3.3,13.7,5.6,24.6,6.8,32.7c1.1,7.8,2.2,15.5,3.1,23
	c1.7,14.3,2.7,27.9,4.3,41.8c1.5,13.5,1.8,26.5,2.7,40c0.4,6.5,0.5,13.1,0.2,19.9c-0.4,9.1-0.4,18.2-0.8,27.1
	c-0.3,7.1-0.3,17-0.1,29.8c0.1,7.6-0.1,19.2-0.6,34.9c-0.6,17.9-2.8,35.7-5.1,53.5c-0.1,0.6,0.2,0.9,0.8,0.9
	c33.3-1.2,71-0.6,106.3-1.4c0.9,0,1.4,0.4,1.5,1.3c0.1,1.1-0.7,2-2.4,2.5c-0.1,0-0.2,0.1-0.3,0.1c-5.9,0.9-11.7,1.1-17.5,0.6
	c-3.2-0.3-6.7-0.3-10.5,0c-8.8,0.6-17.4,1.4-26.2,1.7c-17.3,0.6-34.7,0.9-52.3,0.9c-0.5,0-0.9,0.4-1,0.9c-1.2,7-2.4,14.1-3.7,21.1
	c-0.2,1.3-0.5,2.6-0.9,4C558,669.4,557.6,670.8,557.3,672z"/>
<path class="st12" d="M356.8,469.5l-7.4-0.7c-0.8-4.1-1.3-8.7-1.7-13.7c-0.4-6.9-2.4-13.6-5.8-20.2c-1.6-3.1-4.5-7.4-8.6-6.8
	c-6.7,1.1-13.7,2.1-20,4.8c-6.2,2.7-11.9,6-17.1,10.1c-4.2,3.2-8.7,7.4-13.6,12.5c-0.7,0.7-0.9,1.4-1.4,2.3
	c-0.3,0.6-0.7,1.1-1.2,1.6c-2,2-3.8,4.2-5.5,6.6h-5c0.3-0.1,0.4-0.1,0.5-0.1c0.3-0.1,0.6-0.4,0.5-0.7c0,0,0-0.1,0-0.1
	c-0.7-2.2-1.5-4.6-1.4-7c0.4-9.4-1.1-20.3-4.4-32.6c-0.7-2.7-2.3-5.7-5.5-5.6c-17.2,0.5-32,6-44.5,16.5c-5.7,4.8-9.9,8.8-12.5,12
	c-2.1,2.5-4.3,5-6.6,7.4c-0.2,0.2-0.4,0.5-0.6,0.9c-0.2,0.5-0.4,1-0.5,1.5c-0.2,0.7-0.1,1,0.2,0.9c-1.1,0.5-1.8,1.1-2.1,1.8
	c-0.1,0.4,0,0.5,0.4,0.5l28.9-4.9c0.3-0.1,0.6,0.1,0.8,0.4c1.6,2.8,3.7,5.5,6,8.2c0.1,0.1,0.1,0.3,0,0.4c0,0-0.1,0.1-0.2,0.1
	l-42.1,0c0.9-2.1,1.8-4.1,2.6-6c1.3-2.9,2.5-5.7,3.6-8.5c1.3-3.2,2.6-6,3.9-8.4c10.8-20.2,23.4-38.2,37.7-54.1c1.3-1.5,2.7-3,4-4.4
	c4.8-5.3,9.9-10.7,15.2-16c11.1-11.2,23.7-21.2,35.9-31c1-0.8,2.1-1.2,3.4-1.1c46.8,2.6,93.5,5.2,140.1,7.8c1.8,0.1,3.6,0.1,5.5,0
	c2.4-0.1,2.7,0.6,0.9,2.2c-8.3,7.3-15.5,15.8-23.4,23.6c-2.3,2.3-4.6,4.7-6.7,7.3c-2.9,3.5-6.1,6.5-8.8,10
	c-11.5,14.8-21.3,30.3-29.5,46.4c-2.4,4.9-4.9,11.1-7.5,16.6C361.3,454.2,359.1,460.8,356.8,469.5z M322.6,369.7
	c0.6,3.5,0.6,7.5,2,10.9c0.5,1.3,1.6,1.7,3.2,1.2c0.1,0,0.2-0.1,0.2-0.1c1.1-1,1.4-2.2,0.9-3.7c-1.5-4.3-1.8-8.1-0.8-11.5
	c0.1-0.3,0.1-0.7-0.1-1c-0.6-1.5-1.4-2.6-1.7-4.2c-0.6-2.8-1.2-5.7-1.8-8.5c-0.3-1.5-1.1-2.6-2.4-3.3c-0.8-0.4-1.9-0.1-2.3,0.7
	c0,0,0,0.1-0.1,0.1c-2.6,5.9-4.9,10.5-8.8,17.4c-1.6,2.9-3,5.8-4.3,8.6c-0.2,0.5,0,1,0.5,1.2c0.1,0.1,0.2,0.1,0.4,0.1
	c0.8,0,1.3-0.3,1.6-1c1.1-2.6,2.5-5,4.1-7.2c0.5-0.7,1.3-1.1,2.2-1.1l5.4,0.1C321.8,368.3,322.5,368.9,322.6,369.7z M293,360.9
	c0.7,1.5,0.2,3.2,0.4,4.8c0.4,3.1,0.8,6.4,1.3,9.8c0.3,2.1,3,3.8,4.7,2.2c1.3-1.2,2.4-2.9,3.1-5c2-5.3,3.8-10.6,5.6-15.8
	c0.5-1.5,0-2.4-1.5-2.7c-0.2,0-0.4-0.1-0.7,0c-1.2,0.1-2,0.7-2.4,1.9l-4.7,15.2c-0.1,0.3-0.4,0.4-0.6,0.3c0,0-0.1,0-0.1-0.1
	c-0.5-0.4-0.8-0.9-0.8-1.5c-0.2-5.2-0.2-11.7-2.3-16.6c-0.4-0.9-1.4-1.3-2.3-0.9c-0.4,0.2-0.7,0.4-0.9,0.8
	c-2.7,4.9-4.5,8.8-5.2,11.8c-1.1,4.3-1.7,4.3-1.8-0.2c-0.1-4.5-0.3-9.1-0.4-13.6c0-0.8-0.4-1.3-1.2-1.4c-0.3-0.1-0.7,0.1-1,0.6
	c0,0.1-0.1,0.2-0.1,0.2l-0.2,28.2c0,0.7,0.6,1.3,1.3,1.3c0.2,0,0.3,0,0.5-0.1c1.3-0.5,2.2-1.4,2.5-2.9c1.2-5.3,3.3-10.7,6.2-16.2
	c0.1-0.2,0.3-0.2,0.5-0.2C293,360.8,293,360.9,293,360.9z M341.9,377.5c-1.8,0.6-3.5,0.1-5.2-1.5c-1.1-1.1-1.7-0.8-1.6,0.7
	c0.2,2.7,3.9,3.8,6.1,3.9c2.9,0.2,5.4-2.7,5.8-5.3c0.2-1.1,0-2.2-0.6-3.5c-1.5-3.3-3-6.5-4.6-9.4c-0.5-1.1-0.5-2.1,0.1-3.1
	c0.2-0.3,0.5-0.6,0.9-0.7c5.3-1.1,6.4,4.1,11,3.9c0.7,0,1.3-0.6,1.2-1.3c0-0.1,0-0.1,0-0.2c-0.3-2-1.7-2.7-3.1-3.9
	c-2.6-2.4-5.7-3.4-9.3-2.9c-5.6,0.7-6.6,5.8-4.3,10c1.8,3.2,4.7,7.3,5,10.9C343.5,376.2,342.9,377.1,341.9,377.5z M372.7,375.7
	c1.4-0.2,2,0.4,1.7,1.8c-0.8,3.9-1.2,7.2-1.2,10c0,1.2,0.6,1.7,1.8,1.6l0.7,0c1.3-0.1,2-0.8,2.1-2l2.5-25.7c0.1-1.4-0.4-1.8-1.7-1.2
	l-0.3,0.1c-1.3,0.6-2,1.5-2.2,2.9c-0.2,2.2-0.4,5.4-1.5,7.3c-0.2,0.3-0.4,0.5-0.7,0.6c-2.8,0.9-5.6,1.3-8.3,1.1
	c-0.6,0-1-0.5-0.9-1.1c0,0,0,0,0-0.1c0.4-3.5,1.5-7,3-10.5c0.2-0.4,0-0.9-0.4-1c0,0-0.1,0-0.1,0l-0.3-0.1c-0.5-0.1-0.9,0-1.2,0.5
	c-0.8,1.4-1.5,2.8-1.9,4.2c-2.7,9.2-5.5,17.1-8.3,23.7c-0.5,1.2-0.1,1.9,1.2,2c0.2,0,0.3,0,0.5,0c1.2-0.2,2-0.9,2.3-2.1l2.5-8.7
	c0.4-1.5,1.8-2.6,3.4-2.6C367.8,376.3,370.3,376.1,372.7,375.7z M297.4,397.3c-0.2,4.6-0.8,9.6-1.6,15c-0.2,1.6,0.4,2.5,1.9,3
	c0.3,0.1,0.5,0.1,0.8,0.1c1.2,0.1,1.8-0.4,2-1.6c1.3-8.6,2-17.3,2-26.1c0-0.8-0.6-1.4-1.4-1.4c-1.6-0.1-2.9,0.6-3.9,2.1
	c-2.2,3.2-4.4,6.7-6.7,10.4c-0.3,0.4-0.6,0.4-1.1,0.1c-0.2-0.2-0.4-0.4-0.4-0.7l0.3-9.4c0-0.9-0.4-1.4-1.2-1.6
	c-1.4-0.4-3-0.1-3.6,1.4c-0.7,1.7-1.6,3.3-2.6,4.8c-2.5,3.7-4.8,7.4-7,11.1c-0.7,1.3-1.3,2.6-1.7,4.1c-0.2,0.9,0,1.6,0.7,2.1
	l0.6,0.4c0.8,0.5,1.3,0.4,1.6-0.5c1.6-4.3,4-8.6,7.1-12.8c1.1-1.6,1.7-1.4,1.7,0.6c0,2.4-0.4,6.1,2.1,7.4c1.8,0.9,4.2-1,5-2.3
	c1.6-2.4,3.2-4.6,4.8-6.5C297.3,396.6,297.5,396.7,297.4,397.3z M314.9,398.7c-0.3-1.7,0.4-3.8,2.4-4c3.6-0.4,7-0.4,10.1-0.1
	c1.3,0.1,1.9-0.4,2-1.7l0.1-1c0.1-1-0.4-1.6-1.5-1.6c-4.8-0.2-9.3-0.2-13.6,0.1c-1,0.1-1.8,0.8-1.9,1.8c-0.5,4.6-2,8.9-2.3,13.5
	c-0.2,2.6-0.5,5.3-0.9,8c-0.2,1.6,0.8,3,2.4,3.2c0.4,0.1,0.8,0,1.2-0.1c3.4-0.9,7-1.9,10.7-2.8c1.5-0.4,2.5-1.3,2.9-2.7
	c0.2-0.8-0.2-1.6-1-1.9c-0.1,0-0.3-0.1-0.4-0.1c-3.4-0.1-6.8,1.3-10,2.4c-1.7,0.6-2.3,0-1.9-1.8l0.8-3.1c0.3-1.3,1.3-2.3,2.5-2.7
	c2.5-0.8,5.1-1.5,7.9-2.1c1.5-0.3,2.6-1.2,2.7-2.9c0.1-1-0.4-1.6-1.5-1.6c-2.8,0-5.8,0.6-8.8,2.1c-0.7,0.3-1.5,0-1.8-0.6
	C315,398.9,314.9,398.8,314.9,398.7z"/>
<path class="st13" d="M526.3,472.5c-0.6-6.1-1.3-10.5-2.2-13.3c-1-2.8-3-6.7-6.2-11.6c-2.6-4-6.9-6.9-11.2-8.9
	c-0.4-0.2-0.7-0.1-1.1,0.1c-7.4,4.9-25.9,18.4-30.1,2.2c0-0.2-0.2-0.3-0.4-0.3c-0.1,0-0.1,0-0.1,0.1c-4.4,3.5-8.9,7-13.4,10.4
	c-4.4,3.3-8.4,2.6-13.4,2.2c-12.3-1-22.2,8.5-29.4,18.2l-21.8,0c-0.5,0-1-0.4-1-1c0-0.1,0-0.2,0-0.3c3.8-13.6,8.2-26.2,13.2-37.7
	c1.6-3.6,5.7-11.4,12.3-23.3c3.3-6,6.8-11.5,10.5-16.5c7.6-10.2,15.1-19.5,22.5-28c2.8-3.1,5.9-6.2,9.5-9.1c3.6-3,6.9-6.2,10.3-9.3
	c2.7-2.5,6.3-1.6,9.6-1.5c16.4,0.5,31.3,1,44.7,1.5c3.8,0.1,7.7,0.2,11.7,0.2c0.5,0,0.9,0.4,1.1,0.9c2.7,13.4,5,26.8,6.9,40
	c0.7,5,1.2,10.7,1.3,17c0.1,7.5,1,14.7,1.1,22c0.2,8.2,0.5,15.8,0.8,22.8c0.4,7.1,0.4,14.4,0.2,21.7c0,0.7-0.6,1.3-1.3,1.3
	L526.3,472.5z M468.7,390.4c0,1-0.4,1.2-1.2,0.5c-2.3-2-4.2-1.8-5.6,0.7c-1.4,2.7-1.8,5.5-1.2,8.6c0.1,0.3,0,0.7-0.2,1
	c-3.9,6.2-6.9,11.1-1.2,17.4c1.2,1.3,2.6,2.4,4.2,3.4c1.2,0.7,2.2,0.4,3.4,0.4c1.1,0,2.2,0.7,2.7,1.7c0.7,1.5,1.5,2.9,2.4,4.3
	c3.1,4.9,11.6,7.4,17,7.3c7.2-0.2,15.7-4,19.2-10.7c2.9-5.6,3.2-12.3,3.3-18.5c0-0.8,0.4-1.2,1.3-1.1c5.2,0.6,9.5-1.2,12.8-5.3
	c2.9-3.6,4.6-6.8,5.2-9.8c1.3-6.5-1.6-17.2-9.7-18.4c-7.4-1.1-12.3,3.9-15.9,9.5c-0.2,0.4-0.8,0.5-1.2,0.3c0,0-0.1,0-0.1-0.1
	c-10.5-8.4-20.9-8.4-31.1,0C470.2,383.9,468.8,386.8,468.7,390.4z"/>
<path class="st13" d="M736.4,471.2c-1.5-3-3.6-5.7-6.3-8.1c-0.4-0.4-0.8-0.4-1.3-0.1c-0.9,0.5-1.8,1.1-2.8,1.8
	c-4.6,3.3-9.6,4.1-14.8,2.5c-2.2-0.7-3.6-2.5-5-4.2c-0.3-0.4-0.9-0.5-1.3-0.2c-3.8,2.3-7.5,5.3-11.2,9.1l-7.4,0.2
	c-1-0.6-2-1.6-3-3.1c-3.4-4.9-6.3-10.1-8.7-15.6c-0.1-0.2,0-0.5,0.2-0.6c0,0,0.1,0,0.1,0c0.6-0.1,1.2-0.1,1.9,0.2
	c1.5,0.7,3,1.2,4.6,1.4c2.4,0.3,4.4-1.2,6.6-2c0.3-0.1,0.6-0.4,0.7-0.8c0.2-1,0.1-1.8-0.5-2.6c-0.2-0.3-0.5-0.5-0.8-0.6l-2.4-0.9
	c-0.5-0.2-0.6-0.5-0.5-0.9c0.9-2.9,1.9-5.8,2.8-8.7c1.1-3.3,0.9-5.6-2.6-7.1c-0.4-0.2-0.9-0.1-1.2,0.2c-3.3,3-5.6,7.3-10.6,7.6
	c-0.3,0-0.7-0.1-0.9-0.3c-2.4-2.1-3.5-4.2-7.2-2.2c-3.8,2-6.6,2.8-6.8,7.9c0,0.4-0.2,0.6-0.5,0.9c-3.7,2.6-8,6.6-8.4,11.4
	c-0.3,3,2.5,3.6,4.9,2.9c2.7-0.8,5.3-1.7,7.8-2.6c0.3-0.1,0.5,0,0.6,0.3c0.9,5.2,2.8,10,5.7,14.5c0.1,0.6-0.4,0.8-1.3,0.8
	c-8.6-0.1-17.2-0.1-25.8-0.1c-0.8,0-1.6-0.3-2.5-0.8c-1-4.1-3.2-7.6-6.5-10.4c-0.3-0.2-0.7-0.2-0.9-0.1c-4.2,2.9-8.8,5.4-14,5.2
	c-3-0.1-3.7-2.6-4.5-4.9c-0.2-0.6-0.9-1-1.6-0.8c-0.1,0-0.1,0.1-0.2,0.1c-4.9,2.9-9.3,6.7-13.1,11.3l-10.2,0.5c-0.5,0-1-0.4-1-0.9
	c0,0,0-0.1,0-0.1c0.6-17.8-0.4-35.6-2.9-53.2c-1.7-11.7-3.3-23.6-4.8-35.4c-1.4-10.8-3.5-21.3-5.9-31.8c-0.1-0.3,0.1-0.5,0.3-0.6
	c0,0,0.1,0,0.1,0c8.4,0.3,16.8-0.5,25-0.6c12.6-0.1,25.7-0.4,39.2-0.9c21.6-0.7,47.2-1.4,76.6-2c1.5,0,2.5,0.4,3.1,1.3
	c5.8,8.6,10.7,16.9,15.2,26.5c8,16.8,15.3,35,22.1,54.5c2.7,7.9,4.7,15,6,21.3c1.3,6.6,2.4,12.9,3.3,18.8c0.1,0.8,0.2,1.5,0.1,2.3
	c0,0.4-0.3,0.7-0.7,0.7c0,0,0,0,0,0c-8.4-0.3-17-0.4-25.7-0.1C737.2,472,736.8,471.7,736.4,471.2z M630,427.7
	c5.3-0.3,7.4,10.8,7.4,14.3c0,2.6-0.8,4.9-2.5,6.7c-5,5.5-12,5.1-19.1,3.7c-1.4-0.3-3-1.1-3.8-2.3c-3.9-5.6-5-11.9-3.4-18.8
	c0.5-2.1,1-4,1.5-5.9c0.2-0.6-0.2-1.2-0.8-1.4c-0.3-0.1-0.6,0-0.9,0.1c-4.2,2.4-4.7,12-4.3,16c0.4,4.2,4.4,13.6,9.1,14.8
	c3.6,0.9,7.5,2.2,11.1,2.2c4.1,0,8-1.6,11.7-4.7c2.8-2.4,5.1-7.5,6-11c0.8-3.2,1.4-6.8,1.6-10.9c0.3-4.8-1.6-8.5-4.8-11.8
	c-1.6-1.6-5.1-1.7-7.3-2c-6.6-0.8-11.2-5.7-14.6-11.2c-0.2-0.3-0.4-0.5-0.7-0.6c-1.1-0.4-2.1-0.2-3.1,0.5c-4,3.1-7.6,9.4-4.3,14.2
	c3.4,5,6,9,12.9,8.5C624.4,428.1,627.1,427.9,630,427.7z M726.9,419.7c0.1-0.7,0.4-1.2,1-1.6c0.7-0.5,0.8-1.5,0.3-2.2
	c-0.1-0.2-0.3-0.3-0.5-0.4c-2.8-1.5-5.7-2.5-9-1.9c-4.6,0.8-9.9,2.2-12.8,5.7c-3.4,4-4.9,9.6-4.9,14.9c0,0.6,0.5,1.1,1.1,1.1
	c0.2,0,0.4-0.1,0.6-0.2c5.1-3.2,10.1-4.8,15.2-4.7c0.9,0,1.7-0.3,2.4-0.8l3.8-3.2c0.2-0.2,0.5-0.2,0.7,0c5.3,4.8,7.5,10.7,6.6,17.9
	c-0.3,2.6-0.6,4.8-2.6,6.7c-5.1,4.8-12.1,4.7-18.1,2.1c-5.8-2.5-6.9-8.3-7.5-14.1c0-0.4-0.2-0.8-0.6-1.1c-0.3-0.2-0.7-0.3-1-0.2
	c-0.4,0.1-0.6,0.4-0.7,0.8c-0.6,2.8-0.4,5.7,0.6,8.6c3,8.9,11.5,12.1,20.3,10.9c4.9-0.6,10.5-4.4,11.4-9.7c0.2-1.2,0.4-2.5,0.5-3.8
	c0-0.5,0.2-0.9,0.6-1.2c3-3.1,6.2-6,6.1-10.5c-0.1-5.1-1.5-9.7-4.8-13.9c-2.6-3.4-5.7-1.1-7.9,1.1
	C727,420.9,726.8,420.7,726.9,419.7z"/>
<path class="st13" d="M322.6,369.7c-0.1-0.8-0.8-1.4-1.7-1.4l-5.4-0.1c-0.9,0-1.7,0.4-2.2,1.1c-1.6,2.2-2.9,4.6-4.1,7.2
	c-0.3,0.7-0.8,1.1-1.6,1c-0.1,0-0.2,0-0.4-0.1c-0.4-0.2-0.6-0.7-0.5-1.2c1.2-2.8,2.7-5.7,4.3-8.6c3.9-7,6.2-11.6,8.8-17.4
	c0.4-0.9,1.4-1.3,2.3-0.9c0,0,0.1,0,0.1,0.1c1.3,0.7,2.1,1.8,2.4,3.3c0.6,2.9,1.2,5.7,1.8,8.5c0.3,1.6,1.1,2.8,1.7,4.2
	c0.1,0.3,0.2,0.7,0.1,1c-0.9,3.4-0.7,7.3,0.8,11.5c0.5,1.4,0.2,2.7-0.9,3.7c-0.1,0.1-0.1,0.1-0.2,0.1c-1.6,0.5-2.7,0.1-3.2-1.2
	C323.3,377.2,323.2,373.2,322.6,369.7z M317.2,362.2c-0.4,0.7-0.1,1.5,0.6,1.9c0,0,0.1,0,0.2,0.1c1.2,0.5,2.3,0.4,3.3-0.1
	c0.4-0.2,0.6-0.5,0.7-1c0.2-1.7,0.2-3.3-0.1-5c-0.1-0.5-0.5-0.8-1-0.7c-0.2,0-0.3,0.1-0.5,0.3C319.2,359,318.1,360.5,317.2,362.2z"
	/>
<path class="st13" d="M293,360.9c-0.1-0.2-0.3-0.3-0.5-0.2c-0.1,0-0.1,0.1-0.2,0.2c-2.9,5.5-5,10.9-6.2,16.2
	c-0.3,1.4-1.2,2.4-2.5,2.9c-0.7,0.2-1.4-0.1-1.7-0.8c-0.1-0.1-0.1-0.3-0.1-0.5l0.2-28.2c0-0.1,0-0.2,0.1-0.2c0.3-0.4,0.6-0.6,1-0.6
	c0.8,0.1,1.2,0.6,1.2,1.4c0.2,4.6,0.3,9.1,0.4,13.6c0.1,4.5,0.8,4.5,1.8,0.2c0.7-2.9,2.4-6.8,5.2-11.8c0.5-0.8,1.5-1.2,2.4-0.7
	c0.3,0.2,0.6,0.5,0.8,0.9c2.1,4.9,2.1,11.4,2.3,16.6c0,0.6,0.3,1.1,0.8,1.5c0.2,0.2,0.5,0.1,0.7-0.1c0,0,0-0.1,0.1-0.1l4.7-15.2
	c0.4-1.2,1.2-1.8,2.4-1.9c0.2,0,0.5,0,0.7,0c1.5,0.4,2,1.3,1.5,2.7c-1.7,5.2-3.6,10.5-5.6,15.8c-0.8,2.1-1.8,3.8-3.1,5
	c-1.8,1.6-4.4-0.1-4.7-2.2c-0.5-3.4-0.9-6.7-1.3-9.8C293.3,364.1,293.8,362.5,293,360.9z"/>
<path class="st13" d="M341.9,377.5c1-0.3,1.7-1.3,1.6-2.4c-0.3-3.6-3.2-7.7-5-10.9c-2.4-4.2-1.3-9.3,4.3-10c3.6-0.5,6.7,0.5,9.3,2.9
	c1.3,1.2,2.7,2,3.1,3.9c0.1,0.7-0.3,1.4-1,1.5c-0.1,0-0.1,0-0.2,0c-4.6,0.1-5.7-5-11-3.9c-0.4,0.1-0.7,0.3-0.9,0.7
	c-0.6,1-0.6,2.1-0.1,3.1c1.5,3,3.1,6.1,4.6,9.4c0.6,1.2,0.8,2.4,0.6,3.5c-0.4,2.6-2.9,5.5-5.8,5.3c-2.2-0.1-5.9-1.2-6.1-3.9
	c-0.1-1.6,0.4-1.8,1.6-0.7C338.3,377.5,340.1,378.1,341.9,377.5z"/>
<path class="st12" d="M317.2,362.2c0.9-1.7,1.9-3.2,3.1-4.6c0.3-0.3,0.9-0.4,1.2-0.1c0.1,0.1,0.2,0.3,0.3,0.5c0.3,1.7,0.4,3.3,0.1,5
	c-0.1,0.4-0.3,0.8-0.7,1c-1,0.5-2.1,0.6-3.3,0.1c-0.7-0.3-1.1-1.1-0.8-1.8C317.2,362.3,317.2,362.2,317.2,362.2z"/>
<path class="st13" d="M372.7,375.7c-2.4,0.4-4.9,0.6-7.4,0.7c-1.6,0-3,1.1-3.4,2.6l-2.5,8.7c-0.3,1.2-1.1,1.9-2.3,2.1
	c-0.2,0-0.3,0-0.5,0c-1.3-0.2-1.7-0.8-1.2-2c2.9-6.6,5.6-14.5,8.3-23.7c0.4-1.4,1.1-2.8,1.9-4.2c0.3-0.5,0.7-0.6,1.2-0.5l0.3,0.1
	c0.4,0.1,0.7,0.5,0.6,0.9c0,0.1,0,0.1,0,0.1c-1.6,3.5-2.6,7-3,10.5c-0.1,0.6,0.3,1.1,0.9,1.1c0,0,0,0,0.1,0c2.7,0.2,5.5-0.2,8.3-1.1
	c0.3-0.1,0.6-0.3,0.7-0.6c1.1-1.9,1.2-5.1,1.5-7.3c0.2-1.4,0.9-2.4,2.2-2.9l0.3-0.1c1.3-0.5,1.8-0.1,1.7,1.2l-2.5,25.7
	c-0.1,1.3-0.8,1.9-2.1,2l-0.7,0c-1.2,0.1-1.8-0.5-1.8-1.6c0-2.8,0.4-6.1,1.2-10C374.7,376.1,374.1,375.5,372.7,375.7z"/>
<path d="M468.7,390.4c0.1-3.6,1.5-6.5,4.3-8.8c10.2-8.3,20.5-8.3,31.1,0c0.4,0.3,0.9,0.2,1.2-0.1c0,0,0-0.1,0.1-0.1
	c3.6-5.6,8.6-10.6,15.9-9.5c8.1,1.2,11,12,9.7,18.4c-0.6,3-2.3,6.2-5.2,9.8c-3.3,4.1-7.5,5.8-12.8,5.3c-0.8-0.1-1.2,0.3-1.3,1.1
	c-0.1,6.2-0.4,12.9-3.3,18.5c-3.5,6.7-12,10.5-19.2,10.7c-5.4,0.1-13.9-2.4-17-7.3c-0.8-1.3-1.6-2.7-2.4-4.3c-0.5-1-1.6-1.7-2.7-1.7
	c-1.3,0-2.2,0.3-3.4-0.4c-1.7-1-3.1-2.1-4.2-3.4c-5.8-6.2-2.7-11.2,1.2-17.4c0.2-0.3,0.2-0.6,0.2-1c-0.7-3.1-0.3-5.9,1.2-8.6
	c1.4-2.5,3.2-2.8,5.6-0.7C468.3,391.6,468.7,391.4,468.7,390.4z M470.5,391.8c-0.1,0.1-0.3,0.1-0.4,0.1c-0.4,0-0.7,0.2-0.7,0.6
	c-0.1,1.7,0,3.3,0.2,4.8c0,0.3,0.2,0.4,0.5,0.5c0.3,0,0.6-0.2,0.6-0.5c0,0,0,0,0,0l0.3-4.4c0-0.5,0.3-0.8,0.7-1l2.7-1.2
	c0.5-0.2,0.9-0.1,1.2,0.3c0.9,1.4,2.4,1.7,2.8,3.6c0.2,1.2,0.3,2.4,0.2,3.7c0,0.6,0.4,1.1,0.9,1.1c4.4,0.4,8.2,0.9,11.6,1.5
	c0.1,0,0.3,0,0.4-0.1c0.6-0.4,0.6-0.8-0.1-1.1c-3.7-2-7.2-4.3-10.6-7.1c-2.6-2.2-4.3-5.1-5.4-8.4c-0.1-0.3-0.4-0.5-0.7-0.4
	c0,0,0,0,0,0c-3.5,1.3-3.5,4-3.8,7.2C471,391.3,470.8,391.6,470.5,391.8z M470.8,420.8c1.4,4.6,4.2,7.8,8.5,9.6
	c7.6,3.3,15.1,2.2,22.4-3.5c1-0.7,1.6-1.6,1.9-2.8c2.2-7.8,0-14.1-6.4-18.7c-0.4-0.3-0.8-0.4-1.2-0.5c-3.8-0.4-7.7-0.7-11.6-1
	c-1.8-0.1-3.4-0.9-5.1-1.1c-0.5-0.1-0.7,0.1-0.8,0.6c-0.5,2.2-2,7.6-5.4,6.3c-2.5-1-3.3-5.9-3.5-8.2c0-0.3-0.2-0.5-0.5-0.4
	c-4,0.5-7,2.6-9,6.3c-2.5,4.6-0.8,7.9,2.4,11.1c2.3,2.3,4.6,1.6,7.6,1.6C470.4,420.1,470.7,420.4,470.8,420.8z M471,392.5
	c0.4-1.4,2.3-2,3.6-2c1.4,0,2.7,1,3.3,2.2c0.3,0.7,0.5,1.5,0.5,2.2"/>
<path class="st13" d="M471,391c0.3-3.2,0.3-5.8,3.8-7.2c0.3-0.1,0.6,0,0.8,0.4c1.1,3.2,2.8,6.2,5.4,8.4c3.3,2.8,6.9,5.1,10.6,7.1
	c0.6,0.3,0.7,0.7,0.1,1.1c-0.1,0.1-0.3,0.1-0.4,0.1c-3.4-0.5-7.3-1-11.6-1.5c-0.6-0.1-1-0.6-0.9-1.1c0.1-1.1,0.1-2.2-0.1-3.3
	c-0.2-0.8-0.3-1.8-0.9-2.5c-0.6-0.7-1.4-1.4-2.3-1.7c-0.8-0.3-1.4-0.2-2.2,0.1c-0.5,0.2-1.2,0.6-1.5,1.1c-0.3,0.5-0.6,0.9-0.7,1.5
	c0,0.5-0.1,1-0.1,1.5c-0.1,0.8-0.1,1.5-0.2,2.3c0,0.3-0.3,0.5-0.6,0.5c0,0,0,0,0,0c-0.3,0-0.5-0.2-0.5-0.5c-0.2-1.5-0.2-3.1-0.2-4.8
	c0-0.4,0.3-0.7,0.7-0.6c0.2,0,0.3,0,0.4-0.1C470.8,391.6,471,391.3,471,391z"/>
<path class="st13" d="M297.4,397.3c0-0.6-0.2-0.7-0.6-0.2c-1.7,1.9-3.3,4.1-4.8,6.5c-0.8,1.3-3.3,3.2-5,2.3
	c-2.5-1.3-2.1-5.1-2.1-7.4c0-1.9-0.6-2.1-1.7-0.6c-3.1,4.2-5.4,8.5-7.1,12.8c-0.3,0.9-0.9,1-1.6,0.5l-0.6-0.4
	c-0.7-0.5-1-1.2-0.7-2.1c0.4-1.5,1-2.8,1.7-4.1c2.1-3.7,4.5-7.4,7-11.1c1-1.5,1.9-3.1,2.6-4.8c0.6-1.5,2.2-1.8,3.6-1.4
	c0.8,0.2,1.2,0.8,1.2,1.6l-0.3,9.4c0,0.3,0.1,0.6,0.4,0.7c0.5,0.3,0.9,0.3,1.1-0.1c2.3-3.7,4.5-7.1,6.7-10.4c1-1.5,2.3-2.2,3.9-2.1
	c0.8,0,1.4,0.7,1.4,1.4c0,8.8-0.7,17.5-2,26.1c-0.2,1.1-0.8,1.7-2,1.6c-0.3,0-0.5-0.1-0.8-0.1c-1.5-0.4-2.2-1.4-1.9-3
	C296.7,406.9,297.2,401.9,297.4,397.3z"/>
<path class="st13" d="M314.9,398.7c0.1,0.7,0.8,1.2,1.6,1.1c0.1,0,0.2-0.1,0.3-0.1c3-1.4,5.9-2.1,8.8-2.1c1.1,0,1.5,0.5,1.5,1.6
	c-0.1,1.7-1.2,2.6-2.7,2.9c-2.8,0.6-5.4,1.3-7.9,2.1c-1.2,0.4-2.2,1.4-2.5,2.7l-0.8,3.1c-0.4,1.7,0.2,2.3,1.9,1.8
	c3.2-1.1,6.6-2.4,10-2.4c0.8,0,1.5,0.7,1.4,1.5c0,0.1,0,0.3-0.1,0.4c-0.4,1.4-1.4,2.3-2.9,2.7c-3.8,1-7.3,1.9-10.7,2.8
	c-1.5,0.4-3.1-0.5-3.5-2c-0.1-0.4-0.1-0.8-0.1-1.2c0.4-2.7,0.7-5.4,0.9-8c0.3-4.5,1.8-8.9,2.3-13.5c0.1-1,0.9-1.7,1.9-1.8
	c4.3-0.3,8.8-0.3,13.6-0.1c1,0.1,1.5,0.6,1.5,1.6l-0.1,1c-0.1,1.3-0.7,1.8-2,1.7c-3.1-0.3-6.4-0.3-10.1,0.1
	C315.3,394.9,314.6,397,314.9,398.7z"/>
<path class="st13" d="M469.9,420.1c-3,0-5.3,0.7-7.6-1.6c-3.1-3.2-4.8-6.5-2.4-11.1c2-3.7,5-5.8,9-6.3c0.3,0,0.5,0.1,0.5,0.4
	c0.2,2.3,1,7.1,3.5,8.2c3.3,1.3,4.9-4,5.4-6.3c0.1-0.5,0.4-0.7,0.8-0.6c1.8,0.2,3.3,1,5.1,1.1c3.9,0.3,7.8,0.6,11.6,1
	c0.4,0,0.8,0.2,1.2,0.5c6.4,4.6,8.6,10.8,6.4,18.7c-0.3,1.1-0.9,2-1.9,2.8c-7.3,5.6-14.8,6.8-22.4,3.5c-4.3-1.9-7.1-5.1-8.5-9.6
	C470.7,420.4,470.4,420.1,469.9,420.1z"/>
<path d="M637.4,442c0-3.6-2.1-14.7-7.4-14.3c-2.8,0.2-5.6,0.4-8.1,0.6c-6.9,0.6-9.5-3.5-12.9-8.5c-3.3-4.9,0.3-11.1,4.3-14.2
	c0.9-0.7,2-0.9,3.1-0.5c0.3,0.1,0.6,0.3,0.7,0.6c3.4,5.6,7.9,10.5,14.6,11.2c2.2,0.3,5.7,0.3,7.3,2c3.3,3.3,5.1,7,4.8,11.8
	c-0.3,4.1-0.8,7.8-1.6,10.9c-0.9,3.5-3.2,8.6-6,11c-3.7,3.1-7.6,4.7-11.7,4.7c-3.6,0-7.5-1.2-11.1-2.2c-4.7-1.2-8.8-10.6-9.1-14.8
	c-0.4-4.1,0.2-13.6,4.3-16c0.5-0.3,1.2-0.1,1.5,0.4c0.2,0.3,0.2,0.6,0.1,0.9c-0.5,1.8-1.1,3.8-1.5,5.9c-1.6,6.9-0.5,13.1,3.4,18.8
	c0.8,1.2,2.4,2,3.8,2.3c7.1,1.4,14.1,1.8,19.1-3.7C636.6,446.9,637.4,444.7,637.4,442z"/>
<path d="M726.9,419.7c-0.2,1,0.1,1.2,0.8,0.4c2.1-2.2,5.2-4.4,7.9-1.1c3.3,4.1,4.7,8.8,4.8,13.9c0.1,4.5-3.1,7.4-6.1,10.5
	c-0.3,0.3-0.5,0.8-0.6,1.2c-0.1,1.3-0.3,2.5-0.5,3.8c-0.9,5.3-6.6,9-11.4,9.7c-8.7,1.1-17.3-2-20.3-10.9c-1-3-1.2-5.8-0.6-8.6
	c0.1-0.4,0.3-0.7,0.7-0.8c0.4-0.1,0.7-0.1,1,0.2c0.3,0.3,0.5,0.6,0.6,1.1c0.6,5.7,1.8,11.6,7.5,14.1c6,2.6,13,2.7,18.1-2.1
	c2-1.9,2.3-4.1,2.6-6.7c0.9-7.2-1.3-13.1-6.6-17.9c-0.2-0.2-0.5-0.2-0.7,0l-3.8,3.2c-0.7,0.6-1.5,0.9-2.4,0.8
	c-5.1-0.1-10.2,1.5-15.2,4.7c-0.5,0.3-1.2,0.2-1.5-0.3c-0.1-0.2-0.2-0.4-0.2-0.6c0-5.2,1.5-10.8,4.9-14.9c2.9-3.5,8.2-4.9,12.8-5.7
	c3.2-0.6,6.2,0.4,9,1.9c0.8,0.4,1,1.4,0.6,2.1c-0.1,0.2-0.3,0.4-0.4,0.5C727.4,418.5,727.1,419.1,726.9,419.7z"/>
<path class="st13" d="M269.5,465.9l-32.2,0.2c-0.8,0-1.6-0.4-2.1-1.1l-6.8-9c-0.2-0.2-0.1-0.5,0.1-0.7c0.1,0,0.1-0.1,0.2-0.1
	l14.6-2.6c0.7-0.1,0.9-0.5,0.8-1.2l-0.3-1.8c-0.1-0.6-0.6-0.9-1.1-0.9c0,0,0,0-0.1,0L194.8,459c-0.4,0-0.5-0.3-0.2-0.9
	c0.2-0.5,0.3-1,0.5-1.5c0.1-0.3,0.3-0.6,0.6-0.9c2.3-2.4,4.5-4.9,6.6-7.4c2.6-3.2,6.8-7.2,12.5-12c12.5-10.5,27.3-16,44.5-16.5
	c3.2-0.1,4.8,2.9,5.5,5.6c3.3,12.3,4.8,23.1,4.4,32.6c-0.1,2.3,0.7,4.7,1.4,7c0.1,0.3-0.1,0.7-0.4,0.8c0,0-0.1,0-0.1,0
	C269.9,465.8,269.7,465.9,269.5,465.9z"/>
<path class="st13" d="M349.4,468.7l-23.1-1.4c-0.4,0-0.8-0.3-1-0.6c-2-3.6-4.3-6.9-7-10c-0.3-0.4-0.3-0.7,0.2-0.9
	c0.8-0.3,1.6-0.5,2.5-0.5c4.8-0.5,9.6-1,14.5-1.5c1.3-0.1,2.7-0.5,4-1c0.5-0.2,0.7-0.5,0.7-1.1l-0.1-2.7c0-0.6-0.5-1.1-1.1-1.1
	c-0.1,0-0.2,0-0.3,0c-3.1,0.9-6.2,1.6-9.3,2.1c-11.3,1.8-22.4,4.2-34,6.6c-3.5,0.7-7.9,1.3-13.1,1.7c-0.4,0-0.6,0.2-0.6,0.6l0,0.4
	c0,0.6,0.4,0.9,1,0.9c3.6,0,5.9-0.1,7-0.3c7.3-1.2,14-2.2,19.9-3.2c0.5-0.1,1,0.1,1.2,0.6l5.4,8.8c0.2,0.4,0.1,0.6-0.3,0.6
	l-41.5-0.9c1.7-2.4,3.5-4.6,5.5-6.6c0.5-0.5,0.9-1,1.2-1.6c0.4-0.8,0.7-1.6,1.4-2.3c4.9-5.1,9.5-9.3,13.6-12.5
	c5.2-4,10.9-7.4,17.1-10.1c6.3-2.7,13.3-3.7,20-4.8c4.1-0.7,6.9,3.6,8.6,6.8c3.5,6.6,5.4,13.4,5.8,20.2
	C348.1,460.1,348.6,464.6,349.4,468.7z"/>
<path d="M686.2,472.1l-16.6,0c-0.3,0-0.6-0.1-0.9-0.3l-0.6-0.5c-2.9-4.5-4.8-9.4-5.7-14.5c-0.1-0.3-0.2-0.4-0.6-0.3
	c-2.4,0.9-5,1.7-7.8,2.6c-2.4,0.8-5.2,0.1-4.9-2.9c0.4-4.8,4.7-8.8,8.4-11.4c0.3-0.2,0.4-0.5,0.5-0.9c0.1-5,3-5.9,6.8-7.9
	c3.7-2,4.8,0.1,7.2,2.2c0.2,0.2,0.6,0.3,0.9,0.3c5-0.3,7.4-4.5,10.6-7.6c0.3-0.3,0.8-0.4,1.2-0.2c3.5,1.4,3.7,3.7,2.6,7.1
	c-0.9,2.9-1.9,5.8-2.8,8.7c-0.1,0.5,0,0.8,0.5,0.9l2.4,0.9c0.3,0.1,0.6,0.3,0.8,0.6c0.5,0.7,0.7,1.6,0.5,2.6
	c-0.1,0.4-0.3,0.7-0.7,0.8c-2.2,0.8-4.2,2.3-6.6,2c-1.5-0.2-3.1-0.6-4.6-1.4c-0.6-0.3-1.2-0.4-1.9-0.2c-0.3,0.1-0.4,0.3-0.4,0.6
	c0,0,0,0.1,0,0.1c2.4,5.5,5.3,10.7,8.7,15.6C684.2,470.5,685.2,471.5,686.2,472.1z M673.7,444.5c2.5,1.1,5.3,1.5,8.5,1.2
	c0.4,0,0.6-0.2,0.7-0.6c1-3.2,1.9-6,2.9-8.7c0.4-1,0.4-2,0-3c-0.3-0.6-1-0.9-1.6-0.7c-0.2,0.1-0.4,0.2-0.5,0.4
	c-1.8,2.5-4,4.6-6.3,6.4c-0.4,0.3-0.8,0.4-1.3,0.4c-2-0.2-3,0.7-3.1,2.9c0,0.4-0.2,0.8-0.5,1c-2,1.3-3.9,2.4-5.8,3.5
	c-2.3,1.3-4.2,1-6.4-0.1c-0.3-0.2-0.7-0.2-1,0c-3.8,2-6.3,4.7-7.7,8.2c-0.2,0.7,0.1,1.4,0.7,1.6c0.3,0.1,0.5,0.1,0.8,0
	c4.2-1.2,8.1-2,11.6-4.7c3-2.4,10.5-1,14.1,0c2.1,0.6,5.1,1,6.6-0.9c0.3-0.3,0.2-0.7-0.1-0.9c-2.8-2.1-5.7-3.2-8.7-3.4
	c-1.5-0.1-2.5-0.9-3-2.4C673.3,444.5,673.4,444.4,673.7,444.5z M665.5,440.8c0-0.4,0.4-0.7,0.8-0.7c0.1,0,0.2,0,0.3,0.1
	c1.4,0.9,1.7,2.1,0.8,3.5c-0.1,0.1,0,0.2,0,0.2c0,0,0.1,0,0.2,0l2.4-0.8c1-0.4,1.5-1.4,1.2-2.4c-0.1-0.2-0.2-0.3-0.3-0.5
	c-0.9-1.2-2-1.9-3.5-2.3c-0.4-0.1-0.9-0.1-1.3,0.2l-4.1,2.3c-1.1,0.6-1.7,1.6-1.8,2.9l0,0.8c0,1.4,0.6,1.8,1.8,1.3
	c1-0.4,1.9-0.9,2.9-1.6c0.3-0.2,0.5-0.6,0.5-1L665.5,440.8z"/>
<path class="st13" d="M673.4,444.8c0.5,1.5,1.5,2.3,3,2.4c3.1,0.2,6,1.3,8.7,3.4c0.4,0.3,0.4,0.6,0.1,0.9c-1.5,1.9-4.5,1.5-6.6,0.9
	c-3.6-1-11.1-2.4-14.1,0c-3.5,2.7-7.4,3.5-11.6,4.7c-0.7,0.2-1.4-0.2-1.6-0.9c-0.1-0.3-0.1-0.5,0-0.8c1.3-3.5,3.9-6.2,7.7-8.2
	c0.3-0.2,0.7-0.2,1,0c2.2,1.1,4.1,1.4,6.4,0.1c1.9-1.1,3.8-2.3,5.8-3.5c0.4-0.2,0.5-0.6,0.5-1c0.1-2.1,1.1-3.1,3.1-2.9
	c0.4,0.1,0.9-0.1,1.3-0.4c2.4-1.8,4.5-4,6.3-6.4c0.4-0.6,1.2-0.7,1.8-0.3c0.2,0.1,0.3,0.3,0.4,0.5c0.4,1,0.4,2,0,3
	c-1,2.6-2,5.5-2.9,8.7c-0.1,0.4-0.3,0.6-0.7,0.6c-3.2,0.3-6-0.1-8.5-1.2C673.4,444.4,673.3,444.5,673.4,444.8z"/>
<path class="st13" d="M665.5,440.8l-0.1,1.9c0,0.4-0.2,0.7-0.5,1c-0.9,0.7-1.9,1.2-2.9,1.6c-1.3,0.5-1.9,0.1-1.8-1.3l0-0.8
	c0-1.3,0.6-2.3,1.8-2.9l4.1-2.3c0.4-0.2,0.9-0.3,1.3-0.2c1.5,0.4,2.7,1.2,3.5,2.3c0.6,0.9,0.4,2.1-0.4,2.7c-0.2,0.1-0.3,0.2-0.5,0.3
	l-2.4,0.8c-0.1,0-0.2,0-0.2-0.1c0-0.1,0-0.1,0-0.2c0.9-1.4,0.7-2.6-0.8-3.5c-0.3-0.2-0.8-0.1-1,0.2
	C665.5,440.6,665.5,440.7,665.5,440.8z"/>
<path d="M526.3,472.5l-106.4-0.4c-0.3,0-0.5-0.1-0.7-0.2c-0.1-0.1-0.3-0.2-0.4-0.2c7.2-9.7,17.1-19.2,29.4-18.2
	c5,0.4,9,1.1,13.4-2.2c4.5-3.4,8.9-6.9,13.4-10.4c0.2-0.1,0.4-0.1,0.5,0c0,0,0.1,0.1,0.1,0.1c4.2,16.1,22.7,2.6,30.1-2.2
	c0.3-0.2,0.7-0.3,1.1-0.1c4.3,2,8.6,4.8,11.2,8.9c3.1,4.9,5.2,8.8,6.2,11.6C525,462,525.8,466.4,526.3,472.5z"/>
<path d="M349.4,468.7l7.4,0.7l-2.2,9.7c-0.1,0.6-0.6,1.1-1.2,1.2c-6.8,1.2-13.6,1.5-20.3,1c-17.9-1.4-34.9-2.5-52.3-2.6
	c-27.6-0.1-51.1-0.7-70.5-1.6c-9.7-0.5-18.8-0.8-27.3-1.1c-0.6,0-0.9-0.3-0.8-1c0.8-4.8,2.2-8,4.4-9.8l42.1,0c0.2,0,0.3-0.1,0.3-0.3
	c0-0.1,0-0.1-0.1-0.2c-2.4-2.7-4.4-5.5-6-8.2c-0.2-0.3-0.5-0.4-0.8-0.4l-28.9,4.9c-0.4,0.1-0.5-0.1-0.4-0.5c0.3-0.7,0.9-1.3,2.1-1.8
	l47.7-10.1c0.5-0.1,1.1,0.2,1.2,0.8c0,0,0,0,0,0.1l0.3,1.8c0.1,0.7-0.2,1.1-0.8,1.2l-14.6,2.6c-0.3,0-0.4,0.3-0.4,0.5
	c0,0.1,0,0.1,0.1,0.2l6.8,9c0.5,0.7,1.3,1.1,2.1,1.1l32.2-0.2h5l41.5,0.9c0.5,0,0.6-0.2,0.3-0.6l-5.4-8.8c-0.3-0.4-0.7-0.6-1.2-0.6
	c-5.9,1-12.6,2-19.9,3.2c-1.1,0.2-3.4,0.3-7,0.3c-0.6,0-0.9-0.3-1-0.9l0-0.4c0-0.4,0.2-0.6,0.6-0.6c5.2-0.4,9.5-0.9,13.1-1.7
	c11.6-2.4,22.7-4.8,34-6.6c3.1-0.5,6.2-1.2,9.3-2.1c0.6-0.2,1.2,0.2,1.4,0.8c0,0.1,0,0.2,0,0.3l0.1,2.7c0,0.5-0.2,0.9-0.7,1.1
	c-1.4,0.5-2.7,0.9-4,1c-4.9,0.5-9.7,1-14.5,1.5c-0.8,0.1-1.7,0.3-2.5,0.5c-0.5,0.2-0.6,0.5-0.2,0.9c2.6,3.1,4.9,6.4,7,10
	c0.2,0.4,0.6,0.6,1,0.6L349.4,468.7z"/>
<path d="M638.5,471.3c0,0.6-0.4,0.9-1,0.9c-13.1-0.2-26.2-0.1-39.2,0.1c-0.3,0-0.5-0.2-0.5-0.5c3.8-4.6,8.2-8.4,13.1-11.3
	c0.6-0.3,1.3-0.1,1.7,0.4c0,0.1,0.1,0.1,0.1,0.2c0.8,2.3,1.5,4.8,4.5,4.9c5.2,0.1,9.8-2.4,14-5.2c0.3-0.2,0.7-0.2,0.9,0.1
	C635.3,463.7,637.5,467.2,638.5,471.3z"/>
<path d="M736.4,471.2c-0.3,0.6-0.7,0.9-1,0.9c-11.8,0.2-25.7,0.1-41.8-0.1c3.7-3.8,7.5-6.9,11.2-9.1c0.4-0.2,1-0.2,1.3,0.2
	c1.5,1.7,2.8,3.6,5,4.2c5.2,1.6,10.2,0.7,14.8-2.5c1-0.7,1.9-1.3,2.8-1.8c0.5-0.3,0.9-0.2,1.3,0.1
	C732.8,465.5,734.9,468.2,736.4,471.2z"/>
<path d="M715.8,535.8c-0.4,0-0.7-0.3-0.7-0.6c0,0,0,0,0,0V535c-0.8-31.2-0.8-56.6-0.1-56.6c0,0,0,0,0,0l0.7,0
	c0.8,0,2.1,25.3,2.9,56.5v0.1c0,0.4-0.3,0.7-0.6,0.7c0,0,0,0,0,0L715.8,535.8z"/>
<path d="M547.7,512.5l0.5-4.6c0.1-0.9,0.6-1.3,1.5-1.3l0.3,0c0.5,0,0.9,0.4,0.9,0.9c0,1.7,0.2,3.7,0.6,5.8c0.4,1.9,0.1,3.9-2.2,4.2
	c-7.5,0.8-14.4,0.9-20.9,0.3c-0.7-0.1-1.3-0.6-1.3-1.3c-0.4-3.2-0.4-6.4-0.1-9.8c0.1-0.6,0.4-0.8,0.9-0.8l1.6,0.2
	c0.4,0,0.7,0.3,0.7,0.7l0.3,5.4c0,0.8,0.7,1.3,1.4,1.3l15.2-0.5C547.4,513.1,547.6,512.8,547.7,512.5z"/>
<path d="M582.2,514.7l19.5,0c0.3,0,0.5-0.2,0.5-0.4l1.5-7.1c0-0.2,0.2-0.4,0.4-0.4l1.7-0.4c0.3-0.1,0.6,0.1,0.7,0.4
	c0,0.1,0,0.1,0,0.2l-1.5,10.4c0,0.3-0.3,0.5-0.5,0.5l-25.9,0.6c-0.3,0-0.5-0.2-0.6-0.5l-0.5-10.8c0-0.3,0.2-0.6,0.5-0.6c0,0,0,0,0,0
	l2.6,0.1c0.3,0,0.5,0.2,0.5,0.5l0.4,7C581.7,514.5,581.9,514.7,582.2,514.7z"/>
<path d="M309.6,559.8c-11-0.6-23.5-1.5-35.2-1.8c-6.1-0.1-12.3-1.1-18.4-1.5c-13.7-0.8-27.3-1.7-40.9-2.7
	c-8.2-0.6-16.7-0.3-24.9-0.9c-5.8-0.4-12.2-0.6-19-0.5c-1.8,0-3.7-0.1-5.8-0.4c-3.3-0.4-5-2.4-5.2-5.8c-0.3-7.1,0.3-13.8,1.8-20.1
	c0.6-2.6,2.5-3.8,5.7-3.7c14.8,0.5,26.6,1.5,44,2.8c5.1,0.4,10.6,0.7,16.5,0.9c11.6,0.5,23.4,1.8,34.6,2.4
	c7.9,0.5,16.1,0.8,24.2,1.5c16.5,1.4,33.3,2.7,50.2,3.8c2.8,0.2,7.7,0.8,6.3,5.2c-1.5,4.9-2.6,10.2-3.2,16c-0.2,2.3-0.7,6.1-3.9,5.9
	C327.8,560.7,318.8,560.3,309.6,559.8z M168.1,526c-1.2-0.1-2.2,0.8-2.3,1.9c0,0,0,0,0,0.1l-1.2,17.3c-0.1,1.2,0.8,2.2,2,2.3
	c0,0,0,0,0.1,0l35.1,1.2c1.1,0,2.1-0.8,2.2-2l1-15.3c0.1-1.1-0.8-2.1-1.9-2.2L168.1,526z M244.9,531.5c-6.9-0.5-15-0.9-24.3-1.1
	c-1.9,0-3.1,0.9-3.5,2.7c0,0.1-0.1,0.2-0.1,0.3c-0.6,1.6-0.1,2.4,1.6,2.5c9.3,0.2,18.6-0.3,28.2,0c11.1,0.4,21.6,0.9,31.5,1.4
	c0.5,0,0.8-0.2,0.9-0.8l0.2-1.9c0.1-0.6-0.2-0.9-0.8-0.9C271.3,533.4,260.1,532.6,244.9,531.5z M335.1,556.6c0.2,0,0.3-0.1,0.3-0.3
	l4.1-17.8c0-0.2-0.1-0.4-0.2-0.4c0,0,0,0-0.1,0l-43.8-3.1c-0.2,0-0.3,0.1-0.4,0.3l-2.6,18.8c0,0.2,0.1,0.4,0.3,0.4c0,0,0,0,0,0
	L335.1,556.6z M261.6,541.3c-14.1-1.6-28.7-2.4-43.9-2.6c-0.9,0-1.3,0.4-1.3,1.3l0,2.9c0,0.5,0.4,0.9,0.9,0.9c0,0,0,0,0,0
	c15.9-0.2,27.4-0.1,34.5,0.5c8.1,0.7,16.3,1.2,24.4,1.6c0.8,0,1.2-0.3,1.4-1.1l0.4-1.7c0.1-0.5-0.2-1-0.7-1.1c-0.1,0-0.1,0-0.2,0
	C271.6,542,266.4,541.8,261.6,541.3z M276.6,552c0-0.6-0.4-1.1-1-1.1l-57.8-4.2c-0.6,0-1.1,0.4-1.1,1l0,0.6c0,0.6,0.4,1.1,1,1.1
	l57.8,4.2c0.6,0,1.1-0.4,1.1-1L276.6,552z"/>
<path class="st13" d="M168.1,526l35,3.3c1.1,0.1,2,1.1,1.9,2.2l-1,15.3c-0.1,1.1-1,2-2.2,2l-35.1-1.2c-1.2,0-2.1-1-2-2.2
	c0,0,0,0,0-0.1l1.2-17.3C165.9,526.8,166.9,526,168.1,526C168.1,526,168.1,526,168.1,526z"/>
<path d="M494.6,670.6c-2.5,4.7-4.8,9.3-6.9,13.8c-0.7,1.6-3.1,4.5-7.1,8.9c-1.4,1.6-2.6,3.7-4,5.1c-6.6,6.4-14.3,10.2-23.2,11.6
	h-29.9c-5.2-0.9-11.3-2.7-18.2-5.3c-8.4-3.2-15.7-7.7-18.7-16.3c-2.2-6.4-3.6-12.6-4-18.7c0-0.3-0.2-0.6-0.5-0.8l-0.6-0.4l28.6,0.7
	c0.2,0,0.3-0.1,0.4-0.3c0,0,0,0,0-0.1c-4.3-28.1-4.3-55.9,1.4-83.4c2.6-12.8,7.4-26.3,13.8-37.6c2.3-4.1,5.4-8.2,9.3-12
	c15.1-15,32-7.5,42.1,8.1c14,21.6,19.4,48.8,20.5,74.3c0.7,16.6,0,32.7-2.3,48.2c-0.1,0.8-0.4,1.6-0.7,2.4
	C494.1,669.8,494.1,670.5,494.6,670.6z M467.6,663.8c5.3-10.7,8.4-22.8,9.2-36.3c0.4-7.6,0.8-14.2,0.9-19.8c0.3-11.1-1.7-22-6-32.7
	c-3.8-9.4-13.1-17.4-23.6-12.9c-5.5,2.4-8.3,7.5-11.1,12.7c-3.4,6.5-5.5,13.2-6.3,20c-0.7,6.1-1.9,12.1-1.8,18.3
	c0.1,9.2-0.9,18,0.9,27.2c2.6,13.1,5,25.8,16.2,34.5c4.4,3.5,10.5,3.9,14.6-0.5C463.4,671.4,465.9,667.2,467.6,663.8z"/>
<path class="st11" d="M244.9,531.5c15.2,1.2,26.4,1.9,33.7,2.2c0.6,0,0.8,0.3,0.8,0.9l-0.2,1.9c0,0.5-0.3,0.8-0.9,0.8
	c-9.9-0.5-20.4-1-31.5-1.4c-9.7-0.4-18.9,0.1-28.2,0c-1.7,0-2.3-0.9-1.6-2.5c0-0.1,0.1-0.2,0.1-0.3c0.5-1.8,1.6-2.7,3.5-2.7
	C229.9,530.6,238,531,244.9,531.5z"/>
<path class="st13" d="M335.1,556.6l-42.2-2.1c-0.2,0-0.3-0.2-0.3-0.4c0,0,0,0,0,0l2.6-18.8c0-0.2,0.2-0.3,0.4-0.3l43.8,3.1
	c0.2,0,0.3,0.2,0.3,0.4c0,0,0,0,0,0.1l-4.1,17.8C335.4,556.5,335.3,556.6,335.1,556.6z"/>
<path class="st11" d="M261.6,541.3c4.8,0.5,9.9,0.8,15.5,0.7c0.5,0,0.9,0.4,0.9,0.9c0,0.1,0,0.1,0,0.2l-0.4,1.7
	c-0.2,0.8-0.6,1.1-1.4,1.1c-8.1-0.4-16.2-0.9-24.4-1.6c-7.1-0.6-18.6-0.7-34.5-0.5c-0.5,0-0.9-0.4-0.9-0.9c0,0,0,0,0,0l0-2.9
	c0-0.9,0.4-1.3,1.3-1.3C232.9,538.8,247.6,539.7,261.6,541.3z"/>
<path d="M760.2,675c-1.6,2.8-3.1,5.7-4.7,8.6c-1.8,3.3-3.6,6-5.3,8.2c-3.7,4.5-7.6,9-12.4,12.3c-4.1,2.8-7.1,4.7-11.9,5.8H683
	c-7.8-1.7-15-4.6-21.7-8.6c-4.6-2.8-7.7-6.9-9.2-12.1c-1.5-5.3-2.8-10.5-4-15.7l30.3,0.7c0.7,0,1-0.3,0.9-1
	c-3.5-26.3-2.6-51.9,2.6-76.6c3.4-16.3,10-34.1,21.6-46.2c7.4-7.7,18.9-10.3,28.1-4.1c11.3,7.6,18.7,22.9,22.7,35.9
	c4.6,14.7,7.3,29.8,8.3,45.2c0.4,6.8,0.5,15.7,0.1,26.8C762.5,662,761.7,669,760.2,675z M698.7,657c2.5,10.1,11.7,26.5,24.8,22.5
	c2.5-0.8,5.6-4.5,7-6.8c5.3-8.7,8.9-17.6,10.6-26.5c1.6-8.4,2.6-19.2,2.8-32.5c0.2-10.4-1.7-20.4-5.7-30.1c-1.4-3.3-2.9-5.9-4.4-7.8
	c-3.9-4.7-12.6-8.8-18.9-5.7c-11.3,5.6-16.5,20.3-18.3,32.6c-1.4,9-1.5,18-1.7,26.9c-0.1,3,0,5.9,0.2,8.6
	C695.4,644.5,697.2,650.9,698.7,657z"/>
<path class="st11" d="M217.7,546.6l57.8,4.2c0.6,0,1,0.5,1,1.1l0,0.6c0,0.6-0.5,1-1.1,1l-57.8-4.2c-0.6,0-1-0.5-1-1.1l0-0.6
	C216.7,547,217.2,546.6,217.7,546.6z"/>
<path class="st13" d="M467.6,663.8c-1.7,3.4-4.2,7.6-7,10.6c-4.1,4.4-10.2,3.9-14.6,0.5c-11.2-8.7-13.6-21.5-16.2-34.5
	c-1.8-9.1-0.8-18-0.9-27.2c-0.1-6.3,1.1-12.2,1.8-18.3c0.8-6.8,2.9-13.4,6.3-20c2.7-5.2,5.6-10.4,11.1-12.7
	c10.5-4.5,19.9,3.5,23.6,12.9c4.3,10.7,6.3,21.7,6,32.7c-0.2,5.6-0.5,12.2-0.9,19.8C476,641,472.9,653.1,467.6,663.8z"/>
<path class="st13" d="M723.5,679.5c-13.1,4-22.3-12.4-24.8-22.5c-1.5-6.1-3.3-12.5-3.7-18.8c-0.2-2.7-0.2-5.6-0.2-8.6
	c0.2-8.9,0.4-17.9,1.7-26.9c1.8-12.3,7-27,18.3-32.6c6.2-3.1,15,1,18.9,5.7c1.6,1.9,3.1,4.6,4.4,7.8c4,9.6,5.9,19.7,5.7,30.1
	c-0.3,13.3-1.2,24.1-2.8,32.5c-1.7,8.9-5.3,17.7-10.6,26.5C729.1,675,726,678.7,723.5,679.5z"/>
<path d="M135.5,627.2c17.6,0.1,35.2,0.1,52.8,0.2c11.7,0,23,1.3,34.6,1.1c7.8-0.1,16.2,0.1,25,0.7c11.4,0.7,23.2-0.1,34.7,0.3
	c8.5,0.3,17.8,0.6,27.9,0.8c9.9,0.2,19.7,1.6,29.5,1.1c5.2-0.3,9-0.4,11.6-0.2c15.7,0.9,31.6,0.6,46.5,3.1c0.3,0.1,0.6,0.2,0.9,0.4
	c0.2,0.1,0.3,0.3,0.5,0.5c0.2,0.3,0.1,0.7-0.2,0.9c-0.1,0.1-0.3,0.1-0.4,0.1c-13.5-1.5-27.3-0.5-40.3-0.5c-7.6,0-15.3,0.3-23.2,0.8
	c-0.3,0-0.5,0.2-0.5,0.6c0.7,7.5,0.9,15.4,0.6,23.6c-0.1,2.5-0.1,5-0.1,7.4c-0.1,0.4-0.4,0.8-0.9,1.1c-0.4,0.3-0.9,0.4-1.3,0.3
	c-0.9-0.2-1.5-0.6-1.8-1.2c-1-9.2-1.2-18.3-0.6-27.3c0.1-1.5,0-2.7-0.3-3.7c-0.2-0.6-0.8-1.1-1.4-1.1c-16.3-0.4-31.9-0.9-46.7-1.4
	c-7.7-0.3-15.7-0.1-23.4-0.2c-10.3-0.1-21.2-0.9-32-0.7c-8.7,0.2-17.6-0.5-26.2-1.1c-10.1-0.7-19.9-0.2-30.4-0.5
	c-11.6-0.3-23.1-0.3-34.7,0.2c-1.3-0.3-1.9-1.1-1.7-2.3C134.1,628.7,134.6,627.7,135.5,627.2z"/>
<path class="st11" d="M331.4,668.1c-1.7-0.4-3-0.6-4.1-0.6c-14.7-0.3-29.3-0.6-44-1c-3.7-0.1-7.2-0.1-10.5,0.1
	c-9.2-0.4-18.3-0.7-27.3-0.9c-6.4-0.1-13.1-0.3-20-0.5c-10.6-0.3-21.1-0.4-31.5-0.3c-14.7-0.2-29.3-0.5-43.8-1
	c-1.9-0.1-3.8,0.2-5.6,0.4c-0.4,0-0.7-0.1-0.9-0.4c-0.7-1.1-1.2-2.2-1.6-3.3c-2.9-7.8-4.4-12.8-4.7-15c-0.3-2.6-0.6-5.3-0.8-7.9
	l-0.9-5.4c11.6-0.4,23.1-0.5,34.7-0.2c10.4,0.3,20.3-0.1,30.4,0.5c8.6,0.6,17.5,1.2,26.2,1.1c10.8-0.2,21.7,0.6,32,0.7
	c7.7,0,15.7-0.1,23.4,0.2c14.8,0.5,30.4,1,46.7,1.4c0.7,0,1.2,0.5,1.4,1.1c0.3,0.9,0.4,2.2,0.3,3.7
	C330.1,649.8,330.3,658.9,331.4,668.1z M243.4,661.7c1.2,0,2.3-1,2.3-2.2c0-0.1,0-0.2,0-0.4l-2.9-19.8c-0.2-1.1-1.1-1.9-2.2-1.9
	l-49.5-0.6c-1.2,0-2.3,1-2.3,2.2c0,0.1,0,0.1,0,0.2l1.7,19.7c0.1,1.1,1,2,2.2,2L243.4,661.7z"/>
<path class="st14" d="M243.4,661.7l-50.7-0.7c-1.2,0-2.1-0.9-2.2-2l-1.7-19.7c-0.1-1.2,0.8-2.3,2-2.4c0.1,0,0.1,0,0.2,0l49.5,0.6
	c1.1,0,2,0.8,2.2,1.9l2.9,19.8c0.2,1.2-0.7,2.4-1.9,2.5C243.6,661.7,243.5,661.7,243.4,661.7z M203.9,644.1c-0.2-0.6-0.8-1-1.4-0.8
	l-0.2,0c-0.6,0.2-1,0.8-0.8,1.4l2.5,9.3c0.2,0.6,0.8,1,1.4,0.8l0.2,0c0.6-0.2,1-0.8,0.8-1.4L203.9,644.1z M217.3,655.2l2.1-0.2
	c0.2,0,0.3-0.2,0.3-0.3c0,0,0,0,0,0l0-0.2c-0.5-6.2-1.4-11.3-1.8-11.2c0,0,0,0,0,0l-0.9,0.1c-0.5,0-0.4,5.1,0.1,11.4c0,0,0,0,0,0
	l0,0.2C217,655.1,217.2,655.2,217.3,655.2C217.3,655.2,217.3,655.2,217.3,655.2z M225.7,643.9c-0.1-0.5-0.6-0.8-1.1-0.7
	c-0.2,0-0.4,0.2-0.5,0.3l-0.7,0.8c-0.2,0.2-0.2,0.4-0.2,0.7l1,8.2c0,0.2,0.1,0.3,0.2,0.5l2,2.5c0.3,0.4,0.9,0.5,1.3,0.1
	c0.3-0.2,0.4-0.6,0.3-0.9L225.7,643.9z M197,654.4l1.4-0.1c0.2,0,0.4-0.2,0.4-0.4c0,0,0,0,0,0l0-0.1c-0.3-5.1-1-9.2-1.6-9.2
	c0,0,0,0,0,0l-0.3,0c-0.5,0-0.7,4.1-0.3,9.3c0,0,0,0,0,0.1l0,0.1C196.6,654.2,196.8,654.4,197,654.4C197,654.4,197,654.4,197,654.4z
	 M211.1,645.4c-0.1-0.4-0.5-0.6-0.9-0.6l-1,0.2c-0.4,0.1-0.6,0.5-0.6,0.9c0,0,0,0,0,0l1.7,8.3c0.1,0.4,0.5,0.6,0.9,0.6l1-0.2
	c0.4-0.1,0.6-0.5,0.6-0.9c0,0,0,0,0,0L211.1,645.4z M233.3,645.8c-0.1-0.6-0.6-1-1.2-1c0,0,0,0,0,0l-0.9,0.1c-0.6,0.1-1,0.6-1,1.2
	l0,0l1.1,9.6c0.1,0.6,0.6,1,1.2,1c0,0,0,0,0,0l0.9-0.1c0.6-0.1,1-0.6,1-1.2c0,0,0,0,0,0L233.3,645.8z"/>
<path class="st13" d="M202.3,643.4l0.2,0c0.6-0.2,1.3,0.2,1.4,0.8l2.5,9.3c0.2,0.6-0.2,1.3-0.8,1.4l-0.2,0c-0.6,0.2-1.3-0.2-1.4-0.8
	l-2.5-9.3C201.3,644.2,201.7,643.5,202.3,643.4z"/>
<path class="st13" d="M217.3,655.2c-0.2,0-0.3-0.1-0.3-0.3c0,0,0,0,0,0l0-0.2c-0.5-6.2-0.6-11.3-0.1-11.4c0,0,0,0,0,0l0.9-0.1
	c0.5-0.1,1.3,4.9,1.8,11.2c0,0,0,0,0,0.1l0,0.2c0,0.2-0.1,0.3-0.3,0.3c0,0,0,0,0,0L217.3,655.2z"/>
<path class="st13" d="M225.7,643.9l2.3,11.5c0.1,0.5-0.2,1-0.7,1.1c-0.3,0.1-0.7-0.1-0.9-0.3l-2-2.5c-0.1-0.1-0.2-0.3-0.2-0.5
	l-1-8.2c0-0.2,0-0.5,0.2-0.7l0.7-0.8c0.3-0.4,0.9-0.5,1.3-0.1C225.5,643.5,225.7,643.7,225.7,643.9z"/>
<path class="st13" d="M197,654.4c-0.2,0-0.4-0.2-0.4-0.4c0,0,0,0,0,0l0-0.1c-0.3-5.1-0.2-9.3,0.3-9.3c0,0,0,0,0,0l0.3,0
	c0.5-0.1,1.2,4,1.6,9.1c0,0,0,0.1,0,0.1l0,0.1c0,0.2-0.2,0.4-0.4,0.4c0,0,0,0,0,0L197,654.4z"/>
<path class="st13" d="M209.2,645l1-0.2c0.4-0.1,0.8,0.2,0.9,0.6l1.7,8.3c0.1,0.4-0.2,0.8-0.6,0.9l-1,0.2c-0.4,0.1-0.8-0.2-0.9-0.6
	l-1.7-8.3C208.5,645.5,208.8,645.1,209.2,645z"/>
<path class="st13" d="M231.3,644.9l0.9-0.1c0.6-0.1,1.1,0.4,1.2,1l1.1,9.6c0.1,0.6-0.4,1.1-1,1.2l-0.9,0.1c-0.6,0.1-1.1-0.4-1.2-1
	l-1.1-9.6C230.2,645.5,230.7,645,231.3,644.9z"/>
<path d="M272.8,666.6c-1.1,6.2-2.5,12-4.4,17.4c-1.5,4.4-4.1,9.3-8.1,12c-4.8,3.2-8.9,5.6-14.5,6.1c-8.8,0.8-17.2,0.5-25.2-1
	c-5.1-0.9-9.9-3.7-14.3-6.4c-5.9-3.6-8.3-8.8-11.7-16.7c-1.4-3.2-1.6-7.6-0.6-13.1c10.4-0.1,20.9,0,31.5,0.3
	c6.9,0.2,13.5,0.4,20,0.5C254.5,665.8,263.6,666.1,272.8,666.6z"/>
</svg>
