<?xml version="1.0" encoding="UTF-8"?><svg id="a" xmlns="http://www.w3.org/2000/svg" width="2.76in" height="3.31in" viewBox="0 0 199.01 238.2"><path d="m92.98.01c-11.53-.21-20.92,2.19-27.11,4.34,5.78,14.1,11.57,28.2,17.35,42.3-7.23-11.75-14.46-23.5-21.69-35.25-1.68.39-4.68,1.34-7.59,3.8-4.24,3.58-5.56,8.1-5.96,9.76,7.95,11.57,15.91,23.14,23.86,34.7h56.94c7.77-11.03,15.54-22.05,23.32-33.08-2.4-2.56-6.13-5.92-11.39-8.68-8.47-4.43-16.41-4.93-20.61-4.88-4.52,9.76-9.04,19.52-13.56,29.28,1.81-13.19,3.62-26.39,5.42-39.58C106.99,1.38,100.55.15,92.98.01" fill="#1e1f50"/><path d="m129.07,69.02h-21.6c4.81,3.25,9.2,7.05,13.09,11.37,1.52,1.68,2.95,3.45,4.31,5.27,4.52-.48,9.09,1.77,11.36,6.03,2.98,5.6.85,12.56-4.75,15.54-5.6,2.98-12.56.85-15.54-4.75-1.97-3.7-1.71-7.99.31-11.34-1.03-1.36-2.11-2.67-3.25-3.94-4.79-5.31-10.43-9.71-16.81-13.11-2.08,2.28-4.08,4.65-5.96,7.07-6.23,8.01-11.42,16.82-15.51,26.3,2.76,2.99,3.83,7.36,2.43,11.49-2.04,6.01-8.57,9.23-14.58,7.19-6.01-2.04-9.23-8.57-7.19-14.58,1.5-4.43,5.44-7.34,9.82-7.75,4.45-10.41,10.14-20.1,16.98-28.9,1.56-2.01,3.2-3.97,4.89-5.9h-16.64C29.72,87.28,0,140.59,0,185.33c0,10.08,1.5,19.81,4.29,28.97,4.32,14.19,17.4,23.9,32.23,23.9h125.96c14.83,0,27.92-9.71,32.23-23.9,2.79-9.17,4.29-18.89,4.29-28.97,0-44.75-29.36-98.06-69.94-116.31Z" fill="#1e1f50"/><path d="m107.13,204.9v9.21h-13.03v-8.75c-9.24-.55-18.21-3.05-23.75-6.47l7.02-15.9c6.1,3.6,14.23,5.91,21.35,5.91,6.19,0,8.41-1.29,8.41-3.51,0-8.13-35.77-1.57-35.77-25.69,0-10.44,7.58-19.22,22.74-21.35v-9.03h13.03v8.84c6.84.65,13.49,2.4,18.76,5.36l-6.56,15.8c-6.38-3.23-12.38-4.81-18.02-4.81-6.38,0-8.41,1.85-8.41,4.07,0,7.76,35.77,1.29,35.77,25.14,0,9.98-7.21,18.67-21.53,21.16Z" fill="#fff"/></svg>