<?xml version="1.0" encoding="utf-8"?>
<!-- Generator: Adobe Illustrator 27.0.0, SVG Export Plug-In . SVG Version: 6.00 Build 0)  -->
<svg version="1.1" id="Layer_1" xmlns="http://www.w3.org/2000/svg" xmlns:xlink="http://www.w3.org/1999/xlink" x="0px" y="0px"
	 viewBox="0 0 800 1200" style="enable-background:new 0 0 800 1200;" xml:space="preserve">
<style type="text/css">
	.st0{fill:#8194EC;}
</style>
<path d="M263.5,978.9c-5.2-0.5-10.5-1-15.7-1.6c-1.2-0.1-2.4-0.3-3.6-0.4c-0.2-1.1-0.5-2.3-0.7-3.4c-2.4-10.5-3.8-21-5.5-31.6
	c-2.7-14.1-4.4-28.4-5.9-42.7c-2.1-14.2-3.8-28.4-4.9-42.7c-2.2-16.7-3.6-33.5-5.2-50.2c-2.4-19.4-4.1-38.9-6.7-58.2
	c-2-24-4.6-47.9-5.8-72c-1.2-14.2-1.4-28.5-1.3-42.8c-0.1-4.8-0.2-9.5-0.3-14.3c1.1-0.2,2.2-0.4,3.2-0.6c1.7-0.2,3.4-0.4,5.2-0.5
	c4.4-0.4,8.7-0.6,13.1-0.9c0,0,0,0,0,0c-0.3,0-0.6,0-1,0.1c0.4,0,0.8-0.1,1.2-0.1c0.2,0,0.4,0,0.5,0c-0.1,0-0.1,0-0.2,0c0,0,0,0,0,0
	c1.1-0.1,2.1-0.2,3.2-0.2c1.2,0,2.4,0,3.6,0c-0.2,0-0.3,0-0.5,0c4.8-0.1,9.6-0.3,14.3-0.7c4.4-0.4,8.8-0.9,13.2-1.5
	c9.3-1.2,18.5-2.3,27.8-3.7c11.6-1.7,23.1-3.7,34.6-5.8c11.7-2.2,23.5-4.3,35.1-6.8c-0.2,0-0.4,0.1-0.5,0.1c0.1,0,0.2,0,0.3-0.1
	c0.1,0,0.2,0,0.3-0.1c0,0,0.1,0,0.1,0c0.1,0,0.2,0,0.3-0.1c-0.1,0-0.1,0-0.2,0c0.1,0,0.1,0,0.2,0c0,0,0,0,0,0h0c0.1,0,0.2,0,0.3-0.1
	c0.1,0,0.1,0,0.2,0c6.9-1.5,13.8-3,20.6-4.8c7.1-1.9,14.2-3.9,21.2-6.2c0.1,0,0.2-0.1,0.3-0.1c0,0,0,0,0,0c0,0,0,0,0.1,0
	c0.1,0,0.1,0,0.1,0c0,0,0,0,0,0c0.2-0.1,0.3-0.1,0.5-0.2c0,0,0,0-0.1,0c0,0,0,0,0.1,0c0,0,0.1,0,0.1,0c0.5-0.2,1-0.3,1.5-0.5
	c5.9-1.9,11.7-3.9,17.4-6.2c5.5-2.1,10.9-4.4,16.2-6.8c3.3-1.5,6.7-3,10-4.5c1.7-0.3,3.4-0.6,5.1-0.8c1.4-0.2,2.8-0.5,4.2-0.8
	c15,55.3,35.2,109.3,59.7,161c0.5,1.4,1,2.9,1.6,4.3c1.5,3.9,3,7.9,4.4,11.8c1.4,3.6,2.8,7.2,4.4,10.7c3.1,7.1,6.2,14.3,9.6,21.3
	c3.5,7.2,6.8,14.5,10.5,21.6c0,0,0,0,0,0c0.8,1.5,1.6,3,2.4,4.5c1.8,3.5,3.5,7,5.3,10.4c1.8,3.4,3.7,6.8,5.4,10.2
	c1.8,3.6,3.6,7.2,5.6,10.7c2,3.6,4,7.1,6,10.7c1.3,2.4,2.7,4.9,4,7.3c1.3,3,2.7,6,4.2,9c1.4,2.9,2.7,5.8,4.1,8.8
	c1.5,3.1,3,6.2,4.6,9.2c1.7,3.2,3.5,6.4,5.2,9.6c1.7,3.3,3.5,6.6,5.3,9.8c1.8,3.1,3.8,6.2,5.7,9.3c2,3.4,3.9,6.8,5.7,10.3
	c1.1,2.1,2.2,4.2,3.2,6.4c-2.3,2.1-4.7,4.1-7,6.2c-12.3,10.1-26,18.3-39.6,26.5c-5,2.9-9.7,5.4-14.8,7.9c-6.3,2.7-12.4,6.5-19.2,7.4
	c-0.1,0.1-0.2,0.3-0.4,0.3c-0.5,0.2-1.2,0-1.4-0.6c-20.7-44.4-44.9-87.3-71.8-128.2c-33.6-48.6-72-94.2-115.6-134.2
	c-2.2-2-4.4-3.9-6.6-5.9c-1.5,14.7-2.9,29.4-4.4,44c-3.6,38.8-6.3,77.6-7.1,116.5c-0.5,34.2-0.3,68.3,0,102.5c0.1,2.7,0.1,5.4,0.2,8
	c-0.7,0.1-1.4,0.2-2.1,0.4c0,0,0.1,0,0.1,0c-0.1,0-0.2,0-0.3,0.1c0,0,0,0,0,0c-2.9,0.5-5.7,0.9-8.6,1.1c-6.1,0.6-12.3,0.9-18.5,1.3
	c-6.5,0.4-12.9,0.9-19.4,1.1c0.1,0,0.2,0,0.3,0c-3.2,0.1-6.3,0.1-9.5,0.2c0,0,0.1,0,0.1,0c0,0-0.1,0-0.1,0c0,0,0,0,0,0h0
	c0,0,0,0,0,0c0,0,0,0-0.1,0c0,0,0,0,0,0c0,0,0,0,0,0c0,0,0,0,0,0c0,0,0,0,0,0c0,0,0,0,0,0c0,0,0,0,0,0c0,0,0,0,0,0c0,0,0,0-0.1,0
	l0,0c0,0-0.1,0-0.1,0c0,0,0,0,0,0c-1.5,0-2.9,0.1-4.4,0.1c0,0,0,0,0,0h0h0c-0.1,0-0.1,0-0.2,0c0,0,0,0,0.1,0c0,0-0.1,0-0.1,0
	c0,0,0,0,0,0c-0.6,0-1.1,0-1.7,0.1C263.8,978.9,263.7,978.9,263.5,978.9z M227,695.9c-1.5,1.6-3,3.2-4.4,4.7c0,0,0,0,0,0
	c0,0,0,0,0,0c2.9-2.4,5.8-4.8,8.6-7.3c0,0,0,0-0.1,0.1c3.3-2.9,6.3-6.1,8.9-9.6c3-4,5.6-8.2,7.6-12.8c2.1-4.7,3.4-9.7,3.9-14.8
	c0.3-2.5,0.3-5.1,0.2-7.6c-0.1-2.5-0.4-5.1-0.8-7.6c-0.4-2.3-1-4.7-1.8-6.9c-0.4-1.1-0.9-2.2-1.5-3.2c-0.2-0.2-0.3-0.4-0.5-0.6
	c-0.1-0.1-0.3-0.1-0.4-0.1c-0.1,0-0.1,0-0.1,0.1c-0.1,0.2-0.1,0.2,0,0.4c0,0.2,0,0.3,0.1,0.5c0,0.2,0.1,0.5,0.1,0.7c0,0,0,0,0,0
	c0-0.2,0-0.4,0-0.6v0c0-0.3,0-0.5,0-0.8c0,0,0,0,0-0.1c0,0,0.1,0,0.1,0h0c0,0,0.1,0,0.1,0.1c0.1,0.1,0.1,0.1,0.2,0.2c0,0,0,0,0,0
	c0,0.1,0.1,0.1,0.1,0.2c0,0,0,0,0,0c0,0.1,0.1,0.1,0.1,0.2c0.2,0.5,0.5,1,0.6,1.6c0,0,0,0,0,0c0.3,1,0.5,1.9,0.7,2.9c0,0,0,0,0-0.1
	c0.4,2,0.6,4,0.8,6.1c0,0,0-0.1,0-0.1c0.2,2.9,0.2,5.8,0,8.7c0-0.1,0-0.1,0-0.2c-0.1,2.4-0.4,4.8-0.9,7.2c0,0,0,0,0,0c0,0,0,0,0,0.1
	c0,0,0,0,0,0c0,0,0,0,0,0c-0.5,2.6-1.2,5.2-2,7.7c-1,3-2.2,6-3.6,8.8c-1.6,3.2-3.4,6.2-5.3,9.2c0,0,0,0,0,0
	c-1.7,2.5-3.5,4.9-5.4,7.2c0,0,0,0,0,0C230.5,692.2,228.8,694,227,695.9z M430.4,590.4c-0.1,0-0.2,0.6-0.2,0.6
	c-0.2,0.6-0.2,1.3-0.3,2c-0.2,1.5-0.2,3-0.1,4.5c0.1,3.6,0.7,7.1,1.6,10.6c0.9,3.4,2,6.8,3.5,10c1.4,3.1,3,6.1,5,8.9
	c1.9,2.5,4.1,4.8,6.8,6.5c1.4,0.9,2.8,1.6,4.3,2.1c1.5,0.5,3,0.9,4.6,1.2c2.1,0.3,4.2,0.4,6.3,0.4c0.7,0,1.4,0,2.1,0
	c1.5,0,3-0.1,4.5-0.2c0,0,0,0,0,0c-1.4-0.2-2.8-0.4-4.2-0.6c-2.5-0.4-5-0.7-7.4-1.2c-1.3-0.3-2.6-0.8-3.9-1.3c0,0,0.1,0,0.1,0
	c-0.8-0.3-1.5-0.7-2.3-1c-0.8-0.4-1.5-0.9-2.2-1.5c-0.8-0.6-1.5-1.2-2.2-1.9c-0.7-0.6-1.3-1.3-1.9-2c-1.1-1.4-2.1-2.9-3.1-4.4
	c-1.9-3-3.5-6.3-5-9.5c0,0.1,0.1,0.1,0.1,0.2c-1.6-3.5-2.9-7-4-10.6c0,0,0,0.1,0,0.1c-0.8-2.5-1.4-5.1-1.8-7.7c0,0,0,0,0,0
	c-0.2-1.3-0.3-2.5-0.3-3.8c0-0.4,0-0.7,0.1-1v0C430.4,590.6,430.4,590.5,430.4,590.4C430.4,590.5,430.4,590.5,430.4,590.4
	C430.4,590.5,430.4,590.4,430.4,590.4C430.4,590.4,430.4,590.4,430.4,590.4C430.4,590.4,430.4,590.4,430.4,590.4
	C430.4,590.4,430.4,590.4,430.4,590.4C430.5,590.4,430.5,590.4,430.4,590.4L430.4,590.4L430.4,590.4
	C430.5,590.4,430.5,590.4,430.4,590.4C430.5,590.4,430.5,590.4,430.4,590.4C430.4,590.4,430.4,590.4,430.4,590.4z"/>
<path d="M232.2,690.3C232.2,690.3,232.2,690.3,232.2,690.3C232.2,690.3,232.2,690.3,232.2,690.3z"/>
<path d="M248.5,657.4C248.5,657.4,248.5,657.4,248.5,657.4C248.5,657.4,248.5,657.4,248.5,657.4z"/>
<path d="M456.7,635.1C456.7,635.1,456.7,635.1,456.7,635.1C456.7,635.1,456.7,635.1,456.7,635.1z"/>
<path d="M446.1,629.4C446.1,629.4,446.1,629.4,446.1,629.4C446.1,629.4,446.1,629.4,446.1,629.4z"/>
<path d="M270.4,978.7C270.4,978.7,270.4,978.7,270.4,978.7C270.4,978.7,270.4,978.7,270.4,978.7z"/>
<path d="M248.5,657.4C248.5,657.4,248.5,657.4,248.5,657.4C248.5,657.4,248.5,657.4,248.5,657.4z"/>
<path d="M248.6,657.4C248.6,657.3,248.6,657.3,248.6,657.4C248.6,657.3,248.6,657.3,248.6,657.4
	C248.6,657.4,248.6,657.4,248.6,657.4z"/>
<path d="M248.6,657.3C248.6,657.3,248.6,657.3,248.6,657.3C248.6,657.3,248.6,657.3,248.6,657.3
	C248.6,657.3,248.6,657.3,248.6,657.3z"/>
<path d="M248.6,657.3C248.6,657.3,248.6,657.3,248.6,657.3C248.6,657.3,248.6,657.3,248.6,657.3
	C248.6,657.3,248.6,657.3,248.6,657.3z"/>
<path d="M265.9,978.9C265.9,978.9,265.9,978.9,265.9,978.9c0,0-0.1,0-0.1,0C265.8,978.9,265.9,978.9,265.9,978.9z"/>
<path d="M270.4,978.7C270.4,978.7,270.3,978.7,270.4,978.7C270.3,978.7,270.4,978.7,270.4,978.7z"/>
<path d="M270.5,978.7C270.5,978.7,270.5,978.7,270.5,978.7C270.5,978.7,270.5,978.7,270.5,978.7
	C270.5,978.7,270.5,978.7,270.5,978.7C270.5,978.7,270.5,978.7,270.5,978.7C270.5,978.7,270.5,978.7,270.5,978.7z"/>
<path d="M404.5,586.7C404.5,586.7,404.4,586.7,404.5,586.7C404.4,586.7,404.5,586.7,404.5,586.7z"/>
<path d="M229.3,616.9c0.2,0,0.4,0,0.6,0c0,0,0,0,0,0c0,0,0,0,0,0c0,0,0,0,0,0C229.6,616.9,229.4,616.9,229.3,616.9z"/>
<path d="M361.6,598.1C361.7,598.1,361.7,598.1,361.6,598.1C361.7,598.1,361.7,598.1,361.6,598.1
	C361.7,598.1,361.7,598.1,361.6,598.1C361.6,598.1,361.6,598.1,361.6,598.1C361.6,598.1,361.6,598.1,361.6,598.1z"/>
<path d="M404.3,586.8C404.3,586.8,404.3,586.8,404.3,586.8C404.3,586.8,404.3,586.8,404.3,586.8z"/>
<path d="M404.4,586.7c0,0-0.1,0-0.1,0c0,0,0,0,0,0C404.3,586.8,404.4,586.8,404.4,586.7z"/>
<path d="M405,586.5c0,0-0.1,0-0.1,0C404.9,586.6,405,586.6,405,586.5z"/>
<path d="M360.7,598.3C360.7,598.3,360.7,598.3,360.7,598.3C360.7,598.3,360.7,598.3,360.7,598.3
	C360.7,598.3,360.7,598.3,360.7,598.3z"/>
<path d="M361.3,598.1C361.3,598.1,361.3,598.1,361.3,598.1c-0.1,0-0.3,0.1-0.4,0.1c-0.1,0-0.2,0-0.3,0.1
	C360.9,598.2,361.1,598.2,361.3,598.1z"/>
<path d="M361.3,598.1c0.1,0,0.2-0.1,0.4-0.1c0,0,0,0,0,0C361.6,598.1,361.5,598.1,361.3,598.1C361.3,598.1,361.3,598.1,361.3,598.1
	C361.3,598.1,361.3,598.1,361.3,598.1z"/>
<path d="M361.7,598c0.2,0,0.3-0.1,0.5-0.1c0,0,0,0,0,0c-0.1,0-0.1,0-0.2,0C361.9,598,361.8,598,361.7,598
	C361.7,598,361.7,598,361.7,598z"/>
<path d="M680.6,999.2c0.1-0.1,0.2-0.1,0.3-0.2C680.8,999.1,680.6,999.1,680.6,999.2C680.5,999.2,680.6,999.2,680.6,999.2z"/>
<path d="M213.2,700c-3.6-25.2-6.5-50.4-8.8-75.7c-2.8-25-5.9-50.1-7.5-75.2c-2.3-29.7-1.4-59.6-2.8-89.4c0-1-0.5-2.2,0.7-2.6
	c0.7-0.2,1.4,0.3,1.5,1c0.4,2.6,0.6,5.3,0.8,8c2.4,21.7,3.6,43.5,5.9,65.2c3,31.6,7.2,63.1,10.9,94.6c2.7,24.3,4.5,48.8,7.4,73
	C221.9,704.2,214.1,705.5,213.2,700z"/>
<path d="M466.7,632.9c-5.5-25.1-11.4-50-14.2-75.5c-3.8-30.2-4.7-60.6-4.4-91c0-4.9,0.2-9.8,0.1-14.7c-0.3-1.1,0.7-2.2,1.8-2.2
	c1.1,0,1.8,1,1.7,2c-0.1,2.8,0.1,5.7,0.2,8.5c0.8,33.3,3.1,66.7,8.5,99.6c3.8,22.3,7.8,44.5,11.8,66.8c0.2,2.4,1.7,5,0.6,7.4
	C471.4,636.2,467.3,635.7,466.7,632.9z"/>
<path d="M450,573.1c-3-1-0.9-3.7,1-4.6c1.7-1,3.2-2.4,4.9-3.4c1-0.4,2.2,0.7,1.7,1.7c-0.8,1.3-2.2,2.2-3.3,3.3
	c0.1,1.3-1.1,2.2-2.1,2.7c0,0,0,0,0,0c-0.3,0.2-0.7,0.2-1.1,0.1C450.7,573.1,450.4,573.2,450,573.1z"/>
<path d="M210.3,642.5c-4.2-23.9-9.8-48.9-12.9-72.7c-4.5-34.2-5.5-68.8-4.6-103.3c0.4-3.8-0.1-8.2,2.1-11.5c1.2-1.5,3.4-1,4.3,0.5
	c1,2,1,4.4,1.3,6.6c0.7,6.7,1.4,13.5,1.9,20.3c2.6,33.9,5.6,68.9,11,102.3c2.8,18.4,4.5,37.3,7.5,55.6
	C222.1,647.2,211.9,649.4,210.3,642.5z"/>
<path d="M455.5,612.4c-1.2-1.1-1.9-2.5-2.1-4.2c-1-9.3-2.1-18.6-3.3-27.9c-1.2-9.7-2.4-19.3-3.2-29.1c-2.2-27.9-3.8-56.2-3.1-84.2
	c0.5-4.4-0.7-15.7,3.6-17.7c5.8-2.1,6.2,4.4,6.4,8.4c2.3,43.1,5,86.2,9.6,129.1c0.7,6.8,1.4,13.6,2.2,20.4
	C466.2,612.5,459.4,616,455.5,612.4z"/>
<path d="M308.3,329.5c-9.4-0.9-19-2.8-26.9-8.3c-1.4-0.9-7.4-6.1-4.5-7.2c0.8-0.4,1.8,0.3,2.6,0.7c12,6.7,29.8,6.4,43.3,5.2
	c9.9-1.3,19-5.5,28.4-8.3c2.1-0.7,3.7-1.3,5.6-2.2c1.8-0.9,3.8,1.2,2.6,2.9c-0.5,0.9-1.2,1.6-1.9,2.3
	C344.7,327.2,325.6,331.1,308.3,329.5z"/>
<path d="M256.6,1092.6c-32.5-0.1-65-1.3-97.5-2.8c-11.2-1-22.9-0.3-34-2.6c-1.1-0.2-2.2-0.5-3.4-0.8c-7-2.5-6.3-8.2-3.1-13.7
	c3.5-7.2,9.4-13.6,15.6-18.4c10.6-8.2,22.7-14.3,35.6-17.9c9.9-3,20.2-4.1,30.2-6.5c15.8-3.9,29.2-14.8,37.5-28.6
	c3.7-6,5.7-12.7,8.5-19.1c3.8-2.1,1.1,6.1,0.9,7.5c-0.3,1.5-0.7,3-1.2,4.4c1.3,0,2.8,1,4,1.7c-0.6-0.1-1.3-0.2-1.9-0.3c0,0,0,0,0,0
	c-0.2,0-0.4,0-0.6,0c-0.1,0-0.1,0.1,0,0.1c0.1,0,0.3,0.1,0.4,0.1c0,0,0,0,0,0c2.5,0.7,4.9,1.5,7.3,2.3c2.1,0.7,4.2,1.3,6.3,1.8
	c0.5,0.1,1,0.3,1.6,0.4c9.3,3.4,18.5,7.5,28,10.4c6.5,1.8,13.1,3.1,19.5,5.4c1.7,0.7,3.6,1,5.1,2c0.9,0.8,2.2,1.1,3.3,1.5
	c0,0,0,0,0,0c-0.2-5.6-0.2-11.2,0.2-16.8c0.5-6.6,0.8-13.3,1.2-19.9c0.3-3.8,6.1-3.6,5.9,0.4c-0.4,8.3-0.6,16.5-0.7,24.4
	c-0.2,15.3,2.4,30.5,3.5,45.8c0.4,5,0.9,10,1.3,15c0.3,5.3,1.6,11.3-1.1,16.2c-3.4,4.8-11.6,3.9-16.9,4.9
	c-18.2,1.9-36.6,3.1-54.9,3.1C257.1,1092.6,256.9,1092.6,256.6,1092.6z M143.4,1086c2.5,0,4.9,0.1,7.4,0.3c2.7,0.1,5.4,0.2,8.1,0.3
	c2.6,0.1,5.1,0.2,7.6,0.5c0.8,0.1,1.6,0.3,2.3,0.5c1.1,0.3,2.2,0.5,3.3,0.5c0,0,0.1,0,0.1,0c1,0,1.9-0.1,2.9-0.2
	c2.2-0.1,4.5-0.3,6.7-0.3c4.6-0.2,9.2-0.5,13.9-0.9c0,0,0,0,0,0c0,0,0,0,0,0c0,0,0,0,0,0c0,0,0,0,0,0c0,0,0,0,0.1,0c0,0,0,0,0,0
	c0.1,0,0.2,0,0.2,0c0,0,0,0,0,0c0,0,0,0,0.1,0c0,0,0,0,0,0c0.1,0,0.1,0,0.2,0c0,0,0,0,0,0c0,0,0,0,0,0c0,0,0,0,0,0c0,0,0,0,0,0
	c0,0,0,0,0,0c0.1,0,0.2,0,0.2,0c-0.1,0-0.1,0-0.2,0c0,0,0,0,0,0c0,0,0,0-0.1,0c0,0,0,0,0,0c0,0,0,0,0,0c0,0,0,0,0.1,0c0,0,0,0,0,0
	c0.1,0,0.1,0,0.2,0c0,0,0,0,0,0c1.7-0.1,3.4-0.2,5.1-0.4c-0.2,0-0.3,0-0.5,0c3-0.2,6-0.4,9-0.7c2.8-0.3,5.6-0.6,8.5-0.7
	c5.9-0.4,11.9-0.5,17.8-0.6c0.7,0,1.5,0,2.2,0c4.8,0,9.7,0.2,14.5,0.3c4.8,0.1,9.6,0.1,14.4,0.2c7.6,0.1,15.2,0,22.8-0.6
	c3.9-0.3,7.9-0.6,11.8-0.9c1.7-0.1,3.4-0.2,5.1-0.3c1.1,0,2.1,0,3.2,0c2.5,0,4.9-0.8,7.3-1.3c1.1-0.2,2.1-0.4,3.2-0.7
	c0.8-0.2,1.5-0.3,2.3-0.4c0.5,0.1,1.1,0,1.6-0.1c0,0,0,0,0,0c1.5-0.4,2.8-1.7,3-3.4c0.2-1.3-0.3-2.6-1.2-3.5
	c-0.8-0.8-1.8-1.1-2.9-1.2c-0.6,0-1.1,0.1-1.6,0.3c-1.3,0.1-2.7,0-4,0c-0.9,0-1.7,0-2.6,0c-0.4,0-0.8,0-1.1,0.1
	c-0.7-0.3-1.6-0.4-2.4-0.3c-0.3,0-0.7,0.1-1,0.1c-0.3,0-0.5,0-0.8-0.1c-0.9-0.1-1.8-0.3-2.7-0.2c-0.7,0.1-1.3,0.2-2,0.2
	c-1.5,0.1-2.9,0.2-4.4,0.3c-1,0-2.1-0.1-3.1,0c-0.3,0-0.6,0.1-0.9,0.2c-3.4,0.1-6.8,0.2-10.2,0.4c-1,0-2-0.1-3-0.1
	c-1.2,0-2.4,0-3.6,0c-1.6,0-3.2-0.1-4.8-0.1c-3.3-0.1-6.6-0.2-10-0.3c-1.2-0.1-2.5-0.2-3.7-0.2c-2-0.1-4-0.1-6.1,0
	c-1.2,0-2.4,0-3.5,0c-6.5,0-13.1-0.1-19.6-0.2c-1.6-0.1-3.2-0.3-4.7-0.3c-1.6-0.1-3.3-0.1-4.9,0c-0.5,0-1-0.1-1.5-0.1
	c-3.6-0.2-7.2-0.6-10.8-0.7c-3.4,0-6.7-0.1-10.1-0.2c-0.6-0.3-1.2-0.6-1.9-0.7c-0.6-0.1-1.3-0.2-1.9-0.2c-1.8-0.2-3.6-0.3-5.5-0.5
	c-0.1-0.4-0.1-0.9-0.2-1.3c-0.3-1.7-0.7-3.4-1.4-5c-0.7-1.6-1.7-3.1-2.8-4.5c-2.4-2.9-5.1-5.7-8.3-7.7c-4.1-2.5-8.7-4.2-13.6-4.4
	c-2.5-0.1-5.2,0.2-7.6,0.9c-2.3,0.7-4.5,1.6-6.7,2.7c-2,0.9-4,1.9-5.9,3c-0.2,0.1-0.4,0.2-0.5,0.3c-1.3-0.8-3-0.9-4.4-0.3
	c-1.4,0.6-2.5,1.6-3.6,2.5c-1.4,1.1-2.8,2.2-4,3.5c-1.2,1.3-2.4,2.6-3.5,4c-1,1.3-2,2.6-2.9,4c-0.5,0.7-1,1.5-1.4,2.2
	c-0.6,1-1.2,1.9-1.3,3c0,0.2,0,0.5,0,0.7c0,0,0,0,0,0c-0.6,0.8-0.3,2.2,0.7,2.5c0,0,0,0,0,0c0.1,1.2,0.7,2.3,1.5,3.2
	c-0.1,0.6,0,1.3,0.3,1.9c0.5,1.1,1.6,2,2.8,2.1c0,0,0,0,0,0c0.1,0,0.2,0,0.4,0.1c0,0,0.1,0,0.1,0c0.7,0.3,1.3,0.5,2.1,0.7
	c1,0.1,1.9,0.3,2.8,0.5c0.9,0.2,1.8,0.4,2.6,0.7c0.4,0.3,0.9,0.6,1.4,0.8c0.6,0.2,1.2,0.3,1.8,0.3c0.7,0,1.4,0,2,0
	c0.4,0,0.8,0,1.1,0C143.2,1086,143.3,1086,143.4,1086z M287.6,1034c-1.9,2-3.5,4.5-4,7.2c-0.4,1.9-0.4,3.8,0.1,5.7
	c0.1,0.8,0.3,1.5,0.6,2.2c0.4,0.9,0.9,1.7,1.5,2.4c0.2,0.3,0.4,0.6,0.6,0.8c0.8,1,1.7,2,2.7,2.8c1.7,1.3,3.7,2.6,5.9,3
	c0.2,0,0.3,0.1,0.5,0.1c0.7,0.1,1.3,0.2,2,0.2c0.7,0.2,1.4,0.4,2.2,0.5c2.3,0.2,4.7,0,6.7-1.2c1.9-1.1,3.7-2.4,4.9-4.3
	c0.7-1.1,1.3-2.3,1.7-3.6c0.4-1.1,0.5-2.3,0.6-3.4c0.2-2.4-0.3-4.8-1-7.1c-0.8-2.5-1.8-4.9-3.5-7c-0.8-0.9-1.8-1.7-2.9-2.3
	c-1-0.6-2.1-1-3.2-1.3c-0.1,0-0.1,0-0.2,0c-1-0.2-2-0.3-2.9-0.3C295.2,1028.5,290.7,1030.7,287.6,1034z M202.8,1033.7
	c1.9,0.5,3.8,0.9,5.8,1.4c0.7,0.2,1.5,0.3,2.2,0.5c0.5,0.1,1.1,0.3,1.6,0.4c0.1,0,0.2,0,0.3,0.1c1.4,0.3,2.8,0.6,4.3,0.8
	c1.4,0.2,2.8,0.5,4.2,0.7c0.8,0.1,1.7,0.2,2.5,0.3c0.6,0.1,1.3,0.2,1.9,0.2c1.7,0.2,3.4,0.3,5.1,0.5c0.9,0.1,1.8,0.1,2.6,0.2
	c1,0,2,0.1,3,0.1c0.7,0,1.3,0,2,0c0.3,0,0.5,0,0.8,0c0.6,0,1.1,0,1.7,0c0,0,0,0,0,0c0,0,0,0,0,0c0,0,0,0,0,0c0,0,0,0,0,0
	c0,0,0,0,0,0c0,0,0.1,0,0.1,0c0,0,0,0,0,0c0,0,0,0,0.1,0c0,0,0,0,0.1,0c0,0,0,0,0,0c0,0,0,0,0,0c0.1,0,0.1,0,0.2,0c0,0,0,0,0,0
	c0,0,0,0,0.1,0c0,0,0,0,0,0c0,0,0,0,0,0s0,0,0,0c0,0,0,0,0,0c0.1,0,0.3,0,0.4,0l0,0c0,0,0,0,0,0c0,0,0,0,0,0c0,0,0,0,0.1,0
	c0,0,0,0,0,0c0,0,0,0,0,0c0.2,0,0.4,0,0.7,0c0,0,0,0,0,0c0,0,0,0,0,0c0,0,0,0,0,0c0.2,0,0.3,0,0.5,0c0,0-0.1,0-0.1,0
	c0.3,0,0.7,0,1-0.1c0,0,0.1,0,0.1,0c0,0,0.1,0,0.1,0c0,0,0,0,0,0c0,0,0,0,0,0c0,0,0.1,0,0.1,0c0,0,0,0,0,0c0.4,0,0.8-0.1,1.2-0.1
	c0.7-0.1,1.3-0.2,2-0.2c0.4,0,0.8-0.1,1.2-0.2c0.6-0.1,1.3-0.2,1.9-0.3c0.9-0.2,1.7-0.4,2.6-0.6c0.8-0.2,1.6-0.4,2.4-0.7
	c1-0.3,1.9-0.7,2.8-1.2c0.8-0.5,1.5-1.1,1.9-2c0.3-0.8,0.2-1.6-0.4-2.2c-0.5-0.6-1.3-0.7-2-0.8c-0.4,0-0.9-0.1-1.3-0.1
	c-1.6-0.1-3.2-0.1-4.7-0.1c-0.9,0-1.8,0-2.7,0c-0.8,0-1.5-0.1-2.3-0.1c-1-0.1-2-0.2-3-0.3c-0.9-0.1-1.8-0.3-2.7-0.5
	c-0.9-0.2-1.8-0.4-2.6-0.7c-0.7-0.2-1.4-0.4-2.1-0.7c0.2,0,0.4,0,0.6,0c2.2,0.2,4.4,0.3,6.6,0.4c1.6,0.1,3.3,0.1,4.9,0.1
	c1.7,0,3.4-0.1,5.1-0.3c0.8-0.1,1.6-0.2,2.4-0.3c0.8-0.1,1.5-0.2,2.3-0.4c0.9-0.2,1.8-0.4,2.6-0.6c1.1-0.3,2.2-0.5,3.3-1
	c0.8-0.3,1.1-1.2,0.7-2c-0.3-0.7-1-0.9-1.7-0.8c-0.8,0-1.6-0.1-2.3-0.2c0,0,0,0,0,0c0,0,0,0,0,0c0,0,0,0,0,0
	c-2.3-0.3-4.5-0.8-6.7-1.3c0,0-0.1,0-0.1,0c0,0,0.1,0,0.1,0c0,0-0.1,0-0.1,0c0,0,0,0,0,0c-1.9-0.5-3.7-1-5.5-1.6
	c0.1,0,0.1,0,0.2,0.1c-0.9-0.4-1.8-0.7-2.7-1.1c-0.8-0.3-1.5-0.7-2.2-1.1c-0.6-0.3-1.2-0.7-1.8-1c-0.2-0.1-0.5-0.3-0.7-0.4
	c0.9,0.1,1.8,0.1,2.7,0.2c1.7,0.1,3.5,0.2,5.2,0.2c0.7,0,1.5,0,2.2,0c0.5,0,0.9-0.1,1.4-0.1c0.3,0,0.6,0,0.9-0.1
	c0.8-0.1,1.7-0.2,2.5-0.4c0.9-0.2,1.7-0.4,2.6-0.6c1.6-0.4,3.1-0.9,4.6-1.4c0.7-0.2,1.4-0.4,2.1-0.6c0.8-0.2,1.5-0.3,2.3-0.5
	c0.6-0.1,1.2-0.1,1.8-0.2c0.6,0,1.1,0,1.7-0.2c0.5-0.1,0.8-0.6,0.8-1.1c0-0.5-0.5-0.9-1-0.9c-1.1,0-2.2-0.1-3.3-0.2h0
	c-2.4-0.3-4.8-0.6-7.2-1c-2.5-0.4-5-1-7.4-1.5c0,0,0,0,0.1,0c-1.7-0.4-3.4-0.9-5.1-1.5c-0.9-0.3-1.7-0.7-2.6-1.1c0,0,0,0,0,0
	c-0.5-0.3-0.9-0.5-1.4-0.8c-0.2-0.1-0.4-0.3-0.6-0.4l0,0c-0.1-0.1-0.2-0.2-0.3-0.3c0,0,0,0,0,0c0-0.1-0.1-0.1-0.1-0.2c0,0,0,0,0-0.1
	c0,0,0,0,0,0c0,0,0,0,0,0c0,0,0,0,0,0c0,0,0,0,0,0c0,0,0,0,0,0c0,0.1,0,0.1,0,0.2c0.2,0.4,0.5,0.7,0.9,1c0.5,0.4,1,0.8,1.6,1.1
	c1.1,0.7,2.3,1.3,3.5,1.8c0.6,0.2,1.2,0.4,1.7,0.6c0.6,0.2,1.2,0.4,1.7,0.5c0.5,0.1,0.9,0.3,1.4,0.4c1,0.3,2,0.5,3.1,0.8
	c0,0,0,0-0.1,0c2.3,0.5,4.6,1,6.8,1.5c0.3,0.1,0.5,0.1,0.8,0.2c-0.6,0.1-1.2,0.3-1.8,0.5c-1.3,0.3-2.5,0.8-3.8,1.1
	c-0.7,0.2-1.3,0.4-2,0.5c-0.6,0.1-1.2,0.2-1.8,0.4c-0.4,0-0.7,0.1-1.1,0.1c-0.3,0-0.6,0.1-0.9,0.1c-0.7,0-1.3,0-2,0.1
	c-1,0-1.9,0-2.9-0.1c-1-0.1-1.9-0.1-2.9-0.2c0,0,0,0,0,0c0,0,0,0,0,0c0,0,0,0-0.1,0c0,0,0,0,0,0c0,0,0,0,0,0c0,0,0,0,0,0
	c0,0,0,0,0,0c0,0,0,0,0,0h0h0c0,0,0,0,0,0h0c-2.1-0.2-4.2-0.5-6.2-0.9c0,0,0,0,0,0c0,0,0,0,0,0c-0.4-0.1-0.8-0.2-1.2-0.4
	c-0.2-0.1-0.3-0.1-0.5-0.2c-0.5-0.2-0.9-0.3-1.4-0.2c-0.5,0.1-1,0.5-1.2,0.9c-0.2,0.4-0.3,0.8-0.3,1.2c0,0.8,0.6,1.6,1.2,2.2
	c0.7,0.7,1.4,1.2,2.3,1.7c0.7,0.4,1.4,0.8,2.1,1.1c1.2,0.6,2.5,1.2,3.8,1.7c0.8,0.3,1.7,0.6,2.5,0.9c0.9,0.3,1.7,0.5,2.6,0.8
	c1.5,0.4,3,0.8,4.6,1.1c1.3,0.3,2.6,0.6,3.9,0.8c-0.6,0.2-1.3,0.3-1.9,0.4c-0.7,0.1-1.3,0.2-2,0.3c-0.6,0.1-1.3,0.1-1.9,0.2
	c-1.1,0.1-2.2,0.2-3.3,0.2c-1.1,0-2.1,0-3.2,0c-1.3,0-2.5-0.1-3.8-0.2c-2.2-0.1-4.3-0.4-6.5-0.5c0,0,0,0,0,0c0,0,0,0,0,0
	c0,0,0,0,0,0c0,0,0,0,0,0h0c0,0,0,0,0,0c0,0,0,0,0,0c0,0,0,0,0,0c0,0,0,0,0,0c-0.5-0.1-1.1-0.1-1.6-0.2c0,0,0.1,0,0.1,0
	c-1.1-0.1-2.3-0.3-3.4-0.5c-0.2-0.1-0.4-0.1-0.7-0.2c-1.2-0.3-2.3,0.6-2.2,1.8c0,0.5,0.2,0.9,0.5,1.2c0.3,0.3,0.6,0.5,0.9,0.8
	c0.4,0.3,0.8,0.5,1.2,0.7c0.5,0.3,1.1,0.6,1.7,0.8c1.3,0.5,2.6,1,4,1.3c3.2,0.8,6.5,1.4,9.8,1.6c1.7,0.1,3.4,0.1,5.1,0.1
	c1.6,0,3.2-0.1,4.7,0c0,0,0,0,0,0c0.2,0,0.4,0,0.6,0c0,0,0,0-0.1,0c0,0,0,0,0.1,0c0,0,0,0,0,0c0,0,0,0,0,0c0,0,0,0,0,0
	c0.1,0,0.1,0,0.2,0c0,0,0,0,0,0c0,0-0.1,0-0.1,0c0,0,0.1,0,0.1,0c0,0,0,0,0.1,0c-0.2,0.1-0.5,0.3-0.7,0.4c-0.9,0.4-1.8,0.8-2.8,1.1
	c0,0,0,0,0.1,0c-1.9,0.6-3.8,1.1-5.7,1.5c-0.5,0.1-1,0.2-1.6,0.3c-0.5,0.1-1,0.2-1.6,0.3c-1.2,0.1-2.3,0.3-3.5,0.4
	c-1.2,0.1-2.3,0.1-3.5,0.2h0h0c0,0,0,0-0.1,0c0,0,0,0,0,0c0,0,0,0,0,0c0,0,0,0,0,0c0,0,0,0,0,0c0,0,0,0,0,0h0h0
	c-1.1,0.1-2.1,0-3.2,0.1c-0.9,0-1.7,0-2.6,0c-1.9,0-3.8-0.1-5.7-0.2c0,0,0,0,0,0c0,0,0,0,0,0c0,0,0,0,0,0c-1.4-0.1-2.8-0.2-4.1-0.3
	c-1.4-0.2-2.9-0.3-4.3-0.5c-0.7-0.1-1.5-0.2-2.2-0.3c-0.7-0.1-1.4-0.2-2.1-0.3c-1.4-0.3-2.8-0.5-4.2-0.7
	C206.7,1034.3,204.7,1034,202.8,1033.7C202.8,1033.6,202.8,1033.7,202.8,1033.7z"/>
<path d="M195.8,1086.7C195.8,1086.7,195.8,1086.7,195.8,1086.7C195.8,1086.7,195.8,1086.7,195.8,1086.7z"/>
<path d="M196.3,1086.6c0,0-0.1,0-0.1,0C196.2,1086.6,196.2,1086.6,196.3,1086.6z"/>
<path d="M196.3,1086.6C196.3,1086.6,196.3,1086.6,196.3,1086.6C196.3,1086.6,196.3,1086.6,196.3,1086.6
	C196.3,1086.6,196.3,1086.6,196.3,1086.6z"/>
<path d="M195.7,1086.7C195.7,1086.7,195.7,1086.7,195.7,1086.7C195.7,1086.7,195.7,1086.7,195.7,1086.7z"/>
<path d="M195.8,1086.7C195.8,1086.7,195.8,1086.7,195.8,1086.7C195.8,1086.7,195.8,1086.7,195.8,1086.7
	C195.8,1086.7,195.8,1086.7,195.8,1086.7z"/>
<path d="M196,1086.7C196,1086.7,196,1086.7,196,1086.7L196,1086.7C196,1086.7,196,1086.7,196,1086.7L196,1086.7
	C196,1086.7,196,1086.7,196,1086.7C196,1086.7,196,1086.7,196,1086.7z"/>
<path d="M196.3,1086.6C196.3,1086.6,196.3,1086.6,196.3,1086.6C196.3,1086.6,196.3,1086.6,196.3,1086.6
	C196.3,1086.6,196.3,1086.6,196.3,1086.6C196.3,1086.6,196.3,1086.6,196.3,1086.6z"/>
<path d="M136.4,1084.6c-0.1-0.1-0.2-0.1-0.2-0.2C136.3,1084.5,136.4,1084.6,136.4,1084.6C136.4,1084.7,136.4,1084.7,136.4,1084.6z"
	/>
<path d="M294.9,1083c-0.1,0-0.1,0-0.2,0C294.8,1083,294.9,1083,294.9,1083z"/>
<path d="M136.3,1057.9c-0.1,0.1-0.1,0.1-0.2,0.2C136.2,1058,136.3,1058,136.3,1057.9z"/>
<path d="M235.3,1025.3C235.3,1025.3,235.3,1025.3,235.3,1025.3C235.3,1025.3,235.3,1025.3,235.3,1025.3z"/>
<path d="M235.3,1025.3C235.3,1025.3,235.3,1025.3,235.3,1025.3C235.3,1025.3,235.3,1025.3,235.3,1025.3z"/>
<path d="M244.1,1038.6C244.2,1038.6,244.2,1038.6,244.1,1038.6C244.2,1038.6,244.2,1038.6,244.1,1038.6z"/>
<path d="M235.3,1025.3C235.3,1025.3,235.3,1025.3,235.3,1025.3C235.3,1025.3,235.3,1025.3,235.3,1025.3z"/>
<path d="M241.1,1038.7C241.1,1038.7,241.1,1038.7,241.1,1038.7C241.1,1038.7,241.1,1038.7,241.1,1038.7z"/>
<path d="M241.4,1038.7C241.5,1038.7,241.5,1038.7,241.4,1038.7C241.5,1038.7,241.5,1038.7,241.4,1038.7z"/>
<path d="M242.6,1038.7C242.6,1038.7,242.6,1038.7,242.6,1038.7C242.7,1038.7,242.7,1038.7,242.6,1038.7
	C242.7,1038.7,242.7,1038.7,242.6,1038.7C242.6,1038.7,242.6,1038.7,242.6,1038.7C242.6,1038.7,242.6,1038.7,242.6,1038.7
	C242.6,1038.7,242.6,1038.7,242.6,1038.7z"/>
<path d="M244.2,1038.6C244.2,1038.6,244.2,1038.6,244.2,1038.6C244.2,1038.6,244.2,1038.6,244.2,1038.6z"/>
<path d="M256.4,1032.8C256.4,1032.9,256.4,1032.9,256.4,1032.8C256.4,1032.9,256.4,1032.9,256.4,1032.8z"/>
<path d="M255.4,1032.8C255.4,1032.8,255.4,1032.8,255.4,1032.8C255.4,1032.8,255.4,1032.8,255.4,1032.8z"/>
<path d="M255.3,1032.8C255.4,1032.8,255.4,1032.8,255.3,1032.8C255.4,1032.8,255.4,1032.8,255.3,1032.8z"/>
<path d="M233.7,1025.1C233.7,1025.1,233.7,1025.1,233.7,1025.1C233.7,1025.1,233.7,1025.1,233.7,1025.1z"/>
<path d="M254.4,1021.5C254.4,1021.5,254.4,1021.5,254.4,1021.5C254.4,1021.5,254.4,1021.5,254.4,1021.5z"/>
<path d="M254.2,1021.5C254.2,1021.5,254.2,1021.5,254.2,1021.5C254.2,1021.5,254.2,1021.5,254.2,1021.5z"/>
<path d="M248.5,1006.5C248.5,1006.5,248.5,1006.5,248.5,1006.5C248.5,1006.5,248.5,1006.5,248.5,1006.5
	C248.5,1006.5,248.5,1006.5,248.5,1006.5z"/>
<path d="M248.5,1006.5C248.5,1006.5,248.5,1006.5,248.5,1006.5C248.5,1006.5,248.5,1006.5,248.5,1006.5z"/>
<path d="M245.9,1005.4C245.9,1005.4,245.9,1005.4,245.9,1005.4C245.9,1005.4,245.9,1005.4,245.9,1005.4z"/>
<path d="M244.6,1004.6C244.6,1004.6,244.6,1004.6,244.6,1004.6C244.6,1004.6,244.6,1004.6,244.6,1004.6z"/>
<path d="M221.3,1036.5C221.3,1036.5,221.3,1036.5,221.3,1036.5C221.3,1036.5,221.3,1036.5,221.3,1036.5z"/>
<path d="M241.4,1038.7C241.4,1038.7,241.4,1038.7,241.4,1038.7C241.4,1038.7,241.4,1038.7,241.4,1038.7
	C241.4,1038.7,241.4,1038.7,241.4,1038.7z"/>
<path d="M241.4,1038.7C241.4,1038.7,241.4,1038.7,241.4,1038.7C241.4,1038.7,241.4,1038.7,241.4,1038.7
	C241.4,1038.7,241.4,1038.7,241.4,1038.7z"/>
<path d="M241.9,1038.7C241.9,1038.7,241.9,1038.7,241.9,1038.7C241.9,1038.7,241.9,1038.7,241.9,1038.7
	C241.9,1038.7,241.9,1038.7,241.9,1038.7z"/>
<path d="M241.9,1038.7C241.9,1038.7,242,1038.7,241.9,1038.7C242,1038.7,242,1038.7,241.9,1038.7
	C241.9,1038.7,241.9,1038.7,241.9,1038.7C241.9,1038.7,241.9,1038.7,241.9,1038.7C241.9,1038.7,241.9,1038.7,241.9,1038.7
	C241.9,1038.7,241.9,1038.7,241.9,1038.7z"/>
<path d="M242,1038.7C242,1038.7,242,1038.7,242,1038.7C242,1038.7,242,1038.7,242,1038.7C242,1038.7,242,1038.7,242,1038.7z"/>
<path d="M244.3,1038.6C244.3,1038.6,244.2,1038.6,244.3,1038.6C244.2,1038.6,244.3,1038.6,244.3,1038.6z"/>
<path d="M247.4,1035.9C247.4,1035.9,247.3,1035.9,247.4,1035.9C247.3,1035.9,247.4,1035.9,247.4,1035.9z"/>
<path d="M235.2,1025.3C235.2,1025.3,235.2,1025.3,235.2,1025.3C235.2,1025.3,235.2,1025.3,235.2,1025.3
	C235.2,1025.3,235.2,1025.3,235.2,1025.3z"/>
<path d="M235.2,1025.3C235.2,1025.3,235.2,1025.3,235.2,1025.3C235.2,1025.3,235.2,1025.3,235.2,1025.3
	C235.2,1025.3,235.2,1025.3,235.2,1025.3z"/>
<path d="M235.2,1025.3C235.2,1025.3,235.2,1025.3,235.2,1025.3C235.3,1025.3,235.3,1025.3,235.2,1025.3
	C235.3,1025.3,235.2,1025.3,235.2,1025.3C235.2,1025.3,235.2,1025.3,235.2,1025.3z"/>
<path d="M235.3,1025.3C235.3,1025.3,235.3,1025.3,235.3,1025.3C235.3,1025.3,235.3,1025.3,235.3,1025.3
	C235.3,1025.3,235.3,1025.3,235.3,1025.3z"/>
<path d="M245.9,1014C245.8,1014,245.8,1014,245.9,1014C245.8,1014,245.8,1014,245.9,1014z"/>
<path d="M245.9,1014C245.9,1014,245.9,1014,245.9,1014C245.9,1014,245.9,1014,245.9,1014C245.9,1014,245.9,1014,245.9,1014z"/>
<path d="M245.9,1014C245.9,1014,245.9,1014,245.9,1014C245.9,1014,245.9,1014,245.9,1014C245.9,1014,245.9,1014,245.9,1014z"/>
<path d="M243.6,1003.7C243.6,1003.7,243.6,1003.7,243.6,1003.7L243.6,1003.7z"/>
<path d="M320.9,1074.5C320.9,1074.5,320.9,1074.5,320.9,1074.5C320.9,1074.5,320.9,1074.5,320.9,1074.5z"/>
<path d="M188.4,1094.3c-15-0.3-57.9-0.8-67.1-12.6c-1.5-2.3-1.3-5.2-0.5-7.7c2.1-8.2,7.9-15,14.4-20c5.1-3.5,10.9-7.3,17.2-7.8
	c1.2-0.1,2.8,0.6,2.1,2c-3.3,2.2-7.2,3.8-10.5,6.1c-3.9,2.5-7.3,5.7-10.4,9.1c-2.5,2.8-4.7,5.9-5.9,9.5c-0.3,1.5-1.6,3.7-0.6,5.1
	c14.4,8.4,50.5,7.4,67.9,7.4c18.4-0.3,36.7-0.3,55.1-0.7c15.4-0.6,30.7-1.7,46-2.9c5.1-0.4,10.1-0.6,14.8-0.9
	c3.8-0.5,8.2,0,11.5-2.2c0.3-2.5,0.4-5,0.7-7.5c0-2.8,0-6.1,3.6-6.2c2,0,3.5,1.6,3.5,3.5c0,2.6,0.3,5.2,0.4,7.8
	c1,8.6-5,11.4-12.6,11.8c-18.7,1.4-37.4,3.9-56.1,5.2C237.6,1094.9,213,1094,188.4,1094.3z"/>
<path d="M203.7,1075.1c-3.7-0.3-14.4-0.4-11.7-6.5c-0.1-1.9-0.5-6.6,2.7-5.3c1.4,0.8,0.6,2.5,1.1,3.7c0.3,0.2,0.5,0.5,0.7,0.9
	c13.3,0.4,26.6-0.8,39.9-1.3c26.4-1.1,52.9-2.1,79.4-2.4c2.4,0.2,4.9-0.6,7.1,0.4c2.9,1.1,3.2,5.5,0.5,7c-1.5,0.9-3.1,0.9-4.8,0.9
	c-5.1,0.4-10.2,0.5-15.3,0.8c-6.4,0.3-12.9,0.5-19.3,0.8C257.1,1075.1,230.4,1076.1,203.7,1075.1z"/>
<path d="M310.6,1020.3c-0.9-0.8-1.6-1.6-2.2-2.6c-6.1,0.2-12.1-1.8-18-3.3c-3.6-0.8-6.6-3-10.2-3.2c-4.5-0.8-5.4-5.5-3.4-8.3
	c0.7,0.1,1.3,0.1,2,0.2c0.7,0.1,1.3,0.2,2,0.4c1,0.2,1.9,0.3,2.9,0.5c3.5,0.8,6.9,1.7,10.4,2.5c2.1,0.4,4.3,0.8,6.4,1.3
	c2.2,0.4,4.4,1,6.7,1c0.2,0,0.4,0,0.6,0c2.3-0.1,4.1-1.7,4.6-3.7c4.3,0,9.3,0.9,11.2,5.3c1.8,4.3-0.5,9.3-5.3,9.9
	c-1.1,0.9-2.5,1.4-3.9,1.4C312.9,1021.6,311.6,1021.2,310.6,1020.3z"/>
<path d="M305.5,1008.2C305.5,1008.2,305.4,1008.2,305.5,1008.2C305.5,1008.2,305.5,1008.2,305.5,1008.2
	C305.5,1008.2,305.5,1008.2,305.5,1008.2z"/>
<path d="M305.3,1008.1L305.3,1008.1C305.3,1008.1,305.3,1008.1,305.3,1008.1C305.4,1008.1,305.4,1008.1,305.3,1008.1
	C305.3,1008.1,305.3,1008.1,305.3,1008.1z"/>
<path d="M315.2,1010.4c-16.6,0.2-33.2-2.5-49.4-6.1c-5.3-1.6-21.3-4.6-23.1-9.8c-0.1-3.2,3.8-1.9,5.8-1.5c4.3,0.7,8.5,1.6,12.8,2.4
	c18.6,3.9,37.6,5.8,56.5,6.9c3.1-1,5.9,2.8,4.1,5.4C320.9,1010.1,317.5,1010.8,315.2,1010.4z"/>
<path d="M597.1,1068.5c-4.9-2.8-6.8-8.6-9.2-13.4c-2.2-4.5-4.3-9.1-6.5-13.6c-6.9-13.7-12.4-28-20.4-41.1
	c-4.1-6.7-8.5-13.7-13.1-20.6c-2.2-3.4,2.7-6.5,4.9-3.4c3.7,5.5,7.4,11,11.2,16.5c3.2,4.6,6.1,9.4,8.7,14.3c0,0,0,0,0,0
	c0.8-0.9,1.8-1.8,2.1-3c0.8-1.7,2.2-2.9,3.4-4.4c4.3-5.2,9.3-9.8,14-14.6c6.7-7.3,12.5-15.5,18.8-23.2c0.4-0.4,0.8-0.7,1.2-1.1
	c1.6-1.6,3-3.1,4.5-4.8c1.7-1.9,3.3-3.9,5.1-5.7c0,0,0,0,0,0c0.1-0.1,0.2-0.2,0.3-0.3c0,0,0-0.1-0.1-0.1c-0.2,0.1-0.3,0.2-0.5,0.3
	c0,0,0,0,0,0c-0.5,0.4-1,0.8-1.5,1.2c0.7-1.2,1.5-2.8,2.6-3.5c-1.1-1-2.2-2.1-3.3-3.2c-1-1.1-7.4-6.8-3.1-6.9
	c5.6,4,10.8,8.8,17,12.1c14.2,7.7,31.3,10.2,46.9,5.5c9.8-3,19.3-7.3,29.3-9.8c12.9-3.5,26.5-4.4,39.7-2.8c7.8,1,16.2,3.4,22.8,7.9
	c5.6,3.1,9.1,7.7,4.4,13.4c-0.8,0.8-1.6,1.6-2.5,2.4c-8.3,7.6-18.7,13-27.9,19.6c-27.2,17.9-54.5,35.5-82.4,52.2
	c-0.2,0.1-0.4,0.2-0.6,0.3c-15.7,9.3-32.2,17.7-48.8,25.4c-4.1,1.5-9.2,5-13.9,5C599.2,1069.2,598.1,1069,597.1,1068.5z M732.8,948
	c-2.4,0.2-4.8,0.5-7.1,1.1c-2.5,0.6-4.9,1.8-7,3.1c-4.1,2.6-7.2,6.5-9.4,10.7c-1.8,3.4-2.7,7.2-3.2,10.9c-0.3,1.8-0.3,3.5-0.1,5.3
	c0.2,1.7,0.8,3.4,1.4,5c0.2,0.4,0.3,0.8,0.5,1.3c-1.5,1.1-3,2.1-4.4,3.2c-0.5,0.4-1,0.8-1.5,1.2c-0.5,0.4-0.9,0.9-1.3,1.5
	c-2.8,1.8-5.7,3.6-8.6,5.3c-3.1,1.9-5.9,4.1-8.9,6.1c-0.4,0.3-0.8,0.5-1.2,0.8c-1.4,0.8-2.9,1.6-4.2,2.6c-1.3,0.9-2.6,1.8-3.9,2.7
	c-5.6,3.4-11.2,6.8-16.7,10.2c-1,0.6-2,1.2-3,1.8c-1.7,1-3.5,2-5.2,3.1c-1,0.7-2.1,1.4-3.1,2.1c-2.8,1.8-5.6,3.6-8.4,5.4
	c-1.4,0.9-2.7,1.7-4.1,2.6c-1,0.6-2.1,1.2-3.1,1.8c-0.9,0.5-1.7,1.1-2.6,1.6c-3,1.6-5.9,3.3-8.9,4.9c-0.3,0.1-0.6,0.2-0.9,0.3
	c-0.9,0.4-1.8,1-2.7,1.6c-1.3,0.7-2.6,1.3-3.9,2c-0.6,0.3-1.2,0.5-1.8,0.8c-0.8,0.4-1.5,1-2.2,1.6c-0.2,0.2-0.4,0.3-0.6,0.4
	c-0.3,0.2-0.6,0.3-0.9,0.5c-0.8,0.4-1.4,0.9-1.9,1.5c-0.4,0.1-0.7,0.3-1,0.5c-0.7,0.4-1.5,0.9-2.2,1.3c-1.1,0.7-2.3,1.4-3.4,2
	c-0.5,0.1-1.1,0.3-1.5,0.6c-0.9,0.6-1.6,1.4-1.9,2.5c-0.3,1.2,0,2.6,0.8,3.6c1.1,1.4,2.8,1.8,4.3,1.4c0,0,0,0,0,0
	c0.5-0.1,1-0.4,1.5-0.7c0.7-0.3,1.5-0.5,2.2-0.8c1-0.4,2.1-0.7,3.1-1.1c2.4-0.7,4.9-1.3,7-2.6c0.9-0.6,1.8-1.1,2.8-1.6
	c1.5-0.7,3-1.5,4.5-2.3c3.5-1.8,7.1-3.5,10.6-5.3c6.8-3.4,13.4-7.1,19.9-11.1c4.1-2.5,8.2-5,12.3-7.5c4.1-2.6,8.2-5.2,12.3-7.7
	c0.6-0.4,1.3-0.8,1.9-1.1c5.1-3,10.3-5.9,15.6-8.6c2.5-1.3,5.1-2.5,7.7-3.7c2.6-1.2,5.2-2.5,7.7-3.8c0,0,0,0,0,0
	c1.5-0.8,3-1.5,4.6-2.3l0,0c0.1,0,0.1-0.1,0.2-0.1c0,0,0,0,0,0c0,0,0,0,0,0c0,0,0,0,0,0c-0.1,0-0.1,0-0.1,0.1c0.1,0,0.1-0.1,0.2-0.1
	c0,0,0,0,0,0s0,0,0,0c0,0,0,0,0,0c0,0,0,0,0,0c0.1,0,0.1-0.1,0.2-0.1c0,0,0,0,0,0c0.1,0,0.1-0.1,0.2-0.1l0,0c0,0,0,0,0.1,0
	c4.2-2,8.3-4.1,12.4-6.3c2-1.1,4-2.1,6-3.1c0.9-0.4,1.7-0.9,2.6-1.3c0,0,0.1,0,0.1-0.1c1-0.6,1.8-1.3,2.6-2.1
	c0.6-0.6,1.2-1.1,1.8-1.6c2-1.6,4.2-2.9,6.3-4.3c2.3-1.5,4.5-2.9,6.8-4.4c2.1-1.4,4.1-2.7,6.2-4c0.1,0,0.1-0.1,0.2-0.1
	c0.3-0.2,0.7-0.4,1-0.6c0.6-0.3,1.2-0.7,1.7-1c0.5-0.3,1-0.7,1.4-1.2c0.4-0.4,0.6-0.9,0.8-1.4c0.6-0.7,1.2-1.3,1.9-2
	c0.7-0.7,1.4-1.3,2.2-1.9c0.6-0.5,1-1,1.4-1.6c0,0,0.1-0.1,0.1-0.1c0.1-0.1,0.2-0.2,0.3-0.2c0,0,0,0,0,0c1-0.7,1.5-2.1,1.3-3.3
	c-0.1-0.6-0.3-1.2-0.7-1.7c0.3-1.2,0.3-2.4-0.3-3.5c0,0,0,0,0,0c0.6-0.8,0.2-2.1-0.7-2.5c0,0,0,0,0,0c-0.1-0.2-0.2-0.4-0.3-0.6
	c-0.7-0.9-1.6-1.4-2.6-1.9c-0.8-0.4-1.6-0.8-2.4-1.2c-1.5-0.7-3-1.4-4.5-1.9c-1.7-0.6-3.4-1.2-5.1-1.7c-1.7-0.5-3.5-0.7-5.2-1
	c-1.5-0.2-2.9-0.5-4.4-0.3c-1.5,0.2-2.9,1.2-3.6,2.5c-0.2,0-0.4,0-0.6,0C737.2,947.6,735,947.8,732.8,948z M593.7,1005.4
	c-0.8,0.5-1.6,1.1-2.4,1.8c0,0-0.1,0.1-0.1,0.1c-0.8,0.8-1.5,1.8-2.1,2.8c-0.6,1-1.1,2.3-1.3,3.4c-0.4,2.6-0.1,5.2,0.6,7.7
	c0.6,2.3,1.4,4.7,2.7,6.6c0.6,0.9,1.4,1.9,2.2,2.6c1,0.9,2.1,1.6,3.3,2.2c2,1,4.2,1.3,6.4,1.2c2.3-0.1,4.5-1.1,6.4-2.4
	c0.6-0.4,1.1-1,1.6-1.5c0.6-0.3,1.1-0.7,1.6-1.2c0.1-0.1,0.3-0.2,0.4-0.3c1.6-1.5,2.7-3.6,3.5-5.6c0.5-1.2,0.7-2.6,0.9-3.8
	c0-0.3,0.1-0.7,0.1-1c0.1-0.9,0.2-1.9,0-2.8c-0.1-0.8-0.3-1.5-0.6-2.2c-0.6-1.8-1.5-3.4-2.8-4.9c-1.8-2.1-4.5-3.4-7.1-4.2
	c-1.6-0.4-3.2-0.7-4.9-0.7C599.2,1003.1,596.2,1003.9,593.7,1005.4z M631.6,984.7c-0.4,0.2-0.7,0.5-1,0.7c-0.6,0.4-1.2,0.9-1.3,1.7
	c-0.1,0.8,0.2,1.6,0.8,2.1c0.8,0.6,1.7,0.7,2.6,0.7c1,0,2.1-0.2,3.1-0.4c0.8-0.2,1.6-0.4,2.4-0.6c0.9-0.3,1.7-0.5,2.6-0.8
	c0.6-0.2,1.2-0.5,1.8-0.7c0.4-0.1,0.8-0.3,1.1-0.4c0.6-0.3,1.2-0.5,1.8-0.8c0.4-0.2,0.8-0.3,1.1-0.5c0,0,0,0,0,0c0,0,0,0,0,0
	c0,0,0,0,0,0c0,0,0.1,0,0.1,0c0,0,0.1,0,0.1-0.1c0.3-0.2,0.6-0.3,0.9-0.5c0,0,0,0-0.1,0c0.1-0.1,0.3-0.2,0.4-0.2c0,0,0,0,0,0
	c0,0,0,0,0,0c0,0,0,0,0,0c0.2-0.1,0.4-0.2,0.6-0.3c0,0,0,0,0,0c0,0,0,0,0,0c0,0,0,0,0.1,0c0,0,0,0,0,0s0,0,0,0h0
	c0.1-0.1,0.2-0.1,0.3-0.2c0,0,0,0,0,0c0,0,0,0,0,0c0,0,0,0,0,0c0,0,0,0,0,0c0,0,0,0,0.1,0c0,0,0,0,0,0c0.1,0,0.1-0.1,0.2-0.1
	c0,0,0,0,0,0c0,0,0,0,0,0c0,0,0,0,0,0c0,0,0,0,0,0c0,0,0,0,0,0c0,0,0,0,0.1,0c0,0,0,0,0,0c0,0,0,0,0,0c0,0,0,0,0,0c0,0,0,0,0,0
	c0,0,0,0,0,0c0.5-0.3,1-0.5,1.5-0.8c0.2-0.1,0.4-0.3,0.7-0.4c0.6-0.3,1.1-0.7,1.7-1c0.9-0.5,1.7-1.1,2.6-1.6c0.7-0.5,1.5-1,2.2-1.5
	c1.4-1,2.8-2,4.2-3c0.5-0.4,1-0.8,1.5-1.2c0.7-0.5,1.3-1,2-1.6c1.1-0.9,2.2-1.8,3.3-2.8c1.1-0.9,2.2-1.9,3.2-2.9
	c0.1-0.1,0.2-0.2,0.3-0.2c0.4-0.4,0.8-0.8,1.2-1.1c0.5-0.5,1.1-1,1.6-1.6c1.4-1.4,2.8-2.7,4.3-4.1c0,0,0,0,0,0
	c-1.5,1.3-3,2.6-4.5,3.9c-1.1,0.9-2.2,1.8-3.2,2.7c-0.5,0.5-1.1,0.9-1.6,1.3c-0.6,0.5-1.2,0.9-1.7,1.4c-1.1,0.9-2.3,1.7-3.4,2.6
	c-1.1,0.8-2.3,1.6-3.4,2.4c0,0,0,0,0,0c0,0,0,0,0,0c0,0,0,0,0,0c-1.6,1.1-3.2,2.1-4.8,3.1c-0.7,0.5-1.5,0.9-2.2,1.4
	c-0.9,0.5-1.8,1.1-2.8,1.6l0,0l0,0c0,0,0,0,0,0c0,0,0,0,0,0c0,0,0,0,0,0c0,0,0,0,0,0c0,0,0,0,0,0c0,0,0,0-0.1,0
	c-1,0.5-2.1,1.1-3.1,1.6c-1.1,0.5-2.1,1-3.2,1.4c-0.5,0.2-1,0.4-1.5,0.6c-0.5,0.2-1,0.4-1.5,0.6c-1.9,0.6-3.7,1.2-5.6,1.6
	c0,0,0,0,0,0c-1,0.2-2,0.4-3,0.5c-0.3,0-0.6,0-0.8,0c0,0,0,0,0,0c0,0,0,0,0,0c0,0,0,0,0,0c0,0,0,0,0,0c0,0,0.1,0,0.1-0.1
	c0,0-0.1,0-0.1,0.1c0,0,0,0,0,0c0,0,0.1-0.1,0.1-0.1c0,0,0,0,0,0c0,0,0,0,0,0s0,0,0,0c0,0,0,0,0.1,0c0,0,0,0-0.1,0
	c0.2-0.1,0.4-0.2,0.5-0.4c0,0,0,0,0,0c1.3-0.9,2.7-1.6,4-2.5c0.8-0.5,1.6-1,2.4-1.4c0.8-0.5,1.6-1,2.3-1.5c2.6-1.8,5-3.8,7.2-6.1
	c0.5-0.5,0.9-1,1.4-1.5c0.3-0.3,0.6-0.6,1-0.9c3.2-3.1,6.5-6.2,9.7-9.3c0,0,0,0,0,0c-2.5,1.9-4.9,3.8-7.4,5.7
	c0.2-0.4,0.3-0.7,0.4-1.1c0.1-0.5,0-0.9-0.2-1.3c-0.5-1.1-2-1.3-2.8-0.4c-0.2,0.2-0.3,0.4-0.5,0.5c-0.8,0.8-1.7,1.4-2.6,2.1
	c-0.4,0.3-0.9,0.6-1.3,1c0,0,0,0,0,0s0,0,0,0c0,0,0,0,0,0c0,0,0,0,0,0l0,0c0,0,0,0,0,0c0,0,0,0,0,0c0,0,0,0,0,0
	c-1.8,1.3-3.5,2.6-5.3,3.8c-0.6,0.4-1.3,0.8-1.9,1.2c1.5-2.2,2.9-4.4,4.3-6.6c0.8-1.3,1.5-2.8,1.9-4.3c0.2-1,0.2-2.1-0.2-3.1
	c-0.4-0.9-1.1-1.6-2.2-1.6c-0.6,0-1.1,0.2-1.6,0.6c-0.1,0.1-0.1,0.1-0.2,0.2c-0.2-0.3-0.4-0.6-0.8-0.8c-0.5-0.2-1-0.3-1.5-0.1
	c-0.5,0.2-0.8,0.4-1.1,0.9c-0.1,0.1-0.2,0.3-0.3,0.4c-0.3,0.3-0.6,0.6-0.9,1c0,0,0,0,0,0c0,0,0,0,0,0c-1.5,1.4-3.2,2.7-4.9,4l0,0
	c0,0,0,0,0,0c0,0,0,0,0,0c0,0,0,0,0,0c0,0,0,0,0,0c0,0,0,0,0,0c0,0,0,0,0,0c0,0,0,0,0,0c0,0,0,0,0,0c0,0,0,0,0,0c0,0,0,0,0,0
	c0,0,0,0,0,0c-0.8,0.6-1.6,1.1-2.4,1.6c-0.8,0.5-1.6,1-2.5,1.6c-0.6,0.3-1.1,0.6-1.7,0.9c1.3-2.3,2.5-4.7,3.7-7
	c0.5-1.1,1-2.1,1.6-3.2c0.5-1,0.9-1.9,1.3-2.9c0.3-0.8,0.4-1.7-0.3-2.3c-0.6-0.4-1.2-0.4-1.8-0.1c-0.4,0.2-0.6,0.5-0.9,0.8
	c-0.2,0.2-0.4,0.3-0.5,0.5c-0.3,0.3-0.7,0.6-1,0.9c-1.2,1-2.3,2-3.5,3c-1.2,1-2.4,1.8-3.6,2.8c-2.3,1.7-4.7,3.3-7,4.9
	c-0.6,0.4-1.3,0.8-1.9,1.3h0c0,0,0,0,0,0c0,0,0,0,0,0c-0.8,0.5-1.7,1.1-2.5,1.6c0,0,0,0,0,0c2-1,4-2,6-3c1.9-1,3.7-2.1,5.5-3.1
	c1.6-1,3.2-2,4.8-3.1c0.4-0.3,0.9-0.6,1.3-1c-0.2,0.3-0.4,0.5-0.6,0.8c-1.1,1.4-2.4,2.6-3.6,3.8c0,0,0,0,0,0
	c-1.9,1.7-3.7,3.4-5.6,5.1c-1.8,1.6-3.7,3.1-5.6,4.5h0c-0.9,0.6-1.8,1.3-2.7,1.8c-0.4,0.3-0.6,0.9-0.4,1.3c0.2,0.5,0.8,0.7,1.3,0.5
	c0.5-0.2,1-0.5,1.5-0.7c0.5-0.3,1.1-0.5,1.6-0.7c0.7-0.3,1.5-0.5,2.2-0.8c0.7-0.2,1.4-0.4,2.1-0.6c0.5-0.1,1-0.2,1.5-0.4
	c-0.2,0.2-0.3,0.5-0.5,0.7c-0.5,0.7-1.1,1.5-1.6,2.2c-0.3,0.4-0.6,0.8-0.8,1.1c-0.2,0.2-0.4,0.5-0.5,0.7c-0.2,0.3-0.2,0.7-0.2,1
	c0,1.1,1.1,2,2.2,1.7c0.7-0.2,1.2-0.5,1.8-0.8c0.3-0.2,0.5-0.4,0.8-0.5c0.5-0.3,0.9-0.6,1.4-1c1-0.7,2-1.5,3-2.2
	c3.3-2.4,6.7-4.8,10.1-7c0,0,0,0,0,0c-0.5,0.6-1,1.3-1.5,1.9c0,0,0.1-0.1,0.1-0.1c-1.2,1.5-2.6,2.9-3.9,4.2c0,0,0,0,0,0c0,0,0,0,0,0
	c0,0-0.1,0.1-0.1,0.1c-1.6,1.6-3.3,3.2-5.1,4.6c0,0,0,0,0,0c0,0,0,0,0,0c-0.6,0.5-1.3,0.9-1.9,1.3c-0.6,0.3-1,0.8-1,1.6
	c0.1,0.9,0.8,1.5,1.7,1.4c1.1-0.2,2.2-0.5,3.3-0.8c0.9-0.3,1.7-0.6,2.6-0.8c0.7-0.3,1.5-0.5,2.2-0.8c0.6-0.2,1.1-0.5,1.7-0.7
	c0,0.6,0.2,1.2,0.6,1.6c0.1,0.1,0.2,0.2,0.3,0.2C632.8,983.9,632.2,984.3,631.6,984.7z"/>
<path d="M633.3,986.9C633.3,986.9,633.3,986.9,633.3,986.9C633.3,986.9,633.3,986.9,633.3,986.9
	C633.3,986.9,633.3,986.9,633.3,986.9z"/>
<path d="M634,986.4C634,986.4,634,986.4,634,986.4C634,986.4,634,986.4,634,986.4z"/>
<path d="M646.6,985.6C646.6,985.6,646.6,985.6,646.6,985.6C646.6,985.6,646.6,985.6,646.6,985.6
	C646.6,985.6,646.6,985.6,646.6,985.6z"/>
<path d="M630.8,978c1.2-1.1,2.3-2.2,3.4-3.3c0.6-0.7,1.2-1.3,1.8-2c0.6-0.7,1.1-1.4,1.7-2.1c0.9-1.1,1.6-2.3,2.4-3.4
	c0.4-0.6,0.8-1.2,1.1-1.8c0.2-0.1,0.4-0.3,0.6-0.4c-0.1,0.2-0.2,0.3-0.2,0.5c-0.9,1.8-1.9,3.5-2.9,5.2c-0.9,1.5-1.7,3-2.6,4.4
	c-0.6,1-1.1,2-1.7,2.9c-0.3,0.2-0.7,0.3-1.1,0.5c-0.6,0.3-1.1,0.5-1.7,0.8c-0.6,0.3-1.3,0.5-1.9,0.7c-0.6,0.2-1.2,0.4-1.8,0.6
	C628.9,979.9,629.9,978.9,630.8,978z"/>
<path d="M637.3,979.3c0.1,0,0.1-0.1,0.2-0.1c1.4-0.8,2.8-1.7,4.2-2.6c1.8-1.2,3.6-2.5,5.4-3.7c0.2-0.1,0.4-0.3,0.5-0.4
	c-0.5,0.5-1,1.1-1.5,1.6c-0.6,0.7-1.3,1.3-1.9,1.9c-0.7,0.6-1.4,1.2-2.1,1.8c-0.5,0.4-1.1,0.9-1.7,1.3c-0.4,0.2-0.7,0.4-1.1,0.6
	c0.1,0,0.1-0.1,0.2-0.1c-0.6,0.3-1.3,0.6-2,0.8c-0.3,0.1-0.6,0.2-0.9,0.2c-0.1,0-0.1,0-0.2,0C636.8,980.2,637.1,979.7,637.3,979.3z"
	/>
<path d="M629.2,976.1C629.2,976.1,629.2,976.1,629.2,976.1C629.2,976.1,629.2,976.1,629.2,976.1z"/>
<path d="M629.2,976.1C629.2,976.1,629.2,976.1,629.2,976.1C629.2,976.1,629.2,976.1,629.2,976.1z"/>
<path d="M623.6,973.4c0.1-0.2,0.3-0.4,0.4-0.6c0.2-0.1,0.4-0.1,0.6-0.2c0.4-0.1,0.8-0.3,1.2-0.5c-0.9,0.6-1.7,1.2-2.6,1.8
	C623.4,973.8,623.5,973.6,623.6,973.4z"/>
<path d="M615.6,972.5c1.7-1.5,3.5-3.1,5.1-4.8c0,0,0,0-0.1,0c0.8-0.7,1.5-1.5,2.2-2.2c0.3-0.3,0.7-0.7,1-1c0.4-0.4,0.8-0.9,1.2-1.4
	c0.4-0.5,0.8-1,1.2-1.5c0.7-0.9,1.4-1.9,1.9-3c0,0,0.1-0.1,0.1-0.1c-0.8,1.6-1.7,3.2-2.6,4.8c-1.4,2.6-2.9,5-4.5,7.5
	c0-0.1,0.1-0.1,0.1-0.2c-0.2,0.2-0.3,0.5-0.5,0.7c-0.1,0-0.3,0.1-0.4,0.1c-1.3,0.4-2.6,0.6-3.8,1c-0.6,0.2-1.2,0.3-1.8,0.5
	C615.1,972.8,615.3,972.7,615.6,972.5z"/>
<path d="M648.9,968.6C648.9,968.7,648.8,968.7,648.9,968.6C648.8,968.7,648.9,968.7,648.9,968.6z"/>
<path d="M648.9,968.6C648.9,968.6,648.9,968.6,648.9,968.6C648.9,968.6,648.9,968.6,648.9,968.6z"/>
<path d="M648.9,968.6C648.9,968.6,648.9,968.6,648.9,968.6C648.9,968.6,648.9,968.6,648.9,968.6
	C648.9,968.6,648.9,968.6,648.9,968.6z"/>
<path d="M612,968C612,968,612,968,612,968C612,968,612,968.1,612,968C612,968.1,612,968,612,968z"/>
<path d="M612,968L612,968C612,968,612,968,612,968C612,968,612,968,612,968z"/>
<path d="M632.7,965.3C632.7,965.3,632.7,965.3,632.7,965.3C632.7,965.3,632.7,965.3,632.7,965.3z"/>
<path d="M632.7,965.3C632.7,965.3,632.7,965.3,632.7,965.3C632.7,965.3,632.7,965.3,632.7,965.3
	C632.7,965.3,632.7,965.3,632.7,965.3z"/>
<path d="M625.7,1049.7c0,0,0.1,0,0.1-0.1C625.8,1049.7,625.7,1049.7,625.7,1049.7z"/>
<path d="M647.5,969.7C647.5,969.7,647.5,969.7,647.5,969.7C647.5,969.7,647.5,969.7,647.5,969.7z"/>
<path d="M647.5,969.7C647.5,969.7,647.5,969.7,647.5,969.7C647.5,969.7,647.5,969.7,647.5,969.7z"/>
<path d="M646.7,985.6C646.7,985.6,646.7,985.6,646.7,985.6C646.7,985.6,646.7,985.6,646.7,985.6z"/>
<path d="M647.5,969.7C647.5,969.7,647.5,969.7,647.5,969.7C647.5,969.7,647.5,969.7,647.5,969.7z"/>
<path d="M649.4,984.2C649.4,984.2,649.4,984.2,649.4,984.2C649.4,984.2,649.4,984.2,649.4,984.2z"/>
<path d="M649.1,984.3C649.1,984.4,649.1,984.4,649.1,984.3C649.1,984.4,649.1,984.4,649.1,984.3z"/>
<path d="M648,984.9C648,984.9,648,984.9,648,984.9C648,984.9,648,984.9,648,984.9C648,984.9,648,984.9,648,984.9
	C648,984.9,648,984.9,648,984.9C648,984.9,648,984.9,648,984.9C648,984.9,648,984.9,648,984.9z"/>
<path d="M646.6,985.6C646.6,985.6,646.6,985.6,646.6,985.6C646.6,985.6,646.6,985.6,646.6,985.6z"/>
<path d="M633.3,986.9C633.2,986.9,633.2,986.9,633.3,986.9C633.2,986.9,633.2,986.9,633.3,986.9z"/>
<path d="M634,986.4C634,986.4,634,986.4,634,986.4C634,986.4,634,986.4,634,986.4z"/>
<path d="M634.1,986.3C634.1,986.3,634.1,986.4,634.1,986.3C634.1,986.4,634.1,986.3,634.1,986.3z"/>
<path d="M648.8,968.7C648.8,968.7,648.8,968.7,648.8,968.7C648.8,968.7,648.8,968.7,648.8,968.7z"/>
<path d="M629.2,976.1C629.2,976.1,629.2,976.1,629.2,976.1C629.2,976.1,629.2,976.1,629.2,976.1z"/>
<path d="M629.3,976C629.3,976,629.3,976,629.3,976C629.3,976,629.3,976,629.3,976z"/>
<path d="M626.6,960.2C626.6,960.2,626.6,960.2,626.6,960.2C626.6,960.3,626.6,960.3,626.6,960.2
	C626.6,960.3,626.6,960.3,626.6,960.2z"/>
<path d="M626.6,960.2C626.6,960.2,626.6,960.2,626.6,960.2C626.6,960.2,626.6,960.2,626.6,960.2z"/>
<path d="M665.2,972.2C665.3,972.2,665.3,972.2,665.2,972.2C665.3,972.2,665.3,972.2,665.2,972.2z"/>
<path d="M649.1,984.3C649.1,984.3,649.1,984.3,649.1,984.3C649.1,984.3,649.1,984.3,649.1,984.3
	C649.1,984.3,649.1,984.3,649.1,984.3z"/>
<path d="M649.1,984.3C649.1,984.3,649.1,984.3,649.1,984.3C649.1,984.3,649.1,984.3,649.1,984.3
	C649.1,984.3,649.1,984.3,649.1,984.3z"/>
<path d="M648.7,984.6C648.7,984.6,648.7,984.5,648.7,984.6C648.7,984.5,648.7,984.5,648.7,984.6
	C648.7,984.5,648.7,984.5,648.7,984.6z"/>
<path d="M648.6,984.6C648.6,984.6,648.6,984.6,648.6,984.6C648.6,984.6,648.6,984.6,648.6,984.6
	C648.6,984.6,648.6,984.6,648.6,984.6C648.7,984.6,648.7,984.6,648.6,984.6C648.7,984.6,648.7,984.6,648.6,984.6
	C648.7,984.6,648.7,984.6,648.6,984.6z"/>
<path d="M648.6,984.6C648.6,984.6,648.6,984.6,648.6,984.6C648.6,984.6,648.6,984.6,648.6,984.6
	C648.6,984.6,648.6,984.6,648.6,984.6z"/>
<path d="M646.6,985.7C646.6,985.6,646.6,985.6,646.6,985.7C646.6,985.6,646.6,985.6,646.6,985.7z"/>
<path d="M642.5,984.9C642.5,984.9,642.5,984.9,642.5,984.9C642.5,984.9,642.5,984.9,642.5,984.9z"/>
<path d="M647.6,969.6C647.6,969.6,647.6,969.6,647.6,969.6C647.6,969.6,647.6,969.6,647.6,969.6
	C647.6,969.6,647.6,969.6,647.6,969.6z"/>
<path d="M647.6,969.6C647.6,969.6,647.6,969.6,647.6,969.6C647.6,969.6,647.6,969.6,647.6,969.6
	C647.6,969.6,647.6,969.6,647.6,969.6z"/>
<path d="M647.6,969.6C647.6,969.6,647.6,969.6,647.6,969.6C647.5,969.6,647.5,969.6,647.6,969.6
	C647.5,969.6,647.6,969.6,647.6,969.6C647.6,969.6,647.6,969.6,647.6,969.6z"/>
<path d="M647.5,969.6C647.5,969.6,647.5,969.6,647.5,969.6C647.5,969.6,647.5,969.6,647.5,969.6
	C647.5,969.6,647.5,969.6,647.5,969.6z"/>
<path d="M632.7,965.3C632.7,965.3,632.7,965.3,632.7,965.3C632.7,965.3,632.7,965.3,632.7,965.3z"/>
<path d="M632.7,965.3C632.7,965.3,632.7,965.3,632.7,965.3C632.7,965.3,632.7,965.3,632.7,965.3
	C632.7,965.3,632.7,965.3,632.7,965.3z"/>
<path d="M632.6,965.3C632.6,965.3,632.6,965.3,632.6,965.3C632.6,965.3,632.6,965.3,632.6,965.3
	C632.6,965.3,632.6,965.3,632.6,965.3z"/>
<path d="M599,1055.7C599,1055.7,599,1055.7,599,1055.7C599,1055.7,599,1055.7,599,1055.7z"/>
<path d="M723,1005.1c12.8-7.9,49.4-30.3,51.2-45.1c0.1-2.8-1.5-5.1-3.5-6.9c-6-6-14.4-8.8-22.6-9.8c-6.2-0.4-13.1-0.7-18.8,2.1
	c-1.1,0.5-2.1,1.9-0.8,2.8c3.9,0.2,8.1-0.4,12.1-0.1c4.6,0.2,9.2,1.2,13.6,2.5c3.6,1.2,7,2.7,9.9,5.1c1.1,1.2,3.2,2.4,3.1,4.1
	c-8.1,14.6-39.7,32.1-54.6,41c-16,9.1-31.7,18.5-47.7,27.5c-13.5,7.3-27.3,14.2-41.1,21c-4.6,2.2-9,4.6-13.2,6.8
	c-3.5,1.5-7,4.2-11,4c-1.6-2-2.9-4.1-4.4-6.1c-1.4-2.4-3.1-5.2-6.3-3.5c-1.7,1-2.2,3.2-1.2,4.8c1.3,2.3,2.4,4.7,3.6,6.9
	c3.5,7.9,10.2,7.3,16.9,3.7c16.8-8.3,34.2-15.8,50.8-24.2C681,1030.7,701.8,1017.4,723,1005.1z"/>
<path d="M700.2,996.4c3-2.2,12.2-7.7,6.8-11.6c-0.9-1.7-2.9-5.9-5-3.1c-0.7,1.4,0.8,2.4,1,3.7c-0.1,0.3-0.2,0.7-0.1,1.1
	c-11.2,7.1-23.3,12.9-35,19.3c-23.3,12.5-46.5,25.2-69.5,38.5c-1.9,1.4-4.5,2-5.9,4c-1.9,2.4,0,6.4,3.2,6.2c1.7,0,3.2-0.8,4.6-1.7
	c4.6-2.3,9.1-4.8,13.6-7.2c5.7-3,11.3-6.1,17-9.2C654.2,1023.7,677.7,1010.8,700.2,996.4z"/>
<path d="M580.2,1003.9c0.4-1.1,0.5-2.2,0.6-3.4c5.4-2.9,9.5-7.7,13.8-12c2.7-2.5,4.1-6,7.2-8c3.5-3,1.8-7.5-1.3-8.9
	c-0.5,0.4-1.1,0.8-1.6,1.2c-0.5,0.4-1,0.9-1.5,1.3c-0.7,0.6-1.5,1.3-2.2,1.9c-2.6,2.5-5.1,5-7.7,7.4c-1.6,1.5-3.3,2.9-4.9,4.4
	c-1.6,1.5-3.3,3.1-5.2,4.3c-0.2,0.1-0.4,0.2-0.5,0.3c-2,1.1-4.4,0.6-5.9-0.9c-3.7,2.2-7.6,5.5-6.9,10.3c0.7,4.6,5.2,7.8,9.6,5.8
	c1.4,0.2,2.9-0.1,4.1-0.8C578.9,1006.1,579.8,1005.1,580.2,1003.9z"/>
<path d="M578.4,990.7C578.4,990.7,578.4,990.7,578.4,990.7C578.4,990.7,578.4,990.8,578.4,990.7
	C578.4,990.8,578.4,990.8,578.4,990.7z"/>
<path d="M578.6,990.6L578.6,990.6C578.5,990.6,578.5,990.6,578.6,990.6C578.5,990.7,578.5,990.7,578.6,990.6
	C578.5,990.7,578.5,990.6,578.6,990.6z"/>
<path d="M623.8,949c-0.5-0.9-1.7-1.2-2.6-0.7c-0.9,0.5-1.2,1.7-0.7,2.6c0.5,0.9,1.7,1.2,2.6,0.7C624,951.1,624.3,949.9,623.8,949z"
	/>
<path d="M571.2,997.6c14.4-8.3,27.3-19.1,39.3-30.5c3.8-4,15.9-14.9,14.8-20.2c-1.5-2.8-4.3,0.4-5.7,1.6c-3.3,2.8-6.5,5.7-9.7,8.6
	c-14,12.9-29.3,24.2-45.1,34.8c-3.2,0.7-3.7,5.4-0.7,6.7C566.2,1000.3,569.4,999.2,571.2,997.6z"/>
<path d="M630.4,991.3c-0.3-0.4-0.5-0.8-0.7-1.2c-4.1,2.8-10.4,0.5-10.9-4.7c-0.3-1.9,0.3-3.5,1.2-5c0,0,0.1,0,0.1-0.1
	c0.5-0.3,0.9-0.6,1.4-1c1-0.7,2-1.5,3-2.2c3.3-2.4,6.7-4.8,10.1-7c1.8-1.2,3.5-2.4,5.2-3.6c0.7-0.5,1.4-1,2.1-1.5
	c-0.1,0.2-0.2,0.3-0.2,0.5c-0.9,1.8-1.9,3.5-2.9,5.2c-0.9,1.5-1.7,3-2.6,4.4c-0.9,1.5-1.7,3-2.6,4.5c-0.3,0.5-0.7,1.1-0.9,1.7
	c-0.2,0.7,0,1.4,0.5,2c0.6,0.6,1.7,0.7,2.5,0.7c0,0,0.1,0,0.1,0c1,0,2.1-0.3,3-0.7c3.6-1.6,6.5-4.3,9.4-6.9c1.4-1.3,2.8-2.6,4.2-4
	c1.7-1.7,3.5-3.3,5.2-5c0,0.1,0,0.1,0.1,0.2c5-1.9,10-3.8,15.1-5.7c2.4-0.7,4.8-2,7.3-1.6c3.9,0.5,5.5,5.6,2.8,8.3
	c-1.8,1.9-4.4,2.6-6.7,3.8c-3.4,1.6-6.8,3.1-10.1,4.7c0.3,3.3-3.6,4.4-5.9,5.7c-2.8,1.4-5,2.6-7.8,3.9c-4.6,3.4-9.4,7.6-15.4,7.8
	C634.3,994.5,631.9,993.2,630.4,991.3z"/>
<path d="M638.9,976.8c0.4-0.7,0.9-1.3,1.3-2c0,0,0,0,0,0c0,0,0,0,0,0c0,0,0,0,0,0c1.5-2.3,3-4.5,4.4-6.9c0.8-1.3,1.5-2.8,1.9-4.3
	c0.2-1,0.2-2.1-0.2-3.1c-0.4-0.9-1.1-1.6-2.2-1.6c-0.6,0-1.1,0.2-1.6,0.6c-0.2,0.2-0.3,0.4-0.5,0.6c-0.7,0.8-1.5,1.5-2.3,2.2
	c-2,1.7-4.1,3.2-6.3,4.7c-0.4,0.3-0.7,0.5-1.1,0.7c-0.1,0-0.1,0.1-0.2,0.1c0,0-0.1,0.1-0.1,0.1c0,0,0,0,0.1,0
	c-0.1,0-0.1,0.1-0.2,0.1c0,0-0.1,0-0.1,0.1c0,0,0,0,0,0c0,0,0,0,0,0c0,0,0,0,0,0c0,0,0,0,0,0c0,0,0,0-0.1,0c0,0,0,0,0.1,0
	c-0.3,0.2-0.6,0.4-0.9,0.6l0,0c-0.1,0-0.1,0.1-0.2,0.1c0,0,0.1,0,0.1-0.1c-0.2,0.2-0.5,0.3-0.7,0.4c-0.1,0-0.1,0.1-0.2,0.1
	c0,0,0,0,0,0c0,0,0,0,0,0c0,0,0,0,0,0c0,0,0,0,0,0c0,0,0,0,0,0c0,0,0,0,0,0c0,0,0,0,0,0c0,0,0,0,0,0c0,0,0,0,0,0c0,0,0,0,0,0
	c0,0,0,0,0,0c0,0,0,0,0,0c0,0-0.1,0.1-0.1,0.1c-0.8,0.5-1.6,1-2.4,1.6c0,0,0,0,0.1,0c0,0,0,0-0.1,0c0,0,0,0,0,0
	c-1.3,0.9-2.7,1.8-4,2.7c0.1-0.2,0.2-0.3,0.3-0.5c2.4-3.5,4.3-7.2,6.1-11c0.5-1.1,1-2.1,1.6-3.2c0.4-0.9,0.9-1.8,1.2-2.7
	c0.1,0.2,0.2,0.4,0.2,0.6c2.5-1.9,6.4-2.2,8.2,0.7c3.7-1,7.7,1.9,7.9,5.7c0.6,0,1.1,0.1,1.7,0.2c0.4,0.1,0.8,0.3,1.2,0.5
	c2.1-0.1,4.4,0.7,5.5,2.5c-1.4,1.1-2.9,2.2-4.3,3.3c-3.3,2.6-6.6,5.2-10.1,7.5c0,0,0.1-0.1,0.1-0.1c-1.1,0.7-2.3,1.5-3.5,2.1
	c0.1,0,0.1-0.1,0.2-0.1c-0.6,0.3-1.3,0.6-2,0.8c-0.3,0.1-0.6,0.2-0.9,0.2c-0.1,0-0.1,0-0.2,0C637.3,979.3,638.1,978.1,638.9,976.8z"
	/>
<path d="M606,973.2c0.7-1.2,1.8-2.2,2.9-3.1c4-3.7,8-7.4,12-11.1c1.9-1.6,3.4-3.7,5.6-4.9c1.2-0.5,2.5-0.5,3.6,0
	c-0.2,0.2-0.4,0.4-0.6,0.5c-0.2,0.2-0.4,0.3-0.5,0.5c-0.3,0.3-0.7,0.6-1,0.9c-1.2,1-2.3,2-3.5,3c-1.2,1-2.4,1.8-3.6,2.8
	c-2.3,1.7-4.7,3.3-7,4.9c-0.6,0.4-1.3,0.8-1.9,1.3c0,0,0,0,0,0c-0.8,0.5-1.7,1.1-2.5,1.6c0,0,0,0,0,0c2-1,4-2,6-3
	c1.9-1,3.7-2.1,5.5-3.1c1.6-1,3.2-2,4.8-3.1c0.8-0.6,1.7-1.2,2.5-1.8c-0.8,1.6-1.7,3.2-2.6,4.8c-1.4,2.6-2.9,5-4.5,7.5
	c0-0.1,0.1-0.1,0.1-0.2c-1,1.4-2,2.9-3,4.3c-0.4,0.5-0.8,1.1-1.2,1.6c-2.2,1.3-4.4,2.6-6.8,3.3c-0.2,0-0.5,0.1-0.7,0.1
	C606.6,979.9,604.3,976,606,973.2z"/>
<path d="M629.8,969.5c0,0-0.1,0.1-0.1,0.1C629.7,969.6,629.8,969.5,629.8,969.5z"/>
<path d="M631.8,968.2C631.8,968.2,631.8,968.2,631.8,968.2C631.8,968.2,631.8,968.2,631.8,968.2
	C631.8,968.2,631.8,968.2,631.8,968.2z"/>
<path d="M631.8,968.2C631.8,968.2,631.8,968.2,631.8,968.2C631.8,968.2,631.8,968.2,631.8,968.2
	C631.8,968.2,631.8,968.2,631.8,968.2z"/>
<path d="M631.9,968.2C631.9,968.2,631.9,968.2,631.9,968.2C631.9,968.2,631.9,968.2,631.9,968.2
	C631.9,968.2,631.9,968.2,631.9,968.2z"/>
<path d="M632,968.1C631.9,968.1,631.9,968.1,632,968.1C631.9,968.1,631.9,968.1,632,968.1z"/>
<path d="M642.5,962.3C642.6,962.3,642.6,962.3,642.5,962.3C642.6,962.3,642.5,962.3,642.5,962.3z"/>
<path class="st0" d="M458.1,448c-1.3-0.3-2.5-0.5-3.8-0.8c-0.6-1.3-1.3-2.6-2-3.8c-1.1-1.8-2-3.8-3.6-5.2c-0.4-0.3-0.8-0.6-1.2-0.9
	c-0.4-1.9-0.8-3.8-1.3-5.7c-0.9-3.8-2.2-7.5-3.7-11.2c-3.1-7.5-7-14.6-10.7-21.8c-0.4-0.9-0.8-1.7-1.3-2.6
	c-2.3-4.8-4.5-9.7-6.9-14.5c-2.1-4.2-4.4-8.3-6.8-12.3c-5.4-9-11.6-17.6-18.3-25.8c-3.7-4.6-7.8-9-11.9-13.3
	c-4.3-4.5-8.6-8.8-13.3-12.9c-4.1-3.6-8.4-7-12.6-10.5c11.6-0.2,23.2-0.1,34.8,0.5c38.7,1.9,77.4,5.5,115.6,12.2
	c15.7,3,31.6,5.7,47.1,9.9c2.4,0.8,6.2,1.6,9.3,2.9c-4.3-8.5-9.3-16.7-15-24.4c2.1-1.2,4.2-2.6,6.1-4.1c4.7-3.7,8.8-8,13-12.2
	c1.4-1.4,2.7-2.8,4-4.2c1.5-1.5,3-3,4.5-4.4c2.2-2.1,4.4-4.3,6.3-6.6c4-4.9,8-10,10.9-15.6c1.4-2.7,2.6-5.5,3.6-8.3
	c0.9-2.7,1.7-5.5,2.6-8.2c2.2-6.4,4.4-12.8,6.2-19.4c0.7-2.5,1.3-5.1,1.9-7.6c4.1,3.7,8,7.6,11.8,11.5c11.6,12.2,22.5,25.4,30,40.6
	c7.1,15.3,12.2,31.8,13.8,48.6c1.7,19-1.4,38-8.8,55.6c-4.3,11-11.6,20.7-19.3,29.5c-16.1,17.1-37.4,28.2-58.7,37.2
	c-25,9.9-52.3,11.6-78.8,12.5c-0.9,0-1.8,0-2.7,0C485.3,452.4,471.6,450.8,458.1,448z"/>
<path class="st0" d="M560.2,272.4c-0.2,0.1-0.3,0.3-0.5,0.4C559.9,272.7,560.1,272.5,560.2,272.4z"/>
<path class="st0" d="M455,447.7c-2.7-0.2-6.6-1.2-6.8-4.5c0.1-0.9-0.2-1.7-0.3-2.5c-0.2-1.3-0.3-2.7-0.1-4c0.4-1.3,2.2-1.7,3-0.6
	c0.5,0.9,1,2,1.2,3c0.1,0.1,0.2,0.1,0.2,0.2c0.2,0,0.4,0.1,0.6,0.3c0.7-0.3,1.6,0.1,1.9,0.8c0.3,0.1,0.6,0.4,0.7,0.7
	c0.2,0.3,0.3,0.6,0.3,0.9c1.8,0.1,3.5,0.2,5.1,1c0,0,0,0,0,0c1.6,0.7,1.2,2.5-0.1,3.4C459.3,447.8,457,447.7,455,447.7z"/>
<path class="st0" d="M124,459.7c-14.9-0.7-29.7-3.9-44-8.5c-13.6-5.1-27-12.1-37.6-22.2c-8.9-8.1-15-18.6-20.6-29.2
	c-6.2-13.6-8.1-29-7.1-43.9c1.3-14.1,5.2-27.8,10.5-41c1.2-1.7,2.5-3.3,3.7-5c-0.1,0.1-0.1,0.2-0.2,0.2c0.1-0.2,0.3-0.4,0.4-0.6
	c3.7-4.8,7.5-9.5,11.3-14.3c3.5-4.5,7.1-8.9,10.8-13.2c7.5-8.7,15.2-17.1,23.3-25.3c2.6-2.7,5.3-5.2,8-7.8c0.6,0.8,1.2,1.9,1.7,3.2
	c3,6.7,6.2,13.3,9.9,19.6c6,10,12.6,19.7,20.3,28.5c2.6,2.9,5.3,5.7,8.2,8.3c1.6,1.3,3.1,2.6,4.7,3.8c1.1,0.7,2.2,1.7,2.4,3
	c-0.3,0.9-0.7,1.7-1,2.6c-0.3,0.3-0.7,0.5-1.1,0.7c-1.6,2.8-3.8,5.5-4.3,8.7c-1.1,2.3-2.2,4.5-3.3,6.8c-0.2,0.5-0.5,1.1-0.8,1.6
	c0,0,0,0,0,0c-1.7,4.1-3.3,8.2-4.8,12.4c28.2-12.4,58.7-18.5,88.7-24.9c17.5-4.4,35.3-7.2,53.2-9.6c5.6-0.9,11.1-1.6,16.7-2.4
	c-0.3,0.2-0.5,0.4-0.8,0.6c-4.4,3.7-8.5,7.5-12.6,11.5c-0.1,0.1-0.2,0.2-0.3,0.3c-0.1,0.1-0.2,0.2-0.3,0.3
	c-3.9,3.8-7.8,7.7-11.4,11.7c-3.7,4.1-6.9,8.7-10.1,13.1c-3.1,4.3-6.2,8.5-8.9,13c-2.8,4.5-5.1,9.2-7.5,13.9
	c-2.7,5.4-5.4,10.9-7.9,16.4c-2.4,5.4-4.7,10.9-6.3,16.6c-1.6,5.5-3.3,11-4.9,16.6c-1.5,5.3-2.6,10.7-4,16c-0.8,2.7-1.6,5.3-2.6,7.9
	c-3.2,0.9-6.4,1.7-9.5,2.7c-18.7,5.6-38.4,7.5-57.9,7.5C126.7,459.7,125.4,459.7,124,459.7z"/>
<path d="M248.1,224c-2.1-10.7-4.6-21.3-6.3-32c-0.2-4.4-2.6-9.8,0.1-13.8c2.6-2.9,7.5,0,6.6,3.7c2.7,13.5,5.3,27.1,7.9,40.6
	C257.5,227.9,249.2,229.5,248.1,224z"/>
<path d="M243.1,221.1c-2.6-11.1-12.1-39.2-4.7-48.2c3.4-3.3,9.3,0.7,7,5c0.8,13.7,5.4,26.5,8.6,39.7
	C256.3,224.7,245.5,228.3,243.1,221.1z"/>
<path d="M241.5,222.9c-2.3-10.6-11.2-37.6-7.6-46.8c2.9-7.3,13-1,7.5,4.6c1.7,10.4,4.9,20.4,7.3,30.6c0.5,4,3.4,8.3,1.9,12.3
	C248.7,227.4,242.6,227,241.5,222.9z"/>
<path d="M251.2,221.5c-6.7-2.2-2.1-10.3-0.4-14.7c2.4-4.4,3.9-12.3,9.1-14.1c2.1-0.4,4.2,0.9,4.8,2.9c2.3-0.1,4.7-0.3,6.8,0.7
	c4.8-15.8,11-31.2,15.1-47.2c1.3-5.5,9.8-3.6,8.5,1.9c-4.2,16.8-8.3,33.4-16.2,48.7c-2.2,4.7-5.3,7.4-9.3,2.5
	c-5.1,0.5-6.7,4.6-8.6,8.7c-0.6,1.9-1.7,4-3.9,4.2c-0.7,1.2-0.7,2.5-1,3.7C255.4,220.8,253.2,221.9,251.2,221.5z"/>
<path d="M281.3,184.6c-2.6-1.3-3.4-5-1.5-7.3c1.8-5.1,2.8-10.4,4.1-15.7c1-4.2,2.2-8.3,3-12.6c1.4-5.7,10-3.8,8.8,2
	C293.9,157.5,291.5,190,281.3,184.6z"/>
<path d="M287,181.2c-3.9-0.9-3.7-5.1-2.2-8c1-3.1,2-6.3,2.9-9.4c1.1-3.8,2.2-7.7,3.1-11.6c0.5-2,2.5-3.4,4.6-2.9
	c2,0.5,3.4,2.6,2.9,4.6c-1,4.1-2,8.3-2.9,12.4C293.9,170.8,293.5,182.4,287,181.2z"/>
<path d="M249.9,223.3c-7.1-2.7-5.5-11.7-5.3-17.7c0.7-8.5,1.7-17.2,5.1-25.2c1.7-3.4,3.5-7.1,6.7-9.3c1.9-1.1,3.2-3,4.6-4.7
	c3.1-6.2,12.3-6.1,13.6,1.3c2.2-3.6,8.2-2.4,8.8,1.8c0.4,2.2-0.4,4.4-0.9,6.5c-1.4,3.6-0.8,7.3-1.7,10.9c-1.1,5-5,12.5-11,8.8
	c-3.3,4.9-5.2,9.6-7.2,15C260.5,216.4,257.9,226.1,249.9,223.3z"/>
<path d="M271,213.8c-2.7-1.5-3.9-4.6-4.2-7.5c-0.4-0.7-0.7-1.5-0.6-2.3c0.5-4.7,7.5-3.6,6.7,1c0.3,0.7,0.5,1.5,0.8,2.2
	c0,0,0,0.1,0,0.1c3.9-5.7,5.6-13.1,7.6-19.3c4-13.7,7.9-27.5,11.7-41.3c0.8-2.7,1.7-5.5,2.4-8.3c1.2-4.6,8-3.1,7.1,1.6
	c-2.9,14-6.2,27.9-10.4,41.6C289.6,189,282,219.1,271,213.8z"/>
<path d="M314.4,294c-25.7-4.8-46.3-23.8-60-45.3C246,235.4,238,221,236.8,205c0.1-3.4-0.5-9.4,2.8-11.3c1.2-0.5,2.6-0.1,3.2,1.1
	c0.6,1.5,0.6,3.2,1,4.8c0.8,4.7,2.4,9.1,4.2,13.5c5.3,12.1,12.7,23.3,20.6,33.9c15,20,38.3,38.1,64.6,34.7c10-1.6,20.2-3.3,29.6-7.2
	c10.9-4.8,21.4-11.8,28.9-21.2c-7.3-5.8-16.2-9.5-23.7-15.1c-3.2-2.5-6.4-5.1-9.5-7.8c-3.4-3.2-7.8-6.3-9.3-10.9
	c-0.9-4.1,3.2-6.7,6.8-6.8c4.7-0.4,9.3,0.5,13.9,1c11,1,22.4,0.9,33.2-1.1c-0.2-4.3-1.8-8.4-2.7-12.6c-1.9-7.9,6.1-9,11.6-11
	c4-1.7,7.3-5.1,9.2-9c2-4.5,1.1-10.3-3-13.3c-4.2-3.3-9.8-3.9-15-4.4c-6,0.1-8.9-5.6-11.7-10c-3.4-5.6-7.2-10.9-10.5-16.6
	c-1.1-2-0.3-4.6,1.6-5.8c4.9-3,7.5,3,9.9,6.2c3.6,5.1,6.7,10.6,10.2,15.8c7.4-0.3,15.5,0.4,21.7,4.9c7.7,5.3,11.1,15.8,7.6,24.5
	c-3.5,9.4-12.1,16.5-21.8,18.7c1.1,6.4,4,17-4.2,19.8c-13.9,4-28.7,3.6-42.9,1.6c6.8,4.8,13.7,9.4,21,13.3c6,3.7,13.5,7.1,16.4,13.9
	c1.5,3.2,0.3,6.6-1.7,9.3c-1.6,2.8-3.3,5.7-5.2,8.3c-12.4,17.4-34,24.4-54.2,27.6c-4.5,0.8-9.1,1.3-13.6,1.3
	C322.2,295.1,318.3,294.8,314.4,294z"/>
<path d="M330.9,163.3c0-3.1,2.7-5.6,4.6-7.9c6.6-7.9,17.4-9.5,27.2-9c8.9,1,7.2,14-1.7,12.6c-3.2-0.7-6.5-0.9-9.8-1.1
	c-5-0.2-9.4,2.2-13.3,5.1c-1.4,1-2.6,2.5-4.4,2.6C332.1,165.6,331,164.6,330.9,163.3z"/>
<path d="M509.8,193.3C509.8,193.3,509.8,193.3,509.8,193.3C509.8,193.3,509.8,193.3,509.8,193.3z"/>
<path d="M136.7,294.8c-1.2-3.9,2.3-5.3,5.3-6.3c3.8-1.6,7.6-3.4,11.3-5.4c3.8-2.2,7.2-4.9,10.8-7.5c6.8-4.8,13.8-9.5,19.8-15.3
	c8.9-9.2,14.4-16.4,10.3-29.7c-6.3-22.8-21-17.6-39.3-15.7c-11.6,1-11.6-3.7-13.7-13.2c-1.8-6.3-3.6-12.7-6.1-18.8
	c-2.6-5.7-5.5-11.6-10.2-15.9c-7.6-5.6-9,5.7-9,11c-0.7,18.7,8.3,47.2-7.9,60.7c-2.6,1.9-5.5,4.4-8.8,4.4c-1.5-0.1-2.8-1.5-2.6-3
	c0.7-3.6,4.1-6,5.7-9.2c2.7-4.4,3.4-9.6,3.5-14.7c-0.4-12.7-2.7-25.3-2.8-38c0-4.9,0.5-10,2.3-14.6c4.8-11.9,19.2-14.5,28.5-6
	c12.4,12,17.6,29.8,18.9,46.7c12.7-1.7,26.7-6.5,38.4,0.9c11.8,6.9,16.9,22.9,16.3,36c-0.7,9.3-5.9,17.5-11.9,24.4
	c-11.6,12.7-26.9,21.6-42.8,27.6c-3.6,1.3-7.2,2.8-10.8,4.2c-0.4,0.2-0.9,0.2-1.3,0.2C138.9,297.6,137.2,296.5,136.7,294.8z"/>
<path d="M158.3,229.7c-3.3-3.3,3.5-5.3,5.5-6.8c3.5-2.1,7-4.2,10.4-6.6c3.5-2.6,7-5.1,10.7-7.5c4.6-3.1,9.6,3.5,5.4,7.1
	c-6.6,6-14.7,9.9-23.2,12.5c-1.4,0.5-2.9,0.9-4.3,1.3c-0.8,0.2-1.8,0.5-2.7,0.5C159.4,230.2,158.8,230,158.3,229.7z"/>
<path d="M172.3,251.1c-2.2-3,3.1-4.4,4.7-5.6c2.9-1.7,5.7-3.5,8-5.3c2.7-2.2,5.4-4.4,8.3-6.4c4.5-3,9.5,3.5,5.4,7
	c-4.1,3.2-8.4,6.3-13.4,8c-2.3,0.7-7.1,2.9-10.4,2.9C173.8,251.9,172.9,251.7,172.3,251.1z"/>
<path d="M551.4,290.7c-0.2,0-0.5-0.1-0.7-0.2c-10.4-3.5-21.2-6.7-29.9-14.8c-16.2-13.9-22.6-30.5-16.7-55.8c1.2-5.5,2.5-10.7,4.1-16
	c2.4-7.6,4.8-16.4,10.8-20.7c6.8-4.8,14.5-3,21.8-4.1c0.9-0.3,2-0.3,2.5-1.4c1.2-2.6,2.1-5.3,3.1-8c2.4-6.5,4.7-13,6.9-19.6
	c2.2-7.1,5.4-15,11.6-17.7c10.2-4.2,17.1,3.5,18.2,15.9c1.2,11.9-1.5,24-2.5,36c-0.3,4.3-1,8.8,0,12.9c2.8,8.2,9.3,12.7,14.4,18.2
	c1.1,1.3,3.7,4,2.1,6c-0.9,0.8-2.2,0-3-0.4c-3.5-1.9-6.8-4.2-10-6.7c-12.4-10.2-12.5-18.5-11-36.4c0.5-9.6,4.6-29.8-1.3-36.5
	c-5.1-2.8-8.7,1.6-10.6,7.6c-2.2,6.2-4.2,12.5-6.3,18.7c-1.1,3.2-2.3,6.4-3.5,9.6c-1.2,2.9-2.4,6.1-4.7,7.9
	c-3.3,2.6-7.2,2.2-10.8,2.1c-3.3-0.1-6.7-0.3-10.1,0.2c-5,0.7-7.7,4.9-9.6,10.5c-1.7,4.9-3.1,10-4.3,15.1
	c-5.3,21.5-6.1,37.6,8.7,51.6c4.3,4,8.8,7.7,13.8,10.2c3.3,1.7,6.6,3,10,4.4c2.9,1.2,5.8,2.2,8.7,3.2c3.7,1.5,2.2,8.2-1.3,8.2
	C551.6,290.7,551.5,290.7,551.4,290.7z"/>
<path d="M528.8,210.9c-0.6-0.1-1.1-0.2-1.5-0.1c0,0,0,0,0.1,0c0,0,0,0-0.1,0c-0.2,0-0.4,0-0.6-0.1c-5.3-0.7-10.4-2.8-15.3-5.4
	c-1.5-0.8-2.1-3.4-1.3-5.2c1.6-3.5,4.2-2.1,6.3-0.9c3.2,1.5,6.3,3.3,9.4,5.1c2,1,4.2,1.7,6.2,2.8c0.7,0.4,1.5,0.9,1.6,2
	c0.1,1.7-1.1,2.1-2.6,2.1C530.4,211.1,529.6,211,528.8,210.9z"/>
<path d="M527.4,210.7C527.5,210.7,527.5,210.7,527.4,210.7C527.5,210.8,527.5,210.7,527.4,210.7z"/>
<path d="M514.9,242.1c-3.3-0.4-6.6-1.2-8.1-1.6c-2.3-0.4-2.9-4.6-0.8-6.3c2.3-1.7,7.2,1.3,9.9,1.7c2.1,0.6,3.9,1,5.8,1.2
	c1.6-0.2,3.2,1.3,2.3,3.5c-0.8,1.4-2.9,1.8-5.4,1.8C517.4,242.3,516.1,242.2,514.9,242.1z"/>
<path d="M540.1,288.4c-12.2-3-23.7-9.2-32.5-18.3c-6.3-6.6-10.3-15.2-12.2-24.1c-2.5-21.5,1.9-45.9,18.2-61.3
	c9.3-9.3,20.8-4.5,27.7-15c7.3-11.8,10.5-27.3,23.6-34.6c2.2-1.3,4.9-1.9,7.5-1.4c2,0.4,6,1.7,4.3,4.3c-0.6,0.8-1.5,0.9-2.4,1.1
	c-1.5,0.3-3.2,0.3-4.6,0.9c-1.8,0.9-3.1,2.4-4.5,3.8c-3.8,4.3-5.8,9.8-7.9,15.1c-3.6,8.5-7.2,19-14.7,24.7c-2.4,1.7-5.1,3-7.9,3.9
	c-3.9,1.3-8.2,1.8-11.7,4.1c-15,11.7-18.2,34.6-16.2,52.4c2.4,11.9,10.7,21.5,20.7,28c5,3.3,10.2,6.3,15.4,9.5
	c3.3,2,1.7,6.9-1.8,6.9C540.8,288.6,540.4,288.5,540.1,288.4z"/>
<path d="M547.9,291.9c-7.4-0.9-13.4-5.2-19.6-9c-3.2-1.8-0.8-6.6,2.6-5c5.6,2.4,11.3,4.8,17.3,6.2c4.6-1.2,6.8,1.3,6.7,3.8
	c-0.1,2.1-1.9,4.2-5.1,4.2C549.2,292.1,548.6,292,547.9,291.9z"/>
<path d="M543,290.6c-8.2-1.3-15.5-5.5-22.1-10.4c-3.3-2.4-6.2-5.4-9.3-8c-1-0.8-1-2.4-0.1-3.3c0.9-1,2.3-0.9,3.3-0.1
	c2.2,1.9,4.5,3.7,6.9,5.5c5.2,4,11.2,7,17.2,9.7c3.2,1.2,6.1,3.1,9.5,3.9c1-0.4,2.2,0.7,1.8,1.7c-0.2,1-1.3,1.2-2.2,1.2
	c-0.9,0.1-1.8,0.2-2.8,0.2C544.5,290.9,543.7,290.8,543,290.6z"/>
<path d="M253.6,239.2c0,0.1,0.1,0.1,0.1,0.2c0.1,0.1,0.2,0.2,0.3,0.3c-1.9-1.7-0.6-6.6-0.5-8.9c1.3-8.6,3.8-17,7.2-25
	c2.4-6.8,8.7-4.4,13.3-1.5c3.9-6.2,5.5-13.7,8.4-20.5c1.9-5.1,3.7-10.2,5.5-15.3c1.5-4.2,7.8-2.1,6.5,2.2c-3,8.4-5.6,17-8.5,25.4
	c-3.5,10-7.2,21.3-19.4,12.2c-3.4,6.9-6.6,14-8.5,21.5c-0.6,2.9-1.5,5.8-1.4,8.7C256.4,240.1,254.4,240.5,253.6,239.2z"/>
<path class="st0" d="M463.8,85c0.1,1.2-0.4,2.3-1.3,3.1c-0.2,0.2-0.4,0.3-0.6,0.4c0,1.2-0.8,2.2-1.9,2.7c-5.3,2.3-10.8,4.2-16.3,6.1
	c-39.7,14-78.6,30.2-117.1,47.3c-10.3,4.7-20.1,10.5-30.3,15.5c-8,4-15.9,7.3-23.7,11.5c-7.4,4-14.7,8.3-22.2,12
	c-4,1.9-8,4.1-12.1,5.7c-0.6,0.2-1.2,0.5-1.9,0.4c-0.3-0.1-0.5-0.2-0.7-0.3c-1.2-0.2-2.3-0.9-2.9-2.3c-5.2-12.3-6.8-26.1-5.8-39.3
	c0.7-10.4,1.6-21,5.6-30.7c5.3-13,14-24.9,24.9-33.8c14.4-10.8,31.7-18.4,49.9-19c25.2-1,46.5,11.9,60.3,32.5
	c3.7,5.1,7.6,10.1,10.3,15.8c5.8-5.4,13.3-8.9,20.2-12.7c8.2-4.6,16.8-8.5,25.7-11.6c8.9-3.2,18-6,27.4-7.4c2.6-0.3,5.5-1.3,8,0.1
	C461.6,81.1,463.7,82.8,463.8,85z"/>
<path class="st0" d="M275.9,81.2c-3.1,0-6-3-5.8-6.1c0-1-0.1-1.9,0.2-2.9c0.7-3.7,4.6-6.4,8.3-5.8C287.4,68,284.3,81.9,275.9,81.2z"
	/>
<path class="st0" d="M457.9,90.9c-1.1-0.1-1.3-1.9-0.2-2.2c1.5-1.2,3.5-1.9,4.7-3.7c-1.7-0.3-3.4-0.6-5.1-0.6
	c-1.6,0.2-3.8,0.7-4.3-1.4c-0.5-3.8,5.2-2.9,7.5-2.4c1.7,0.4,3.7,0.5,5,1.8c1.3,1.2,1,3.2-0.2,4.4C465.5,88.9,459.6,91.1,457.9,90.9
	z"/>
<path class="st0" d="M375.4,117.6c-2.2,0.2-3.3-2.7-1.7-4.2c0.5-0.5,1.2-0.8,1.8-1.2c7.1-4.2,14.2-8.3,21.7-11.7
	c4.4-2.1,8.9-4.2,13.5-6c2.5-0.8,6-3.7,7.9-0.6c2.2,4.7-7.3,6.1-10.2,7.6c-2.5,1-5.1,2.1-7.5,3.2c-0.1,1.1-0.8,1.9-1.8,2.3
	c-1.7,0.8-3.4,1.7-5.1,2.6c-5.6,2.8-11.3,5.5-17.2,7.9C376.3,117.6,375.8,117.7,375.4,117.6z"/>
</svg>
