<?xml version="1.0" encoding="utf-8"?>
<!-- Generator: Adobe Illustrator 27.0.0, SVG Export Plug-In . SVG Version: 6.00 Build 0)  -->
<svg version="1.1" id="Layer_1" xmlns="http://www.w3.org/2000/svg" xmlns:xlink="http://www.w3.org/1999/xlink" x="0px" y="0px"
	 viewBox="0 0 800 1200" style="enable-background:new 0 0 800 1200;" xml:space="preserve">
<style type="text/css">
	.st0{fill:#2CD5C4;}
	.st1{fill:#BB6F42;}
	.st2{fill:#B3BDEC;}
	.st3{fill:#141C52;}
</style>
<g>
	<path class="st0" d="M118.4,476.8c-4.1-1.1-7.5-3.7-10.7-6.3c-8.3-7.1-15.1-15.8-19.6-25.8c-2.3-4.8-4.7-9.6-6.8-14.5
		c-2.3-5.4,2.9-11.8,8.6-10.7c1.3-16.5,11.4-30.8,21.6-43.2c4.6-5,19.1-22.8,25.8-21.2c1.7,0.5,2.6,2.2,2.4,3.8
		c-1.2,3.9-4.7,6.8-7,10.1c-6.8,8.8-13.4,17.9-18.8,27.6c-2.9,5.5-6.1,11.6-7.4,17.6c-1.2,7.3-1.8,15.2,1.2,22.1
		c4.1,9.2,12.5,15.1,19.4,22.1c2.2,2.1,4.5,4.1,5.3,7.2C134.4,473.8,125.6,479.2,118.4,476.8z"/>
	<path class="st1" d="M669.3,641.6c-1.9-18.4-4.3-35.8-4-54.2c0.4-6.7,11-6.4,11.1,0.2c1.7,10.5,16.4,59.9,0.3,60.8
		C672.9,648.6,669.5,645.5,669.3,641.6z"/>
	<path class="st1" d="M671.2,640.9c-0.6-17-2.4-34-4.7-50.8c-2-6.3,3.8-13.1,9.4-7.7c6.5,13.4,7.2,29.1,8,43.8
		c-0.6,6.9,4.3,19.7-5.8,21C674.6,647.4,671.3,644.6,671.2,640.9z"/>
	<path class="st1" d="M676.6,634.5c-3.3-3.9-1.9-11.1-3-15.3c-0.6-11.4-3.4-23.4-1.8-34.7c2.4-4.5,9.2-2.1,8.6,2.9
		c2.5,14.2,4.8,28.4,5.7,42.7C686.6,634.9,680.1,637.9,676.6,634.5z"/>
	<path class="st1" d="M663.9,678.7c-12.2-3.9-2.1-18.5-1.7-27.1c2-9.5,3.5-17.1,4.7-26c-0.2-20.1,19.4-14.9,15.9-2.8
		c-0.3,17.1-4.8,33.5-9.4,49.8C672.5,676.9,668.1,679.7,663.9,678.7z"/>
	<path class="st1" d="M662.5,680.2c-4.4-1.5-7-6.9-5.2-11.2c3.9-8.9,7.4-17.1,12.5-25.3c-0.1,0.2-0.2,0.3-0.2,0.5
		c4.7-10.6,20.1-1.9,13.7,7.6c-2.7,7.4-5.7,14.8-9.1,22C672.8,678.7,667.5,682.2,662.5,680.2z"/>
	<path class="st1" d="M350.5,1041.9c-1.7-2.5-1.4-5.9,0.4-8.2c3.4-12.3,4.6-25,7.8-37.3c0.9-6,8.2-10.1,13.1-5.6
		c3.7,3.4,3.2,9,3.4,13.6c6.4,4.5,3,12.5,0.2,18.1c-0.5,5.1-5.3,9.5-10.5,7.4c-1.1,3.3-1.5,6.4-1.6,9.8
		C362,1045.5,353.7,1047,350.5,1041.9z"/>
	<path class="st1" d="M361.2,915c-1.6-1.5-2.4-3.4-2.6-5.5c-0.3-3.5-0.7-7-1-10.5c-1.2-9.1-1.2-18.2-1.2-27.4c0-2-0.1-4.1,0.1-6.1
		c0.4-4.8,6.9-6.4,9.5-2.3c2.2,3.6,2.9,7.9,4,12c2.7,11,3.5,22.4,4.5,33.7C375.1,915.6,366,919.7,361.2,915z"/>
	<path class="st1" d="M361.3,918.6c-14.4-1.7-6.3-24.2-6.5-34c1.6-9.6,0.6-32.7,16.1-26.8c4.1,2.1,5.7,7.5,3.3,11.5
		c-0.5,6.7-0.6,13.5-1.1,20.3C371,899.2,376.1,918.9,361.3,918.6z"/>
	<g>
		<path class="st2" d="M381.5,256.6c-37.4-2.9-67.3-28.2-74.5-65.3c-6.9-26.3-4.1-54.5,6.9-79.3c4.1-7.6,9.5-23.4,18.5-25.3
			c5.5-10.2,19.4-8.7,29.2-11.7c12.4-2.4,24.8-5.2,37.3-7.1c14.3-1.8,29.4-4.1,43.5,0.3c36.8,15,52.7,58.8,47.9,96.2
			c4.1,10-4.2,19.6-6.4,29.2c-5,12.3-14.1,36.7-30.8,33.3C434.3,244.9,408,258.2,381.5,256.6z M385.9,229.7
			c14.9-0.8,29.3-7.7,41.6-15.9c15.2-12.8,27.3-29.2,37.2-46.4c4.3-26.8-7-57.5-32.5-69.7c-23.1-6.2-81.3,18.2-94.7,8.9
			c-14.3,26.6-12.9,58.7-2,86.2C342,214.8,363.4,228.9,385.9,229.7z"/>
		<path class="st2" d="M362.4,232.8c-21-4.5-38.8-20.8-43.9-41.8c-4.7-20.6-5.9-42.8,0.9-63c5.1-14.1,12-32.1,26.2-39
			c4.5-1.8,10.5,1,11,6c26.5-23.6,67.7-12.6,93.1,7.4c33.4,27.5,23.7,79.6-4.2,107.5C424.4,231,391.2,240.2,362.4,232.8z"/>
		<path class="st2" d="M245.1,468.7c-8.8-2.3-6.8-13.9-1.3-18.7c0,0,0,0,0,0c0,0-0.1,0.1-0.1,0.1c0,0,0.1-0.1,0.1-0.1
			c-12.6-0.6-25.1-1.8-37.6-3.1c-6.6-1.3-15.9,0.3-20.3-5.6c0,0,0,0,0,0c-3-9.3,9.8-8.4,15.7-8.4c15.6,0.1,31.1,2.1,46.6,2.4
			c9.1,1,44.2-3.2,48.1,2.8c4.8,5.7-0.5,12.7-6.4,14.7c-11.3,4.8-23.2,7.8-35,11C252.5,466.7,249.3,469.8,245.1,468.7z"/>
		<path class="st2" d="M190.8,511.8c-8.2-0.2-16.2-1.4-24.4-1.7c-11.7-1.2-10.2-18.9,1.7-18c19.7,1.2,39.7,1,59-4
			c15.9-3.5,17.9-22.7,23.5-35c3.3-4.2,10.4-1.3,10.5,3.8c-3.4,14.6-3.9,31.9-16.1,42.5C230.2,510.2,208.5,511,190.8,511.8z"/>
		<path class="st2" d="M184.4,503.4c-8.3-1.6-13.2-11.5-8.9-18.9c2.9-5.1,8.5-7.8,13.3-10.7c-2.4-5.5,0.4-11.8,4.8-15.3
			c-9.7-20.2,24.3-16.6,35.7-17.8c6.6,0.3,14.7-2,19.6,3.8c7,9.8,2.5,24.9-3,34.6c-8.3,13.1-24.3,17.2-38.4,20.9
			C199.9,501.2,192.2,504.7,184.4,503.4z"/>
		<path class="st2" d="M625.5,707.3c-11.3-6.5-13.8-21-18.3-32.3c-8.6-23.5-12.2-48.4-11.3-73.4c0-6.9-1-25.8,10.7-19
			c1.8,1.7,2.3,4.4,1.3,6.7c0.3,7.5,0.9,15,1.7,22.5c2.2,21.9,6.6,43.6,14.9,64c7,17.2,8.8,21.4,22.7,5.5c13.8-18,11.4-43.1,15-64.5
			c1.2-16.4,3-32.8,4.8-49.2c1.1-5.6-1.2-12.3,2.4-17.1c4-4.7,12.6-1.7,12.6,4.6c-0.1,6.3-0.2,12.7,0.1,19
			c0.4,13.4,0.5,26.7,0.1,40.1c-3,25-4.5,57-20.9,77.2C652.8,701.4,639.7,713.9,625.5,707.3z"/>
		<path class="st2" d="M671.8,653.1c-8.4-3.8-1-13.9-1.1-20.6c2.4-14.3-0.5-28.7-0.4-43c0.8-10.8,14.7-8.1,12.7,2.7
			c1.4,12.7,4.7,25.4,2.7,38.2c-1,6.5-3.8,12.6-5.7,18.9C678.9,652.6,675,654.3,671.8,653.1z"/>
		<path class="st2" d="M629.2,690.6c-14.1-9-13.8-28.8-15.6-43.7c-3.5-16.6-6.5-33.2-9.1-49.9c-0.4-2.8-0.9-5.6-0.8-8.5
			c0.2-7.2,10.8-7.5,11.3-0.2c0.8,6.9,2.5,13.6,4.1,20.4c0.5-0.2,1.1-0.4,1.6-0.5c0.3-14.6,20.8-17.5,24.4-3c0.5-19,24-17.8,22,1.2
			c-0.8,18.3-2.3,36.9-9.3,54.1C655.3,675,648.8,699.2,629.2,690.6z"/>
		<path class="st2" d="M304.8,1026.7c-4.1-36.2-4.6-72.8-8.1-109c-1.7-19.7-4.1-39.3-4.5-59.1c-1.1-6.1,5.4-11.8,9.5-5.4
			c0,0,0,0,0,0c4.5,24.9,8.6,50.1,13.3,75c5.7,31.8,7.4,64.1,9,96.3C324.5,1036.3,306.9,1038.4,304.8,1026.7z"/>
		<path class="st2" d="M347.6,1086.4c-9.7-3.1-15.5-12.2-22.9-18.5c-5.4-5.3-14.1-4.9-18.9-11c-3-6-1.5-13.3-1.4-19.8
			c-0.4-6.2,2.9-16.1,10.7-12.3c5.9-1.1,10.5,6.8,8.1,11.7c0.1,3.7,0.5,7.6-0.5,11.2c9,3.2,17.3,8.9,23.9,15.7
			c0.6-4.9,1-9.9,1.2-14.8c-15.4-2.6,0.4-41,1.4-51.7c1.8-42.7-1.5-85.2-5.8-127.6c-1.6-10,10.6-17.1,18-9.8
			c4.5,4.3,6.4,10.7,8.2,16.5c8.9,39.9,10.2,82.4,2.6,122.6c-2.8,11.4-3,23.3-4.3,34.9C366,1048.2,370.2,1089,347.6,1086.4z"/>
		<path class="st2" d="M330.4,1065.4c-3.6-3.6-5.9-8.3-7.7-13c-1.4-3.5-2.8-7.1-3.8-10.8c-3.9-13.6-6.4-27.6-8.5-41.6
			c-0.6-4-1-8-1.3-10.1c-0.1-1.3-0.3-2.6-0.4-3.5c-0.7-6-1.3-11.9-1.9-17.5l-0.3-2.4c-1.5-12.9-3.4-25.8-5.4-38.7
			c-2.1-13.6-4.5-27.2-6-40.9c-0.6-5.4-0.9-10.9-1.4-16.3c-0.2-2.5-0.4-5.1-0.6-7.6c-0.4-5.4-0.5-11.4,3.6-15.6
			c2.7-2.7,5.9-4.4,9.8-4.6c3.8-0.2,7.3,1.2,10.1,3.7c0.4,0.4,0.9,0.8,1.2,1.3c1.6-1.3,3.6-2.2,5.7-2.6c2.3-0.4,4.5-0.1,6.7,0.6
			c2.1,0.6,4.3,2.1,5.7,3.8c0.8,1,1.7,2,2.2,3.2c0.2,0.5,0.4,1.1,0.7,1.6c3.1,7.3,5.2,15,7.3,22.7c2,7.2,3.7,14.4,5.2,21.7
			c2.8,13.3,5,26.7,6.7,40.1c0.9,7.2,1.5,14.4,2.1,21.6c0.6,7,1.1,14,1.6,21c0.5,6.7,0.8,13.3,0.9,20c0.1,3.7,0.1,7.3,0,11
			c-0.2,6.1-0.7,12.9-5.7,17.2c-1.2,1-2.6,1.8-4.1,2.3c-0.4,4.1-0.8,8.4-2.9,12c-0.3,0.6-0.7,1.1-1.1,1.7c1.9-0.3,4,0.2,5.5,1.6
			c2.1,2,2.6,4.9,1.6,7.4c-0.3,1.1-0.8,2.2-1.3,2.9c-0.3,0.4-0.6,0.8-0.8,1.2c-0.1,0.3-0.3,0.5-0.4,0.7c-0.6,1.3-1.2,2.6-2,3.9
			c-1.8,3.1-4.6,5.4-8.2,6.2c-0.8,0.2-1.6,0.2-2.4,0.2C337,1070,333.2,1068.1,330.4,1065.4z"/>
		<path class="st2" d="M338.4,986.9c-1.1-51.1-0.2-102.2-4.6-153.1c-0.6-11.6,17.3-12.5,17.9-0.8c4.2,38.8,1.6,77.6,0.3,116.3
			c-0.3,12.3-0.2,24.7,0.4,37C352.9,995.4,338.8,996.2,338.4,986.9z"/>
		<path class="st2" d="M522.7,1096.5c-12-9-9-26.3-12.8-39.2c-12.3-34.6-22.3-70.1-26.1-106.7c-3.9-35.9-1-72,2.6-107.7
			c2.1-9.7,16.3-8.2,17.8,1.1c0,0,0,0,0,0c1.2,41.4-0.4,83.3,8.1,124.1c3.6,19.1,8.4,38.1,14.5,56.6c4.6,13.2,8,26.6,9.3,40.2
			c14-11.7,5.7-39.8,5.7-56.4c-1-13.1-2.1-26.1-3.2-39.2c-3.5-43.4-6.4-87.5,2.8-130.4c0.3-1.9,0.5-3.9,0.6-5.8
			c0.4-7.9,11.3-11.3,16.2-5.1c3.9,4.6,1.6,19.9,2.6,26.8c-0.4,52.6,1.4,105.1,5.8,157.5c0.6,19.9,4.4,42.3-6.3,60.3
			C554,1081.5,534.6,1102.8,522.7,1096.5z"/>
		<path class="st2" d="M544.1,1034.5c-3.6-70.4-4.4-141.1,3.9-211.2c0.5-4.1,6-6.3,8.8-2.9c2.4,3.1,0.7,7.7,1,11.3
			c-0.9,38.5-3.3,77-2.7,115.5c0.6,28.9,1.6,57.8,2.6,86.7C558,1042.7,544.6,1043.4,544.1,1034.5z"/>
		<path class="st2" d="M558.3,1078.1c-1.6-2.2-1.7-5.5-1-7.9c0-8.1-0.8-16.1-1.4-24.2c0.2-7.7-3.6-18.1,0-24.9
			c-0.6-10.2-1.3-20.3-2.2-30.5c-0.5-11.1,16.5-11.9,17-0.8c1.3,16.1,3.4,32.2,4.6,48.3c-0.5,8.9,5.9,25.5-6.8,27.7
			c0-0.2,0-0.3,0-0.5C568.9,1071.6,567.1,1084.8,558.3,1078.1z"/>
		<path class="st2" d="M532,1072.7c-6.9-3.5-5.3-12.1-7.3-18.4c-3.2-14.5-9.6-27.8-14.4-41.8c-5.7-19.5-8.9-39.6-11.6-59.6
			c-5.1-36.5-6.1-73.8-2.2-110.5c6-16.1,25.2-8.4,22.4,9.3c2-15.2,2.5-31.6,9.1-45.5c4.6-5.3,14-1.9,14.1,5.1
			c0.5,5.3,1.9,13.2,1.4,18c-3.5,74.9,13,149.2,5.9,224.1c2.3,3.3,2.9,8.4-1.5,10.2C546.7,1070.8,538.8,1076.5,532,1072.7z"/>
	</g>
	<path d="M372.6,869.7c-23.7-0.5-47.4-0.3-70.5-6c-12.3-3.1-25.1-6.8-36.1-13.2c1.1-6.1,2.1-12.2,2.8-18.3c0.6-4.8,1-9.7,1.4-14.6
		c0.4-5.5,0.8-11,1.1-16.5c0.5-10.1,0.6-20.2,0.8-30.2c0,0.1,0,0.2,0,0.3c0.1-2.3,0.1-4.5,0.2-6.8c0.2-9.8,0.5-19.6,0.8-29.4
		c0.1-4.9,0.3-9.8,0.4-14.6c0.1-5.1-0.1-10.1-0.4-15.2c0,0,0,0,0,0c-0.9-16.1-1.7-32.2-2.2-48.3c0-1.7,0-3.3,0-5
		c0.1-3.8,0.1-7.6,0.2-11.3c0-0.8,0-1.6,0.1-2.4c0.6,0.1,1.1,0.4,1.5,0.9c0.3-0.4,0.6-0.8,1-1.2c0.1-2.2-0.2-4.9,1.7-5.9
		c1.4-0.5,2.7,1.2,2,2.4c0,0.5-0.1,1-0.1,1.5c8-1.8,15.5-2,23.4-3.2c12.1-1.3,24.1-3.4,36.1-5.4c52.4-9.5,106-10.6,158.8-4.4
		c8.8,0.9,17.6,1.9,26.4,3.1c5.6,1,19.4,1.9,27.5,5.8c0,0,0,0,0,0c0,1.6,1.2,3.1,2.8,3.3c0.2,1.6,0.4,3.1,0.5,4.7
		c0.6,6.6,1.3,13.2,2.2,19.8c0.2,1.9,0.3,3.7,0.5,5.6c0.4,3.8,0.7,7.6,1.2,11.3c0.2,1.8,0.4,3.5,0.7,5.3c0.3,2.2,0.7,4.4,1,6.7
		c0.3,2.1,0.7,4.2,1.1,6.2c0.3,1.7,0.6,3.4,0.9,5.1c0.7,4,1.4,8.1,2.1,12.1c0-0.1,0-0.2-0.1-0.3c0.9,5.4,1.5,10.9,2.2,16.3
		c0.9,7.1,1.5,14.3,2.2,21.5c0.7,8,1.5,15.9,2.4,23.8c0-0.1,0-0.2,0-0.3c0.3,3.1,0.7,6.2,1.1,9.4c0.4,3.6,0.9,7.2,1.3,10.8
		c2,15.5,4.2,30.9,6.5,46.4c0-0.1,0-0.2,0-0.4c0.2,1.5,0.4,2.9,0.6,4.4c-9,4.8-18.1,9.2-28.1,11.7c-17.2,4.6-35,6.2-52.7,6.8
		c-11.9,0-25.3,0.2-36.1-5.3c-1.2-3-2.5-6-3.7-9c-2.3-5.5-4.5-11-6.6-16.5c-2.8-7.1-5.8-14-9-20.9c0-0.1-0.1-0.1-0.1-0.2
		c0,0,0,0,0,0c0,0,0,0,0,0c0,0,0,0,0,0c0,0,0,0,0-0.1c0,0,0,0,0,0c0,0,0,0,0,0c0,0,0,0,0,0c0,0,0,0,0,0c0,0,0,0,0,0c0,0,0,0,0,0
		c0,0,0,0,0,0v0c-1.5-3.3-3.1-6.5-4.8-9.6c-1.4-2.8-2.9-5.7-4.4-8.5c-1.5-2.8-2.9-5.6-4.4-8.3c-1.1-2.1-2.2-4.1-3.3-6.2
		c-0.4-1-0.7-2.1-1.1-3.1c-0.3-0.7-0.5-1.5-0.8-2.2c-0.3-0.8-0.6-1.5-1-2.3c0-0.1-0.1-0.2-0.1-0.3c0.1,0,0.2,0,0.3,0c0,0,0,0,0,0
		c-0.1,0-0.2,0-0.3,0c-0.1-0.2-0.2-0.4-0.4-0.5c-0.1-0.1-0.3,0-0.4,0.1c-0.1-0.4-0.2-0.7-0.3-1.1c-0.1,0.7-0.2,1.4-0.3,2.1
		c0,0,0,0-0.1,0.1c-0.1,0.3-0.1,0.6-0.1,0.8c0,0.3-0.1,0.6-0.1,0.9c-0.1,0.4-0.1,0.7-0.2,1c-0.2,1-0.4,2.1-0.6,3.1c0,0,0,0,0-0.1
		c-0.5,2-1,3.9-1.4,5.9c0,0,0-0.1,0-0.1c-0.4,1.4-0.7,2.8-1,4.1c-0.3,1.2-0.6,2.4-0.9,3.6c-1.4,5.6-2.9,11.1-4.3,16.7
		c-0.7,2.6-1.4,5.2-2.2,7.8c-0.3,1-0.5,2-0.8,3c-0.4,1.3-0.8,2.6-1.2,3.9c-0.8,2.5-1.5,4.9-2.3,7.4c-1,3.1-2,6.3-3,9.4
		c-1.6,4.9-3.1,9.9-4.5,14.9c-0.5,1.9-1.1,3.9-1.6,5.8c-0.2,0.9-0.5,1.7-0.7,2.6c-0.1,0.6-0.3,1.2-0.4,1.7
		c-3.7,6.1-6.9,7.2-15.4,7.2C377.9,869.8,375.4,869.8,372.6,869.7z"/>
	<path d="M442.3,810.3C442.3,810.3,442.3,810.3,442.3,810.3C442.3,810.4,442.3,810.4,442.3,810.3
		C442.3,810.3,442.3,810.3,442.3,810.3z"/>
	<path d="M442.3,810.4C442.3,810.4,442.3,810.4,442.3,810.4C442.3,810.4,442.3,810.4,442.3,810.4
		C442.3,810.4,442.3,810.4,442.3,810.4C442.3,810.4,442.3,810.4,442.3,810.4z"/>
	<path d="M442.2,810.1C442.2,810.1,442.2,810.2,442.2,810.1C442.2,810.2,442.2,810.2,442.2,810.1z"/>
	<path d="M442.1,810C442.1,810,442.1,810,442.1,810C442.1,810,442.1,810,442.1,810C442.1,810,442.1,810,442.1,810z"/>
	<path d="M442.2,810.1C442.2,810.1,442.2,810.1,442.2,810.1C442.2,810.1,442.2,810.1,442.2,810.1
		C442.2,810.1,442.2,810.1,442.2,810.1z"/>
	<path d="M442.1,810C442.1,810,442.1,810,442.1,810C442.1,810.1,442.1,810.1,442.1,810C442.2,810.1,442.2,810.1,442.1,810
		C442.2,810.1,442.2,810.1,442.1,810C442.2,810.1,442.1,810,442.1,810z"/>
	<path d="M442.2,810.1C442.2,810.1,442.2,810.1,442.2,810.1C442.2,810.1,442.2,810.1,442.2,810.1
		C442.2,810.1,442.2,810.1,442.2,810.1C442.2,810.1,442.2,810.1,442.2,810.1z"/>
	<path d="M442.1,810.1C442.1,810.1,442.1,810.1,442.1,810.1C442.1,810.1,442.2,810.1,442.1,810.1
		C442.2,810.1,442.2,810.1,442.1,810.1C442.2,810.1,442.1,810.1,442.1,810.1z"/>
	<path d="M442.1,810C442.1,810,442.1,810,442.1,810C442.1,810.1,442.1,810.1,442.1,810C442.1,810.1,442.1,810,442.1,810z"/>
	<path d="M442.1,810C442.1,810,442.1,810,442.1,810L442.1,810C442.1,810,442.1,810,442.1,810z"/>
	<path d="M422.3,770.5C422.3,770.5,422.3,770.5,422.3,770.5c0-0.1-0.1-0.3-0.1-0.4c0-0.1,0-0.3,0-0.4c0,0,0,0,0,0
		c0.1,0.3,0.2,0.7,0.4,1c0,0,0,0,0,0c0.1,0.5,0.3,1,0.4,1.5C422.7,771.6,422.4,771.1,422.3,770.5z"/>
	<path d="M421.6,769.1C421.6,769.1,421.6,769.1,421.6,769.1C421.6,769.1,421.6,769.1,421.6,769.1c0.1,0,0.1-0.1,0.2-0.1c0,0,0,0,0,0
		c0,0,0,0,0,0c0.1,0.1,0.1,0.2,0.2,0.2c0,0,0,0,0,0c0,0.1,0.1,0.1,0.1,0.2c-0.1,0.1-0.1,0.2-0.1,0.2c-0.1,0.1-0.1,0.3,0,0.5
		c0,0.1,0,0.1,0,0.2C421.8,769.9,421.7,769.5,421.6,769.1z"/>
	<path d="M421.7,769.1C421.7,769.1,421.7,769.1,421.7,769.1S421.7,769.1,421.7,769.1z"/>
	<path d="M421.7,769.1C421.7,769.1,421.7,769.1,421.7,769.1C421.7,769.1,421.7,769.1,421.7,769.1z"/>
	<path d="M265.7,643.2c0.1-0.2,0.2-0.4,0.4-0.5c-0.1,0.9-0.2,1.8-0.3,2.6C265.7,644.6,265.7,643.9,265.7,643.2z"/>
	<path d="M201.1,1163.1c-6.1-0.4-12.1-1.1-18.2-1.9c-8.8-0.8-18.7-3.7-22.4-12.6c-7-15.9,0.6-34.8,9.2-48.7
		c5.5-8.6,14.2-14.7,23.7-18.2c0.2-0.1,0.4-0.1,0.6-0.2c0.9,0.1,1.8,0.3,2.7,0.5c1.2,0.3,2.5,0.6,3.7,0.9c2.2,0.7,4.3,1.4,6.5,2.1
		c0.9,0.4,1.8,0.8,2.8,1.2c1.8,0.9,3.5,1.8,5.2,2.8c1.5,1,2.9,2,4.4,3.1c1.3,1.1,2.5,2.2,3.8,3.3c1.5,1.6,2.9,3.2,4.3,4.9
		c1.4,2,2.8,3.9,4,6c0.5,0.9,0.9,1.8,1.3,2.7c0.6,1.5,1.1,2.9,1.6,4.4c0,0,0,0,0,0c0,0,0,0,0,0c-0.3-3.3-0.7-6.4-2-9.5
		c-1.1-2.7-2.4-5.3-3.9-7.8c-1.7-2.6-3.5-5.2-5.7-7.5c-2.2-2.2-4.5-4.5-7.1-6.2c-2.4-1.6-4.8-3-7.4-4.3c10.4-1.6,21.1-1.4,31.7-0.5
		c9.8,1,19.4,3.7,29.3,3.8c0.5,0,1,0,1.5,0c1,0,1.9,0.1,2.9-0.1c1.2-0.5,2.1-1.5,3.1-2.3c8.3-8,16-16.5,26.3-21.1
		c-2.5-17.9-2.6-36-4-54c-1.5-22.6-3.2-44.9-5.3-67.4c-4.8-51.5-12.8-102.7-19.1-154c-0.6-5.7,7.9-7.2,8.9-1.2
		c7.7,58.6,16.8,117.5,20,176.5c0,0,0,0,0,0c1.6,23.7,2.5,47.3,3.1,71c0.2,9.1,0.6,18.2,1,27.3c1.6-0.5,3.4-0.9,5.1-1.2
		c7.1-1.3,15.2,0.7,19.7,6.7c2.1,3.7,2.7,7.7,2.3,11.8c-1.3,1.4-2.6,2.7-3.9,4c-2.6,2.3-5.4,4.5-8.1,6.7c-2.6,2.1-5.1,4.2-7.7,6.2
		c0,0,0,0,0.1,0c0,0,0,0-0.1,0.1l0,0c0,0,0,0,0,0s0,0,0,0c0,0,0,0,0,0c0,0,0,0,0,0c0,0,0,0,0,0c-1.7,1.2-3.5,2.4-5.3,3.5
		c0,0,0,0,0,0c0,0,0,0,0,0c0,0,0,0,0,0c0,0,0,0,0,0c-0.5,0.3-1.1,0.6-1.6,0.9c0,0,0,0,0,0c0,0,0,0,0,0c4.6-1.1,8.9-3.1,13-5.5
		c2.3-1.3,4.5-2.7,6.7-4.1c2.2-1.4,4.4-2.8,6.3-4.5c0.9-0.8,1.8-1.7,2.6-2.6c0.3,0,0.6-0.1,0.9-0.2c5.6-0.8,11-2.9,16-5.7
		c-0.1,0.2-0.2,0.4-0.1,0.6c0.1,0.1,0.2,0.3,0.4,0.3c0,0,0,0,0,0c0,0,0,0,0,0c0,0,0,0,0,0c0,0,0,0,0,0c0,0,0,0,0,0
		c0,0-0.1,0-0.1-0.1c0,0,0,0-0.1,0c0,0,0,0,0-0.1c0,0,0,0,0,0c0,0,0,0,0,0c0,0,0,0,0-0.1v0c0,0,0,0,0,0c0,0,0,0,0,0c0,0,0,0,0,0
		c0,0,0,0,0-0.1c0,0,0,0,0,0c0-0.1,0.1-0.1,0.1-0.2c0.1-0.1,0.2-0.3,0.3-0.4c0.4-0.2,0.8-0.4,1.2-0.7c2.3-1.6,3.8-3.8,5.5-5.7
		c0.4-0.2,0.9-0.3,1.3-0.5c0,0,0,0,0,0c0,0,0,0,0,0c0,0,0,0,0,0c0.5-0.1,1-0.3,1.5-0.4c0.7-0.1,1.3-0.2,2-0.2c1,0,1.9,0,2.9,0.1
		c0,0,0,0,0.1,0c0,0,0,0-0.1,0c0,0,0,0,0,0c0.2,0,0.5,0,0.7,0.1c0,0-0.1,0-0.1,0c1.2,0.1,2.4,0.2,3.7,0.5c0.3,0.1,0.7,0.2,1,0.3
		c0.6,0.2,1.1,0.5,1.7,0.7c0.2,0.1,0.4,0.3,0.6,0.4c0.4,0.3,0.7,0.6,1.1,0.9c0.6,0.6,1.1,1.1,1.6,1.7c2,2.8,3.5,6,3.7,9
		c0.8,1.3,0.8,3.2,1.3,4.6c1.8,7.5,3.1,15,4.5,22.5c10.2,47-37.2,49.9-71.2,52c-21.1,1.4-42.3,2.3-63.4,3.8
		c-14,0.8-27.9,2.1-41.9,2.1C207.9,1163.4,204.5,1163.3,201.1,1163.1z"/>
	<path d="M361.8,1065.3C361.8,1065.3,361.8,1065.3,361.8,1065.3C361.8,1065.3,361.7,1065.3,361.8,1065.3
		C361.7,1065.3,361.8,1065.3,361.8,1065.3z"/>
	<path d="M367.3,1057.7c-0.2,0-0.5-0.1-0.7-0.1c-0.2-0.1-0.4-0.1-0.6-0.2c-0.4-0.3-0.8-0.6-1.2-0.8c0.3-3.1,0.6-6.2,0.9-9.2
		c1-9.4,2.4-18.6,3.8-27.9c2.2-13.8,4.2-27.9,5-41.9c1-15.3,0.6-30.5-0.2-45.8c-0.3-4.8-0.6-9.4-0.9-14
		c-3.4-46.2-11.2-92-17.7-137.8c-0.4-3,1.8-5.9,4.8-6.3c3-0.4,5.8,1.8,6.3,4.8c5.7,40,13,79.8,16.1,120.1
		c1.7,22.9,2.9,45.6,1.6,68.5c-0.9,21.8-5.4,43.2-9.6,64.6c-1.5,8-2.8,16.1-3.8,24.2c-0.1,0.2-0.2,0.3-0.3,0.5
		c-0.2,0.4-0.5,0.8-0.7,1.2c0,0-0.1,0-0.1,0c0,0,0,0,0,0c0,0,0,0,0,0c0,0-0.1,0-0.1,0c-0.3,0.1-0.6,0.2-0.9,0.3
		c-0.2,0-0.4,0.1-0.6,0.1c-0.1,0-0.1,0-0.2,0C368,1057.7,367.6,1057.7,367.3,1057.7z"/>
	<path d="M309.6,1094C309.6,1094,309.6,1094,309.6,1094C309.6,1094,309.6,1094,309.6,1094z"/>
	<path d="M315,1090.4C315,1090.4,315,1090.4,315,1090.4C315,1090.4,315,1090.4,315,1090.4z"/>
	<path d="M209.6,1086.2c0.1,0,0.2,0.1,0.4,0.1C209.9,1086.3,209.8,1086.3,209.6,1086.2z"/>
	<path d="M314.9,1090.4C314.9,1090.4,314.9,1090.4,314.9,1090.4C314.9,1090.4,314.9,1090.4,314.9,1090.4
		C314.9,1090.4,314.9,1090.4,314.9,1090.4z"/>
	<path d="M314.9,1090.4C314.9,1090.4,314.9,1090.4,314.9,1090.4C314.9,1090.4,314.9,1090.4,314.9,1090.4z"/>
	<path d="M341.2,1152.5c0.6-2.6,4.4-1.8,6.4-2.4c8.7-1.4,17.5-2.4,26.3-3.7c3.4-0.7,6.7-0.5,9.7-2.1c4.2-5,0.9-12.1-1.3-17.4
		c-6-13.2-11.4-26.7-18.1-39.4c-1-1.8-0.3-4.2,1.6-5.2c1.8-1,4.2-0.3,5.2,1.6c2.8,5.3,5.5,10.6,8.1,16c2.6,5.6,4.9,11.3,7.2,17
		c3.8,9.5,10.6,22.9,1.6,31.5c-2.3,1.8-5.2,2.1-8,2.6c-5.7,0.9-11.4,1.3-17.1,1.8c-6.3,0.4-12.7,1.3-19,1.5
		C342.5,1155.1,340.9,1153.9,341.2,1152.5z"/>
	<path d="M380.2,1147.9c-0.7-0.1-1.4-0.2-2-0.4c-1.1-0.4-2.3-1.1-2.9-2.2c-0.9,0.7-2.3,0.9-2.9-0.2c-0.9-1.9,1.6-2.5,2.6-3.5
		c-0.1-0.1-0.1-0.3-0.1-0.4c-0.4-1.5,0-2.8,0.9-4c0-1.9,2.1-3.4,3.9-2.5c1.2-0.2,2.4,0.2,3.1,1.2c0.7,1,0.7,2.3,0.1,3.3
		c0.1,0.1,0.2,0.2,0.3,0.3c0.2,0.3,0.4,0.5,0.5,0.8c1-14.8-2.4-29.5-8.7-42.9c-0.8-2-1.9-3.9-2-6.1c-0.6-5,6.2-7.5,9-3.4
		c2.2,3.1,3,6.9,4.4,10.5c3.7,10.7,6.3,21.8,6,33.2c-0.3,5.4,0.8,13.4-5,16.2C385.1,1148.3,382.6,1148.1,380.2,1147.9z"/>
	<path d="M374.2,1150.4c-2.9-0.9-5.1-3.9-4.4-7c0.4-2.2,2.1-3.8,3.4-5.6c2.3-3.5,5.7-8.2,10.3-5.4c-1.3-10.9-2.6-22.4-4.4-32.8
		c0,0.1,0,0.1,0,0.2c-1.2-6.9-2.8-13.8-4.8-20.6c-0.5-2.3-1.9-4.8-1.1-7.1c0.7-1.5,2.5-2.1,3.9-1.4c2.1,1.3,2.7,4,3.8,6
		c5,10.7,8.3,21.6,11.1,32.7c2,7.7,3.7,15.6,4.2,23.6c0.2,3.5,0.4,7.2-0.7,10.6c-1.7,5.6-8.1,6.7-13.2,7.1
		C379.6,1150.9,376.8,1151.2,374.2,1150.4z"/>
	<path d="M686.2,1174.4c-14.7,0-29.3-1.3-44-2.1c-22.1-1.5-44-2.4-65.8-3.8c-34.6-2.1-82.1-5-78.2-53c0.4-7.7,0.7-15.4,1.5-23
		c0.3-1.4,0.1-3.4,0.7-4.7c-0.3-6.1,4.2-13.6,8.7-15.7c0.2-0.1,0.5-0.2,0.7-0.3c0-0.1-0.1-0.2-0.1-0.3v0c0.7-0.2,1.3-0.4,2-0.7
		c0,0-0.1,0-0.1,0c0.1,0,0.1-0.1,0.2-0.1c0.4,0.1,0.9,0.1,1.3,0.2c0.5,0.1,0.9,0.2,1.4,0.4c0,0-0.1,0-0.1,0c0.1,0,0.2,0.1,0.2,0.1
		c1.1,0.6,2.2,1.3,3.4,1.8c0.2,0.1,0.4,0.2,0.6,0.2c2.4,2.1,4.5,5.2,7.6,7.1c5.8,3.1,12.1,5.5,18.4,6.4c0.3,0.1,0.6,0.1,0.9,0.2
		c1,0.9,1.9,1.8,2.9,2.6c2.1,1.8,4.6,3.2,6.9,4.6c2.4,1.4,4.9,2.8,7.3,4.1c4.5,2.4,9.1,4.4,13.9,5.5c0,0,0,0,0,0c0,0,0,0,0,0
		c-0.6-0.3-1.2-0.6-1.8-0.9c0,0,0,0,0,0c0,0,0,0,0,0c0,0,0,0,0,0c0,0,0,0,0,0c-2-1.1-4-2.3-5.9-3.6c0,0,0,0,0,0c0,0,0,0,0,0
		c0,0,0,0,0,0c0,0,0,0,0,0c0,0-0.1,0-0.1-0.1c0,0,0,0,0.1,0c-2.9-2-5.7-4.2-8.6-6.3c-3-2.2-6.1-4.4-9-6.8c-1.5-1.3-3-2.7-4.5-4.1
		c-0.9-4.2-0.9-8.3,0.8-12.1c3.6-6.3,11.6-8.5,18.9-7.4c1.8,0.3,3.6,0.6,5.4,1.1c-0.7-9.4-1.6-18.8-2.6-28.2
		c-2.7-24.4-4.9-48.6-6.5-72.9c0,0,0,0,0,0c-4.7-60.3-3.4-120.8-3.5-180.7c0.2-6.1,9-5.3,9.1,0.6c0.6,52.6-0.6,105.1,1.5,158
		c0.9,23.1,2.2,46.1,3.7,69.3c1.1,18.5,3.4,37.2,3.3,55.7c11.1,4.6,20.2,13.2,29.7,21.4c1.1,0.8,2.2,1.8,3.5,2.3c1,0.2,2,0.1,3,0
		c0.5,0,1-0.1,1.6-0.1c10.2-0.2,19.7-3.3,29.8-4.5c10.9-1.2,22-1.6,33.2-0.1c-2.5,1.4-4.9,2.9-7.1,4.6c-2.5,1.9-4.6,4.3-6.5,6.6
		c-2,2.4-3.6,5.1-4.9,7.9c-1.3,2.6-2.2,5.4-3,8.3c-0.9,3.2-0.9,6.5-0.7,10c0,0,0,0,0,0c0,0,0,0,0,0c0.3-1.6,0.7-3.1,1-4.7
		c0.3-1,0.6-1.9,1-2.8c1-2.2,2.1-4.3,3.3-6.4c1.2-1.8,2.5-3.5,3.8-5.2c1.1-1.2,2.3-2.4,3.5-3.6c1.4-1.2,2.7-2.2,4.1-3.3
		c1.7-1.1,3.3-2,5-3c0.9-0.4,1.8-0.8,2.8-1.3c2.2-0.8,4.3-1.6,6.5-2.4c1.3-0.3,2.5-0.6,3.8-1c0.9-0.2,1.8-0.4,2.8-0.6
		c0.2,0.1,0.5,0.1,0.7,0.2c10.6,3.5,20.8,9.8,27.9,18.9c11.2,14.6,22.2,34.8,17.1,51.8c-2.7,9.5-12.9,12.7-22.3,13.5
		c-6.3,0.8-12.7,1.6-19.1,2c-3.6,0.2-7.2,0.3-10.8,0.3C686.4,1174.4,686.3,1174.4,686.2,1174.4z"/>
	<path d="M512.3,1065.7c-0.2,0-0.4,0-0.6-0.1c-0.4-0.1-0.9-0.2-1.3-0.4c-0.3-0.1-0.6-0.3-1-0.4c-0.3-0.2-0.6-0.3-0.9-0.5
		c-0.2-0.1-0.3-0.2-0.5-0.3c-2-8.1-4.3-16.2-6.8-24.2c-6.9-21.6-14.1-43.1-17.8-65.1c-4.2-23-5.9-45.9-7.2-68.9
		c-2.1-40.5-0.1-80.8,0.3-121c0.1-3,2.5-5.4,5.5-5.2c2.9,0.2,5.5,2.9,5.4,5.9c-0.4,46.3-2.1,92.6,0.5,139.2
		c0.3,4.6,0.6,9.3,0.9,14.2c1.2,15.5,2.8,30.8,5.7,46.2c2.6,14.1,6.4,28.3,10.4,42.3c2.6,9.4,5.3,18.8,7.4,28.3
		c0.5,2.3,1,4.6,1.6,6.9c-0.1,0.2-0.2,0.5-0.3,0.7c-0.2,0.5-0.4,1-0.6,1.5c-0.2,0.3-0.4,0.6-0.5,0.9
		C512.4,1065.7,512.3,1065.7,512.3,1065.7z"/>
	<path d="M574.9,1102.5C574.9,1102.5,574.9,1102.5,574.9,1102.5C574.9,1102.5,574.9,1102.5,574.9,1102.5z"/>
	<path d="M569,1098.9C569,1098.9,569,1098.9,569,1098.9C569,1098.9,569,1098.9,569,1098.9z"/>
	<path d="M677.2,1092.8c-0.1,0.1-0.2,0.1-0.4,0.2C676.9,1092.9,677,1092.9,677.2,1092.8z"/>
	<path d="M569,1099C569,1099,569,1099,569,1099C569,1099,569,1099,569,1099C569,1099,569,1099,569,1099z"/>
	<path d="M569,1099C569,1099,569,1099,569,1099C569,1099,569,1099,569,1099z"/>
	<path d="M550.9,1163.4c-1-2.7-4.7-1.8-6.8-2.4c-8.9-1.4-17.9-2.4-26.7-3.7c-3.4-0.7-6.8-0.5-9.9-2.1c-4.8-5.1-2.4-12.4-1-17.8
		c4.2-13.6,7.8-27.4,12.8-40.5c0.7-1.9-0.3-4.3-2.2-5.2c-1.9-1-4.2-0.2-4.9,1.7c-2.1,5.4-4,10.9-5.9,16.5
		c-1.9,5.7-3.4,11.6-4.9,17.5c-2.5,9.8-7.5,23.5,2.5,32.2c2.5,1.8,5.4,2.2,8.3,2.7c5.8,1,11.5,1.3,17.3,1.8
		c6.4,0.4,12.8,1.3,19.2,1.5C549.9,1166,551.3,1164.8,550.9,1163.4z"/>
	<path d="M511.3,1158.8c0.7-0.1,1.3-0.2,1.9-0.5c1-0.4,2.2-1.1,2.6-2.3c1,0.7,2.4,0.9,2.9-0.3c0.7-2-1.9-2.5-3-3.6
		c0-0.1,0.1-0.3,0.1-0.4c0.2-1.5-0.4-2.9-1.4-4c-0.2-2-2.5-3.4-4.2-2.5c-1.2-0.2-2.4,0.2-2.9,1.2c-0.6,1-0.4,2.3,0.3,3.4
		c-0.1,0.1-0.2,0.2-0.3,0.3c-0.2,0.3-0.3,0.5-0.4,0.8c-2.9-15.2-1.5-30.2,3-43.9c0.6-2,1.3-4,1.2-6.3c0-5.1-7.1-7.6-9.4-3.3
		c-1.7,3.2-2.1,7.1-2.9,10.7c-2.3,10.9-3.3,22.4-1.6,33.9c1,5.5,1,13.7,7,16.6C506.5,1159.2,508.9,1159,511.3,1158.8z"/>
	<path d="M517.5,1161.4c2.8-0.9,4.5-4,3.5-7.2c-0.7-2.3-2.6-3.9-4.1-5.8c-2.7-3.6-6.7-8.4-10.9-5.5c-0.2-11.2-0.4-23,0-33.6
		c0,0.1,0,0.2,0,0.2c0.2-7.1,0.9-14.1,2-21.1c0.2-2.4,1.3-4.9,0.1-7.3c-0.9-1.5-2.7-2.1-4.1-1.4c-1.9,1.4-2.2,4.1-3,6.2
		c-3.5,11-5.3,22.1-6.7,33.5c-0.9,7.9-1.6,15.9-1,24.1c0.3,3.6,0.5,7.4,2.1,10.8c2.4,5.7,8.9,6.9,14,7.2
		C512.2,1161.8,515,1162.2,517.5,1161.4z"/>
	<path class="st0" d="M359,656.9c0.3,0,0.5,0,0.8,0c-1.1,0-2.1,0-3.2-0.1c-1.3-0.1-2.6-0.1-3.9-0.2c-5-0.3-10-0.4-14.9-0.8
		c-4.9-0.4-9.7-0.9-14.6-1.3c-4.5-0.4-9-1.1-13.5-1.7c-4.5-0.6-9-1.4-13.4-2.1c0.5,0.1,1,0.2,1.5,0.2c-1.3-0.2-2.5-0.4-3.8-0.6
		c-2.3-0.4-4.6-0.9-6.9-1.3c-2-0.4-4.1-0.8-6.1-1.2c-1-0.2-2.1-0.5-3.1-0.7c-2.7-0.6-5.4-1.2-8.1-1.8c-1.5-0.4-2.9-0.7-4.4-1.1h0
		c0,0,0,0,0,0c0,0-0.1,0-0.1,0c-0.7-4.2-1.2-8.4-1.6-12.6c0.2-3.7,0.4-7.4,0.6-11.1c0.4-7.4,0.8-14.8,1-22.2
		c0.2-6.8,0.4-13.7,0.5-20.5c0.1-6.8,0-13.6,0.1-20.4c0-3.8,0-7.7-0.1-11.5c0-3.2-0.2-6.4-0.3-9.6c-0.2-7.3-0.5-14.6-1-21.8
		c-0.2-3.3-0.4-6.5-0.6-9.8c-0.2-3.5-0.4-7.1-0.7-10.6c0-0.5-0.1-1-0.1-1.5c1.8-2.3,3.6-4.6,5.2-7.1c0.3-0.4,0.5-0.8,0.7-1.1
		c3.5-4.9,6.7-10.1,8.8-15.8c1.9-5.4,2.8-11.1,1.9-16.7c1.7-0.3,3.4-0.6,5.2-0.9c1.2-0.2,2.5-0.4,3.7-0.6c1.4-0.2,2.7-0.3,4.1-0.6
		c0,0,0,0,0,0c1.6-0.2,3.1-1.1,4.1-2.5c1.8-2.5,1.5-6-0.7-8.1c-3.1-2.9-7.7-2.1-11.6-1.5c-1.1,0.2-2.2,0.3-3.3,0.5
		c-0.9,0-1.9,0-2.8,0.2c-0.7,0.1-1.3,0.3-1.9,0.6c-0.7,0.1-1.4,0.3-2.2,0.4c-0.9-1.1-1.9-2.2-3-3.2c-2.5-2.2-5.4-3.7-8.6-4.7
		c-2.1-0.7-4.4-0.9-6.7-0.9c-0.5-3.2-1.1-6.3-1.8-9.5c-0.7-3.2-1.4-6.3-2.1-9.5c-0.3-1.2-0.5-2.4-0.8-3.6c-0.1-0.4-0.2-0.8-0.2-1.2
		c-0.1-0.6-0.2-1.2-0.3-1.8c-0.2-1.2-0.5-2.3-0.7-3.5c-0.3-1.1-0.6-2.2-0.8-3.3c-0.5-2.4-1-4.7-1.4-7.1c0,0,0,0,0,0c0,0,0,0,0,0
		c0,0,0,0,0,0c-0.1-1-0.2-1.9-0.2-2.9c0-0.2,0-0.5,0-0.7c0,0,0,0,0,0c0-0.1,0.1-0.4,0.1-0.6c0,0-0.1-0.1-0.1,0c0,0,0,0,0,0.1
		c-7.5,1-14.9,2.3-22.2,4.5c-12.8,4.2-31.9,10.7-36.4,24.8c-1.7,8.7,8.6,11.9,16.2,15.1c-0.1,0.4-0.1,0.7-0.2,1.1
		c-0.9,4.7-1.7,9.3-2.6,14c-1.6,8.7-3.5,17.3-5.5,26c-1.7,7-3.5,13.9-5.4,20.8c-1.9,6.8-3.7,13.6-5.5,20.4c-0.2-0.1-0.5-0.2-0.7-0.3
		c-2.8-0.2-6.5,0.2-8.6-2c0,0,0-0.1-0.1-0.1c-11-2.4-21.7-6.5-31.6-11.8c-17.6-10.2-32.5-28.5-38.2-48.1
		c-11.4-41.5,12.6-79.3,41.8-106.4c25.2-23.8,57.5-38.7,90.3-48.8c31.4-8.7,63.7-14.7,96.1-17.7c5.4-0.5,10.9-0.9,16.4-1.2
		c1.3-0.2,2.7-0.5,4-0.7c1.5,1.2,3.2,2.3,5,3.1c0.5,0.2,1.1,0.5,1.7,0.7c0.4,0.4,0.8,0.8,1.2,1.2c1.7,1.7,3.8,3.2,5.9,4.4
		c7.6,4.4,16.5,7,25.4,7c3.4,0,6.7-0.4,10-1.1c2.6-0.6,5.2-1.4,7.9-2c2.7-0.5,5.5-0.9,8.2-1.7c2.9-0.8,5.9-1.7,8.7-2.8
		c3-1.2,5.8-2.6,8.6-4.2c2.6-1.4,5.2-2.9,7.8-4.4c2.5-1.5,5.1-3,7.4-4.8c1.7-1.3,3.3-2.7,4.8-4.1c0.1,0,0.3,0,0.4,0
		c1,0.1,2,0.3,3,0.4c9,1.1,18,2.4,27,3.6c2.7,0.4,5.5,0.7,8.2,1.1c6.1,1.6,12.3,3.2,18.4,4.7c4.3,1.1,8.5,2,12.8,3
		c23.9,6.4,43.4,21.7,61.2,39c40.9,39.7,74,89.1,89.1,144.5c5.6,22,8.8,44.5,10.7,67.1c1.9,21.9,4.2,45.5-5.5,65.9
		c-0.3,0.5-0.5,1.1-0.8,1.6c-0.9,0.3-1.7,0.5-2.6,0.8c-7.9,2.5-15.9,4.7-24,6.6c-3,0.6-6,1.2-9,1.6c-3.2,0.5-6.4,0.8-9.6,1.2
		c-3.9,0.3-7.8,0.5-11.7,0.6c-4.7,0.1-9.3,0-14,0c-4.2-0.1-8.4-0.3-12.5-0.4c-1.9-0.1-3.8-0.1-5.7-0.2c-0.4,0-0.7,0-1.1,0
		c-0.4-1.4-0.7-2.8-0.8-4.3c-0.6-3-1.1-5.9-1.6-8.7c-0.2-3-0.5-5.9-0.7-8.9c0,0,0,0.1,0,0.1c-0.1-0.7-0.1-1.3-0.2-2
		c2.2-0.8,4.1-2.5,5.2-4.8c2.1-4.6,0.1-10.6-4.7-12.6c-0.9-0.4-1.9-0.8-2.8-1.2c-0.4-2.5-0.8-5-1.2-7.4c-0.3-1.5-0.6-3-0.9-4.5
		c-0.3-1.2-0.6-2.6-1.4-3.6c-1.5-8.5-3.1-17-5.1-25.4c-6.6-29.3-16.2-57.9-28.2-85.5c-0.7-1.6-1.5-3.2-2.3-4.7c0,0,0,0,0-0.1
		c0,0,0,0,0,0c0,0,0,0,0,0c0,0,0,0.1,0.1,0.1c0,0,0,0,0,0c0,0,0,0,0,0c0,0,0,0,0,0c0,0,0,0,0,0c0,0,0-0.1-0.1-0.1c0,0,0,0,0,0
		c0,0,0,0,0,0.1c-0.2-0.4-0.4-0.8-0.6-1.1c0.1,1,0.2,2.1,0.3,3.1c0,0,0,0,0,0c0,0,0,0,0,0c0,0,0,0,0,0h0c0,0,0,0,0,0c0,0,0,0,0,0
		c0,0,0,0,0,0h0c0,0,0,0,0,0c0,0,0,0,0,0c0,0,0,0,0,0c0,0,0,0,0,0c0,0,0,0,0-0.1c0,0-0.1,0-0.1,0c0,0,0,0,0,0.1c0,0,0,0,0,0
		c0,0,0,0,0,0c0.2,2,0.3,4,0.3,6c0,0,0,0,0,0c0,0.9,0,1.7,0,2.6c0,0,0,0,0-0.1c0,2,0,4,0,6c0,0,0-0.1,0-0.1c0,1,0,2.1,0,3.1
		c0,0,0,0,0,0c0,1.2,0,2.5,0,3.7c0-0.1,0-0.1,0-0.2c0,0.3,0,0.5,0,0.8c0,0,0-0.1,0-0.2c0,0.2,0,0.4,0,0.6c0-0.1,0-0.1,0-0.2
		c0,0.3,0,0.6,0,0.9c0-0.1,0-0.1,0-0.2c0,0.4,0,0.7,0,1.1c0,0,0,0,0,0c0,2.4,0.1,4.8,0.2,7.1c0,1.4,0,2.8,0,4.2c0,2.7,0,5.4,0,8.1
		c0,0.9,0,1.9,0,2.8c0,1.4,0.1,2.8,0.1,4.2c0,1.2,0.1,2.5,0.1,3.7c0,0.9,0.1,1.9,0.1,2.8c0.1,2.4,0.2,4.8,0.4,7.1
		c0.2,3.4,0.5,6.9,0.7,10.3c-0.1,2.4,0,4.8-0.1,7.2c-0.1,2.2-0.2,4.4-0.3,6.6c0,2.1,0,4.1,0,6.2c-0.1,2.5-0.2,5-0.2,7.4
		c0-0.1,0-0.3,0-0.5c0,1.3,0,2.7,0,4c0-0.2,0-0.4,0-0.6c0,2.2,0,4.4,0.1,6.5c0,0.3,0,0.6,0,0.9c-0.1,0.4-0.2,0.8-0.2,1.2
		c0,0.6-0.1,1.1-0.1,1.7c0,0.7,0,1.4,0,2.1c0,1.3,0.1,2.6,0.2,3.8c0.2,3.1,0.5,6.1,0.8,9.2c0,0,0,0,0,0c0,0,0,0.1,0,0.1c0,0,0,0,0,0
		c0,0.1,0,0.1,0,0.2c0,0,0,0,0,0c0,0,0,0,0,0c0,0,0,0,0,0c0,1.7,0,3.5,0,5.2c0,1.9,0.1,3.7,0.1,5.6c0,4.2-0.1,8.4-0.1,12.6
		c0,1.6,0.1,3.1,0.2,4.7c0.1,1.5,0.3,2.9,0.5,4.4c0.2,1.5,0.3,3.1,0.4,4.6c0.1,1.5,0.1,3,0.3,4.5c0.2,1.5,0.4,3,0.6,4.6
		c0.1,1.4,0.2,2.8,0.3,4.2c0.1,1.6,0.3,3.2,0.5,4.7c0.2,1.4,0.4,2.7,0.6,4.1c0,0,0,0,0,0c0,0,0,0,0,0c0,0,0,0,0,0c0,0.1,0,0.2,0,0.3
		c0-0.1,0-0.2,0-0.3c0,0.1,0,0.3,0.1,0.4c0,0,0,0,0-0.1c0,0.2,0,0.4,0.1,0.5c0,0.1,0,0.3,0.1,0.4c0.4,3.1,0.9,6.3,1.1,9.4
		c0,0.1,0,0.2,0,0.2c-0.6,0.1-1.3,0.3-1.9,0.4c-1.4,0.3-2.7,0.6-4.1,0.9c-0.7,0.1-1.4,0.3-2.1,0.4c-9.5,1.8-19.1,3.7-28.7,5.2
		c-9.5,1.5-19,3-28.4,4.4c-0.2,0-0.4,0-0.6,0.1c-0.1,0-0.1,0-0.2,0c0,0-0.1,0-0.1,0c-0.1,0-0.3,0-0.5,0.1c0,0-0.1,0-0.2,0
		c-0.1,0-0.2,0-0.3,0c-1,0.1-2,0.3-3,0.4c-14,1.8-27.9,3.4-41.9,4.7c-13.7,1.2-27.3,2.1-41,2.8c-0.1,0-0.1,0-0.2,0h0
		c-0.5,0-1,0.1-1.6,0.1c-2.4,0.1-4.8,0.3-7.2,0.3c0.1,0,0.2,0,0.3,0c-5.9,0.1-11.7,0.1-17.6,0.2c-0.8,0-1.7,0-2.5,0
		C368,657.1,363.5,656.9,359,656.9z"/>
	<path class="st0" d="M547.2,436.9c0,0,0.1,0,0.1,0c0,0.2,0,0.5,0.1,0.7C547.3,437.4,547.2,437.1,547.2,436.9z"/>
	<path class="st0" d="M247.1,391.3C247,391.2,247,391.2,247.1,391.3c0-0.3,0-0.5,0-0.7c0,0.1,0,0.3,0,0.4
		C247.1,391.1,247.1,391.2,247.1,391.3C247.1,391.3,247.1,391.3,247.1,391.3z"/>
	<path class="st0" d="M177.2,514.7c-7.7-0.5-14.8-4.1-21.8-7.1c-4.7-2-9.4-3.9-14.1-6c-20.9-9.1-52.4-28.1-61.8-49.4
		c-10.2-21.2-2.1-46,9.5-64.9c17-27.6,43.3-48.1,71.4-63.5c34-19.1,72.4-29,110.7-35c5.2-0.9,10.4-2,15.5-3.1
		c3.9-0.8,7.8,1.4,8.8,5.4c0.9,3.8-1.5,7.9-5.4,8.8c-5,1.1-9.9,2.1-14.8,3.4c-20.8,5.8-42.1,9.4-62.7,15.8
		c-41.8,14.7-83.6,37.7-108.5,75.5c-11.3,18-19.6,41.6-4.2,59.7c10.4,11.6,23.4,20.6,36.8,28.4c8.7,4.8,17.9,8.8,26.7,13.5
		c5.9,3.3,10.3,5.9,16,8.7C188,507.7,186.7,515.5,177.2,514.7z"/>
	<path class="st0" d="M79,434.7c-9.4-7.9,10.7-37.3,15.9-45.5c7.5-11.3,16.4-22.1,25.6-32c31.2-33,72.6-55.2,116.2-67.2
		c31.1-8.9,63.5-11.3,95.6-14c7.1-0.5,14.3-1.1,21.5-1.4c0.1,0.1,0.1,0.1,0.2,0.2c2,1.8,4.2,3.5,6.7,4.6c0.5,0.2,1.1,0.5,1.7,0.7
		c0.4,0.4,0.8,0.8,1.2,1.2c1.7,1.7,3.8,3.2,5.9,4.4c3.2,1.9,6.7,3.4,10.3,4.6c-27.1,0.4-54.3,2.5-81.2,5.5
		c-28,2.7-55.8,8.1-82.1,18.3c-25.2,9.4-48.9,23.1-69.6,40.3c-15.2,12.7-29.1,28.8-40.7,44.5c-6.6,9-12.5,17.7-17.9,27.4
		c-1.9,2.9-3.1,9.2-6.9,9.2C80.5,435.3,79.8,435.1,79,434.7z"/>
	<path class="st0" d="M253.5,298.3c-0.9-1.3-0.4-3.3,1.2-3.9c4.4-1.6,9.1-2.7,13.7-3.8c17.8-4.4,35.9-8,54.1-10.4
		c1.3-4.2,6.7-3.9,10.2-4.5c6.6-0.7,13.2-1.4,19.8-2c0.1,0,0.2,0,0.2,0c0.4,0.4,0.8,0.7,1.2,1.1c2,1.8,4.2,3.5,6.7,4.6
		c0.5,0.2,1.1,0.5,1.7,0.7c0.4,0.4,0.8,0.8,1.2,1.2c1.7,1.7,3.8,3.2,5.9,4.4c0.8,0.4,1.5,0.9,2.3,1.3c-10.8,0.1-21.7,0.2-32.5,0.6
		c-19.1,0.7-38.2,2.6-57,6c-8.1,1.4-16.2,2.8-24.1,5.1c-0.9,0.4-1.8,0.8-2.7,0.8C254.7,299.3,254.1,299,253.5,298.3z"/>
	<path class="st0" d="M433.2,283.4c1.7-0.8,3.3-1.6,4.9-2.5c2-1.1,4-2.2,6-3.4c0.6,2.7-1,6-4.7,6
		C437.3,283.4,435.2,283.4,433.2,283.4z"/>
	<path class="st0" d="M590.2,599C590.1,599,590.1,599,590.2,599c-0.3-4.2-0.6-8.3-1-12.4c0,0.2,0,0.5,0.1,0.7
		c-0.6-6.5-1.4-13.1-2.3-19.6c-0.4-2.9-0.9-5.8-1.3-8.6c1-1.7,3.8-2.1,4.8,0.3c0.5,1.3,0.6,2.6,0.9,3.9c2.2,1.2,2.4,4,2.9,6.2
		c1-1.3,3.5-0.5,3.6,1.2c0.1,2.4,0.5,4.9,0.8,7.3c0.3,2.6,0.8,5.3,1,7.9c0.2,1.8-2,2.9-3.3,1.7c-0.5,0.1-1,0-1.4-0.2
		c-0.2,0.2-0.5,0.3-0.8,0.4c0,0,0,0,0,0.1c0.4,2.8,0.6,5.7,0.8,8.5c0.2,1.8-1.4,3.2-3,3.2C591.3,599.7,590.7,599.5,590.2,599z"/>
	<path class="st0" d="M263.3,493.9c-0.5-6.7-1.1-13.5-1.7-20.2c0.1-0.2,0.2-0.5,0.4-0.7c1.5-3,3.2-5.8,4.5-8.9
		c0.7-3.9,5.7-6.2,9.3-4.9c2-0.9,4.5-0.2,5.8,1.6c2.2,3-0.1,6.7-3,8.3c4.7,3.2,3,8.3,0.2,12.1c-2.3,3.4-4.3,5.8-6.7,8.9
		c-2.6,3.4-5.3,6.8-8.2,10.1C263.6,498,263.4,495.9,263.3,493.9z"/>
	<path class="st0" d="M277.4,457.2c0-1.3,1.1-2.3,2.4-2.3c1.3,0,2.3,1.2,2.3,2.4c0,1.3-1.1,2.3-2.4,2.3S277.3,458.4,277.4,457.2z"/>
	<path class="st0" d="M277.8,461.6c-4.8-5.6,3.8-12.6,8.3-6.8C289.9,460.2,282.4,466.2,277.8,461.6z"/>
	<path d="M199.9,511c0-2.6,2.5-4.1,4.9-3.9c3.1-0.1,6.1-0.4,9.1-0.7c10.3-1.2,25.9-3.3,33.7-10.5c1.5-1.5,2.6-3.4,3.3-5.4
		c3.8-9.2,5.9-19,7.5-28.7c1.6-8,12-8.4,18.1-10.8c6.2-2.4,17.8-4.7,20.7-11.1c-22.6-0.2-45.2,1.3-67.8-0.5
		c-2.9-0.5-14.2-0.4-13.1-4.7c0.6-1.8,2.8-1.8,4.3-1.9c14.8-1,29.8-1.9,44.7-2.5c11.1-0.2,22.4-1.6,33.4,0.2
		c8.5,1.4,9,11.3,3.3,16.4c-8.4,8.1-20.6,10.2-31.4,13.6c-1.4,0.5-2.9,0.8-3.9,1.9c-0.5,3-0.7,6-1.2,9c-0.9,6.6-3,12.9-5.2,19.1
		c-1.9,6.7-5.7,12.9-12,16.4c-11.1,6.3-24.3,7.9-36.9,7.9C207.5,514.5,200.2,517,199.9,511z"/>
	<path d="M634.7,715.4c-9-0.9-16.8-6.3-22.2-13.5c-7.7-9.3-11.1-21.1-13.4-32.8c-2.3-11.5-3.4-23.3-4.3-35
		c-0.3-3.6-0.6-7.1-0.6-10.7c0.1-1.4-0.3-3.1,0.8-4.1c2.7-1.7,3.2,2.7,3.8,4.5c5.3,19.6,7.9,40.2,15.2,59.1
		c5.2,11.8,16.4,25.7,30.7,19.1c12.6-5.6,19.4-18.8,25.4-30.5c8.9-18.1,13.2-38.2,15.2-58.1c0.4-4.3,6.7-3.9,6.6,0.4
		c-0.3,3.7-0.7,7.3-0.8,11c-0.1,13.8-1.2,27.8-5.8,41C677.1,688,661.9,716.6,634.7,715.4z"/>
	<path d="M622.8,710.3c-1.7-0.1-3-1.6-2.9-3.3c0.4-5.4,0.6-10.9,0.9-16.3c0.6-10.6,1.5-21.1,1.7-31.7c0.4-2.2-1.2-7,2.1-7.1
		c2.8,0.2,1.9,5.7,2.3,7.8c0.3,6.5,0.3,13.6,0.3,19.9c-0.1,9.3-0.4,18.6-1,27.9C626,709.1,624.5,710.4,622.8,710.3z"/>
	<path d="M656.3,706c-1.8-0.1-3.2-1.7-3.1-3.5c0-3.2,0.1-6.4,0.1-9.1c0-9.1,0.3-18.3,0.5-27.4c0-3.1-0.1-6.3-0.2-9.4
		c-0.4-1.2,0.3-2.5,1.4-2.9c1.3-0.5,2.8,0.4,3,1.7c1.1,6.1,1.1,12.3,1.4,18.4c0.3,7.7,0.4,15.5,0.4,23.2
		C659.6,700.2,661.1,706,656.3,706z"/>
	<g>
		<path class="st3" d="M347.8,402.3c0.9,12.4,0.4,24.9,0.1,37.3c-0.2,7.7-0.5,15.4-1,23.2c-0.2,3.6-3.3,6.3-6.6,6.1
			c-3.4-0.3-5.9-3.5-5.6-7.1c0.5-7,0.8-14,1.1-21c0.6-16,1.6-32.1-0.6-48c-2.8,3.3-5.5,6.5-8.5,9.6c-1.5,1.5-3.1,3.3-5.2,3.8
			c-2.6,0.7-5-2.2-4.5-4.9c0.5-2.4,2.3-4.1,3.6-6c2.7-3.7,5.4-7.5,7.9-11.4c4.6-8.6,13.3-9.1,16.6,0.9
			C347,390.4,347.3,396.4,347.8,402.3z"/>
		<path class="st3" d="M376.8,449.8c13.5-4.5,23.2-52.5,5.3-57c-9.3,11.3-12.9,27.6-11.7,42.4C371.4,440,371.7,448,376.8,449.8z
			 M403.4,401.6c4.4,19.1-5.7,64.3-29.3,61.3c-21.8-6.6-17.7-45.9-10.1-63.1c4.4-12.1,17.7-29.7,30.6-19.2
			C399.7,386.1,401.4,394.4,403.4,401.6z"/>
		<path class="st3" d="M446.7,432.1c3.9-10,5-21.3,2.7-31.9c-1-3.8-2.6-7.9-5.7-10.3c-1.9-1.1-4.2-1.7-6.4-1.7
			c-1.6,0-3.2,0.3-4.7,1.1c-6.4,5.2-7.9,14.7-8.6,22.8c-0.3,5.4-0.3,10.7-0.1,16.1c0.4,1,0.8,2,1.3,3c4.7,8.7,12.4,11.8,18.7,6.3
			l0,0C445,435.7,445.9,433.8,446.7,432.1z M451.4,379c9.7,7.9,12.2,22.1,11.8,34.5c-0.7,17.2-8.4,42.6-27.4,43.1
			c-4-0.2-7.7-1.5-11-3.8c-0.4-0.4-0.8-0.9-1.2-1.3c-0.1-0.1-0.2-0.3-0.3-0.4c-1.8-2.3-3.5-4.7-4.9-7.2c-0.1-0.2-0.2-0.4-0.3-0.5
			c0,0,0-0.1-0.1-0.1c-1.5-3-2.6-6.1-3.7-9.2c-0.6-1.7-1.2-3.4-1.7-5.2c0-0.6-0.1-1.2-0.1-1.8c-1.3-11.7-1.7-23.7,2.9-34.5
			c2.8-6.9,7.2-13.8,14.1-16.4C436.6,373.3,445,374.5,451.4,379z"/>
		<path class="st3" d="M478.6,392.7c6.2,3.6,1,13.4-5,9.4C468.6,398.3,473,389.8,478.6,392.7z"/>
		<path class="st3" d="M494.3,391.5c3.3-5.2,10.9-1.1,9,4.9c-2.6,6.7-6,13.1-9.4,19.4c-3.3,6-6.8,11.8-10.2,17.7
			c-2.4,3.5-11.6,23.4-16.3,16.8c-0.9-3.4,1.1-6.9,1.9-10.1c3.2-10.3,8.5-19.6,13.8-28.8C486.7,404.7,490.2,397.9,494.3,391.5z"/>
		<path class="st3" d="M500.8,429.4c6.2,4.6-0.2,14.8-6.5,10.3C487.9,434.7,493.9,424.5,500.8,429.4z"/>
	</g>
	<path d="M496.1,163.1c-8.6-3.8-1.5-13.7-0.6-20.1c2.8-12.1,4.3-24.5,4.9-36.8c3.2-60.8-63-72.8-110.8-70.3
		c-16.4,1.2-36.8,0.6-48.4,14.2c-4.5,9.5-5.6,20.3-7.7,30.6c-0.9,2.5,0.7,5.1-0.8,7.4c-3.5,4.4-8.7-0.5-8.7-4.8
		c-0.5-14.8,2-38.8,15.4-47.4c22.1-15.5,70.4-18.6,96.7-14.1c52.1,5.7,87,40.9,78.7,95c-1.7,14.5-4.4,29-10.1,42.5
		C503.4,162.6,499.5,164.4,496.1,163.1z"/>
	<path d="M485.5,164.8c-2.8-12.8-6.5-25.4-11.9-37.4c-7.8-20.9-18.1-45.4-40.9-53.3c-18.1-4.4-36.5,2.5-54.3,5.7
		c-18.3,4.2-31.9,9-49.1-1.8c-7-3.3-6.7-14.3,0.3-17.4c7.3-3.3,14.4,4.4,22.1,2.3c31.4-3.9,65.4-21,96-6.1
		c32,17,45.5,59.8,47.8,93.8c0.1,5.3-0.7,10.6-0.8,15.8c0.3,1.7,0,3.6-1.6,4.6C488.8,173.8,486.1,168.5,485.5,164.8z"/>
	<path d="M485.3,159.9c-7.1-18.2-10.5-37.8-19.9-55.1c-5.6-11.8-14.8-17.6-27.6-19.3c-26.5-4.6-52.1,7.8-78.6,6
		c-9.2-0.7-19.7-1.8-26.2-8.9c-2.4-2.9-4.6-7.8-1.7-11.1c1.8-2,4.9-2.3,7.1-0.8c1.8,2,4,3.4,6.6,4.2c12.2,2.6,24.8-0.2,36.8-2.6
		c30.2-7.8,69.5-14.4,92.9,11.5c9.9,12.3,15.9,27.2,19.1,42.6c1.3,7.5,7.8,35.4-2.2,37.4C489.1,164.3,486.3,162.6,485.3,159.9z"/>
	<path d="M490.7,177.7c-1.8-1.6-1.7-4.1-0.8-6.2c0.6-2.1,0.5-4.3,0.9-6.4c-0.9-1.2-0.9-2.7-1-4.1c-4.5-7.4-1.1-18.2-0.8-26.4
		c-6.7-3.1-4.3-11.3-3.7-17.2c-5.8-3.4-6.7-10.3-9.1-15.9c-3.7-7.8-7.4-16-13-22.6c-10.5-10.9-26.3-12.9-40.7-13.2
		c-5.2-0.1-10.3-0.5-15.5-0.8c-7.8,0.3-15.6,2-23.4,2.3c-13.4,0.4-27.7,2.2-40.5-2.6c-3.4,0.1-6.8-1.9-8.3-5.1
		c-1.3-2.7-1.1-5.6,0.3-8c0-2.2,0.5-4.4,1.5-6.4c5.8-10.3,18.7-13.9,29.7-15c7-4,18.9-6.8,22.6,2.8c42.3-16.5,100.3-1.9,112.4,46.5
		c12.3,5.6,7.5,18.6,4.5,28.6c1.1,3,0.7,6.5,0.7,9.3c1.7,3.1,0.7,6.8-0.3,10.2c-0.6,3.8-0.8,7.6-1.3,11.4
		c-1.5,7.6-0.7,15.3-2.7,22.8c1.2,3.6-1,7.2-2.5,10.4C498.7,176,495.2,181.5,490.7,177.7z"/>
	<path d="M460.8,233.6c-3.2-2.2-3-7.3,0.5-9.2c1.7-2,3.2-4.3,4.8-6.5c7.1-8.8,14.2-17.9,18.8-28.3c6.7-15.1,9.4-31.5,12-47.7
		c2.4-19,5.7-38.5,0.7-57.3c-5.1-10.9,9.6-18.5,14.4-7.3c6.2,17.5,5.3,36.1,4.1,54.2c-2,29.4-10,59.8-28.9,83
		c-5.5,6.6-11.6,13-18.8,17.8C466.6,234.7,463.1,235.3,460.8,233.6z"/>
	<path d="M374.9,262.3c-22.6-3.5-39.8-16.2-53.9-33.6c-14.1-16.7-22.2-37.9-25-59.5c-4.2-33.1,4.8-67.1,26.9-90
		c0.1-0.1,0.2-0.1,0.3-0.2c0.9-0.7,1.7-1.4,2.6-2.1c1.8-1.2,3.6-2.4,5.4-3.6c2.3-1.6,4.6-3.2,6.9-4.8c1.3,1.4,2.7,2.6,4.3,3.6
		c0.5,0.3,1.1,0.6,1.6,0.9c-0.5,1-0.9,1.9-1.4,2.9c-1.1,2.4-2.2,4.7-3.3,7.1c-0.3,0.8-0.7,1.6-1,2.3c-0.2,0.2-0.5,0.4-0.7,0.6
		c-24.8,22.3-31.2,58.9-24.8,90.6c4.9,24.2,19,46,38.7,61c11.3,8.4,25.9,11.7,39.8,11.7c22.8-0.6,45.3-9.2,63.4-23
		c11.8-9.4,20.6-22.3,26.6-36.1c3.9-9.8,5.7-20.3,6-30.8c0.4-0.1,0.9-0.2,1.3-0.4c2.3-1.1,3.6-3.3,3.5-5.7c0,0,0,0,0.1,0
		c0.1-1.2,0.1-2.4,0.3-3.6c0.2-0.3,0.4-0.7,0.6-1v0c0,0,0-0.1,0.1-0.1c0,0,0,0,0-0.1c1.1-2,2.2-4,3.2-6c0.1,0.3,0.1,0.5,0.2,0.8
		c0,0,0,0,0,0c0,0,0,0,0,0c0-0.4,0-0.8,0-1.2c0.4-0.7,0.7-1.4,1.1-2.2c0.3-0.7,0.7-1.4,1-2.1c0.3,1.5,0.5,2.9,0.7,4.4
		c0.2,2,0.4,3.9,0.5,5.9c0,3.1-0.4,6.3-0.7,9.4c-0.3,2.6-0.8,5.2-1.1,7.8c-0.3,2.6-0.3,5.3-0.4,8c-0.1,1.3-0.2,2.7-0.4,4
		c-0.4,2.6-0.9,5.1-1.3,7.7c-0.5,2.8-1,5.7-1.6,8.5c-0.3,1.6-0.7,3.3-1.1,4.9c-5.1,11.9-12.3,22.8-21.4,32
		c-20.4,19.8-52.4,33-81.9,33C384.7,263.5,379.7,263.1,374.9,262.3z"/>
	<path d="M492.8,148.7C492.8,148.7,492.8,148.7,492.8,148.7C492.8,148.7,492.8,148.7,492.8,148.7z"/>
	<path d="M492.8,148.7C492.8,148.7,492.8,148.7,492.8,148.7C492.8,148.7,492.8,148.7,492.8,148.7z"/>
	<path d="M499.5,148.2c0,0.1,0,0.1,0,0.2C499.5,148.3,499.5,148.2,499.5,148.2z"/>
	<path d="M370.1,84.5c0.1,0,0.2,0.1,0.4,0.1c-0.1,0-0.3,0.1-0.4,0.1C370,84.6,370.1,84.6,370.1,84.5z"/>
	<path d="M346,64.5c0.2-0.1,0.3-0.1,0.5-0.2c0,0.2,0,0.3,0,0.5C346.3,64.6,346.2,64.6,346,64.5z"/>
	<path d="M423.9,19.2c-0.5-0.1-1.1-0.2-1.6-0.3c0.2,0,0.3,0,0.5,0c1,0.1,2,0.3,3,0.5C425.1,19.4,424.5,19.3,423.9,19.2z"/>
	<path d="M496.4,171.5c-1.3,0.4-2.7,0.1-3.5-1.1c-1.5-2.2,0.5-4.7,0.9-7c1.7-5.5,3.7-10.9,5.7-16.3c0,0.3,0,0.7,0,1
		c0,3.1-0.4,6.2-0.7,9.4c-0.3,2.6-0.8,5.2-1.1,7.8c-0.3,2.1-0.3,4.3-0.4,6.4C497,171.7,496.7,171.6,496.4,171.5z"/>
	<path d="M499.5,148.2c0,0.1,0,0.1,0,0.2C499.5,148.3,499.5,148.2,499.5,148.2z"/>
	<path d="M490.8,191.1c-3.3-1.8-1.7-6.1-0.7-8.9c2.1-6.2,5.2-12,7.8-17.9c0,0.3-0.1,0.7-0.1,1c-0.3,2.7-0.3,5.3-0.4,8
		c-0.1,1.3-0.2,2.7-0.4,4c-0.4,2.6-0.9,5.1-1.3,7.7c-0.3,1.9-0.6,3.8-1,5.7c-0.8,0.4-1.5,0.7-2.3,0.7
		C491.7,191.4,491.2,191.3,490.8,191.1z"/>
	<path d="M430.7,146.3c-13.4-4-28.1-7.4-41.6-1.6c-2.5,1.5-5.4,0.7-5.1-2.6c2.3-6.2,19.5-9.7,25.6-9.8c8.5-0.3,17,0.8,25,3.4
		C441.5,138.4,437.8,148.7,430.7,146.3z"/>
	<path d="M323.2,145.9c2.7-6.2,26.4-10.2,32.8-9c8,1,7,12.7-1.1,12.2c-4.2-0.6-8.4-0.9-12.7-1c-5.1-0.1-9.2,0.1-13.9,1.2
		c-0.8,0.2-1.7,0.5-2.5,0.5C323.9,149.8,322.5,147.7,323.2,145.9z"/>
	<path d="M375.4,212.1c-9.8-1-20-4-27.6-10.6c-1.3-1.2-2.6-2.9-2.5-4.8c0.2-2.5,3-3.8,5.2-2.7c5.7,3.1,11.8,5.3,18.2,6.3
		c16.4,2.5,29.8-1.8,42.8-11.7c5.4-4.4,12.2-7.8,16-13.7c4.7-8.1,16.7-1.7,12.5,6.7c-5.1,9.9-15.6,14.8-24.6,20.7
		C403.4,210,389.7,213.8,375.4,212.1z"/>
</g>
</svg>
