<?xml version="1.0" encoding="utf-8"?>
<!-- Generator: Adobe Illustrator 27.0.0, SVG Export Plug-In . SVG Version: 6.00 Build 0)  -->
<svg version="1.1" id="Layer_1" xmlns="http://www.w3.org/2000/svg" xmlns:xlink="http://www.w3.org/1999/xlink" x="0px" y="0px"
	 viewBox="0 0 800 1200" style="enable-background:new 0 0 800 1200;" xml:space="preserve">
<style type="text/css">
	.st0{fill:#F3F183;}
	.st1{fill:#2CD5C4;}
</style>
<g>
	<path d="M518.5,616.4C518.5,616.4,518.5,616.4,518.5,616.4C518.5,616.4,518.5,616.4,518.5,616.4z"/>
	<path d="M518.5,616.4C518.5,616.4,518.5,616.4,518.5,616.4C518.5,616.4,518.5,616.4,518.5,616.4z"/>
	<path d="M275.3,1064.6c-11.1-0.8-21.9-3.6-32.6-6.2c-10.3-3.2-20.9-6-30-12c-3.7-2.6-8-4.8-10.5-8.6c-0.2-0.3-0.3-0.6-0.4-0.9
		c-1.4-0.8-2-2.5-1.5-4.1c3.1-9,6.2-18.1,9.2-27.1c11.3-35.2,23.3-70.3,33-106.1c10.4-39.8,19.4-79.9,26.8-120.3
		c5.4-27.3,10.5-54.6,17-81.6c3.3-17.4,8.4-34.4,13.2-51.5c2.7-9.6,5.3-19.2,9-28.4c1-2.3,2.1-4.5,3.4-6.6c0.1-0.7,1-1.1,1.6-0.6
		c0,0,0,0,0,0c0.1-0.1,0.2-0.3,0.4-0.3c4.3-1.4,9-1.7,13.5-2.6c3.9-0.9,7.4-2.9,11.3-3.7c25.8-4.3,51.7-7.8,77.8-8.5
		c12.7-0.6,25.3,1.4,37.9,2.6c8.2,0.7,16.4,1.4,24.5,3.1c9.1,1.9,18.2,3.5,26.8,6.9c3.1,0.9,6,2,8.6,4c0.6,0.5,0.9,1.1,0.9,1.7
		c0.3-0.3,0.7-0.5,1.1-0.6c0.5-0.1,1.1,0,1.6,0.2c0,0.1,0,0.1-0.1,0.2c-0.1,0.3-0.1,0.6,0,0.9c0,0.2,0,0.4,0.1,0.6
		c0.1,0.2,0.1,0.4,0.2,0.5c0.1,0.4,0.2,0.9,0.3,1.3c0,0,0,0,0-0.1c0-0.1,0-0.1,0-0.2c0,0.1,0,0.1,0,0.2c0,0,0,0.1,0,0.1c0,0,0,0,0,0
		c0,0.1,0.1,0.2,0.1,0.2c0.1,0.3,0.2,0.5,0.3,0.8c0.1,0.3,0.3,0.6,0.5,0.9c0.2,0.2,0.4,0.4,0.6,0.6c0,0,0,0.1,0.1,0.1
		c0.2,0.9,0.3,1.7,0.5,2.6c1.1,7,2.3,14.1,3.8,21c12,57.2,24.8,114.2,39,170.9c4.1,16,7.5,32.3,11.9,48.3
		c4.6,17.7,9.4,35.4,13.8,53.2c7.2,27.1,14.8,53.5,22.9,80.2c2.5,8.5,5.1,17,7.6,25.5c2.6,8.9,4.3,18,6.8,26.9
		c2.1,1.1,0.4,3.5-1.2,3c-0.1,0.1-0.3,0.1-0.4,0.1c-2.5,0.6-5.1,1-7.7,1.4c-12.9,2.4-25.9,3.5-39,2.9c-5.3-0.1-10.5-0.7-15.7-1.4
		c-2.2-0.3-4.5-0.7-6.7-1c-0.4-0.1-0.7-0.2-1-0.5c0,0-0.1,0-0.1,0c0,0,0,0,0-0.1c-0.5-0.5-0.7-1.2-0.6-1.9c0-0.1,0-0.2,0.1-0.2
		c-16.3-68.4-37.7-136.1-65.4-200.9c-21.5-50.7-46.7-99.7-73.2-148c-1.1,1.6-2.2,3.3-3.3,4.9c-23.9,36-45.9,73.5-62.8,113.3
		c-23.3,53.7-38.1,110.6-50.7,167.6c-3.8,18-7.2,36.2-8,54.6c-0.3,5.3-0.2,10.7-0.1,16c0,1,0.1,2-0.1,3c0.1,0.5,0.1,1-0.2,1.4
		c0,0.2-0.1,0.4-0.2,0.5c-0.8,1-2.2,0.9-3.5,0.8c-0.8,0.5-2.1,0.6-3.1,0.8c-1.9,0.3-3.7,0.3-5.5,0.3
		C277.3,1064.6,276.3,1064.6,275.3,1064.6z"/>
	<path d="M121,1127.7c-7.5-2-20.2-6.5-16.3-16.5c1.4-3.6,4.6-6.1,7.7-8.3c3.2-2.3,6.6-4.4,10-6.5c6-3.7,12.1-7.4,18.1-11.2
		c13-8.1,24.7-17.8,36.6-27.3c6.1-4.8,12.3-9.7,17.8-15.2c0.8-0.9,1.7-1.4,2.7-1.7c0.2,0.1,0.4,0.2,0.6,0.2c0.2,0.1,0.4,0.2,0.5,0.3
		c0.2,0.2,0.5,0.3,0.7,0.5c0.2,0.2,0.5,0.4,0.7,0.7c0.5,0.5,0.9,1.1,1.3,1.6c-0.1,0.3-0.2,0.7-0.3,1c-0.5,1.8-1.1,3.6-1.6,5.3
		c-1.4,1.1-2.8,2.2-4.2,3.4c-4.3,2.9-8.6,5.7-12.4,9.1c-2.8,2.5-5.1,5.6-7.5,8.5c-2.2,2.6-4.4,5.1-6.7,7.6c0,0,0,0,0,0
		c-1.1,1.1-2.1,2.2-3.3,3.2c-2.2,1.5-4.4,3-6.5,4.5c-10.3,6.8-21.3,12.4-32.4,17.9c-3.5,1.7-7.1,3.3-10.6,5c-2,1.2-4.7,1.9-5.7,4.1
		c19.3,3.5,39.3,3.2,58.7,1c16-2.1,31.7-6.2,47.4-9.5c5.9-1.2,11.9-2.5,17.8-3.5c2.9-0.5,6.2-1,8.8,0.7c4.6,3.1,1.8,9.5,4.6,13.7
		c9.9-2.7,20.2-4.2,29.8-8c3.2-1.5,7.5-3,8.6-6.7c0-2.3-0.5-4.5-0.6-6.8c-0.4-5.1-0.6-10.2-0.5-15.4c0.2-2.4,0-5.4,1.7-7.3
		c3.2-2.2,4.4,2.9,4.9,5.2c1.6,7.5,4.4,14.7,6.6,22.1c2,9.3-5.6,17.2-13.5,20.6c-7.4,3.8-15.8,4.7-23.9,5.6
		c-5.7,0.2-15.6,3.3-19.4-2.1c-2.6-3.9-3.3-8.8-2.7-13.4c-30.8,8.3-62.5,19.9-94.5,19.9C136.7,1130,128.8,1129.3,121,1127.7z"/>
	<path d="M199,1041.7c0,0,0.1,0.1,0.1,0.1C199.1,1041.8,199.1,1041.7,199,1041.7z"/>
	<path d="M198,1041.2C198,1041.2,198,1041.2,198,1041.2c0.1,0,0.2,0.1,0.3,0.1C198.2,1041.3,198.1,1041.2,198,1041.2z"/>
	<path d="M198,1041.2C198,1041.2,198,1041.2,198,1041.2C198,1041.2,198,1041.2,198,1041.2C198,1041.2,198,1041.2,198,1041.2z"/>
	<path d="M197.7,1041.1C197.7,1041.1,197.7,1041.1,197.7,1041.1c0,0,0.1,0,0.1,0C197.8,1041.1,197.7,1041.1,197.7,1041.1z"/>
	<path d="M679,1170.8c-13.5-0.9-27.1-3-39.9-7.6c-19.1-7.2-32.1-23.8-43.9-39.5c-1.3,2.7-1.3,5.8-2.4,8.6c-1.3,3.5-3.9,6.9-7.6,8.2
		c-4.6,1.6-9-1.1-13.1-2.8c-6.3-2.9-12.8-5.8-18.4-10c-6.9-5.5-10.9-13.6-8.2-22.4c2.6-11.5,5-23,7.1-34.5c0.1-0.1,0.2-0.2,0.3-0.2
		c0.2-0.1,0.4-0.3,0.6-0.4c0.2-0.1,0.4-0.2,0.6-0.3c0,0,0,0,0,0c0,0,0.1,0,0.1,0c0.2,0,0.4,0,0.6-0.1c1,0,2.1,0,3.1,0.1
		c0.4,0,0.8,0.1,1.2,0.2c0.3,0.6,0.6,1.2,0.9,1.7c0.1,0.3,0.3,0.7,0.4,1c0.2,0.6,0.3,1.3,0.4,1.9c0,0.1,0,0.2,0,0.3
		c-0.1,3.2-0.3,6.3-0.6,9.5c-0.4,4.5-0.8,9-1.3,13.6c-0.4,3.9-0.9,7.9-1.2,11.8c-0.2,1.5,0.4,2.9,1.3,4.1c3.7,5.2,9.9,7.6,15.1,11.1
		c3.1,1.9,6.1,4,9.2,5.8c2.3-1.3,4-3.5,5.8-5.3c1.3-1.5,2-3.5,3.3-4.9c2-2.7,5.4-1.7,7.6,0.2c3.2,2.5,6.9,6,9.8,8.5
		c8.9,7.5,17.4,15.1,27.8,20.4c9.9,4.4,20.7,5.9,31.3,7.5c10.5,1.2,21.2,2,31.8,1.6c-7-10.8-17-19.2-25.6-28.7
		c-15-15.6-28.9-32.4-40.3-50.8c-1.9-3.2-3.5-6.5-4.9-9.9c-0.4-1-0.5-2-0.2-3.1c0-0.1,0-0.2,0.1-0.2c0.9-0.6,1.7-1.2,2.6-1.8
		c0.1-0.1,0.2-0.1,0.2-0.2c1.9,0.2,3.8,0.5,5.7,0.8c0.8,0.8,1.6,1.7,2.5,2.5c10.3,9.5,16.4,22.2,24.3,33.6
		c10,14.4,22.6,26.6,34.8,39c24,25.2,13.1,31.4-10.5,31.4C686.1,1171.1,682.7,1171,679,1170.8z"/>
	<path d="M555,1069.4c-0.1,0-0.2,0.1-0.3,0.1C554.8,1069.5,554.9,1069.4,555,1069.4z"/>
	<path d="M189.1,1057.5c-3.1-2.8-0.7-5.8,1.4-8.3c1.3-1.7,2.5-3.5,3.7-5.2c0.7-1,1.4-2,2.2-3.1c0.2,0,0.4,0,0.5,0.1
		c0.3,0.1,0.5,0.1,0.8,0.2c0.2,0.1,0.4,0.2,0.7,0.2c0.2,0.1,0.4,0.2,0.5,0.3c0.2,0.2,0.5,0.3,0.7,0.5c0.2,0.2,0.5,0.4,0.7,0.7
		c0.5,0.5,0.9,1.1,1.3,1.6c-0.1,0.3-0.2,0.7-0.3,1c-0.5,1.8-1.1,3.6-1.6,5.3c-1.4,1.1-2.8,2.2-4.2,3.3c-1.9,1.3-3.8,2.5-5.6,3.8
		C189.6,1057.8,189.4,1057.7,189.1,1057.5z"/>
	<path d="M198,1041.2C198,1041.2,198,1041.2,198,1041.2C198,1041.2,198,1041.2,198,1041.2C198,1041.2,198,1041.2,198,1041.2
		C198,1041.2,198,1041.2,198,1041.2c0.1,0,0.2,0.1,0.3,0.1C198.2,1041.3,198.1,1041.2,198,1041.2z"/>
	<path d="M288,1111.2c-3.1-15.9-5-30.3-5.8-43.8c2.6-0.9,5.3-1.5,7.9-2.1c0.4-0.1,0.8-0.2,1.1-0.2c0.2,3.5,0.4,7.1,0.6,10.6
		c0.8,11.2,2.3,22.8,4.1,33.7c0.6,3.1-1.8,5-4.1,5C290.2,1114.3,288.5,1113.3,288,1111.2z"/>
	<path d="M157.8,1084.5c-2-3.3,3.3-4.9,5-6.8c6.1-4.9,12-10.1,17.8-15.3c6.8-6.2,12.9-13.2,18.8-20.4c0.1,0,0.1,0.1,0.2,0.1
		c0.2,0.2,0.5,0.4,0.7,0.7c0.5,0.5,0.9,1.1,1.3,1.6c-0.1,0.3-0.2,0.7-0.3,1c-0.4,1.3-0.8,2.5-1.1,3.8c-3,4-5.9,8.1-9.4,11.7
		c-5.5,5.7-11.8,11-17.8,16.1c-3.8,3-7.6,6-11.9,8.2c-0.4,0.2-0.7,0.3-1.1,0.3C159,1085.5,158.3,1085.2,157.8,1084.5z"/>
	<path d="M553,1070.4c0.2-0.1,0.3-0.2,0.5-0.4c0.2-0.1,0.4-0.2,0.6-0.3c0,0,0,0,0,0c0,0,0.1,0,0.1,0c0.2,0,0.4,0,0.6-0.1
		c1,0,2.1,0,3.1,0.1c0.4,0,0.8,0.1,1.2,0.1c0.3,0.6,0.6,1.2,0.9,1.7c0.1,0.3,0.3,0.7,0.4,1c0,0,0,0.1,0,0.1
		c-0.8,0.5-1.7,0.8-2.7,0.8C555.7,1073.5,553.7,1072.4,553,1070.4z"/>
	<path d="M520.7,936.1c0.4,0.2,0.6,0.6,0.7,1.2C521.1,936.9,520.9,936.5,520.7,936.1z"/>
	<path d="M642.4,1084.7c-2.6-0.8-3.5-3.8-5.1-5.8c-2.4-3.8-5.2-7.3-7.7-11c-0.2-0.3-0.4-0.6-0.6-0.9c0.1-0.2,0.2-0.3,0.2-0.5
		c0.1-0.2,0.2-0.3,0.3-0.5c1-0.6,1.9-1.3,2.8-2c0.1-0.1,0.2-0.1,0.2-0.2c2.1,0.2,4.3,0.5,6.4,0.9c0.8,1.5,1.6,3.1,2.4,4.6
		c1.7,3.2,3.7,6.3,5.7,9.3c1.7,2.7-0.6,6.3-3.6,6.3C643.2,1084.9,642.8,1084.8,642.4,1084.7z"/>
	<g>
		<path class="st0" d="M229.5,551.5c0.1-0.3,0.1-0.5,0.2-0.8c-0.5-0.7-1-1.4-1.4-2.2c0.1,0.4,0.1,0.8,0,1.3
			C228.8,550.4,229.2,550.9,229.5,551.5z M340.2,552.6c11.6-4.3,14.7,10,11.6,18.4c-1.9,8.1-10.9,16.4-19.2,15.4
			c-14,12.6-46.7,19-62.3,14.7c-19-4.6-34.2-19.2-43.5-36c-2.8-4.6-5.9-9.5-5.9-15.1c-0.9-4.6,4.4-5.8,6.6-3.4
			c-1.8-4.8-1.1-10.4,4.9-11.6c0.5-0.1,0.9-0.1,1.3-0.1c-1.1-0.8-2.2-1.5-3.3-2.3c-2.9-2.1-3.3-6.5-1.2-9.3
			c2.8-3.7,7.8-2.9,10.9-0.1c4.3,2.8,8.7,5.6,13.2,7.9c16.2,8.2,34.3,12.1,52.5,11.1c7.9-0.1,15,1.1,20.8,3.7
			C332,546.4,336.8,548.2,340.2,552.6z"/>
		<path class="st0" d="M617,503.3c4.5-0.2,7.2,6,3.8,9.1c-8.4,7.5-16.5,15.2-25.2,22.5c-13.7,11.3-28.2,21.4-43.2,31
			c-6.9,4.5-13.1,9.9-20.3,13.8c-13.2,7.2-29.3,12.2-43.9,6.1c-10-3.5-17.1-14.8-13.1-25.1c3.5-7.7,11.3-12.3,17.9-17
			c8.8-5.6,17.5-11.3,26.5-16.6c9.2-5.2,18.9-9.5,27.7-15.4c8.2-5.7,16.1-12.1,25.3-16.1c1.5-0.7,3-1.3,4.6-1.4
			c2.1-0.1,4.4,1.7,4.3,3.9c-0.2,1.8-1.2,3.1-2.5,4.3c1.9,1.2,3.2,3.1,3.5,5.4c4.2-3.4,11-5.2,14.8-0.2c1.3-1.1,2.7-2.1,4.3-2.8
			c-0.2,0.1-0.4,0.2-0.6,0.3c-0.1,0.1-0.2,0.1-0.3,0.2c3.1-2.2,7.5-0.2,8.2,3.3c1.1-0.9,2.1-1.8,3.2-2.8
			C613.5,504.5,615,503.3,617,503.3z"/>
		<path class="st0" d="M487,132.3c28-6.6,16.9,40.4,12.7,55c-12.1,40.9-51.5,73.9-94.9,73c-14.7-0.7-30.1-2.2-43.3-9.1
			c-12.1-8.2-23.3-19-30.4-32c-13.5-29.3-14.1-66.9,0.7-95.8c9.4-19.8,25.3-28.6,44.5-37.1c11.8-5.5,25.1-3.5,37.6-4.8
			c14.3-1,30.2,1.1,40.5,12.1c5,4.6,6.9,11.3,12.2,15.6c5.1,4.5,8.9,10.5,9.4,16.2c2.5,3,4.7,6.4,6.3,10
			C483.6,134.1,485.1,133,487,132.3z"/>
	</g>
	<path class="st1" d="M173.7,492.2c0,0.1,0.1,0.2,0.1,0.4C173.8,492.4,173.8,492.3,173.7,492.2z"/>
	<path class="st1" d="M173.4,491.1c0.1,0.2,0.1,0.4,0.2,0.6C173.5,491.5,173.5,491.3,173.4,491.1z"/>
	<path class="st1" d="M311.9,393.8C311.9,393.8,311.9,393.8,311.9,393.8c-0.3,0.2-0.4,0.3-0.6,0.4
		C311.5,394.1,311.7,393.9,311.9,393.8z"/>
	<path class="st1" d="M312.1,393.7C312.1,393.7,312.1,393.7,312.1,393.7c-0.1,0-0.1,0.1-0.1,0.1C312,393.7,312.1,393.7,312.1,393.7z
		"/>
	<path class="st1" d="M312.3,393.6c0.1,0,0.1-0.1,0.2-0.1C312.4,393.5,312.3,393.6,312.3,393.6C312.3,393.6,312.3,393.6,312.3,393.6
		z"/>
	<path class="st1" d="M510.9,617c-6.5-1.3-13-2.7-19.5-3.9c-5.8-1.1-11.7-1.8-17.6-2.5c-6.3-0.7-12.5-1.5-18.8-2.2
		c-11.9-1.4-23.8-2.3-35.7-2.4c0.1,0,0.2,0,0.3,0c-0.1,0-0.3,0-0.4,0c0,0,0,0,0,0c-3,0-6,0-9,0c-3.1,0-6.2,0.1-9.2,0.1
		c-11,0.2-22,0.9-32.9,2.1c-10.5,1.2-20.9,2.7-31.3,3.9c-3.6,0.4-7.3,0.7-10.9,1.1c-4.3,0.5-8.6,1.2-12.9,2
		c-1.3,0.2-2.5,0.5-3.8,0.7c0.1-0.3,0.2-0.5,0.3-0.8c-0.1,0.3-0.2,0.5-0.3,0.8c1.1-2.7,2.1-5.5,3.1-8.3c0.7-0.2,1.4-0.3,2-0.5
		c2.9-0.7,5.8-1.5,8.5-2.8c0.5-0.3,1.1-0.5,1.6-0.8c0.7,0.3,1.4,0.5,2.1,0.5c0.6,0,1.3-0.1,1.9-0.4c2.6-1.1,5.3-2.2,7.7-3.8
		c3-2,7.3-5.3,5.7-9.4c-0.1-0.3-0.3-0.6-0.5-0.8c0.8-0.9,1.5-1.9,2.2-2.9c1.3-1.8,2.4-3.6,3.4-5.6c0.1-0.2,0.2-0.3,0.2-0.5
		c0.3-0.1,0.6-0.2,0.9-0.4c0.3-0.1,0.5-0.3,0.7-0.5c0.1-0.1,0.2-0.2,0.3-0.2c1.5-1.3,2.6-3.2,3.3-5c0.3-0.3,0.6-0.6,0.9-1
		c0.4-0.4,0.7-0.9,0.9-1.5c0.1,0,0.2-0.1,0.3-0.1c1.1-0.6,1.6-1.6,1.8-2.7c0,0,0,0,0,0.1c0,0,0,0,0,0c0,0,0,0,0,0c0,0,0,0,0-0.1
		c0.3-0.3,0.6-0.6,0.8-0.9c0.7-0.8,1.3-2,1.4-3.1c0.1-1.3-0.1-2.5-0.6-3.6c-0.3-0.6-0.5-1.1-0.8-1.7c0.2-1.4-0.1-2.9-0.7-4.3
		c-0.7-1.5-1.5-2.9-2.5-4.2c-1-1.1-2.1-1.9-3.3-2.5c0.6-1.5,0.4-3.3-0.7-4.7c-0.9-1.1-2.3-1.8-3.7-1.8c-0.4,0-0.7,0-1,0.1
		c-0.1,0-0.2,0-0.3,0c-0.4-0.3-0.8-0.6-1.3-0.8c0,0-0.1-0.1-0.1-0.1c-1-0.7-2.1-0.8-3.3-1c-0.7-0.1-1.4-0.2-2.1-0.3
		c-0.1-0.1-0.3-0.1-0.4-0.2c-1-0.6-2.3-0.7-3.4-0.2c-0.4,0-0.7,0.1-1.1,0.3c-1.9-1.6-4.3-2.6-6.7-3c0.1-1.7,0.1-3.3,0.1-5
		c0-1.9,0.1-3.8,0.1-5.7c0.3-2.1,0.5-4.3,0.7-6.4c0.7-5.9,1.4-11.8,1.6-17.8c0.1-2,0-4.1,0-6.1c0,0,0,0,0,0c0-1.3-0.1-2.7-0.2-4
		c-0.1-1.3-0.2-2.7-0.3-4c0-0.2,0-0.3,0-0.5c-0.1-0.7-0.1-1.4-0.2-2.1c0-0.1,0-0.2,0-0.3c0-0.1,0-0.1,0-0.2c0-0.4-0.1-0.8-0.1-1.1
		c0,0,0,0,0-0.1c0-0.4-0.1-0.9-0.1-1.3c-0.1-0.5-0.1-0.9-0.2-1.4c-0.1-0.5-0.1-0.9-0.2-1.4c-0.2-1.3-0.4-2.7-0.7-4c0,0,0,0,0,0
		c-0.1-0.5-0.2-0.9-0.3-1.4c-0.6-2.6-1.2-5.3-1.9-7.9c-0.9-3.1-1.8-6.2-3-9.2c-0.9-2.1-1.8-4.1-2.9-6.2c-0.1-0.1-0.2-0.3-0.3-0.4
		c0,0,0-0.1,0-0.1c-0.2-0.3-0.4-0.6-0.5-0.9s-0.4-0.6-0.6-0.9c-0.1-0.2-0.2-0.3-0.3-0.5c-0.2-0.3-0.4-0.6-0.6-0.9
		c-0.3-0.4-0.6-0.8-0.8-1.2c-0.5-0.8-1.1-1.7-1.5-2.6c-0.1-0.1-0.1-0.2-0.2-0.4c-0.1-0.1-0.1-0.2-0.2-0.3c0-0.1-0.1-0.1-0.1-0.2
		c-0.1-0.2-0.2-0.3-0.3-0.5c-0.1-0.3-0.3-0.5-0.4-0.8c-0.1-0.1-0.2-0.3-0.2-0.4c-0.3-0.6-0.6-1.2-1-1.7c-0.2-0.3-0.3-0.6-0.5-0.9
		c-0.2-0.3-0.4-0.6-0.5-0.9c-0.2-0.3-0.4-0.6-0.5-0.9c-0.9-1.5-1.8-2.9-2.7-4.4c-1.5-2.5-2.7-5-4-7.6c-0.7-1.3-1.4-2.6-2-3.9
		c-0.3-0.6-0.7-1.3-1-1.9c-0.3-0.6-0.7-1.3-1-1.9c-0.5-1-1-2.1-1.4-3.2c-0.2-0.7-0.4-1.3-0.5-2c-0.2-0.7-0.3-1.3-0.4-2c0,0,0,0,0,0
		c0,0,0,0,0,0c0,0,0-0.1,0-0.1c0-0.1-0.1-0.3-0.1-0.4c-0.2-0.9-0.3-1.8-0.5-2.7c0.3-9.3,1.9-18.6,3.9-27.6c0.6-2.1,1-4.2,1.5-6.3
		c-5.4,1.9-10.9,3.8-16.2,6c-2.4,1.4-4.8,2.7-7.3,4.1c-2.8,1.6-5.6,3.2-8.3,5c-0.3,0.7-1,1.1-1.7,1.2c-0.1,0.1-0.1,0.1-0.2,0.2
		c-5.5,3.8-11.2,7.3-16.7,11.2c-3.2,2.2-6.2,4.6-8.9,7.4c-2.5,2.5-4.7,5.3-7,8c-3.9,4.6-8,9-11.3,14c-1.8,2.7-3.4,5.5-4.7,8.5
		c-0.8,1.9-1.6,3.9-2.2,5.9c2,31.6,14.5,58,36.9,83.2c-3.7,2.8-7.1,5.8-10.3,9.1c-6.4,6.5-11,14.6-13.1,23.5
		c-1.1,4.8-1.8,9.7-1.9,14.7c-1-1-2-2-3-3.1c-1.9-2-3.7-4.1-5.5-6.2c-2.1-2.5-4.4-5-6.6-7.4c0.2,0.2,0.4,0.5,0.7,0.7
		c-3.9-4.4-8-8.6-11.5-13.2c0,0.1,0.1,0.1,0.1,0.2c-0.2-0.2-0.3-0.4-0.5-0.7c-1.8-2.6-3.6-5.3-5.3-8c-1.9-3-3.9-6.1-5.8-9.1
		c-3.4-5.4-6.8-10.8-9.8-16.5c0,0,0,0,0,0c-0.1-0.1-0.1-0.3-0.2-0.4c-0.3-0.6-0.6-1.3-0.9-1.9c0.1,0.1,0.1,0.3,0.2,0.4
		c-0.4-0.9-0.9-1.9-1.3-2.8c-0.2-0.4-0.3-0.7-0.5-1.1c-1.9-4.2-3.6-8.4-5.2-12.7c-0.1-0.3-0.2-0.7-0.3-1c0,0,0,0,0,0c0,0,0,0,0,0
		c0,0,0,0,0,0c0,0,0,0,0,0l0,0c0,0,0,0,0,0v0c0,0,0,0,0,0c0,0,0,0,0,0c0,0,0-0.1,0-0.1c-2.5-8.9-5.3-17.7-7.3-26.7
		c-0.5-2.6-1-5.1-1.4-7.7c-0.1-2.2-0.4-4.3-0.4-6.5c0-11.6,2-23.4,5.8-34.3c4.8-10.5,11.1-19.8,18.2-28.9
		c5.1-7.7,11.4-14.4,17.5-21.2c6.5-8.7,15.3-15.1,22.4-23.2c3.2-3.4,6.8-6.3,10.4-9.2c10.2-8.2,20-17.1,31.5-23.5
		c7-5,14.4-9.5,21.7-13.9c10.7-6.1,21.6-11.9,33.1-16.5c9.4-3.1,19.1-5.6,28.9-7.4c-0.2,0.4-0.4,0.8-0.5,1.2c-0.5,1.2-1,2.5-1.5,3.7
		c-2.6,3-5,6.2-6.8,9.8c-1.2,2.5-2.3,5.1-3.1,7.8c-1.2,3.6-2.5,7.4-2.4,11.3c0.1,3.5,0.7,7,2.2,10.2c1.8,4,4.5,7.2,8,9.9
		c3.9,3,8.9,4.4,13.6,5.1c2.5,0.4,5,0.5,7.6,0.6c0.4,0,0.8,0,1.3,0c2.8,0,5.7-0.4,8.4-0.7c3.1-0.4,6.2-1,9.1-1.7
		c6.3-1.6,12.3-3.9,18.3-6.3c3.4-1.4,6.6-3,9.9-4.7c3.1-1.7,5.9-4,8.5-6.3c2.6-2.3,4.9-4.8,7.2-7.4c1.9-2.1,4-4.1,5.9-6.3
		c4.4-4.9,7.9-10.3,11.3-15.8c2.1-3.2,4.2-6.3,6.2-9.5c7,1.3,13.8,3,20.6,5.2c22.2,7.2,43.7,16.8,64,28.4c2.9,1.5,4.7,2.4,7.4,3.8
		c5.4,2.8,10.4,6.4,15.8,9.3c10.5,6.4,21,13.1,30.3,21.2c9.5,7,18.3,14.7,26.8,22.9c9.2,8.1,17.7,16.9,25.5,26.3
		c5.9,7.3,11.9,14.8,16.5,23c1.5,2.9,3.8,6.2,3.2,9.1c0,0.1,0,0.1,0,0.2c1.4,6.7-0.1,13.5-1.4,20c-2,12.4-6.5,24.3-12.7,35.2
		c-1.9,3.5-3.9,7-5.9,10.5c-4.3,7.1-9.9,13.3-15.4,19.4c-3.9,4.3-7.9,8.6-12.4,12.4c-7.4,7.7-15.5,14.8-25,20
		c-0.6,0.3-1.2,0.6-1.8,1c-0.3,0.2-0.5,0.4-0.8,0.7c-0.2-3.5-0.8-6.9-1.8-10.3c-1.2-4.4-3.6-8.6-6.1-12.3c-1.5-2.3-3.3-4.6-5.4-6.3
		c-3-2.4-6.3-3.8-9.8-5.2c-0.4-0.2-0.8-0.3-1.2-0.5c-3.3-1.4-6.4-3.1-9.9-3.7c-1-0.3-2-0.5-3-0.7c2.8-2.4,5.6-4.8,8.3-7.3
		c3.9-3.5,7.8-7,11.4-10.8c2.2-2.3,4.5-4.7,6.5-7.2c1.7-2.2,3.3-4.6,4.8-7c1.6-2.6,3.1-5.3,4.2-8.1c1.4-3.4,2.4-6.8,3-10.4
		c1.1-6.5,0.8-13.2-1.1-19.5c-2-6.5-5.8-12.4-10.1-17.7c-3.7-4.6-8-8.8-12.3-12.8c-4-3.8-8.3-7.2-12.7-10.5
		c-4.9-3.7-9.9-7.3-15-10.7c-4.3-2.8-8.9-5.2-13.6-7.5c-0.2-0.3-0.4-0.6-0.7-0.9c-9.6,15.8-16.5,33.3-22.9,50.6
		c-7.4,24.2-8.7,50.2-7.1,75.4c0.7,9,1.7,17.9,3,26.8c-0.1,0.3-0.2,0.5-0.2,0.8c0.1,1.4,0.3,2.8,0.6,4.1c0.2,0.7,0.3,1.4,0.5,2.1
		c0,0.4,0,0.7,0.1,1.1c0.1,0.4,0.1,0.8,0.2,1.2c0,0.1,0,0.2,0,0.2c-0.1,0.3-0.1,0.6,0,0.8c0.2,1.1,0.5,2.2,0.7,3.4
		c-1.3,0.8-2.5,1.7-3.6,2.5c-1.2,0.8-2.3,1.7-3.4,2.5v0c0,0-0.1,0.1-0.1,0.1c-1.3,0.9-2.7,1.8-3.9,2.7c-0.2,0.1-0.3,0.3-0.5,0.4
		c-0.3,0.3-0.6,0.5-0.9,0.8c0,0,0,0-0.1,0c-0.8,0.2-1.7,0.6-2.5,0.9c-1,0.4-2.1,0.6-3.2,1c-1.1,0.4-2.2,1-3.3,1.5
		c-1.1,0.5-2.1,1-3,1.7c-0.5,0.4-1,0.8-1.5,1.2c-0.8,0.6-1.7,1.3-2,2.3c-0.2,0.7-0.3,1.5-0.3,2.2c0,0.3,0.1,0.7,0.1,1
		c-0.3,0.2-0.7,0.4-0.9,0.6c-1.4,1.1-2.2,2.8-1.9,4.6c0.1,0.8,0.5,1.5,0.9,2.1c-0.2,1.2-0.2,2.3,0.1,3.5c0.1,0.6,0.3,1.3,0.5,1.9
		c0,0.1,0,0.1,0,0.2c0.3,1.5,1.5,2.7,2.8,3.4c0.1,0.1,0.2,0.1,0.3,0.2c0.2,1,0.8,1.8,1.6,2.4c0.3,0.2,0.6,0.3,0.9,0.4
		c0.2,0.7,0.5,1.3,0.7,2c0.8,1.9,2,3.5,3.1,5.2c0.9,1.3,1.7,2.6,2.7,3.7c0.8,1,1.6,2,2.6,2.9c0.8,0.7,1.6,1.4,2.4,2.1
		c4.1,3.3,9.2,4.5,14.3,5.3c1.4,0.2,2.9,0.4,4.3,0.5c0.2,0,0.4,0,0.6,0.1c0.3,0,0.6,0.1,0.9,0.1c0.3,0,0.6,0,1,0.1
		c0.2,0,0.4,0,0.6,0c0,0,0.1,0,0.1,0c0.3,0,0.6,0,0.9,0c0.4,0,0.8,0,1.2,0c0.8,0,1.6,0,2.4-0.1c0.1,0.4,0.2,0.9,0.3,1.3
		c0.3,1.3,0.6,2.6,0.8,3.9c0.3,1.6,0.5,3.2,0.9,4.8c0.1,0.7,0.3,1.4,0.5,2.1c-0.1,0-0.2,0-0.2,0c0.1,0.3,0.2,0.5,0.3,0.8
		c0.1,0.3,0.2,0.6,0.3,0.9c0.1,0.3,0.2,0.7,0.3,1c0.2,0.8,0.4,1.6,0.6,2.4C517,618.2,514,617.6,510.9,617z M298.3,361.9
		c0.1,0,0.1,0.1,0.2,0.1c0.1-0.4,0.3-0.7,0.4-1.1C298.8,361.2,298.6,361.5,298.3,361.9z"/>
	<path class="st1" d="M569,508.2c0.1,0,0.2,0.1,0.3,0.1C569.2,508.3,569.1,508.2,569,508.2z"/>
	<path class="st1" d="M481.6,558c0,0,0.1,0,0.1-0.1C481.7,558,481.6,558,481.6,558C481.6,558,481.6,558,481.6,558z"/>
	<path class="st1" d="M487.2,549.4c-0.1,0-0.1,0-0.2,0.1C487.1,549.4,487.2,549.4,487.2,549.4z"/>
	<path class="st1" d="M351.8,575.9c0.1,1-0.5,1.9-1.4,2.2C350.9,577.5,351.4,576.7,351.8,575.9z"/>
	<path class="st1" d="M341.3,589.2c-1.1-2.1,1.8-4.5,3.6-2.8c0,0,0,0,0,0c0.7-0.1,1.4,0.6,1.4,1.3c0,0.6-0.4,1.1-0.9,1.3
		C344.8,590.9,342,591,341.3,589.2z"/>
	<path class="st1" d="M313,612.9c-0.7-0.1-1.1-0.6-1-1.3c0-0.3,0.1-0.6,0.2-0.9c-1.1-0.9-0.2-2.3,0.2-3.3c0.1-0.6,0.4-1.2,1-1.4
		c0.2-0.3,0.7-0.6,1.1-0.5c0.2-0.2,0.6-0.1,0.8,0c1.9-0.4,3.4-0.8,5.2-1.2c1-0.2,1.9,0.5,2,1.5c0.1,0.5,0,1-0.3,1.3
		c-0.3,0.4-0.7,0.6-1.1,0.7c-2,0.4-4.1,0.9-6.2,1.1C314.4,610.2,314.8,612.9,313,612.9z"/>
	<path class="st1" d="M504.1,602.1c-4-0.5-14.5-4.3-16.3-8c-0.5,0.2-1-0.2-1.5-0.3c-0.6-0.2-1.2-0.3-1.5-0.9
		c-0.5-0.2-0.8-0.4-1.1-0.9c-0.1-0.1-0.1-0.3-0.2-0.4c-0.8-0.1-1.6,0-2.3-0.4c-1.6-0.9-1-3.5,0.9-3.6c0,0,0,0,0,0c3,0,6,0.4,8.7,1.7
		c0.6,0.3,0.7,0.9,0.8,1.5c0.2,0.4,0.3,0.8,0.2,1.3c6.5,2.2,13.4,4.3,20.4,3.7c1.5,0,2.7,1.2,2.9,2.6
		C515.5,602.8,507.1,602.3,504.1,602.1z"/>
	<path class="st1" d="M518.5,617.3c-0.5-0.2-0.8-0.7-0.7-1.2c-1.2-0.3-1.8-1.8-1-2.7c0.1-0.8,0.6-1.4,1.4-1.7
		c0.3,1.6,0.7,3.1,1.1,4.6c0.2,0.8,0.4,1.6,0.6,2.5C519.2,618.6,518.4,618.2,518.5,617.3z"/>
	<path class="st1" d="M512.5,599.2c-1.7,0.5-3.5-1.1-3.2-2.9c0.2-1.5,1.7-2,2.8-2.7c0.8-0.4,1.4-0.7,2-0.8c0.2,1.2,0.4,2.4,0.6,3.6
		c0.5,2.1,1.1,4.2,1.6,6.4c0.3,1.3,0.6,2.6,0.8,3.9c0.2,1.5,0.5,3,0.8,4.5C515.1,607.9,514,603.3,512.5,599.2z"/>
	<path class="st1" d="M494.3,544.3c-0.8-1.6,0.2-3.1,1.9-3.5c1.7-0.7,4.5-2.5,6.1-1.4c0.1,0.4,0.2,0.8,0.3,1.2
		c0.1,0.4,0.2,0.8,0.3,1.2c-0.1,0-0.1,0.1-0.2,0.1c-0.2,0.1-0.4,0.1-0.6,0.2c-0.9,0.3-1.8,0.6-2.7,1c-0.4,0.2-0.8,0.3-1.2,0.5
		c-0.8,0.4-1.4,0.8-1.9,1.6c0,0,0,0.1-0.1,0.1c0,0-0.1,0-0.1,0C495.5,545.4,494.8,545.1,494.3,544.3z"/>
	<path class="st1" d="M501.8,541.2c-0.4-1.2-1.5-3.7,0-4.5c0.3,1.3,0.6,2.6,0.8,3.9c0.1,0.4,0.2,0.8,0.3,1.2c0,0-0.1,0-0.1,0.1
		C502.4,541.8,502,541.6,501.8,541.2z"/>
	<path class="st1" d="M490.6,592.5c-2.6-0.8-0.9-4.7,1.2-4.8c1.7-0.3,2.7,2.1,1.2,3C492.9,591.9,491.8,592.9,490.6,592.5z"/>
	<path class="st1" d="M477.1,579.6c-1.8-0.3-2.1-2.1-1.1-3.2c0.1,1.1,0.7,2,1.6,2.7c0.2,0.1,0.4,0.3,0.6,0.3
		c-0.2,0.1-0.5,0.1-0.8,0.1C477.4,579.6,477.2,579.6,477.1,579.6z"/>
	<path class="st1" d="M478.2,579.5c0.3,0.1,0.7,0.2,1,0.2c0.2,0,0.4,0,0.6-0.1c-0.2,0.1-0.5,0.2-0.8,0.2
		C478.8,579.9,478.4,579.7,478.2,579.5z"/>
	<path class="st1" d="M476.9,578.5c0.2,0.3,0.5,0.5,0.8,0.7c0.1,0,0.1,0.1,0.2,0.1C477.3,579.1,477,578.8,476.9,578.5z"/>
	<path class="st1" d="M501.3,541.4c-1-1.7-1.4-3.8-1.7-5.8c-1.2-4.7-2-9.7-2.1-14.5c0-0.4,0.4-0.8,0.8-0.7c0.7,0,0.7,0.7,0.8,1.2
		c2.1,4.5,2.8,9.4,3.9,14.2c0.2,1.7,2.1,5,0,6C502.3,542,501.7,541.9,501.3,541.4z"/>
	<path class="st1" d="M350.4,550.4c-3.5-2.2-6.4-5-9.8-6.8c-2-1-4.2-1.8-6.3-2.3c-2-2-4.6-3.2-7.4-3.8c0.4-0.4,1-0.5,1.5-0.3
		c5.9,0.5,12.1,1.8,17.5,4.4c2,1,3.7,2.2,5.5,3.4c1,0.8,2.5,1.3,2.8,2.7c0.4,1.7-1,3.1-2.5,3.1C351.2,550.8,350.8,550.6,350.4,550.4
		z"/>
	<path class="st1" d="M323.1,599.6c-0.7,0-1.2-0.4-1.5-0.9c0.7-0.3,1.3-0.5,2-0.7c2.5,0.5,5.2,0.2,7.4-1c1.7-0.9,3.2-2.2,4.2-3.9
		c0.2-0.4,0.4-0.8,0.6-1.2c2.5-1,5-2.3,7.4-3.5c2.1-0.4,2.3,2,0.6,2.8c0.1,0.7-0.7,1.2-1.2,1.6c-1.9,1.2-3.9,2.3-5.9,3.4
		c-1.3,0.7-3.1,2.3-4.3,0.7c-2.7,1.1-5.8,2.6-8.7,2.6C323.5,599.6,323.3,599.6,323.1,599.6z"/>
	<path class="st1" d="M313,611.6c-2.5-1-0.4-3.8,0.2-5.4c0.7-1.7,1.3-3.4,2-5.1c0.2-0.1,0.4-0.1,0.6-0.2c1.2-0.4,2.3-0.8,3.4-1.2
		c-1,2.7-1.9,5.5-3,8.2c-0.7,1.3-1.1,3.9-2.8,3.9C313.3,611.7,313.1,611.7,313,611.6z"/>
	<path class="st1" d="M318.3,609.3c-0.5-0.5-0.8-1.2-1-1.9c-4-0.3-2-4.2-0.5-6.9c2.3-0.8,4.5-1.7,6.8-2.6c2.5,0.5,5.2,0.2,7.4-1
		c1.7-0.9,3.2-2.2,4.2-3.9c0.2-0.3,0.4-0.7,0.6-1c1.9-1.1,4-1.9,6.2-2c3,0,4.9,3.6,3.2,6c-1.3,1.8-3.2,3-4.9,4.3
		c-4.6,3.4-9.8,5.7-14.8,8.5c-1.2,0.9-2.7,1.6-4.1,1.6C320.1,610.6,319.1,610.3,318.3,609.3z"/>
	<path class="st1" d="M504.4,597.3c-4.3-1-8.7-1.7-13.1-2.4c-1.6-0.4-3.5-0.4-4.9-1.2c-2.5-1.4-2.1-5.5,0.7-6.4c1.4-0.5,2.7,0,4,0.3
		c5.9,0.8,11.6,3.4,17.5,3.1c0.8-1.3,2.5-2.9,4-1.7c0.9,0.3,1.5,1.3,1.5,2.2c-0.1,1.8,0.7,4.8-1.8,5.2c0.5,2.1-2.2,2.6-3,0.8
		C508.1,598.7,505.5,599.3,504.4,597.3z"/>
	<path class="st1" d="M512.1,592c-0.5-0.1-1-0.4-1.3-0.8c-0.2-0.1-0.4-0.2-0.7-0.3c-0.4,0-0.7,0.1-1.1,0.1c-0.2,0.9-1.4,0.9-2,0.5
		c-0.8,0-2,0.7-2.4-0.4c-0.1-0.7,0.1-1.4,0.8-1.6c1.8-0.4,3.5-0.8,5.2-1.1c0.3-1.2,1.7-2.1,2.5-0.8
		C514.9,588.4,514.4,592.2,512.1,592z"/>
	<path class="st1" d="M485.3,590.8c-2.1-0.6-6.2-1.3-6.6-3.8c-1.1-0.7-2.7-0.5-3.7-1.4c-0.7-0.8-0.2-2.3,0.9-2.4
		c0.8-0.1,1.6,0.1,2.3,0.3c0.3-0.9,1.4-1.4,2.3-0.9c1.4,0.8,3.7,1.3,3.9,3.2c0.1,0.1,0.3,0.1,0.4,0.2c0.9-0.9,1.4,0.7,2.1,0.9
		c1.2,0.4,2.6,1.2,2.2,2.7C488.8,591.4,486.7,591.1,485.3,590.8z"/>
	<path class="st1" d="M312.5,613.1c-1.5-0.5-2.2-3-2.6-6.4c0-1.4,0-2.7,0-4.1c2.1-0.4,4.2-1.2,6-1.8c1.2-0.4,2.3-0.8,3.5-1.2
		c-0.5,2.2-1,4.5-1.5,6.7c-0.7,2.4-1.3,6.9-4.3,6.9C313.1,613.3,312.8,613.2,312.5,613.1z"/>
	<path class="st1" d="M324.4,537.1c-2.8-0.2-5.6,0.4-8.1,1.6c0-0.2,0.1-0.3,0.1-0.5c4-17.4,8.5-34.9,9.8-52.8
		c1-28.6-6.4-56.7-10.7-84.9c-1.1-6.2-2.3-12.4-3.6-18.4c-0.5-2.8-1.7-5.8,0-8.4c2.6-4.9,10.7-3.9,11.9,1.6
		c5.1,25.5,11.6,50.8,14.8,76.7c2.7,17.5,3,35.3-0.5,52.7c-2.1,11.5-4.8,22.8-7.5,34.1C328.8,537.8,326.6,537.2,324.4,537.1z"/>
	<path class="st1" d="M327.1,528.5c0.3-22.2-0.5-44.8-8.1-65.9c-15.3-40.2-26.6-55.2-15.9-100.3c1.1-4.4,2.6-8.6,4.2-12.8
		c1.3-3,3.7-10.6,7.8-6.8c1.5,2.4,0.9,5.5,0.8,8.2c-0.2,3-0.6,6.1-0.9,9.1c-1.4,12.9-2.8,25.8-2.1,38.8c2.8,27.1,19.7,50.4,24.7,77
		c3,13.1,3.5,26.5,3,39.9c0,4.3-0.1,8.6-0.2,12.9c-0.1,1.8-0.7,3.4-2,4.7C334.6,537.3,326.9,534.2,327.1,528.5z"/>
	<path class="st1" d="M314.5,473.5c-3.1-17.3-11.2-33-15.9-49.8c-4.9-19.3-2.9-39.8,3.6-58.5c2.5-4.7,9-31.4,16-23.4c0,0,0,0,0,0
		c1.2,2.6,0.2,5.8,0,8.6c-1.3,9-3.8,17.8-5.7,26.6c-7.3,33.2,2.2,48.7,12.4,78.5c5.8,21,9.6,43,8.3,64.9c-0.4,6.1-1.4,12.2-2.6,18.2
		c-1.9-0.9-4-1.5-6.1-1.6c-2.9-0.2-5.6,0.4-8.1,1.7C320.4,517.1,319.3,495,314.5,473.5z"/>
	<path class="st1" d="M309.1,614.5c0.1-0.4,0.2-0.9,0.2-1.3c0.7-4.1,0.6-8.4,0.5-12.5c0-0.2,0-0.3,0-0.5c1-1.5,3.4-1.7,4.6-0.2
		c4.9-1.9,9.2-5.3,14.4-6.8c1.8-0.5,3.5-1.6,5.4-1.5c1.4,0.1,2.6,1.4,2.8,2.8c0.4,2.7-2.3,3.7-4.3,4.6c0.6-0.1,1.1-0.3,1.7-0.3
		c0.8,0,0.9,1.1,0.2,1.3c-1.8,0.3-4.6,2.8-5.9,0.6c-4.5,1.5-8.8,4-13.6,3.9c-0.2,2.8-0.4,5.7-1.3,8.4c0,0,0,0,0,0
		c-0.5,1.3-1.7,1.9-3,1.9C310.1,614.9,309.5,614.8,309.1,614.5z"/>
	<path class="st1" d="M376.2,373c-5.4-16.8-10.8-33.6-15.7-50.5c-4.1-15.1-8-30.5-8.3-46.3c0-0.6,0-1.2,0.4-1.7
		c0.5-0.8,1.7-0.9,2.3-0.2c0.7,0.8,0.6,2,0.8,3c2.6,22.2,10,43.5,16.8,64.7c3.1,9.6,6.1,19.2,9.2,28.8
		C383,374.5,377.6,376.6,376.2,373z"/>
	<path class="st1" d="M380.4,349.3c-1-0.9-1.7-2-2.2-3.2c-2.2,2.3-6.2,2.6-8.2-0.2c-2.3-3.1,0.2-6.5,2.6-8.7
		c-0.6-1.6-0.4-3.6,0.8-4.9c0,0,0-0.1,0.1-0.1c0,0,0-0.1,0-0.1c-3.4,2.7-6.6,5.6-9.7,8.5c-0.9,0.8-2.1,1.9-3.4,1
		c-1.5-1.2-1-2.5-0.2-3.5c11.6-12.3,25.3-22.4,39.5-31.5c16.7-10.3,33.2-21.2,50.9-29.7c1.6-0.6,2.4-1.4,3.9-1.6
		c1.4-0.1,2.7,0.9,3,2.3c0.6,4.1-6,8.9-8.8,11.4c2.4,2.7,2.4,7.2-0.4,9.7c-1.2,1.2-2.9,2-3.7,3.5c1,4.3-2.8,7.1-5.8,9.4
		c-2.8,2.3-5.7,4.4-8.6,6.7c-4.5,3.4-8.9,7-13.6,10.2c-2.4,1.6-5.7,1.6-7.9-0.3c-1,0.9-2.1,1.8-3.1,2.7c0.1,1.4-0.7,2.7-1.8,3.6
		c-3.2,3.1-6.2,6.4-9.3,9.6C391,347.4,385.5,353.4,380.4,349.3z M415.8,302.9c0.5-0.4,1.1-0.8,1.6-1.1c-0.6,0.4-1.2,0.7-1.8,1.1
		C415.7,302.8,415.7,302.8,415.8,302.9z"/>
	<path class="st1" d="M345.7,372.6c-1.5-1.2-2.2-2.9-2.5-4.7c-1.2-9.1-2.3-18.3-3.4-27.4c-1.1-9-2.2-18-2.6-27
		c-0.5-8.3-0.2-16.7-0.2-25c-1.1-5,3.5-10.2,8.7-8.9c1.1-2.6,4.3-3.7,6.8-2.5c4.4,2,4.2,9.8,5.4,13.9c2.5,13,5.2,26,8.4,38.9
		c1,4.5,2.7,8.9,2.8,13.5c-0.1,3-2.4,5.7-5.3,6.2c-1.3,0.8-2.9,1-4.3,0.3c-3.5-1.8-4.3-6.7-5.5-10.1c0.9,9,1.9,17.9,3.1,26.8
		C358,372.5,350.2,376.6,345.7,372.6z"/>
	<path class="st1" d="M574.1,633.7c-3.2-0.1-6.3-1-9.4-1.7c-6.9-1.5-14-2.5-20.8-4.5c-7.4-2.1-14.4-5.5-21.5-8.4
		c-3.8-1.6-7.6-3.2-11.2-5.3c-2.8-1.7-6-3.1-8.1-5.7c-1.6-2.3,0.8-5.4,3.4-4.4c1.3,0.3,2.6,0.8,3.9,1.3c-0.3-0.9-1-1.4-1.8-2
		c-1.8-1.4-3.4-3.4-3.6-5.8c-0.2-7.2,7.5-7.2,12.9-6.7c9.6-5.3,20.2-8.6,29.7-14.2c1.7-1,3.4-2,4.9-3.3c1.2-2.1,3.9-3.3,6.1-2.1
		c2.3-0.6,3.5,1.8,4.1,3.6c2,4.2,4,8.4,5.7,12.8c0.8,2.9,1.3,4.4,2.6,7.2c3.4,8.5,7,17,10.1,25.6c0.8,2.8,2,5.4,2.5,8.2
		C583.8,633.1,577.7,633.9,574.1,633.7z"/>
	<path class="st1" d="M525,526.9c-20.5-20.3-29.6-49.4-34.9-77c-1.9-12.1-3.1-24.4-4.8-36.5c-0.3-2.6,3.1-4.3,5-2.6
		c1.7,1.6,1.2,4.8,1.7,6.7c3.5,26.7,9.3,53.3,19.5,78.3c2.6,6.2,6,12.3,9.4,18c2.1,3.6,4.6,7,6.8,10.5
		C529,526.1,526.7,528.4,525,526.9z"/>
	<path class="st1" d="M501,537.2c-0.8-0.5-1.4-1.5-1.5-2.5c0-0.3,0-0.5,0-0.7c-4.1-4.2-3.6-11.6-5.6-17c-1-5.9-5.4-15.6,1.7-19.1
		c-3-6.8-5.7-13.8-8.1-20.9c-1.6-3.2-1.4-8.5,3.2-8.4c4.6,0.6,5.5,6.6,7.7,10c4.8,9.9,8.7,20.1,14.3,29.6
		c3.6,5.3,6.4,11.5,11.8,15.2c4.1,6-3.5,9.2-8.5,6.5C513,532.5,505.3,539.4,501,537.2z"/>
	<path class="st1" d="M284,633.6c-4.9-0.9-3-6.9-2.5-10.3c1.1-5.9,2.5-11.7,4.1-17.5c0.2-0.6,0.3-1.3,0.7-1.8c0.8-1.1,2.6-1.2,3.4,0
		c1.1,2.4-0.1,5.2-0.2,7.7c-0.6,4.4-1.2,8.1-1.9,12.3c8.2-8.1,17.4-14.9,27.2-20.9c3.2-2.1,6.7,2.5,3.8,5
		c-6.3,5.4-12.8,10.5-19.4,15.5c-3.2,2.5-6.4,5.1-9.6,7.5C288,632.3,286.1,633.7,284,633.6z"/>
	<path class="st1" d="M282.3,632.9c-1.5-0.8-0.7-2.6,0-3.7c0.6-1.7,1.5-3.4,2.4-4.8c-0.1-0.2-0.1-0.5-0.1-0.7c0,0,0,0,0,0
		c0.1-3.4,1-6.6,1.4-9.9c0.7-2.8-0.7-5.8,1.5-8.2c3.9-3.7,8.6,0.4,7.4,5.2c-0.5,3.5-1.3,7-2.2,10.5c-0.6,2-1.1,4.5-3.2,5.5
		C288,628.4,284.9,634.1,282.3,632.9z"/>
	<path class="st1" d="M290.8,615.1c0.1-1.1,0.6-2,1.3-2.9c-2.7-0.9-3.2-4.4-1.4-6.4c2.6-2.9,6.5-4.2,10-5.4c2.8-0.9,6.6-3.1,8.8,0
		c2.9-1.6,7.7-3,8.6,1.4c0.4,2.5-2,4.3-3.5,6c-3.7,3.2-8.2,5.4-12.3,8.2c-2.4,1.4-4.7,3.6-7.6,3.7
		C292.5,619.6,290.6,617.4,290.8,615.1z"/>
	<path class="st1" d="M291.3,626.5c-1.4-2.7,3.5-3.9,5.1-5.2c2.9-1.7,5.9-3.4,8.9-5c2.3-1.4,4.6-2.8,6.8-4.3
		c0.6-0.4,1.6-0.9,2.1-0.2c3.9-1.8,7.9-3.4,11.8-5.2c0.8-0.5,2.1-0.4,2.5,0.6c0.3,0.8-0.1,1.7-0.8,2c-4.1,1.8-8.5,4.1-12.4,6.1
		c-5.7,2.9-11.4,5.9-16.9,9.1C296.4,625.3,293,629,291.3,626.5z"/>
	<path class="st1" d="M294,623.6c-0.5-0.9-0.1-2,0.8-2.4c2.6-1.3,5.3-2.5,8.1-3.6c13-5.2,26.2-9.1,39.5-13.3
		c2.7-0.7,3.8,3.3,1.2,4.1c-8.1,2.5-16.3,5-24.5,7.4c-6,1.8-12,3.7-17.8,6.1c-1.7,0.7-3.3,1.5-4.9,2.3
		C295.6,624.7,294.5,624.4,294,623.6z"/>
	<path d="M311.5,388.9c0.1-0.1,0.2-0.2,0.3-0.2c0,0.2,0,0.4,0,0.6c0,0.1,0,0.2,0,0.4C311.7,389.4,311.6,389.2,311.5,388.9z"/>
	<path d="M459,533.7c-0.5-0.6-0.9-1.2-1.4-1.9c-1-2.5-1.9-4.9-3-7.3c-2.2-4.9-4.2-9.8-6.5-14.7c-0.6-1.4-1.3-2.7-2-4
		c-0.5-1.3-1-2.7-1.5-4c0-0.1,0-0.1-0.1-0.2c0,0,0-0.1,0-0.1c-0.1-0.3-0.2-0.6-0.3-0.8c0,0,0,0,0,0c0,0,0-0.1,0-0.1c0,0,0,0,0-0.1
		c0,0,0-0.1,0-0.1c0,0,0,0.1,0,0.1c-0.7-1.8-1.4-3.7-2.1-5.5c-0.6-1.6-1.3-3.2-1.8-4.8c-0.9-2.7-1.8-5.4-2.8-8.1
		c-0.9-2.6-1.8-5.2-2.7-7.8c-0.9-2.6-1.8-5.3-2.7-7.9c-0.9-2.8-1.7-5.6-2.4-8.5c0,0,0,0,0,0.1c0,0,0,0,0-0.1v0c0,0,0,0,0,0
		c0-0.1,0-0.2-0.1-0.3c0,0,0,0.1,0,0.1c-0.4-1.5-0.8-3-1.2-4.5c-9.9-56.8-4-116.3,19.4-169c0.7-0.9,1.4-1.7,2.2-2.6
		c0.6-0.5,1.2-0.9,1.8-1.3c0.4-0.2,0.7-0.4,1.1-0.6c0.4-0.2,0.8-0.3,1.2-0.5c0.6-0.2,1.1-0.3,1.7-0.5c0.2,0,0.3-0.1,0.5-0.1
		c1.6,1.1,2.6,3.1,1.5,5.7c-2,4.5-3.3,9.4-4.9,14.1c-12.5,39-18.3,80.2-14.8,121c2,26.3,7.9,52.1,16.2,77.1c0,0.6,0.1,1.2,0.1,1.8
		c0.2,3.1,0.4,6.2,0.6,9.3c0.2,3.1,0.6,6.2,1.2,9.4c0.5,3.2,0.9,6.4,1.8,9.5c0.6,2.2,1.4,4.4,2,6.6c-0.1,0.4-0.1,0.8-0.2,1.2
		c0,0.1-0.1,0.2-0.1,0.3C459.5,534.4,459.3,534.1,459,533.7z"/>
	<path d="M444.3,500.6C444.3,500.6,444.3,500.7,444.3,500.6C444.3,500.7,444.3,500.6,444.3,500.6z"/>
	<path d="M444.2,500.6C444.2,500.6,444.2,500.6,444.2,500.6C444.2,500.6,444.2,500.6,444.2,500.6
		C444.2,500.6,444.2,500.6,444.2,500.6z"/>
	<path d="M444.2,500.5C444.2,500.5,444.2,500.6,444.2,500.5C444.2,500.6,444.2,500.5,444.2,500.5z"/>
	<path d="M444.2,500.5C444.2,500.5,444.2,500.5,444.2,500.5C444.2,500.5,444.2,500.5,444.2,500.5z"/>
	<path d="M429.7,457.9c0-0.1,0-0.1-0.1-0.2C429.6,457.8,429.7,457.9,429.7,457.9C429.7,457.9,429.7,457.9,429.7,457.9z"/>
	<path d="M446.6,504.9c-9-35.8-1.8-74.5,12.3-108c5.2-12.4,12.1-23.9,19-35.4c3.4-6.4,8.1-13.2,7.3-20.8
		c-2.2-9.7-7.7-18.3-12.2-27.1c-2.4-4.5-5.1-8.8-7-13.5c-0.6-1.6-1.5-3.3-1-5.1c0.4-1.5,2.4-2,3.6-1c8.6,13.7,19.5,26.2,25.9,41.2
		c5.7,15.2-5.8,29.4-12.7,42.2c-6.4,11.3-11.7,23.2-16,35.4c-4.6,13.5-7.5,27.4-9.5,41.5c-0.7,5.9-1.1,11.7-1.4,17.7
		c-0.1,3.1-0.3,6.1-0.4,9.2c-0.2,2.9-0.3,5.9-0.3,8.8c0-0.1,0-0.1,0-0.2c-0.1,2.8,0.1,5.6,0.3,8.5c0.2,2.9,0.4,5.8,0.5,8.8
		c-1,1-2.3,1.5-3.6,1.5C449.3,508.7,447.3,507.5,446.6,504.9z"/>
	<path d="M327.2,520C327.3,520,327.3,520,327.2,520c-0.1,0-0.2-0.1-0.3-0.2c0,0,0,0,0,0c-0.1-0.1-0.2-0.2-0.3-0.3
		c-0.2-0.2-0.4-0.4-0.6-0.7c0,0,0,0,0,0c-0.1-0.1-0.2-0.3-0.3-0.4c-0.1-0.1-0.1-0.3-0.2-0.4c-0.1-0.3-0.2-0.6-0.3-0.9
		c0-0.1-0.1-0.2-0.1-0.3c0,0,0,0,0,0c0.2-2.8,0.3-5.6,0.4-8.5c0.4-15.6-0.2-31.1-1.7-46.6c-7.6-67.3-15.4-110.6,18.5-170.8
		c0.6-0.6,1.1-1.2,1.7-1.8c1.3-1.4,2.7-2.8,4.1-4.1c0.7-0.6,1.3-1.1,2-1.6c0.1,0,0.2,0,0.4,0c0.4,0,0.8,0,1.3,0c0.1,0,0.2,0,0.3,0
		c2,3.3-4.2,9.8-5,13.2c-24.5,46.8-19.3,95-11.6,145.1c1,7.7,1.8,15.4,2.4,23.2c0,2.7,0,5.5,0,8.2c-0.1,2.8-0.4,5.7-0.6,8.5
		c-0.2,2.7-0.4,5.5-0.5,8.2c0-0.1,0-0.3,0-0.4c-0.3,3.7-0.6,7.5-1.1,11.2c-0.3,2.1-0.7,4.3-1.2,6.4c-0.4,2-0.8,3.9-1.3,5.8
		c-0.5,1.7-1.3,3.2-1.9,4.8c0,0,0,0,0,0c-0.8,0.6-1.5,1.3-2.3,1.9c-0.2,0.1-0.4,0.1-0.6,0.2c-0.3,0.1-0.6,0.2-0.8,0.4
		C327.4,520.1,327.3,520.1,327.2,520z"/>
	<path d="M337.9,473.1c0,0.1,0,0.2,0,0.3C337.9,473.2,337.9,473.2,337.9,473.1z"/>
	<path d="M303.4,363c-1.5-0.5-1.5-2.2-1-3.4c0.6-2.3,1.3-4.6,2.1-6.8c6.3-16.7,14.7-32.6,24.8-47.4c0.9-1,1.9-2,2.8-3
		c1.4-1.5,2.7-3,4-4.5c1.3-1.4,2.5-2.8,3.8-4.3c1.4-1.5,2.7-3,4.1-4.5c1.3-1.4,2.7-2.8,4.1-4.1c0.1-0.1,0.1-0.1,0.2-0.2
		c1.7,0.8,2.8,2.8,1.8,4.9c-3,4.7-7,8.6-10.2,13.1c-3.3,4.4-6.5,8.9-9.5,13.5c-8.1,12.4-15.1,25-21.3,38.3c-0.9,2-1.8,4-2.6,6
		c-0.4,1.1-1.1,2.5-2.3,2.5C303.8,363.1,303.6,363.1,303.4,363z"/>
	<path d="M461.9,542.9c-1.1-0.4-1.5-1.7-2.1-2.6c-2-3.6-3.8-7.3-5.2-11.2c-4.3-10.6-7.8-21.5-9.8-32.7c-2-9.7-2.3-19.6-3.5-29.4
		c-0.2-4,5.7-4.4,6-0.4c3.1,17,6.3,33.9,10.6,50.6c1.8,6.9,3.6,13.8,5.3,20.7C463.7,539.7,465.2,543.3,461.9,542.9z"/>
	<path d="M452.9,516.1c-2.4-11.9-3.1-24-4.6-35.9c-0.1-2.5,3.5-2.8,3.8-0.3c1.4,11.8,2.8,23.6,5.1,35.3
		C457.7,518,453.5,518.9,452.9,516.1z"/>
	<path d="M452.3,522.1c-3.7-10.5-7.2-21-10.6-31.6c-0.6-1.8,2.1-2.9,2.8-1c3.2,9.7,6.7,19.5,9.5,29.2c0.3,0.8,0.5,1.7,0.7,2.5
		C455.2,522.8,452.9,523.7,452.3,522.1z"/>
	<path d="M277.6,603.7c-8.3-1-16.2-3.4-24.4-5.1c-2.8-0.8-1.9-5,1.1-4.4c7.1,1.6,14.3,2.8,21.5,3.2c11.6,0.2,23.5-1.3,34.6-3.7
		c12.2-2.5,25.1-7.5,32.5-18.1c3.4-5.1,4.8-9.4,4.7-13c0.6-2.7,0.5-5.5-0.6-8.2c-1.2-2.8-3.1-5.2-5.7-6.8c-1.9-1.2-4-1.8-6.2-2
		c-1.8-0.1-3.6,0.4-5.1,1.5c-2.6-0.7-5.3-1.4-8-1.9c-16.5-2.5-33.2-2.2-49.7-4.3c-2.1,0-5.1-1.7-2.9-4c1.5-0.9,3.4-0.8,5-1.2
		c5.4-1.1,10.8-2.1,16.2-2.7c12-1.2,24.3-1,36.3,0.9c13,2.3,28.2,8.5,31.7,22.6c2.8,11.9-4.7,23.8-14,30.7
		c-16.1,11.4-36.1,16.9-55.9,16.9C284.9,604.3,281.2,604.1,277.6,603.7z"/>
	<path d="M341.3,547.7c-1.1-0.7-2.3-1.2-3.5-1.5c0.7-0.2,1.3-0.4,2-0.6c1.8-0.5,3.8,0.6,4.3,2.4c0.2,0.8,0.1,1.4,0,2
		C343.2,549.1,342.3,548.4,341.3,547.7z"/>
	<path d="M347,554.6c-0.7-1.6-1.5-3-2.6-4.2c0.1,0,0.1,0,0.2,0c2.2,0.5,3.2,2.8,2.7,4.8C347.2,555,347.1,554.8,347,554.6z"/>
	<path d="M347,554.6c-0.3-0.7-0.7-1.4-1.1-2.1c3.5-3.6,9.5,1,6.5,5.5c-1.7,2.5-3.6,4.9-5.5,7.3C348.1,561.8,348.5,558,347,554.6z"/>
	<path d="M496.6,593.4c-12-2.5-23.8-11-25.7-23.7c-1.5-9.5,5.6-17.1,12.5-22.5c9.1-6.8,20.2-11.1,30-16.4c8-4.2,16-8.6,23.5-13.6
		c1.9-1.3,3.8-2.6,5.8-3.8c0.6-0.4,1.3-0.6,2-0.4c1.9,0.5,1.9,2.7,0.7,3.9c-1.9,2.3-3.9,4.4-6,6.5c-8.2,7.8-17.5,14.5-27.5,19.7
		c-9.3,5.4-20.5,9.2-27.5,17.6c-1,0.5-1.8,1.3-2.6,2.1c-3.2,3.5-2.2,8.8,0.5,12.2c2.1,2.7,5,4.6,8.2,5.9c2.5,1,5.3,1.9,8,2.2
		c1.2,0.1,2.4,0.2,3.5,0.2c1,0,2-0.1,3.1-0.1c5.7-0.2,11.4-1.8,16.7-3.7c18.9-7.1,35.8-18,52.3-29.3c3.3-2.5,7.3,2.4,4,5.1
		c-11.8,9.3-24.2,17.8-37.3,25.3c-11.6,6.7-24.7,13.5-38.4,13.5C500.6,593.8,498.6,593.7,496.6,593.4z"/>
	<path d="M474.2,576.5c-1.2-1.5-0.9-3.8,0.6-5c1.7-1.3,3.4-2.7,5.1-4c-0.1,2.5,0.8,5.1,2.3,7.1c-1,0.8-2.1,1.6-3.1,2.4
		c-0.6,0.5-1.4,0.8-2.2,0.8C476,577.8,474.9,577.4,474.2,576.5z"/>
	<path d="M492.8,561.9C492.9,561.9,492.9,561.9,492.8,561.9c0.1,0.1,0.1,0.1,0.2,0.1C493,562,492.9,562,492.8,561.9z"/>
	<path d="M479.9,576.3c-0.4-1.4,0.1-2.9,1.1-3.9c0.4,0.8,0.9,1.7,1.5,2.4c1.1,1.4,2.5,2.6,3.9,3.6c-0.6,0.2-1.1,0.3-1.7,0.5
		c-0.3,0.1-0.7,0.1-1,0.1C482,579.1,480.4,578,479.9,576.3z"/>
	<path d="M477.3,582.7c-2.1-1.9-0.6-5.6,2.2-5.6c0.4,0,0.9-0.1,1.3-0.1c1.1-0.1,2.2-0.2,3.3-0.4c1.9,1.8,4.1,3.1,6.5,4
		c1.1,0.4,2.3,0.9,3.4,1.2c-0.3,0-0.6,0.1-0.9,0.1c-4,0.6-8.1,1.1-12.1,1.5c-0.4,0.1-0.9,0.1-1.3,0.1
		C478.8,583.6,478,583.4,477.3,582.7z"/>
	<path d="M339.1,588.8c-1.7-1-2.4-3.4-1.3-5.1c2.6-4.5,5-8.8,7-13.5c1.4-5.5-0.4-11.4-4.2-15.5c-1.9-2.2-5-4.2-7.5-5.3
		c-1.5-0.9-3.5-1.3-4.5-2.9c-2.1-3.4,3.4-6.9,6-4.3c9.7,2.4,18.3,10.7,19,21c0.7,4.9-0.2,9.8-3.1,13.9c-2.1,3.4-4.1,6.9-6.2,10.4
		C343.2,589.2,340.9,589.9,339.1,588.8z"/>
	<path d="M479.5,566.3c-2.1-1.5-1.1-5,1.4-5.3c3.4-0.7,6.8-1.4,10.2-2.2c4.2-0.9,8.4-2.2,12.4-3.7c1.3-0.3,3.4-1.8,4.3-0.2
		c0.2,0.4,0.1,0.8-0.1,1.1c-6.4,5.5-14.7,8.9-23.1,10.3C482.9,566.5,481,567.5,479.5,566.3z"/>
	<path d="M484.2,583.5c-0.4-1.6,0.5-3.2,2.1-3.7c4-1.2,8-2.6,11.9-4c4.7-1.6,9.3-3.5,13.7-5.6c2-0.7,5.9-3.9,6.9-0.4
		c0.1,0.9-0.5,1.9-1.4,2.1c-4.3,2.8-8.7,5.2-13.4,7.4c-4.7,2.2-9.5,4.1-14.4,5.7C487.6,585.9,485,586.1,484.2,583.5z"/>
	<path d="M319,560.1c-2.2-0.4-4.8-0.2-6.5-1.8c-0.9-1-0.2-2.5,1-2.9c6.2-0.3,12.5-0.4,18.7-1.5c3.5-0.6,6.9-0.9,10.4-1.3
		c2.7-0.4,4.6,2.9,2.9,5c-1.1,1.4-3,1.3-4.6,1.7C333.7,560.6,326.3,560.7,319,560.1z"/>
	<path d="M330.1,585.8c-3,0.1-23.9-2.8-20.8-7.6c0.6-0.8,1.5-0.6,2.3-0.4c2.6,0.4,5.2,0.7,7.8,0.9c7.3,0.4,14.7,0,21.9-1.3
		c3-0.6,5.2,3.3,3.3,5.7c-0.6,0.8-1.4,1.2-2.3,1.3C338.3,585.2,334.2,585.9,330.1,585.8z"/>
	<path d="M400.9,267.5c-16.8-0.7-33.4-6.4-47.2-16.1c-18.4-14.1-32.7-34.8-36.7-57.9c-3.9-22.1-0.1-45.9,10.8-65.5
		c6.3-10.9,15.6-20.1,25.6-27.6c2.8-2.3,5.2,0.4,2.2,2.7c-5.9,5.8-11.4,11.9-16.2,18.7c-9.1,13.2-11.3,29.4-12.4,45.1
		c-1,15.3,0.8,31.1,7.7,44.9c7.8,15,19.3,28.7,34.6,36.4c22.8,11.8,51.1,10.8,74-0.3c17.7-8.3,30-24.4,38.8-41.4
		c8.8-19,14.1-42.6,13.3-63.5c-0.4-3.9-0.9-7.7-1.6-11.5c0.3,0,0.6,0,0.9,0c1.5,0,3.1-0.3,4.5-1c0,0,0.1,0,0.1,0
		c0.3,0.2,0.7,0.3,1,0.4c2.3,8.9,4.3,17.9,4.6,27.1c0.3,22.5-6.6,45.2-18.9,63.9c-17.1,28.3-46.9,45.6-79.8,45.6
		C404.4,267.6,402.6,267.6,400.9,267.5z"/>
	<path d="M432.5,94.7c-14.2-0.2-20.6-14.5-15.4-26.5c0,0,0,0,0,0c2-3.1,6.9-2.5,8.4,0.7c1.6,3.4,0.4,7.8,2.6,10.9
		c2.5,2.2,6.4,1.3,9.5,1.4c2.4-0.4,4.6-1.8,7-0.7c5.1,1.7,5.4,9.4,0.5,11.6C441.3,93.9,436.9,95,432.5,94.7z"/>
	<path d="M466.3,113.3c-11.8-6.3-30.3-17.5-18.4-32.4c2.6-3.6,9.5-3.8,9.8,1.5c-0.4,2.9-2.7,5.3,0.1,8.2c4.7,3.8,9.6,7.5,15,10.3
		C480.9,105.2,474.4,117.4,466.3,113.3z"/>
	<path d="M478.1,140.5c-7.5-1.4-10.8-10-14.9-15.5c-5.6-7.1-5.8-16.9-0.5-24.2c7.5-13.7,21.6-3.5,13.1,5.2
		c-2.4,4.6,1.1,8.3,3.5,11.9c1.9,2.9,3.9,5.8,6.3,8.4C490.6,131.8,485.5,141.4,478.1,140.5z"/>
	<path d="M482.6,164.9c-7.5-5-6.9-30.8-1-37.2c5-6.7,16.2-18.7,22.8-7.3c4.2,10-7.6,9.7-8.1,17.7c0.4,5.7,0.6,11.4,1.7,17
		C500,163.4,489.4,170,482.6,164.9z"/>
	<path d="M492.6,202.8c-6.3-4.8-6-23.3-4.9-30.8c1.6-6.5,7.7-12.7,14.7-12.3c7.7,0.2,10.4,12,1.8,13.1c-0.8,4.4,0.7,9.1,0.8,13.5
		c0.2,4.8,3.1,10.1-0.1,14.4C502.2,204.5,496.4,205.5,492.6,202.8z"/>
	<path d="M498.1,193.4c-7.3-6.7-17.2-13.7-18.4-24.3c-0.3-6.7,2.3-16.7,9.8-18.1c2.8-0.1,5.3,1.9,5.8,4.6c0.4,3.4-2.7,6.1-1.4,9.6
		c0.3,0.9,0.5,1.9,1.1,2.7c3.9,4.4,7.8,8.7,12.3,12.5C515.7,186.4,506.5,199.3,498.1,193.4z"/>
	<path d="M486.8,220.8c-6-5.3-4.7-14.9-5.2-22.2c-0.6-9.1,3.7-18.3,11.9-22.7c13.3-8.2,20.1,7.9,8.2,10c-6.1,4.8-2.3,13.3-2.3,19.8
		c0.4,4.3,2.7,9.1-0.4,13C496.5,222.6,490.6,223.6,486.8,220.8z"/>
	<path d="M480.1,239.8c-4.3-15.7-7.4-43.3,14.4-46c10.3-1.2,12.1,14.5,1.8,15.7c-0.8,7.6,1.7,15.5,2.8,23c1,2.9,1.1,6.1-0.4,8.8
		C495,249.2,482.4,248.2,480.1,239.8z"/>
	<path d="M509.8,268c-3.5-0.4-6.9-1.5-10.3-2.4c-12.7,3.2-28.1,4.2-38.4-5.4c-3-2.7-5.8-6.3-6.5-10.4c-0.2-2.6,2.7-4.9,5.2-3.8
		c4.4,3,7.9,7.5,13.3,8.8c8.3,1.9,17.7,1.9,25.6-1.4c5.6-0.6,11.2,1.8,16.8,0.3c3.5-1,3.2-5,5.1-7.5c2.7-3.6,7.1-5.2,10.7-7.7
		c5.5-4.8,7.4-12.5,10.8-18.8c2.5-8.2,7.5-15.6,17.2-12.4c11.1,4.6,7.5,15.7,3.1,24c-2.2,4.9-4.5,9.8-7.6,14.2
		c-5.5,7.6-13.9,12.6-23.1,14C525.9,265.3,518.3,269.3,509.8,268z"/>
	<path d="M462.4,68.8c-11.1-3.2-9.7-20.9-24.2-6.1c-12.5,3.8-7.2-19.3,8.9-22.1c10.6-2.6,22.7,3.3,27.5,13
		C478.5,61.4,470.9,71,462.4,68.8z"/>
	<path d="M516.7,131.7c-0.1-5-0.2-10.1-1.1-15c-2.5-2.8-6.9-2.9-10.1-4.7c-6.3-2.7-7.7-9.6-10.5-15c-7.2-4.3-8.8-4.6-13-12.9
		c-7.2,15.6-25.4,2.2-18.9-11.6c10-24.8,41.1-18.4,44.7,6.8c1.6,1.1,3.2,2.3,4.6,3.6c2.8,2.5,5.2,5.6,7,8.9
		c9.8,4.2,18.2,12.2,20.1,23c1.4,7.9,4.6,17.9-1.2,24.7C531.4,147.7,516.6,142.5,516.7,131.7z"/>
	<path d="M531.2,167.9c-0.2-1.2-0.4-2.3-0.6-3.5c-0.6-2.2-1.4-4.4-2.2-6.5c-7.7,1-11.5-9.6-6.2-14.7c8.7-9,23.8-2,26.2,9.3
		c1.1,4.3,1.7,8.7,2.2,13.2C551.5,177.6,533.1,179.7,531.2,167.9z"/>
	<path d="M553,226.6c-3.8-0.9-6.8-5.1-5.6-9c1.5-6.7,4.4-13.7,3.7-20.6c-6.4-2.2-7.3-9.4-7.9-15.3c-8.2,4-13.2-7.8-8.5-13.8
		c3.2-5.8,11-7.7,17-5.8c10.9,3.5,15.7,17.6,11.6,27.8c2.9,5.8,1.8,12.3,1.1,18.5C563.2,215.3,563,228.4,553,226.6z"/>
	<path d="M332,119c-0.1-2.2,1.7-4.3,4-4.3c2.3,0,4.2,1.6,4.3,4c0.1,2.2-1.7,4.3-4,4.3C334.1,123,332.1,121.4,332,119z"/>
	<path d="M335.5,113.9c-5.9-8.1,8.9-13.6,13.5-18.5c9.1-7.9,19.4-14.3,31.1-17.6c12.3-3.8,25.4-6.1,38.2-4.1
		c5.1,0.6,9.9,2.5,14.7,4.3c4.4,0.9,5.6,7.2,1.7,9.5c-5.8,2.4-12.4,0.2-18.6,0.4c-10.7-0.3-21.3,1.4-31.6,3.9
		c-12.4,2.6-23.2,9.2-33.2,16.9C346.6,111.8,341,119.7,335.5,113.9z"/>
	<path d="M324.6,109.8c-2.8-7.2,2.7-21.7,9.7-24.8c6.6-2.4,13.4,5.5,9.8,11.6c-1.8,3.8-4.9,7.8-4.7,12.1
		C349.8,116.1,331.4,129.1,324.6,109.8z"/>
	<path d="M341.2,101.4c-8.4-3.9-8.2-16.1-3.5-22.9c4.5-5.5,12.6-13.1,20.3-11.9c8.2,1.6,10.5,13.7,3.2,17.9c-3.5,2.4-7.7,4.5-10.2,8
		C353.3,98.4,346.7,103.8,341.2,101.4z"/>
	<path d="M328.1,98.6c-0.1-1.5,1.2-3,2.8-3c1.6,0,3,1.1,3,2.8c0.1,1.5-1.2,3-2.8,3C329.5,101.3,328.2,100.2,328.1,98.6z"/>
	<path d="M329.2,98.4c-3.5-1.5-5.4-9.7-5.3-13.2c0.2-4.2,2.3-8.7,6.1-11c4.4-2.5,9.9-5,14.8-2.4c8.2,4.2,6.2,16.7-2.8,18.3
		c-1.9,0.3-3.8,0.7-5.7,0.9c-0.8,1.4-1.2,3.1-1.7,4.6C333.8,97.6,331.4,99.4,329.2,98.4z"/>
	<path d="M340.2,82.4c-9.5-11.8-1.5-28.1,13.8-27.4c13.7-0.7,16.6,19.7,3.2,22.8C357,86.4,344.8,89.7,340.2,82.4z"/>
	<path d="M360.5,68.4c-5.7-14.7,3.9-27.7,19.6-27.4c10.1-0.9,16.2,12.4,9.2,19.6c-3.6,4.8-10.1,2.9-14.6,5.5
		C371.1,69.9,364.4,74.3,360.5,68.4z"/>
	<path d="M388,66.6c-9.8-4.6-6.2-19.7,2.1-24.2c7.7-4.9,20.8-3,25.6,5.1c2.4,4.9,0.2,11.3-4.8,13.5c-4.4,2.4-9-0.7-13.5-0.3
		C395.1,64.2,392.9,68.4,388,66.6z"/>
	<path d="M408.2,61.7c-13-12.8,9.4-32.2,23.1-26.6c24,9,8.7,42.7-2.4,22.8C423.7,64,415,68,408.2,61.7z"/>
	<path d="M501.5,160c-1.9-3.9-3.8-7.9-5.7-11.8c-2.3-1.8-3.9-4.3-5.4-6.8c-3-5.1-5.5-10.4-8.2-15.7c-5.4-9.6-15.9-17-18.2-28
		c-6.5-3.9-13.3-7.1-20.6-9.3c-8.2-2.6-18-2.5-25-7.7c-17.3,2.6-34.4,6.8-50.8,13c-3.4,1-6,3.6-9.6,4c-7.7,1.5-15.2-5.2-14.3-13.1
		c0.3-12.8,28.1-18.8,38.3-23c18.2-4.9,69.6-26.4,77,0.7c8.1,3.7,15.8,9.5,20.3,17.3c5.6,2.1,11.9,5.6,12.3,12.3
		c10.2,1.8,12.8,13.6,18.5,20.7c5,9.2,16.1,18,10.9,29.5C535.1,163.4,510.9,176,501.5,160z"/>
	<path d="M495.6,262.5c-7.9-0.7-16.1-2.1-23.5-4.9c-3.1-2.1-6.3-4.3-8.4-7.5c-2.7-5.7,2.1-12.4,7.1-15c0.3-0.6,0.6-1.2,1-1.8
		c0.6-1.1,1.3-2.1,2.1-3.1c-0.4-3.7,1.6-6.9,3.6-9.9c1.9-5.8,3.9-11.4,5.6-17.3c3.4-11.4,6.5-22.8,9.6-34.2
		c1.9-6.8,3.6-13.9,8.1-19.6c-0.6-11.3-2.5-22.4-4.6-33.4c-1.8-9.4,4.8-18.7,14.1-20.4c19.2-2.3,21.3,15.3,22.8,29.9
		c0.9,7.1,1.8,14.2,2.1,21.4C578.2,179,552.5,268.4,495.6,262.5z"/>
	<path d="M493.1,270.2c-4.8-0.9-10.7-8.4-4.4-11.4c1.7-0.7,3.7,0.3,5.3,0.9c0.3,0.1,0.7,0,1-0.1c3.2-6.1,12.5-4,12.8,2.9
		C507.9,269.7,498.9,272,493.1,270.2z"/>
	<path d="M531.1,266.5c-6.2-2-14.2-12.7-4.6-15.8c4-0.6,7.4,3.1,11.5,2c1.3-11,18.1-9.2,17,1.8C553.9,265.4,540.5,270.6,531.1,266.5
		z"/>
	<path d="M552.5,249.8c-16.5-1.3-16.2-22.2-1-17c-8.1-8.6,4.3-21.3,13.1-13.4C579.3,229,568.8,251.7,552.5,249.8z"/>
	<path d="M556.7,225.7c-7.2-2.8-6.2-10.8-2.2-15.9c-4.5-13.4,15.2-20.4,20-6.9C578.8,212.4,567.3,228.8,556.7,225.7z"/>
	<path d="M553.1,201.1c-4.4-3.1-2.4-8.4,0.5-11.7c-9.7-7.5,1.5-22.5,11.5-15.4c8.7,5.1,8.7,18.3,0.9,24.2
		C562.6,201.1,557.4,204,553.1,201.1z"/>
	<path d="M547.4,174c-0.6-0.9-0.6-2-1.1-2.9c-0.4-0.4-1.1-1.2-1.5-1.6c-5.6-1.1-10.2-5.7-9.6-11.6c1.1-11.7,17.3-11.8,23.6-4.2
		c4.8,5.7,4.6,14.9-1,19.9C555.5,177.4,549.8,178.2,547.4,174z"/>
	<path d="M537.6,155.5c-4.7-1.1-6.1-6.6-3.5-10.4c-8.6-8.5,3.5-21.6,12.7-13.7C557.7,138.9,550.3,157,537.6,155.5z"/>
	<path d="M530.1,136.7c-2.1-3.4-0.3-6.3-0.7-9.7c-2.4-5.2-1.9-11.7,3.3-15c5.7-3.8,13.4-0.8,15.9,5.3
		C554,125.6,538.1,147.4,530.1,136.7z"/>
	<path d="M528,114.7c-1.1-1.3-1.5-2.8-1.3-4.4c0,0,0,0,0,0c0-0.4,0.1-0.8,0.1-1.2c-6-2.5-12-8.3-8.3-15.1c6.4-11,20.6-1.2,22.7,8.1
		C543.6,109.3,535.3,121.8,528,114.7z"/>
	<path d="M513.7,102.9c-4.3-0.2-6.9-5.1-5.5-9c-11.9-6.8-2.1-24.6,10.1-18.5C532.7,81.9,528.1,101.2,513.7,102.9z"/>
	<path d="M473.3,232.9c-12.9-4.3-6.4-32.1,8-25.4c7.5,4.4,4.8,11.6,1,17.5C481.3,229.7,478.7,234.1,473.3,232.9z"/>
	<path d="M482.6,216.3c-3.8-0.2-6.1-3.9-7.1-7.2c-2.4-7.2,0.6-14.7,5-20.5c7.2-9.8,21.9,0.6,15.1,10.6c-2,2.9-4.3,5.7-5.9,8.9
		C488.7,211.8,487.5,216.9,482.6,216.3z"/>
	<path d="M479.9,182c-2.6-6.9-4.1-20.1,5.6-21.6c3.2,0.1,3.7,3.6,3.5,6.1c1,3.8,2.9,7.4,4.1,11.2C496,186.3,482.8,190.6,479.9,182z"
		/>
	<path d="M485,164.6c-6.4-0.6-11.8-11.9-12.5-17.7c-0.8-6.1,5.1-16.4,12-12c1.6,1.1,1.8,3.4,1.1,5.1c-0.1,1.7,0.6,3.4,1.4,4.9
		c2,4.3,6.7,7.7,6.4,12.7C493,161.8,489,165.1,485,164.6z"/>
	<path d="M475,144.5c-14.5-8-28-21.1-14.4-37c3.7-4,9.9,1.5,6.5,5.6c-0.8,2.9-0.6,6.7,2.1,8.6c4.3,3,8.6,6.3,13.2,8.9
		C491.3,135.5,484.1,149.2,475,144.5z"/>
	<path d="M464.4,113.4c-45.9-4.8-18.7-44-11.9-21.9c6.5,2.3,14.9,1.2,20.1,6.2C478.1,103.7,472.6,114.6,464.4,113.4z"/>
	<path d="M433.9,95.6c-40.6,1.5-25.9-31.2-14.7-18c6.6,0.6,14.7-1.8,20.4,2.5C445.4,85,441.7,95.7,433.9,95.6z"/>
	<path d="M347.3,152.2c-1.7-0.2-3.2-1.5-3.2-3.2c-0.1-3.4,3-6,5.4-8c7.1-5,21.1-8,27.6-0.8c3.4,4.6-1.3,11.6-6.9,10.2
		c-2.2-0.5-4.4-1.4-6.7-1.4c-3,0.1-6.1,0.5-9,1.2C352.1,150.8,349.9,152.3,347.3,152.2z"/>
	<path d="M431,154.4c-4.7-1.8-9.6-3.6-14.8-2.8c-3.3,0.4-6.3,2.4-9.6,2.3c-1.7-0.2-3.2-1.7-3-3.5c1.2-5.4,8.2-10,13.4-11
		c6.5-1.4,13.4-0.2,19.4,2.4C443.8,145.8,439.1,157,431,154.4z"/>
	<path d="M397.9,208.5c-9.7,0-19.5-1.9-27.9-6.8c-2.8-1.7-6.1-3.3-7.5-6.4c-0.7-1.9,0.3-3.8,1.9-4.7c1.9-1.1,4.4-0.7,6.4-0.4
		c5.5,1,10.7,3,16.2,3.8c9.4,1,19,0.6,28.1-1.6c9.1-2.2,16.6-8,23.8-13.7c6.9-5.7,15.6,4.2,9,10.3c-3.5,2.8-6.8,5.9-10.3,8.6
		C426.2,205.9,411.7,208.7,397.9,208.5z"/>
</g>
</svg>
