<?xml version="1.0" encoding="utf-8"?>
<!-- Generator: Adobe Illustrator 27.0.0, SVG Export Plug-In . SVG Version: 6.00 Build 0)  -->
<svg version="1.1" id="Layer_1" xmlns="http://www.w3.org/2000/svg" xmlns:xlink="http://www.w3.org/1999/xlink" x="0px" y="0px"
	 viewBox="0 0 800 1200" style="enable-background:new 0 0 800 1200;" xml:space="preserve">
<style type="text/css">
	.st0{fill:#EEEC46;}
</style>
<path d="M247.2,909.2c-24.5-0.8-48.1-8.1-71.8-13.6c-2.5-0.6-4.9-1.3-7.3-2c0-1,0-1.9,0-2.9c-0.1-2.6-0.3-5.1-0.7-7.7
	c0.3-3.1,0.5-6.3,0.7-8.8c1.6-28.3,2.3-56.6,3.4-84.9c1.5-47.3,2.7-94.7,9.2-141.7c3.7-24.8,9.3-49.3,13.9-74
	c1.5-7.4,3.1-14.7,4.6-22.1c0.1-0.6,0.4-1.5,1.2-1.3c2.6-0.2-1.2,16-1.2,18.3c-0.4,3-0.9,5.9-1.3,8.9c1.5-1.2,3-2.3,3.7-2.7
	c26.1-16.5,84.8-20.7,116.5-23.3c31.9-2.2,64.3-0.2,95.5,7.3c8.8,2.3,17.6,4.8,26.2,7.8c0.3,0.1,0.6,0.2,1,0.3c1.7-2,5.2-2,7.4,1.1
	c0.8,1.3,1.5,2.7,2.1,4.2c-0.5-3.3-1.1-6.7-1.7-10c-0.2-2-1.2-4-0.8-6c0.3-0.8,1-1.4,1.9-1.3c3-0.1,5.8,18.9,6.6,22.1
	c11.9,68.9,33.7,135.7,56.2,201.7c7.1,20.5,15.4,41.1,25.2,60.3c4.4,8.8,8.8,17.5,13.2,26.2c-1.6-0.1-3.3,0-4.9,0.5
	c-1,0-1.9,0-2.9,0.1c-2.3,0.1-4.6,0.2-6.9,0.4c-0.8,0-1.6,0.1-2.5,0.2c-0.9-0.1-1.8-0.1-2.7-0.2c-9.1-0.6-18.9-0.8-27.9-0.3
	c-29,1.4-57,9.4-84.5,18.3c-31.4,10.2-63.8,17.1-96.5,20.9c-21.3,2.4-42.7,4.3-64.1,4.3C254.2,909.3,250.7,909.3,247.2,909.2z
	 M409.9,862C409.9,862,410,862,409.9,862C410,862,410,862,409.9,862c-0.3-6.5-0.7-13.1-1.3-19.6c-0.3-3.2-0.7-6.4-1.1-9.5
	c-0.1-1.2-0.4-2.4-0.6-3.6c-0.3-1.8-0.6-3.7-0.9-5.5c-0.4-2.5-1.1-5-1.7-7.5c-0.5-2.3-1.2-4.6-1.9-6.9c-1.4-4.7-2.9-9.4-4.9-13.9
	c-1.1-2.4-2.1-4.8-3.3-7.1c-0.8-1.5-1.6-3-2.4-4.4c-0.5-0.8-1-1.6-1.5-2.4c-1.6-2.4-3.1-4.7-4.8-6.9c-1.4-1.9-2.8-3.8-4.2-5.7
	c-0.5-0.7-0.9-1.4-1.4-2.1c-0.4-0.7-0.9-1.3-1.3-2c-0.8-1.5-1.7-3.1-2.5-4.6c-0.4-0.9-0.8-1.8-1.2-2.6c-0.4-0.8-0.8-1.6-1.1-2.4
	c-0.7-1.8-1.4-3.6-2.1-5.4c-0.3-1.1-0.7-2.2-1-3.2c-0.3-0.8-0.6-1.7-0.8-2.5c-0.5-2-0.9-4-1.4-6c-0.4-2.4-0.9-4.9-1.2-7.4
	c-0.3-2.9-0.7-5.7-1-8.6c-0.6-5.3-1.1-10.6-1.7-15.8c0,0,0,0,0,0c-0.2,5.3-0.3,10.6-0.3,16c0,2.9,0,5.7,0.1,8.6c0,2.5,0.3,5,0.5,7.6
	c0.1,1.2,0.3,2.4,0.5,3.6c0.1,1,0.2,2.1,0.4,3.1c0.5,2.7,1,5.3,1.7,7.9c0.4,1.4,0.7,2.9,1.2,4.3c0.5,1.3,0.9,2.5,1.4,3.8
	c0.8,2.3,1.8,4.5,2.8,6.7c0.6,1.4,1.4,2.7,2.1,4c0.5,0.9,0.9,1.7,1.4,2.5c1.5,2.4,3,4.8,4.5,7.1c1.4,2.1,2.6,4.2,4,6.3
	c0.7,1,1.2,2.2,1.8,3.2c0.6,1,1.1,2,1.7,3c0.6,1.1,1.1,2.3,1.7,3.4c0.6,1.1,1.2,2.2,1.7,3.3c1.1,2.5,2.2,5.1,3.3,7.6
	c1.2,3.2,2.5,6.3,3.6,9.5c0.8,2.3,1.5,4.5,2.3,6.8c0.6,1.6,0.9,3.2,1.4,4.8c0,0,0,0,0,0c0,0.1,0.1,0.2,0.1,0.3c0,0,0,0,0,0
	c0.4,1.5,0.9,2.9,1.3,4.4c0.6,2.4,1.2,4.8,1.8,7.2c0.8,3.2,1.5,6.5,2.2,9.8c0,0,0-0.1,0-0.1C408.4,854.7,409.2,858.3,409.9,862z
	 M362.4,807c0.3,1.2,0.6,2.5,0.8,3.7c0.4,2.6,0.7,5.2,1.2,7.8c0.1,1.5,0.3,2.9,0.5,4.4c0.1,1.3,0.4,2.7,0.4,4
	c0.1,2.7,0.3,5.4,0.4,8.1c0,2.3,0,4.5,0,6.8c0,2-0.1,3.9-0.2,5.9c-0.1,4-0.4,7.9-0.6,11.9c0,0,0,0,0,0c0,0,0,0,0,0
	c1-4.8,1.8-9.7,2.6-14.5c0.4-2.3,0.6-4.6,0.8-7c0.1-1,0.3-2.1,0.3-3.1c0-1.1,0.1-2.1,0.1-3.2c0.1-2.3,0.1-4.5,0-6.8
	c-0.1-1.8-0.2-3.5-0.3-5.3c0-0.7-0.1-1.3-0.2-2c-0.2-1.6-0.4-3.1-0.7-4.7c-0.2-1-0.3-2.1-0.5-3.2c-0.6-2.5-1.3-5.1-1.9-7.6
	c-0.2-0.9-0.6-1.8-0.9-2.8c-0.5-1.5-1-2.9-1.5-4.4c-0.8-2.2-1.8-4.4-2.7-6.5c-2-4.7-4.3-9.4-6.6-14c0,0,0,0,0,0c1.9,7,4.1,14,6.2,21
	c0-0.1,0-0.1,0-0.2c0.6,2.5,1.3,5,2,7.4c0,0,0,0,0,0C361.8,804.2,362.1,805.6,362.4,807z"/>
<path d="M402.5,829.5C402.5,829.5,402.5,829.5,402.5,829.5C402.5,829.5,402.5,829.5,402.5,829.5z"/>
<path class="st0" d="M400.3,283.3c0.1,0,0.2,0,0.3,0.1C400.5,283.4,400.4,283.4,400.3,283.3z"/>
<path class="st0" d="M400.2,283.3C400.2,283.3,400.3,283.3,400.2,283.3C400.3,283.3,400.2,283.3,400.2,283.3z"/>
<path class="st0" d="M335.3,377C335.3,377,335.3,377,335.3,377C335.3,377,335.3,377,335.3,377z"/>
<path class="st0" d="M192.1,561.4c0.3-9.5,0-19,0.4-28.4c0.8-9.5,0.8-19.1,1.2-28.6c0.1-9.4,0.1-18.8,0.3-28.1
	c-7.2,3.3-14.8,5.9-22.7,6.8c-8.9,1.4-17.9,3.2-27,3.2c-1.8,0-3.5-0.1-5.3-0.2c-4.3-0.4-8.5-1.3-12.7-2.5
	c-10.9-1.9-21.5-5.2-30.6-11c0,0,0,0,0,0c-2.6-1.5-5.1-3.2-7.4-5.3c0,0,0,0,0,0c-1.5-1.1-3-2.4-4.3-3.7c-3.1-3.3-5.9-7-8-11
	c-6.1-12.4-4.4-27.6-0.8-40.6c4.1-12.7,11.4-24.1,18.3-35.4c5-7.5,9.2-15.5,14.6-22.6c9.9-12.5,19.8-25.4,31.2-36.3
	c9.5-8.4,18.9-16.9,29.8-23.5c10.6-7.9,22.2-14.1,34.1-19.6c8.1-4,16.3-8,24.9-10.7c4.1-1.1,8.2-2.1,12.4-2.9c3-0.6,6.1-1.1,9.2-1.6
	c6.6-0.9,13.1-2.2,19.6-3.1c1.5,1.2,3.1,2.4,4.7,3.4c2.3,1.5,4.6,3,7,4.4c2.5,1.5,5.1,3,7.6,4.3c2.5,1.3,5,2.7,7.7,3.8
	c2.8,1.2,5.6,2.2,8.5,3.1c2.9,0.8,5.8,1.4,8.8,1.8c3,0.4,6.1,0.5,9.1,0.7c2.7,0.1,5.5,0.2,8.3,0.2c0.8,0,1.6,0,2.5,0
	c1.9,0,3.9,0,5.8-0.1c1.6-0.1,3.1-0.2,4.6-0.4c1.6-0.2,3.1-0.5,4.7-0.8c2.9-0.6,5.8-1.6,8.6-2.5c2.6-0.8,5.2-1.6,7.7-2.6
	c1.5-0.6,3-1.3,4.5-1.9c1.3-0.6,2.6-1.3,3.9-1.9c2.6-1.3,5.3-2.6,7.8-4.1c0.4-0.2,0.7-0.4,1.1-0.6c1.9,0.4,3.8,0.8,5.7,1.2
	c15.8,3.6,31.6,7.8,46.7,13.9c23.9,8.7,46.3,21.4,67.2,35.8c27.6,19.9,55.8,51.4,65.2,84.6c6.2,26.6,0,49.8-23.3,65.6
	c-5.3,3.7-9.9,8.3-15.3,11.8c-13.8,8.9-29.9,14.8-46.5,14.8c-1.6,0-3.2-0.1-4.8-0.2c-9.1-1-18.3-1.9-27.4-3.3
	c-0.1,7.8,0,15.7,0.4,23.5c0.6,14.1,1.3,28.1,3,42.1c0.3,2.7,0.7,5.4,1,8c0.8,3.2,1,6.6,1.5,9.9c0.3,0.6,0.3,1.3,0.1,2
	c0.1,0.5,0.1,1.1,0,1.6c0,0.1,0,0.2,0,0.3c0,0.5-0.2,1.1-0.4,1.5c-2.1-0.4-4.2-0.7-6.3-1c-2.3-0.3-4.6-0.6-6.9-0.8
	c-0.4,0-0.8-0.1-1.2-0.1c-0.2,0-0.3-0.1-0.5-0.1c-1.2-0.3-2.3-0.5-3.5-0.7c-1.5-0.3-3.1-0.7-4.7-0.7c-0.3,0-0.6,0-0.9,0.1
	c-5.3-1.1-10.6-2.2-15.9-3.1c-3.5-0.6-6.9-1.1-10.4-1.6c-3.4-0.5-6.8-1.1-10.2-1.5c-3.5-0.5-7-0.9-10.6-1.4
	c-3.3-0.4-6.6-0.7-9.9-1.1c0,0,0,0,0,0c-2.6-0.3-5.1-0.6-7.7-0.8c-2.3-0.2-4.7-0.3-7-0.5c-4.4-0.2-8.8-0.5-13.1-0.6
	c-7-0.3-14.1-0.6-21.1-0.6c0.2,0,0.4,0,0.6,0c-4.3,0-8.6,0.2-12.9,0.4c-3.9,0.1-7.9,0.2-11.8,0.4c-4.1,0.2-8.1,0.5-12.2,0.9
	c-7.2,0.7-14.5,1.2-21.7,2.2c0.2,0,0.4-0.1,0.6-0.1c-0.9,0.1-1.8,0.2-2.6,0.3c0,0,0.1,0,0.1,0c-0.1,0-0.1,0-0.2,0c0,0,0.1,0,0.1,0
	c-0.1,0-0.2,0-0.4,0c0,0,0,0,0,0c-0.1,0-0.1,0-0.2,0c0,0,0.1,0,0.1,0c-4.7,0.6-9.5,1.2-14.2,1.7c-3.4,0.4-6.8,0.7-10.2,1.2
	c-3.6,0.5-7.2,1.2-10.8,1.7c-3.5,0.5-6.9,1-10.4,1.7c-3.5,0.7-6.9,1.6-10.2,2.5c0.1,0,0.2-0.1,0.4-0.1c-2,0.5-4,1.1-6.1,1.6
	c-3.9,0.6-7.7,1.3-11.5,2.1C192,572.5,192,566.9,192.1,561.4z M383.9,362.4c12.6,8.1,21.9,25,14.8,39.6c-5,11.9-12.7,23.2-24,29.7
	c-1,0.7-2.1,1.3-3.2,1.9c-1.1,0.3-2.2,0.6-3.3,0.9c-1.4,0.4-2.9,0.9-4.3,1.4c-1.4,0.5-2.7,1-4.1,1.6c-2.7,1.3-5.3,2.8-7.6,4.8
	c-2.4,2.1-4.4,4.6-6.4,7.1c-1,1.4-2.1,2.8-2.8,4.3c-0.7,1.4-1.2,2.8-1.7,4.2c-0.7,1.8-1.6,3.5-2.2,5.4c-0.4,1.4-0.6,2.9-0.4,4.4
	c0.1,0.8,0.3,1.6,0.6,2.3c0.8,1.7,2.2,2.9,4,3.4c0.6,0.1,1.2,0.2,1.7,0.2c3.2,0,5.9-2.2,8.3-4.2c0.9-0.4,1.8-0.9,2.7-1.4
	c3.5-2,7.1-3.9,10.6-5.8c5-1.9,10-4.2,15.1-5.8c5.9-1.9,12-3.5,18.1-4.8c6.2-1.3,12.6-0.9,18.9-0.2c9,0.6,17.8,4.8,23.3,11.8
	c1.3-1.3,2.6-2.6,3.8-4c5.5-6.5,10.2-13.6,13.5-21.5c2.5-7.2,5.1-14.3,7.9-21.4c1.4-3.9,2-7.9,2.6-12c-17.8-3.9-19.8-22.1-27-36.5
	c-11.9-23.9-27.2-35.3-53.2-41c-3.5-0.7-7.1-0.9-10.7-1.2c-0.6-0.1-1.1-0.2-1.6-0.5c-1.5,0.4-2.9,0.7-4.4,1.1
	c-2.1,0.5-4.2,1.2-6.3,1.9c-3.7,2.2-7,5-10.4,7.7c-3.9,3-7.9,6-11.4,9.4c-3,3.1-8.7,9.1-10.2,13.7c0.1,1.2,0.1,2.5,0.1,3.7
	c0.8,1.5,2.7,2.5,6.3,2.7c3.3-2.3,6.8-4.3,10.6-5.7c3.3-1.3,7.2-1.8,11.1-1.8C370.4,357.6,378.1,359.5,383.9,362.4z M321.7,471.8
	c0.3,0,0.6,0,0.9,0c0.4,0,0.9,0,1.3-0.2c1.5-0.4,2.8-1.5,3.4-3c0.6-1.4,0.4-2.9-0.1-4.2c0-0.4-0.1-0.9-0.1-1.3
	c-0.3-2-1.3-3.8-2.3-5.5c-2.1-3.5-4.8-6.5-7.7-9.3c0,0,0.1,0.1,0.1,0.1c-2-2-4.1-4-6.3-5.7c-2-1.6-4.1-3.2-6.3-4.6
	c-1-0.7-2.1-1.4-3.2-2.1c-1.1-0.7-2.2-1.3-3.3-1.9c-1.1-0.7-2.2-1.4-3.3-2.1c-1.2-0.7-2.3-1.5-3.5-2.2c0,0,0,0,0,0
	c0,0-0.1,0-0.1-0.1c-2.1-1.3-4-2.8-6-4.2c-0.6-0.4-1.2-0.8-1.8-1.2c-8.2-7.1-15.7-14.9-19.4-25.3c-2.2-7.6-0.1-15.7,2.5-23
	c5.3-14.8,21.6-20.5,36.1-16.5c6.6,1.4,13.3,3.7,18.2,8.6c0.7,0.7,3.3,3.3,4.8,5.5c0.1-0.1,0.2-0.2,0.4-0.3c2.1-2.7,1.7-6.6,1.6-10
	c-0.6-1.6-0.9-3.4-0.8-5.2c-1.9-8-6.5-15.3-12.6-20.8c-9.2-8.8-23.5-10.5-35.3-6.8c-5.7,1.5-10.7,4.7-15.5,8
	c-20.5,13.3-36.8,33.6-60.2,42c-0.1,0-0.2,0.1-0.2,0.1c-2.3,0.8-4.6,1.6-6.9,2.3h0c-1.1,1-2.9,1.4-4.1,2.2c-3.3,1.7-6.7,3-10.1,4.5
	c0.1,0.7,0.1,1.3,0.2,2c1.4,17.2,2.8,34.4,6,51.3c1.2,5.9,2.7,11.9,4.6,17.6c0.5-0.2,1-0.5,1.5-0.8c0.1-0.1,0.3-0.1,0.4-0.2
	c0,0,0,0,0,0c0.3-0.1,0.7-0.4,1-0.5c0.7-0.4,1.3-0.9,1.9-1.4c1.2-0.9,2.3-2,3.5-2.9c0.2-0.2,0.5-0.4,0.7-0.6c2-1.5,4.1-2.9,6.2-4.3
	c3.3-2.2,6.5-4.4,9.8-6.6c0.9-0.5,1.8-0.9,2.7-1.4c-0.1,0-0.1,0.1-0.2,0.1c0,0,0,0,0,0c0.1,0,0.1-0.1,0.2-0.1c0,0-0.1,0-0.1,0
	c0.1,0,0.1-0.1,0.2-0.1c0,0,0,0,0,0c0,0-0.1,0-0.1,0c0,0,0.1,0,0.1,0c0,0,0.1,0,0.1,0c0,0,0.1,0,0.1,0c0,0,0,0,0,0
	c0.2-0.1,0.4-0.2,0.6-0.3c1.1-0.5,2.1-0.9,3.2-1.3c1.1-0.4,2.1-0.6,3.2-1c-0.1,0-0.3,0.1-0.4,0.1c0.4-0.1,0.9-0.2,1.3-0.4
	c0.4-0.1,0.7-0.2,1.1-0.3c1.8-0.5,3.7-0.8,5.5-1.1c2-0.3,4-0.6,6-0.7c-0.2,0-0.3,0-0.5,0c0.4,0,0.7,0,1.1-0.1c3.1-0.1,6.2,0,9.4,0.4
	c0.2,0,0.5,0.1,0.7,0.1c0.6,0.1,1.1,0.2,1.7,0.3c5.4,2.6,10.8,5.2,15.8,8.5c8,4.7,16.1,9.4,24.2,13.9c3.3,2,6.3,4.4,10,5.7
	c0.9,0.3,1.9,0.6,2.8,0.8c0.7,0.6,1.5,1,2.4,1.4c1,0.4,2.1,0.6,3.1,0.6c1.2,0.8,2.5,1.6,3.9,1.9c0.8,0.2,1.7,0.3,2.5,0.3
	C319.6,471.3,320.6,471.7,321.7,471.8z M333.4,371.8c0.7-0.8,1.4-1.5,2.1-2.2c-0.4,0-0.7-0.1-1-0.2c-0.2,0-0.3-0.1-0.5-0.1
	C333.9,370.2,333.7,371,333.4,371.8z"/>
<path class="st0" d="M265,565.5C265,565.5,265,565.5,265,565.5C265,565.5,265,565.5,265,565.5z"/>
<path class="st0" d="M291.3,429.6C291.3,429.6,291.4,429.7,291.3,429.6C291.4,429.7,291.4,429.7,291.3,429.6
	c0.1,0.1,0.1,0.1,0.1,0.1C291.4,429.7,291.4,429.7,291.3,429.6z"/>
<path class="st0" d="M220.3,441.9C220.2,441.9,220.2,441.9,220.3,441.9L220.3,441.9c-0.1,0-0.1,0-0.1,0.1
	C220.2,441.9,220.2,441.9,220.3,441.9z"/>
<path class="st0" d="M321.3,374.8c-2.3-0.6-5.9-1.8-6.5-4.4c-1-1.2-0.4-3.8,1.4-3.8c1.2-0.8,2.8-0.9,4-0.2c1.4,0.5,3.1,1.2,4.6,0.5
	c2.4-1.2,6.5-5,8-1c-0.1-0.2-0.1-0.3-0.2-0.4C335.2,371.8,326.6,377.1,321.3,374.8z"/>
<path class="st0" d="M320.7,373c-2.5-0.4-5.3-0.7-7.2-2.3c-2.1-1.9-0.5-5.6,2.3-5.6c5,0.9,5.6,2.1,9.5-2.2c1.2-1.7,1-3.4,0.7-5.4
	c-0.2-1.9-0.2-3.9-0.6-5.7c-0.6-3.7,4.8-5.2,6.2-1.7c1.1,2.3,1.1,4.9,1.5,7.5c0.5,2.5,0.5,5.1-0.3,7.6
	C331.3,369.5,325.3,373.7,320.7,373z"/>
<path class="st0" d="M335.2,376.2c-4.7,0-6-6.6-1.7-8.4c2.3-1,5,0.4,6.3,2.4C341.6,373.4,338.6,376.7,335.2,376.2z"/>
<path class="st0" d="M345,342.7c-5.9-1.4,7.2-10.8,9.1-12.1c6.3-3.7,12.8-7.5,19.9-9.3c12.6-2.9,26.3-2.3,37.7,3.8
	c1.5,0.8,2,2.7,1.4,4.2c-1.9,3.9-6.6,1-9.6,0.3c-5.7-2.3-11.8-2.8-17.9-2.3c-7.8,0.3-15.2,2.5-22.3,5.7c-4.4,1.8-8.8,3.5-12.7,6.1
	C348.8,340.2,347.2,342.2,345,342.7z"/>
<path class="st0" d="M497.3,329c-13.2-10.8-28.3-19-42.8-27.8c-12.6-8.6-26.5-15-40.4-21.2c-13.2-5.1-26.8-9.4-40.6-12.7
	c2.6-1.3,5.1-2.6,7.6-4c2.5-1.4,4.9-2.9,7.2-4.6c0.9-0.7,1.8-1.4,2.7-2.2c18.6,5.3,36.6,12.5,53.6,21.6c7.9,3.7,14.9,8.8,22.3,13.4
	c7.5,4.6,14.9,9.2,22,14.2c6,4.1,11.8,8.6,16.1,14.5c0.8,1,1.3,2.1,1.4,3.4c0.4,3.5-2.8,6.3-6,6.3
	C499.4,330.1,498.3,329.8,497.3,329z"/>
<path class="st0" d="M198.4,288.8c-1.8-0.3-2.7-2.5-1.6-4c0.9-1.3,2.2-2.3,3.4-3.2c-0.4-3.8,2.6-6.3,5.8-7.7
	c6.6-4,13.8-6.6,21.2-8.6c5.9-1.6,11.4-4.5,17.5-5.9c7.4-1.7,14.8-3.8,22.2-5.5c0.2,0.2,0.5,0.5,0.7,0.7c1.9,1.9,4.1,3.4,6.3,4.9
	c2.3,1.5,4.6,3,7,4.4c0.9,0.6,1.8,1.1,2.8,1.6c-9.2,1.8-18.5,3.7-27.5,6.2c-5.3,1.2-10.6,2.3-15.6,4.3c-9.4,3.7-19,6.9-28.4,10.6
	c-2.4,1.6-5.7,2.2-8.4,0.8c-1.6,0.6-3.2,1.4-4.9,1.4C198.8,288.9,198.6,288.8,198.4,288.8z"/>
<path d="M261.1,394.2c-0.8-2.9-1.5-6.1-1.1-9.2c0.4-3,2.1-5.5,3.1-8.4c0.9-3.6,3.1-7,5.7-9.4c5.4-6.1,13-10.5,21.2-11.2
	c5.5-0.6,11.2-0.3,16.4,1.9c2.8,1.4,5.6,2.5,8.5,3.4c2.6,0.8,5.2,2.9,8,2c1.4-0.2,1.7-1.3,1.6-2.6c-0.4-4.2-2.9-7.9-4.8-11.5
	c-2.8-4.7-6.2-9-10.3-12.7c-6-6-15.2-7.4-23.1-5.6c-6.9,1.4-13.7,3.8-19.2,8.2c-4.1,2.9-8.1,6.2-11.8,9.6c-3.9,4.5-7.8,9-12.6,12.5
	c-14.3,10.3-30.2,18.3-46.7,24.7c-3.9,1.5-7.9,2.7-12,3.9c-0.6,0.2-1.3-0.1-1.4-0.7c-0.4-1.5,3.3-2.2,4.3-2.8
	c7.1-2.9,13.9-6.5,20.6-10.2c7.7-4.3,15.6-8.4,22.8-13.5c6.4-3.7,12.5-8,17.1-13.8c9.3-10.9,22.2-18.9,36.3-21.7
	c11.6-2.7,23.5,0,31.8,8.8c6.4,6.3,23.8,32.1,4.9,32c-3.8-0.8-7.3-2.6-11-3.7c-2.5-1-4.7-2.3-7.3-2.9c-8.3-1.9-17.3-0.5-24.3,4.4
	c-3.1,2-5.5,5-7.9,7.7c0,0,0,0.1-0.1,0.1c-0.5,0.2-0.9,0.5-1.2,0.8c-1.1,1.3-2.2,2.6-2.9,4.1c-0.6,1.4-0.8,2.8-1.1,4.3
	c-0.3,1.6-0.6,3.1-0.5,4.7c0.1,1.4,0.3,2.7,0.5,4.1c0.2,0.9,0.4,1.8,0.6,2.7c0.1,0.4,0.1,0.7,0.2,1c-0.2,0.1-0.4,0.2-0.6,0.3
	c-0.3,0.1-0.6,0.2-0.9,0.2C262.5,395.9,261.4,395.2,261.1,394.2z"/>
<path d="M316.2,474.3c-5.9-1.4-12.2-5-17.9-7.2c-7.9-3.4-14.9-8.6-22.3-12.9c-14.6-9-26.9-18.4-44.7-11.2
	c-11.8,4-23.5,8.9-32.5,17.8c-0.8,0.7-2,0.7-2.7-0.1c-0.7-0.8-0.6-1.9,0.1-2.7c3.1-3.3,6.1-6,9.6-8.6c4.1-2.9,8.7-5.2,13.4-7.1
	c7.8-3.6,16.1-7.2,24.9-6.9c6.5,0.3,12.9,1.8,18.7,4.6c3.8,2,7.5,4.2,11.2,6.3c12.2,7.3,23.8,15.9,37.4,20.4c1.9,0.6,3.6,1.8,5.6,2
	c3.2,0.4,6.9-0.6,5.9-4.6c-2.8-8.1-8.9-14.6-15.5-19.8c-4.8-4.3-10-8-15.5-11.4c-5.4-2.6-10.2-6.4-14.9-10
	c-5.8-5.9-12.1-12.1-14.2-20.3c-0.5-2.3-2.8-9.9-0.1-10.8c0.5-0.1,1.2,0.2,1.6,0.6c0.1,0.7,0.3,1.4,0.5,2c0,0,0,0,0,0
	c0,0.1,0.1,0.2,0.1,0.4c0.1,0.3,0.1,0.7,0.2,1c0.2,0.9,0.3,1.8,0.9,2.5c0.1,0.2,0.1,0.3,0.3,0.4c2.3,5.8,5.9,11.1,10.4,15.4
	c2.7,3,5.5,5.7,8.9,7.8c3.1,2.5,6.3,4.5,9.7,6.3c4.7,3.3,9.4,6.6,13.7,10.4c7.7,5.9,14.6,12.9,18.4,21.9c3.8,7.9-1.2,13.9-8.8,13.9
	C317.8,474.5,317,474.4,316.2,474.3z"/>
<path d="M264.3,380.8c-3.6-1.1-0.2-5.8,0.8-7.9c1-1.4,1.9-4.3,4.1-3.7c2.7,1-1.6,6.1-2,8.1C266.7,378.7,266.4,381.1,264.3,380.8z"/>
<path d="M267,410.6c-9.2-12.2-11.6-32,1.6-42.2c0.7-0.7,2.2-1,2.4,0.2c0,0.3-0.1,0.6-0.4,0.8c-0.5,0.8-0.9,1.7-1.2,2.6
	c-2.7,7.5-4.6,15.3-2.7,23.2c1.4,4.4,3,8.6,5.1,12.7C273.1,410.8,268.9,413.2,267,410.6z"/>
<path d="M264.8,381.2c-0.8-1,0.1-2.6,0.4-3.6c1-2.7,2.2-5.4,3.8-7.8c0.4-0.6,1.1-0.7,1.7-0.4c1.7,1.2-1.1,3.4-1.5,4.8
	c-0.9,1.8-1.9,3.8-2.4,5.7c0,0.1-0.1,0.3,0,0.4C266.8,381.3,265.5,382,264.8,381.2z"/>
<path d="M468.7,404.9c-7.8-1.9-14.1-7.5-17.7-14.6c-5.8-9.5-8.8-20.4-15.2-29.4c-4-6.6-9.1-12.3-15.1-17.2
	c-3.2-3.2-6.8-5.7-10.7-7.9c-2.6-1.6-5-3.3-7.8-4.4c-7.2-2.1-14.9-2.1-22.1-0.2c-4.8,0.7-9.1,2.9-13.5,5c-4.6,1.8-9.7,4.2-13.7,6.8
	c-3.7,2.7-8.3,4.5-11.4,8c-1.8,3.1-3.8,6.1-3.7,9.8c5.2,1,10.4-1.8,15.2-3.4c7.4-2.4,15.8-3.4,23.3-1.1c2.1,0.7,4,1.8,5.9,2.8
	c0.9,0.5,1.2,1.7,0.8,2.6c-0.5,1-1.7,1.5-2.7,1c-3-1.7-6.2-3.1-9.7-3.3c-5-0.3-10.1,0.2-14.9,1.7c-5.6,2-11.3,4.4-17.4,4.2
	c-9.6-1.3-3.5-13.5-0.1-18.2c2.2-2.7,5.4-4.3,8.4-6.1c6.3-4.3,13-7.7,20.1-10.4c11.4-5.8,28.5-8.4,40.4-2.8c4.4,2.6,9.1,4.9,13.2,8
	c3,2.5,6.2,5.6,9.1,8c5.4,5.1,9.2,11.7,13.2,17.7c4.4,7.5,6.8,15.9,10.8,23.5c2.2,4.9,4.7,9.8,8.7,13.5c2,2,4.7,3.2,7.2,4.3
	c0.6,0.3,1.4,0.7,1.1,1.5C470,405.1,469,405.4,468.7,404.9z"/>
<path d="M400.6,400.2c-1.2-0.2-2-1.3-1.8-2.5c2.6-14.2-8.2-26.7-19-34.5c-1.1-0.8-2.3-1.5-3.5-2.3c-1.1-0.8-0.8-2.6,0.6-2.9
	c1.2-0.2,2.3,0.6,3.4,1.1c2.8,1.4,5.4,3.2,7.8,5.2c8.6,6.3,15,16.5,15.6,27.3C403.6,393.9,404.2,400.6,400.6,400.2z"/>
<path d="M343.3,475.1c-8.2-1.3-6.2-10.6-4.3-16.3c2.1-4.1,3.8-8.4,6.3-12.2c4.4-6.3,11.2-10.3,17.8-14c6.2-2.9,12.8-5.1,17.9-9.8
	c7.9-7.4,13-17.2,18.3-26.5c0.3-0.8,0.5-1.7,0.7-2.6c0.2-0.8,0.2-2,1.1-2.3c0.8-0.4,1.7,0.4,1.7,1.3c0.3,5.6-1.5,10.4-3.9,15.3
	c-2,4.5-5.1,8.5-8.3,12.1c-3.7,4.8-8.4,8.9-13.9,11.7c-3.3,1.9-6.9,3.4-10.3,5c-5.4,2.9-10.5,6.4-14.9,10.7
	c-3.2,3.6-4.8,8.3-7.2,12.4c-5.6,15.7,4.1,9,12.6,4.8c7.5-3.4,14.7-7.6,22.7-10c2.5-1,4.1,2.8,1.6,3.8c-7.4,2.4-13.9,6.5-20.6,10.2
	C355.2,471.3,349.8,476.2,343.3,475.1z"/>
<path d="M440.8,463.1c-4.2-2.6-8.7-4.7-13.3-6.5c-5.2-1.4-10.6-1.5-15.9-1.9c-9.1-0.2-18.3-0.3-27,2.8c-2.1,0.5-5.6,2.7-6.8-0.3
	c-0.4-1.2,0.3-2.4,1.5-2.8c13.8-5.2,29.1-6.4,43.6-4.3c6.2,0.6,11.1,4.3,16,7.8c1.5,1.1,3.3,2.1,4.3,3.6
	C444.6,463,441.9,464.9,440.8,463.1z"/>
<path d="M182.5,390.3c-0.4-0.4-0.7-0.9-0.7-1.4c-0.1-1.1,0.8-2.3,2-2.3c0.6,0,1.1,0.1,1.5,0.5c0.4,0.4,0.7,0.9,0.7,1.4
	c0.1,1.1-0.8,2.3-2,2.3C183.5,390.8,182.9,390.7,182.5,390.3z"/>
<path d="M315,474.9c-4.4-0.4-8.5-2.1-12.5-3.8c-14-5.9-26.1-14.6-38.8-22.6c-12.8-8.2-29.5-5.7-42.2,1.3c-4.5,2.5-8.6,5.7-12.8,8.7
	c-3.7,2.2-8.2,6-11.6,1.3c-1.4-2.1-1-5,0.9-6.6c5.9-5,11.7-10.2,18.3-14.2c14.9-8.7,34.5-11.3,50.2-3.1c11,6.3,20.9,14.3,32.4,19.7
	c6.4,3,12.9,6.8,20,7.2c0,0,0,0,0,0c0-10-9.9-16-17.2-21.1c-6.4-4.4-12.8-9-18.6-14.1c-9.7-7.9-17.3-18.8-19.9-31.1
	c-3-14.5,2.5-32.1,16.7-38.6c13-5.8,27.5-2.8,40.9-0.1c-1.2-3-3.3-5.6-5.2-8.2c-4.8-6-9.7-12.5-16.9-15.8c-11.3-4-27.3,7.2-36,13.8
	c-13.2,10.7-26.9,20.8-41.3,29.8c-6.4,4.2-13.1,7.7-20.2,10.6c-5.1,2.3-10.4,4.2-16.1,4.8c-4.7,0.8-7.1-4-2.4-6.5
	c9.4-5.4,19.4-9.7,28.8-15.1c10.8-6.6,21.6-13.5,31.9-20.9c6.9-5.4,13.4-11.2,20.5-16.3c10-6.9,22.1-13.6,34.6-11.8
	c3.9,0.8,7.4,2.9,10.6,5.3c5.5,4.2,10,9.7,14.1,15.4c3.2,4.4,6.1,9.1,7,14.6c1.3,5.6-3.5,11.2-9.2,11c-13.5-0.5-30.1-6-41.2,4.4
	c-9.9,10.9-5.5,26.8,2.7,37.4c10,11.7,24.1,18.9,35.2,29.4C328.3,448.4,336,475.4,315,474.9z"/>
<path d="M195.4,464.1c-2.2-1-3.4-3.8-2.9-6c0.7-2.9,3.3-4.5,5.8-5.7c0,0,0,0,0,0c0.9-0.3,1.8-0.4,2.7-0.2c0.2,0,0.4,0.1,0.7,0.2
	c0.3-0.1,0.6-0.2,1-0.3c0,0,0,0,0,0c3.5-0.8,6.1,3.7,3.6,6.3c-0.6,0.6-1.2,1.2-1.9,1.7C202.4,463.1,199.1,466,195.4,464.1z"/>
<path d="M348.2,477.7c-4.9-0.3-8.4-4.8-9-9.4c-1.2-9,3.6-17.6,8.8-24.6c11.4-13.8,30.1-18.3,42.2-31.2c4.8-7.6,3.9-17.4,1.6-25.7
	c-2.2-8.8-7.5-17.2-16.8-19.5c-6.5-1.4-13.2-0.9-19.7-0.3c-6.8,0.2-18.2,3.8-20.1-5.6c-1-7,4.4-12.7,9-17.3
	c12.8-11.9,32.8-20.5,50.2-22.1c10.9-0.7,20.3,5.7,27.8,12.9c7.8,7.1,15.4,14.5,21.3,23.2c7.3,8.8,10.1,19.9,15.1,30
	c2.1,3.5,4.7,6.8,8,9.3c4.4,4-0.9,11.1-6,7.7c-9.1-5.9-13.6-16.4-17.5-26.1c-2.8-7.1-7.3-13.4-11.9-19.4c-3.9-5.1-8.6-9.6-13.4-14
	c-6.2-5.6-12.8-12.6-21.7-12.5c-15.5,1.1-44.2,11.3-51.9,25.6c11.4-0.8,22.6-4.9,34.1-2.9c7.8,1.7,15,6.5,19.9,12.9
	c6.7,9.9,9.8,22.4,8.3,34.2c-1.9,10.4-5,17.8-13.8,24.2c-14.4,12.1-40.6,17.3-42.1,39.5c6.1-0.3,11.5-4,16.8-6.7
	c10.9-5.9,22.2-11.5,34.6-13.1c7.4-1.1,14.8,0.1,22,1.7c3.6,0.8,7.2,2,10.3,4c2.7,1.6,5.2,3.5,7.5,5.3c1.5,1.2,3.4,2.4,3.8,4.4
	c0.5,5.8-5.7,4.3-9.1,2.8c-22-11.8-39.4-8.2-60.9,2.4C366.7,471.6,358.2,477.9,348.2,477.7z"/>
<path d="M466,408.6c-3.5-0.9-6.5-3.3-8.7-6.1c-1.1-1.5-2.1-3.4-1.4-5.3c3-5.9,9.3,1.1,13.4,2.3C474.3,402,471.6,409.8,466,408.6z"/>
<path d="M430,255.8c-3.9-1.3-7.1-4.2-10.9-5.7c-5.7-1.9-10.3-1-14.7-0.1c-6.5,1.3-12.6,2.6-21.7-4.7c-1.6-1.5-3.7-3.7-5.2-6.1
	c-2.2,1.5-4.5,2.8-7,4c-14.3,6.9-29.9,12.2-45.8,12.2c-4,0-8-0.3-12-1.1c-13.3-1.4-25.8-6.2-37.1-13.1c0.4-1.9-0.5-3.9-2.5-4.6
	c-1.7-0.5-3.1,0.1-4.5,0.9c-1.1,0.6-2.2,1.1-3.3,1.6c-2.4,1-4.8,1.8-7.3,2.6c-1,0.3-2.1,0.5-3.1,0.7c-1.5,0.2-3.1,0.2-4.7,0.2
	c0,0,0.1,0,0.2,0c0,0-0.1,0-0.1,0c0,0,0,0-0.1,0c0,0,0,0,0,0c0,0-0.1,0-0.1,0c0,0,0,0,0,0h0c0,0,0,0,0,0c-1-0.1-2.1-0.3-3.1-0.5
	c-3.4-0.8-6.6-2-9.9-3.2c-1.6-0.6-3.2-1.3-4.8-2c-2.3-1-4.5-1.7-7-2c-2-0.2-4.1-0.3-6.1,0c-1.6,0.2-3.2,0.5-4.8,0.8
	c-1.5,0.2-3.1,0.5-4.6,0.8c-1.7,0.3-3.4,0.6-5.2,0.8c-1.2,0.1-2.4,0.1-3.7,0c-0.8-0.1-1.6-0.2-2.4-0.4c-3.9-1-7.6-2.3-11.3-3.8
	c-1.4-0.6-2.8-1.3-4.1-2.1c-1.6-1-3.1-2.2-4.6-3.4c0,0-0.1-0.1-0.1-0.1c-1.2-1.1-2.4-2.2-3.5-3.4c-0.3-0.4-0.7-0.8-1-1.2
	c0.4-0.5,0.9-1,1.4-1.5c1.3-1.3,2.6-2.6,3.7-4c2.6-3.1,4.8-6.6,6.9-10c4.2-6.6,7.5-13.7,10.9-20.7c1.6-3.4,3.3-6.7,4.6-10.2
	c1.3-3.6,2.5-7.2,3.5-10.9c0.5-2,1-3.9,1.4-5.9c0.4-1.8,0.8-3.5,1.1-5.3c0.6-3.5,0.8-7.1,1-10.7c0.4-6.7-0.2-13.5-0.6-20.2
	c0-0.4,0.1-0.7,0.1-1.1c0,0,0-0.1,0-0.1c0.1-0.5,0.2-1,0.2-1.6c0.2-1.2,0.3-2.4,0.5-3.6c0-0.4,0.1-0.8,0.1-1.3
	c7.3-27,19-53.3,41.4-70.7c6.3-5,13-9.5,20.6-12.5c7.5-3.6,15.2-6.9,23.3-8.7c15.6-3.7,32.4-5.9,47.6,0.4c3.8,1.5,7.3,3.7,10.7,5.9
	c0.4,0.2,0.8,0.5,1.2,0.7c0.3,0.5,0.7,1,1,1.6c2.5,4.1,4.8,8.3,7,12.5c0.7,1.5,1.4,3.1,2,4.7c0.6,1.5,1,3,1.7,4.4
	c0.3,0.5,0.5,0.9,1.1,1.3c0.4,0.2,0.8,0.4,1.2,0.4c1.2,0,2.3-0.9,2.5-2.1c0.1-0.8-0.1-1.6-0.3-2.3c-0.2-0.9-0.4-1.8-0.6-2.7
	c-0.4-1.7-0.9-3.4-1.4-5c-1.2-3.5-2.6-7-4.2-10.4c0-0.1-0.1-0.1-0.1-0.2c0-0.1-0.1-0.1-0.1-0.2c0,0,0,0,0,0c-0.2-0.3-0.3-0.7-0.5-1
	c3,0,6,0.5,9,1c0.7,0.2,1.4,0.3,2,0.4c0,0,0.1,0,0.1,0c0.6,0.1,1.2,0.2,1.8,0.4c0,0,0,0,0,0c0,0,0.1,0,0.1,0c0,0,0,0,0,0
	c0,0,0,0,0.1,0c0,0,0,0,0,0c0,0,0,0,0,0c0.1,0,0.2,0.1,0.2,0.1c0.8,0.3,1.7,0.5,2.6,0.7c0.4,0.1,0.8,0.2,1.2,0.3
	c0.1,0,0.2,0,0.2,0.1c1.7,0.7,3.4,1.3,5.1,2c10.9,3.9,20.3,11,28.1,19.5c11.9,11.5,19.7,26.2,26.9,40.9
	c5.2,12.8,10.7,25.9,13.4,39.6c0,0.2,0,0.5,0,0.7c0,3.7,0.1,7.5,0.2,11.2c0,3.1-0.2,6.1-0.4,9.2c-0.4,3.3-1,6.6-1.5,10
	c-0.5,3.2-0.9,6.5-1.4,9.7c-0.9,4.8-2.1,9.5-2.9,14.3c-0.4,2.1-0.6,4.2-0.7,6.3c-0.1,0.7-0.3,1.3-0.4,2c0,0,0,0,0-0.1
	c-0.4,2.3-0.8,4.6-1,6.9c-0.2,2.3-0.3,4.6-0.4,6.8c-0.1,2.4-0.2,4.9,0,7.3c0.2,2.3,0.5,4.5,0.9,6.8c0,0,0-0.1,0-0.1
	c0.6,3.4,1.4,6.7,2.4,10c0.9,2.9,2.1,5.6,3.4,8.3c0.4,0.9,0.8,1.8,1.2,2.7c-0.4,0.8-0.9,1.6-1.7,2.1c-4.4,3.2-9.7,5.5-15.1,5.5
	C434,256.8,432,256.5,430,255.8z M278.3,103.7c-4.1,2.4-7.2,6-10.2,9.6c-0.7,0.5-1.5,1-2.3,1.6c-1.6,1.2-2.9,2.4-4.4,3.8
	c-1.5,1.5-3,3.1-4.3,4.9c-3.8,2.3-8.2,3.5-12.5,4.2c-2.3,0.2-4.6,0.8-7,0.9c-0.7,3.8-1.2,7.6-1.6,11.4c-0.3,0.4-0.6,0.9-0.8,1.4
	c-0.2,0.7-0.4,1.3-0.5,2c-0.5,1.5-0.7,3.2-0.6,4.8c0,1.1,0,2.2,0.1,3.2c0,0.8-0.1,1.5-0.2,2.3c-0.3,1.7-0.6,3.2,0.3,4.8
	c0.4,0.7,0.9,1.3,1.5,1.8c0.4,5.2,1.3,10.3,2.6,15.3c4.7,15.4,12.1,30.5,23.9,41.6c2.9,2.8,6,5.5,9.2,7.9c0,0,0,0,0.1,0c0,0,0,0,0,0
	c1.1,0.9,2.2,1.7,3.4,2.6c1,0.8,2,1.6,3.1,2.2c0.2,0.1,0.3,0.2,0.5,0.2c0.2,0.1,0.4,0.3,0.6,0.4c0,0,0,0,0.1,0
	c5,3.2,10.3,6,15.7,8.4c9.8,3.4,20.2,5.3,30.6,5.5c13.3,0.2,25.8-4.6,37.8-9.9c8.1-3.5,15-9.1,21.5-15.1c5-4.1,9.1-8.9,12.9-14.1
	c3-4,5.1-8.5,7-13.1c5.5-13.4,9.4-27.6,9.9-42.1c0.6-0.9,1-2,0.9-3.2c0.1-1.4,0.1-2.9,0.1-4.3c0.1-1.6,0.1-3.1,0.2-4.7
	c0-0.1,0-0.3,0-0.4c0.4-2.4-0.6-4.8-2.8-6c-0.7-3.2-1.6-6.3-2.7-9.4c-0.2-0.1-0.3-0.3-0.5-0.5c-2.7-3.2-5.9-6.1-9.6-8.3
	c-2.8-1.5-5.7-2.6-8.6-4c-14.9-6.1-16.4-16.7-19.2-30.8c-1.2-3.7-2.6-7.3-5.3-10.1c-1.1,1.3-2.3,2.5-3.7,3.4
	c-3.2,2.2-7,3.4-10.8,4.1c-19.2,2.3-13.9,20.3-33.5,26.2c-5.5,2-11.5,2.4-17.2,1.4c-5-0.7-10.2-2-15.3-2
	C283.9,102.1,281.1,102.5,278.3,103.7z M422.5,193c-1.2,0.9-2,2.6-2.6,3.9c-1.3,3-2.2,6.2-2.7,9.4c-1,5.5-0.8,11.1,0.9,16.4
	c1.2,3.7,3.3,7.2,5.5,10.5c1.5,2.2,3,4.4,4.5,6.5c0,0,0,0,0,0c0,0,0,0,0,0c-1.7-4.6-3.7-9.1-5.3-13.8c0,0,0,0,0,0
	c-0.6-1.7-1.1-3.5-1.5-5.2c-0.3-1.5-0.5-3.1-0.6-4.7c0,0,0-0.1,0-0.1c0,0,0,0,0,0c0,0,0,0,0,0c-0.3-3.7-0.3-7.4-0.1-11.2
	c0,0,0,0,0,0c0,0,0,0,0-0.1c0,0,0,0,0,0s0,0,0,0c0,0,0-0.1,0-0.1c0,0,0,0,0,0c0.2-2.8,0.4-5.5,0.8-8.2c0,0,0,0.1,0,0.1
	c0.1-0.7,0.3-1.4,0.5-2.1c0.1-0.3,0.2-0.6,0.4-0.9C422.4,193.3,422.4,193.2,422.5,193C422.5,193.1,422.5,193.1,422.5,193
	C422.5,193,422.5,193,422.5,193C422.5,193,422.5,193,422.5,193z M427.4,207.3c-0.3,0.3-0.5,0.7-0.6,1.1c-0.5,1.4-0.8,2.9-1,4.4
	c-0.3,2.7-0.5,5.5-0.1,8.3c0.8,4.9,3.3,9.2,5.8,13.4c0,0,0,0,0,0c0,0,0,0,0,0c-1.1-4.2-2.4-8.4-3.1-12.7c0,0,0,0,0,0c0,0,0,0,0,0
	c0,0,0,0,0,0c0,0,0-0.1,0-0.1c0,0,0,0,0,0c0,0,0,0,0,0c0,0,0,0,0-0.1c0,0,0,0,0,0c0,0,0,0,0,0c-0.6-4-1-8.1-1.1-12.2
	c0-0.3,0-0.7,0-1c0,0,0,0,0,0c0-0.3,0.1-0.6,0.1-0.9v0C427.4,207.5,427.4,207.4,427.4,207.3C427.4,207.4,427.4,207.4,427.4,207.3
	C427.4,207.4,427.4,207.4,427.4,207.3C427.4,207.3,427.4,207.3,427.4,207.3C427.4,207.3,427.4,207.3,427.4,207.3z M198.9,227.6
	C198.8,227.6,198.9,227.6,198.9,227.6C198.9,227.6,198.9,227.6,198.9,227.6c2-1.4,3.9-2.8,5.9-4.3c3.3-2.4,6.5-5.1,9-8.3
	c2.5-3.2,4.5-6.6,6-10.4c1-2.4,2-4.9,2.8-7.3c0,0,0,0,0,0c-1.6,2.5-3.1,5.1-4.6,7.7c0,0,0,0,0,0c0,0,0,0,0,0c-1.8,3-3.7,5.9-5.9,8.7
	c0,0,0,0,0,0c-2.2,2.8-4.6,5.4-7.1,8c0,0,0,0,0.1-0.1C203,223.6,200.9,225.6,198.9,227.6z M421.6,106.8c0.7,3.6,1.1,7.3,1.5,10.9
	c0.3,2.9,0.6,5.9,0.9,8.8c0,0,0,0,0,0c0,0,0,0,0,0c-0.1-3.7-0.1-7.3-0.2-11c-0.1-6.4-0.9-12.7-2.6-18.8c-1.8-6.4-4.4-12.6-8.5-17.9
	c-2.7-3.5-5.9-6.7-9.7-9.1c0,0,0,0,0,0c-1-0.6-1.9-1.3-2.9-1.9c0,0,0,0,0,0c2.4,2.2,4.8,4.3,7,6.8c0,0,0,0,0,0.1
	c1.5,1.8,3,3.7,4.3,5.7c0,0,0,0,0,0c0,0,0,0,0,0c0,0,0,0,0,0c0,0,0,0,0,0.1c0,0,0,0,0-0.1c0,0,0,0.1,0.1,0.1c0,0,0,0,0,0
	c1.3,2,2.4,4,3.5,6.1c0,0,0-0.1-0.1-0.1c1.5,3.2,2.8,6.5,3.9,9.8c0,0,0-0.1,0-0.1C419.9,99.6,420.9,103.1,421.6,106.8z M296.2,58.5
	c-2.4,0.8-4.7,1.6-7,2.6c-4.1,1.8-7.9,4-11.5,6.6c-2.9,2.1-5.5,4.4-8,6.9c-0.7,0.7-1.4,1.5-2.1,2.2c-0.5,0.6-1.1,1.2-1.5,1.9
	c-0.3,0.5-0.3,0.3-0.3,0.7c0,0.1,0,0.1,0.1,0.1c0,0,0,0,0,0c0.4-0.2,0.7-0.5,0.9-0.8c0,0,0,0,0,0c-0.1,0.1-0.2,0.1-0.3,0.2
	c0,0,0,0,0,0c-0.2,0.1-0.4,0.2-0.5,0.4c0.1-0.1,0.2-0.3,0.3-0.4c0.4-0.4,0.8-0.8,1.3-1.2c0,0,0,0,0,0c2.5-2.3,5.3-4.4,8.1-6.3
	c0,0,0,0,0,0c3.4-2.3,6.9-4.3,10.5-6.1c0,0-0.1,0.1-0.1,0.1c5.7-2.8,11.6-5,17.5-7.4c4.8-1.9,9.7-3.6,14.6-5.5c0,0,0,0,0,0h0
	C310.8,54.2,303.4,56,296.2,58.5z M303.8,42.1c-3.8,0.4-7.7,0.8-11.4,1.6c-2.6,0.6-5.1,1.3-7.5,2.2c-2,0.7-4,1.5-5.9,2.6
	c-1.1,0.6-2.2,1.2-3.3,1.7c-0.6,0.3-1.3,0.6-1.9,1c-1.5,1-3.1,2-4.6,3c-0.6,0.4-1.1,0.9-1.7,1.3c-0.8,0.6-1.6,1.3-2.5,1.9
	c-1.2,1-2.4,2-3.5,3.1c-1.2,1-2.3,2.1-3.4,3.2c-1.2,1.1-2.3,2.3-3.4,3.6c-1.1,1.2-2.1,2.4-3,3.7c-2,2.5-3.6,5.2-5.2,8c0,0,0,0,0,0
	c0,0,0,0,0,0c1.3-1.7,2.6-3.3,3.9-4.9c0,0,0,0,0,0s0,0,0,0c0.6-0.7,1.3-1.5,1.9-2.2c0,0,0,0,0,0c0,0,0,0,0,0c0,0,0,0,0,0
	c0,0,0,0,0,0c0,0,0,0,0,0c0,0,0,0,0,0c0,0,0,0,0,0c0.9-0.9,1.7-1.8,2.6-2.7c1.1-1,2.1-2,3.2-3c0,0-0.1,0.1-0.1,0.1
	c1.3-1.1,2.6-2.2,3.8-3.3c0.8-0.6,1.6-1.2,2.3-1.9c0.6-0.5,1.2-1.1,1.9-1.5c1.5-1.1,3-2.2,4.6-3.4c0,0-0.1,0.1-0.1,0.1
	c0.9-0.6,1.9-1.2,2.8-1.8c0,0,0,0,0,0c0.7-0.4,1.4-0.9,2-1.3c2.5-1.4,4.9-2.8,7.4-4.1c2.6-1.3,5.3-2.4,8-3.3h0
	c3.4-1.1,6.8-1.9,10.2-2.6c0,0,0,0,0,0c3.3-0.6,6.6-1.2,9.8-1.8c0,0,0,0,0,0C308.4,41.7,306.1,41.9,303.8,42.1z"/>
<path d="M428.4,221.6C428.4,221.6,428.4,221.6,428.4,221.6C428.4,221.7,428.4,221.7,428.4,221.6
	C428.4,221.7,428.4,221.6,428.4,221.6z"/>
<path d="M420.6,204.6C420.6,204.6,420.6,204.6,420.6,204.6C420.6,204.6,420.6,204.6,420.6,204.6z"/>
<path d="M422.9,226.1c0,0,0,0.1,0,0.1C422.9,226.1,422.9,226.1,422.9,226.1z"/>
<path d="M420.8,215.9C420.8,215.9,420.8,215.9,420.8,215.9C420.8,215.9,420.8,216,420.8,215.9C420.8,216,420.8,216,420.8,215.9
	C420.8,216,420.8,216,420.8,215.9C420.8,216,420.8,215.9,420.8,215.9z"/>
<path d="M420.6,204.7C420.6,204.7,420.6,204.7,420.6,204.7C420.6,204.7,420.6,204.7,420.6,204.7
	C420.6,204.7,420.6,204.7,420.6,204.7z"/>
<path d="M420.6,204.6C420.6,204.7,420.6,204.7,420.6,204.6C420.6,204.7,420.6,204.7,420.6,204.6
	C420.6,204.7,420.6,204.7,420.6,204.6z"/>
<path d="M407.1,74.6L407.1,74.6L407.1,74.6z"/>
<path d="M407.1,74.6C407.1,74.6,407.1,74.6,407.1,74.6C407.1,74.6,407.1,74.6,407.1,74.6z"/>
<path d="M250.4,74.2C250.4,74.2,250.4,74.2,250.4,74.2L250.4,74.2z"/>
<path d="M446.4,199.9c0,0.2-0.1,0.4-0.1,0.6C446.4,200.2,446.4,200.1,446.4,199.9z"/>
<path d="M262,63C261.9,63,261.9,63.1,262,63C261.9,63.1,261.9,63,262,63z"/>
<path d="M363.1,33.2C363.1,33.2,363.1,33.2,363.1,33.2C363.1,33.2,363.1,33.2,363.1,33.2z"/>
<path d="M363.1,33.2C363.1,33.2,363.1,33.2,363.1,33.2C363.1,33.2,363.1,33.2,363.1,33.2z"/>
<path d="M278.2,241.8C278.2,241.8,278.2,241.8,278.2,241.8c-3.1,0.1-5.7-2.3-8.2-3.9c-3.4-2.7-6.9-5.5-10.2-8.3
	c-3-2.4,0.5-6.9,3.6-4.6c4.3,3.3,8.5,6.7,13,9.8c1.4,1.3,4,2,4,4.3c1,0.1,1.7,1.3,1.3,2.2C281.1,242.6,279.3,242.4,278.2,241.8z"/>
<path d="M228.7,173.7c-0.7-5.1-0.7-10.2-0.6-15.3c0,0,0,0.1,0,0.1c0.2-10.5,1.1-21.1,2.9-31.5c0.7-2.9,0.6-6.4,2.3-8.9
	c0.8-0.7,2-0.2,2.2,0.8c0.1,2-0.3,4-0.4,5.9c-0.5,5.6-1.1,11.2-1.5,16.9c-0.8,10.5-1,21-0.3,31.5
	C233.5,175.9,229.2,176.5,228.7,173.7z"/>
<path d="M233.3,195.9c-1.2-11.8-3.3-23.3-3.2-35.1c0.2-16.1,1.6-32.1,4.1-48c0.5-3.3,5.4-1.9,4,1.2c-0.9,14-1.8,28-2.1,42
	c-0.1,12.5,0.4,25.2,1.9,37.6c0.1,1.1,0.5,2.3-0.2,3.2C236.7,198.6,233.6,198,233.3,195.9z"/>
<path d="M234,196.3c-2-26.7-4.1-53.9,0.8-80.4c0.8-1.9,3.4-0.5,2.4,1.3c-2.9,15.3-2.2,31.2-1.8,46.7c0.7,10.7,1.4,21.5,2.2,32.2
	C237.9,198.4,234.2,198.7,234,196.3z"/>
<path d="M415.1,164.3c-0.9-8.6-0.6-17.2-1.5-25.8c-1.1-8.1-3.1-16-4.7-24c-1-2.9,2.9-4.4,3.7-1.3c4.6,10.7,7.5,22.1,7.8,33.8
	c0.2,5.8,0.5,11.6-0.5,17.4c-0.1,1.2-1.1,2.2-2.3,2.2C416.3,166.7,415.2,165.6,415.1,164.3z"/>
<path d="M331,215.6c-4.8-0.4-10.4-5.2-5.9-9.8c2-1.8,5-1.8,7.6-2.2c2.6-0.5,5.2-1,7.7-1.6c10.5-3.1,20.7-8.3,27.8-16.9
	c6.5-6.9,17.2,1.4,12,9.4C370,208.9,348.5,218.4,331,215.6z"/>
<path d="M382,144.9c-0.2-0.1-0.3-0.3-0.4-0.4c-4.1-0.5-5-6.3-1.3-8.1c4.9-2,9.9-2.9,14.9-4.3c2.6-0.7,5.2-1.5,7.9-2
	c5.9-1.1,8.5,7.4,2.8,9.6c-1.4,2-4.2,2.1-6.4,2.9c-4.9,1.4-9.9,2.4-14.9,3.3c0,0,0,0,0,0C383.7,145.8,382.8,145.5,382,144.9z"/>
<path d="M348.2,177.5c-21.8-3.4-31.4-27.8-20-46.1c5.6-8.8,16.1-15.7,26.5-16.6c14.1-1.3,29.3,9.3,29.9,24c7.3,5,0.4,19.9-4.4,24.8
	C372.9,173.6,360.6,179.9,348.2,177.5z M353.5,163.5c7.7,0,13.6-6,17.5-12.1c1.9-2.9,1.9-6.5,2.9-9.7c-4.5-8-9.7-13.8-19.7-12.8
	c-5.2,0.8-10,4.1-13.4,8c-2.1,3.1-3.3,6.9-3.5,10.7C337.7,156.8,344.2,163.6,353.5,163.5z"/>
<path d="M294.1,176.2c-10.3-1.3-19.9-8-24.1-17.6c-4-10.3-1.7-22.6,3.7-31.9c8.2-12.6,27.4-17.1,40.1-8.9
	c8.2,5.6,14.2,17.9,12.1,27.7c5.6,4.5,0.4,15.5-3.5,19.8C315.6,173.7,304.7,178,294.1,176.2z M299.4,160.8c5.5,0,10.7-3.4,13.6-8
	c1.6-2.4,1.9-5.7,4.3-7.5c-2.4-6.6-6.2-13.8-13.4-15.8c-6.2-1.4-13.8,0.1-17.8,5.3c-3,4.9-4.3,11.4-2.7,17
	C286.1,157.8,293,161,299.4,160.8z"/>
<path d="M317.4,151.7c-0.4-0.1-0.8-0.3-1.1-0.6c-0.7-0.5-1.1-1.3-1.1-2.1c0,0,0,0,0,0c0.5-3.2-0.3-6.3-0.3-9.5
	c-0.1-2.1-0.8-5.2,1.9-5.7c1.2-0.2,2.7,0.5,3,1.7c0.8,2.8,1.8,5.5,1.2,8.4C321.5,146.8,321.7,152,317.4,151.7z"/>
<path d="M247.3,151.4c-2.6-0.1-5.2-0.3-7.8-0.3c-8-0.7-7.3-12.6,0.8-12.2c5.4,0,10.7,0.9,16.1,1.2c5.1,0.5,17.8-1.2,16,7.1
	c-1.5,4-6.6,2.7-10,3.4C257.5,151.2,252.4,151.7,247.3,151.4z"/>
<path d="M248.9,1187.5c-15.7-1.3-62.2-6.2-64.7-25.2c-0.5-2.6-0.2-5.1,0.2-7.7c1.3-8,2.9-15.9,4.4-23.8c1.7-9.1,3.9-19.2,11.9-24.9
	c6.5-4.8,14.7-6.2,22.6-7c14.8-1.2,31.3,0.9,42.7,11.3c4.5,4.1,8.3,9.3,9.9,15.2c0.7,3.8,1.4,8.1,0.1,11.9c-1,2.2-3.9,2.8-5.8,1.2
	c-2.2-2.3-2.2-6.1-3.6-8.9c-2.3-5.3-6.5-9.7-11.4-12.7c-10.8-6-23.6-7.1-35.7-5.8c-8.2,0.8-16.1,3.7-18.1,12.7
	c-2.2,8.6-3.5,17.4-5.3,26.1c-0.5,3.6-2,7.3-1.3,11c0.6,1.5,2.2,2.4,3.5,3.3c15.9,8.3,51.1,12.4,69,10.3c12.1-1.8,17.1-3,18.2-7.2
	c0.8,0.9,1.9,1.7,3.1,2.2c1.1,0.5,2.3,0.7,3.5,0.7c0.4,0,0.8,0,1.2-0.1c0,0,0,0.1,0,0.1c-1,1.5-2,3-3.1,4.6
	c-0.8,1.3-1.7,2.6-2.5,3.9c-0.5,0.9-1,1.7-1.5,2.5c-0.2,0.4-0.5,0.8-0.7,1.2c0,0-0.1,0.1-0.1,0.1c-9.5,3.5-19.7,5.1-29.8,5.1
	C253.5,1187.7,251.2,1187.6,248.9,1187.5z"/>
<path d="M650.3,1160.8c-17.5,0-34.9-2.4-51.9-6.1c-8.5-1.8-17-3.7-24.7-7.8c-3.3,7.2-7.9,12.1-16.3,11.8c-2.9,0-6.1,0-9.6,0
	c-17.4,0.2-39.9,0.3-52-8.3c-5.6-3.7-5-10.4-4.8-16.2c0.1-5.9,0.6-11.8,0.8-17.7c0.2-4.8,0.3-9.6,1.6-14.3c2.1-5.2,7.4-3,8.1,1.9
	c3.3,11.9,2.4,24.3,1.9,36.5c12.2,6.4,32.2,4.4,45.9,5.2c15,0.8,8.4,1.5,19-7.3c4.1-2.8,9,0,13.3,1c34,7,69,10.2,103.6,5.9
	c-11.8-7.4-24.4-13.2-37-19.2c-0.7-0.4-1.5-0.9-2.2-1.4c-2-1.3-4.1-2.5-6.1-3.8c-2-1.3-4.1-2.6-6.3-3.8c-2.1-1.1-4.1-2.3-6.1-3.5
	c-2-1.2-4.1-2.5-6.1-3.7c-2.2-1.3-4.5-2.3-6.8-3.5c-0.9-0.5-1.9-0.9-2.8-1.4c-1.2-1-2.4-2-3.7-3c-1.2-0.9-2.4-1.6-3.6-2.4
	c0,0,0,0,0,0c-0.1-0.1-0.2-0.1-0.3-0.2c0.1,0,0.1,0.1,0.2,0.1c-0.1-0.1-0.2-0.1-0.3-0.2c0,0,0,0,0,0c0,0,0,0,0,0c0,0,0,0,0,0
	c0,0,0,0,0,0c-0.1-0.1-0.3-0.2-0.4-0.3c0,0-0.1,0-0.1-0.1c-0.3-0.2-0.7-0.4-1-0.6c0.1,0.1,0.2,0.2,0.4,0.2c-0.3-0.2-0.7-0.4-1-0.6
	c0,0,0,0-0.1,0c0,0,0,0-0.1-0.1c-0.3-0.2-0.5-0.3-0.8-0.5c-0.1-0.1-0.2-0.2-0.3-0.2c0-0.6,0.2-1.3,0.5-1.8c1.9-3.7,6.2-2,9.1-0.7
	c11.8,4.9,22.6,12,34.2,17.3c15.5,7.6,31.7,13.6,46.4,22.7c4.8,3.3,12.9,6.7,12.9,13.4c-0.4,5.7-7,7.3-11.7,8.4
	c-13,2.6-26.3,4.2-39.6,4.2C651.8,1160.8,651.1,1160.8,650.3,1160.8z"/>
<path d="M601.2,1097.7c0,0,0.1,0.1,0.1,0.1C601.3,1097.7,601.3,1097.7,601.2,1097.7z"/>
<path d="M601.2,1097.7C601.2,1097.7,601.2,1097.7,601.2,1097.7C601.2,1097.7,601.2,1097.7,601.2,1097.7
	C601.2,1097.7,601.2,1097.7,601.2,1097.7z"/>
<path d="M602,1098.2C602,1098.2,602.1,1098.2,602,1098.2C602.1,1098.2,602,1098.2,602,1098.2z"/>
<path d="M601.3,1097.8c0.1,0,0.1,0.1,0.2,0.1C601.5,1097.9,601.4,1097.8,601.3,1097.8z"/>
<path d="M220.2,1089.3c4.5-64.3,1.1-128.8-3.2-193c0,0.1,0,0.1,0,0.3c-2.6-37-5.8-73.9-9.2-110.8c-0.6-4.6,6.4-5.9,7.2-1
	c7.4,67.6,13.6,135.3,14.5,203.3c0.4,26.6-0.2,53.2-2.8,79.7c-0.7,6.5-1.6,13-3.1,19.3c-0.2,0.8-0.4,1.8-0.9,2.5
	c-0.3,0.4-0.7,0.6-1.2,0.6C220.9,1090.2,220.3,1089.9,220.2,1089.3z"/>
<path d="M216.9,896.1c0-0.1,0-0.1,0-0.2c0,0.1,0,0.2,0,0.3C216.9,896.2,216.9,896.1,216.9,896.1z"/>
<path d="M281.8,1176.5c-0.4-2.1,1.7-3.9,2.4-5.8c4.6-9.2,6-19.6,6.8-29.7c1.4-16.5-3.6-32.4-6.7-48.4c-5.5-25.5-8.4-51.5-8.3-77.5
	c-0.4-51.8,7.7-103.1,15-154.2c1-7.2,2-14.4,3-21.6c0.2-1.5,1.6-2.5,3-2.3c1.5,0.2,2.5,1.6,2.3,3c-2.3,16.4-4.5,32.9-6.6,49.3
	c-3.3,24.6-6.3,49.2-8,73.9c-2.3,35.6-2.7,71.8,4.1,107c3,15.2,7.2,30,10.2,45.2c2.6,12.8,1.7,26.8-0.9,39.4
	c-1.7,7.6-4.2,15.7-9.7,21.4c-1,1-2.8,2.1-4.4,2.1C283.2,1178.3,282.2,1177.8,281.8,1176.5z"/>
<path d="M433.6,813.6c-3.7-16.8-7.4-33.7-11.2-50.5c-0.2-1-0.2-2.1,0.4-3c1.6-2.9,6.3-2.3,7.1,0.9c0.9,3.9,1.8,7.8,2.7,11.7
	l-0.2,0.8l-0.2,0.9l-0.2,0.8l-0.2,0.7l-0.1,0.7l-0.1,0.6l-0.1,0.6l-0.1,0.5l-0.1,0.5l-0.1,0.4l-0.1,0.4l-0.1,0.4l-0.1,0.4l-0.1,0.4
	l-0.1,0.4l-0.1,0.5l0,0.5l0,0.6l0,0.7l0,0.9l0.1,1l0.1,1.2l0.1,1.4l0.2,1.6l0.2,1.7l0.3,1.9l0.3,2.1l0.4,2.2l0.4,2.2l0.4,2.2
	l0.4,2.2l1.1,14C434.3,816.7,434,815.1,433.6,813.6z"/>
<path d="M594.1,1090.5c-20.9-13.9-36.7-46.1-47.8-68.4c-28.8-60.3-40.5-126.8-48.7-192.5c-3-24.5-6-48.9-9-73.4
	c-1.2-10.1-2.5-20.2-3.7-30.2c-0.3-2.3,1.3-4.5,3.7-4.8c2.3-0.3,4.5,1.3,4.8,3.7c4.3,34.9,8.9,69.8,13.3,104.7
	c9.8,78.5,25.2,158.5,65.7,227.5c4.6,7.5,9.4,15,15.2,21.6c2.7,2.9,5.4,5.6,8.3,8.2c0.7,0.2,1.2,0.7,1.4,1.5
	c0.4,1.4-0.8,2.7-2.1,2.7C594.8,1090.9,594.5,1090.8,594.1,1090.5z"/>
<path d="M632.8,1115.8c-3-1.5-6-2.9-8.9-4.3c-0.8-0.5-1.7-1-2.5-1.5c-2.2-1.3-4.5-2.3-6.8-3.5c-0.1-0.1-0.3-0.1-0.4-0.2
	c-0.3-0.2-0.7-0.4-1-0.6c-0.1,0-0.2,0-0.2,0c-0.4-0.2-0.8-0.4-1.2-0.6c-1.2-1-2.4-2-3.7-3c-1.3-1-2.6-1.8-4-2.6c0,0,0,0,0,0
	c-0.1-0.1-0.3-0.2-0.4-0.3c0,0,0,0,0,0c-0.4-0.2-0.7-0.5-1.1-0.7c-0.2-0.2-0.5-0.3-0.7-0.5c-0.2-0.2-0.5-0.3-0.8-0.5
	c-0.2-0.2-0.5-0.3-0.7-0.5c-0.1-0.1-0.2-0.1-0.3-0.2c0,0,0,0-0.1,0c-0.1-0.1-0.2-0.2-0.4-0.3c-0.2-0.1-0.3-0.2-0.5-0.4c0,0,0,0,0,0
	c0,0,0,0,0,0c0,0,0,0,0,0c-0.5-0.4-1.1-0.8-1.6-1.2c-0.1-0.1-0.1-0.1-0.2-0.2c0,0,0,0,0,0c-0.1-0.1-0.3-0.2-0.4-0.3
	c-0.7-0.5-1.4-1-2.1-1.6c0,0,0,0,0,0c-0.3-0.2-0.6-0.4-0.8-0.7c-0.4-0.3-0.7-0.6-1.1-0.9c0,0-0.1-0.1-0.1-0.1
	c-0.2-0.2-0.4-0.4-0.6-0.6c-1.6-1.7-3.3-3.2-4.9-4.8c-2.3-2.7-4.6-5.6-6.9-8.4c-5.4-7.1-10.9-14.3-15.1-22.1
	c-0.7-1.5-2.1-3.1-1.1-4.7c0.4-0.7,1.2-0.9,1.8-0.9c0,0,0,0,0,0c1,0.1,1.6,0.8,2.1,1.6c1.3,1.9,2.8,4,4,5.7
	c8.6,11.4,18.3,22.1,29.5,31.1c10.7,8.3,22.6,14.8,34.5,21.2c3.5,1.9,1.7,6.7-1.6,6.7C634,1116.2,633.4,1116.1,632.8,1115.8z"/>
<path d="M597.3,1094.9C597.3,1094.9,597.3,1094.9,597.3,1094.9C597.3,1094.9,597.3,1094.9,597.3,1094.9z"/>
<path d="M600.2,1097C600.2,1097,600.2,1097,600.2,1097C600.2,1097,600.2,1097,600.2,1097z"/>
<path d="M600.2,1097C600.2,1097,600.2,1097,600.2,1097C600.2,1097,600.2,1097,600.2,1097C600.2,1097,600.2,1097,600.2,1097z"/>
<path d="M600.1,1097C600.1,1097,600.1,1097,600.1,1097C600.1,1097,600.1,1097,600.1,1097z"/>
<path d="M600.1,1096.9C600.1,1096.9,600.1,1096.9,600.1,1096.9C600.1,1096.9,600.1,1097,600.1,1096.9
	C600.1,1096.9,600.1,1096.9,600.1,1096.9z"/>
<path d="M599.2,1096.3C599.1,1096.3,599.1,1096.2,599.2,1096.3C599.1,1096.2,599.1,1096.3,599.2,1096.3L599.2,1096.3z"/>
<path d="M598.9,1096.1c0.1,0,0.1,0.1,0.2,0.1C599,1096.2,598.9,1096.1,598.9,1096.1z"/>
<path d="M592.8,1091.5C592.8,1091.5,592.8,1091.4,592.8,1091.5C592.8,1091.5,592.9,1091.5,592.8,1091.5
	C592.9,1091.5,592.9,1091.5,592.8,1091.5z"/>
<path d="M494,1089.4c-0.9-1.3-1-3-1.4-4.5c-1.2-5.1-2.4-10.2-3.7-15.2c-3.7-14.6-7.7-29.3-12.2-43.7c-10.6-34-24.1-66.9-36.9-100.1
	c-11.9-31.2-22.5-62.9-32.7-94.6l-2.4-13.9l-0.7-2.1l-0.6-2.2l-0.6-2.2l-0.6-2.1l-0.5-2l-0.5-1.9l-0.4-1.7l-0.3-1.5l-0.3-1.3
	l-0.2-1.2l-0.2-1l-0.1-0.9l-0.1-0.7l0-0.6l0-0.5l0-0.5l0-0.4l0-0.4l0-0.4l0-0.4l0.1-0.4l0.1-0.5l0.1-0.5l0.1-0.5l0.1-0.6l0.1-0.6
	l0.1-0.7l0.1-0.7l0.1-0.8l0.1-0.9l0.1-0.8c10.3,30.9,20.5,61.8,30.7,92.7c16.1,49.6,37.2,97.5,51.5,147.7
	c5.1,18.3,9.8,36.7,12.6,55.5c0.2,2,1.3,7.3-0.5,7.5C494.8,1089.7,494.4,1089.6,494,1089.4z"/>
</svg>
