<svg id="Layer_1" data-name="Layer 1" xmlns="http://www.w3.org/2000/svg" viewBox="0 0 84.3 100.76"><defs><style>.cls-1{fill:#445fac;fill-opacity:0.75;}</style></defs><path class="cls-1" d="M62.06,56.06a24.89,24.89,0,1,0-39.67,0,41.15,41.15,0,0,1,8.49,24.78v9.63a7.75,7.75,0,0,0,7.74,7.74h7.21a7.75,7.75,0,0,0,7.74-7.74V80.88A40.75,40.75,0,0,1,62.06,56.06Zm-37.13-1.9a21.44,21.44,0,0,1-4.42-13.33,21.82,21.82,0,0,1,21.38-21.5,21.7,21.7,0,0,1,17.62,34.8,44.06,44.06,0,0,0-9.16,26.15H34.07A44.52,44.52,0,0,0,24.93,54.16Zm9.14,35.27V88.14L50.38,90v.5a4.92,4.92,0,0,1-.07.78Zm0-4.51V83.48H50.38v3.31Zm4.55,10.14a4.54,4.54,0,0,1-4-2.35l13.74,1.57a4.57,4.57,0,0,1-2.55.78Z"/><path class="cls-1" d="M26.43,43.43a16.64,16.64,0,0,1-.18-2.55,1.6,1.6,0,0,0-3.19,0,19.38,19.38,0,0,0,.21,3,1.6,1.6,0,0,0,1.58,1.36,1,1,0,0,0,.24,0A1.59,1.59,0,0,0,26.43,43.43Z"/><path class="cls-1" d="M35.82,67.67a1.74,1.74,0,0,0,.5-.08,1.6,1.6,0,0,0,1-2,50.77,50.77,0,0,0-7.84-14.9A16.15,16.15,0,0,1,28,48.32a1.6,1.6,0,0,0-2.84,1.47A20.08,20.08,0,0,0,27,52.62,47.09,47.09,0,0,1,34.3,66.57,1.62,1.62,0,0,0,35.82,67.67Z"/><path class="cls-1" d="M59,46.49a1.6,1.6,0,0,0-2.1.84,16.16,16.16,0,0,1-1.94,3.33,1.58,1.58,0,0,0,.3,2.23,1.6,1.6,0,0,0,1,.33,1.58,1.58,0,0,0,1.27-.64,19.27,19.27,0,0,0,2.33-4A1.6,1.6,0,0,0,59,46.49Z"/><path class="cls-1" d="M42.21,25.07a16,16,0,0,1,16,16c0,.5,0,1-.07,1.5a1.59,1.59,0,0,0,1.44,1.73h.15a1.6,1.6,0,0,0,1.59-1.45c0-.59.08-1.19.08-1.79A19.17,19.17,0,0,0,42.21,21.88a1.6,1.6,0,1,0,0,3.19Z"/><path class="cls-1" d="M42.21,13.38a1.6,1.6,0,0,0,1.6-1.59V2.85a1.6,1.6,0,0,0-3.2,0v8.94A1.6,1.6,0,0,0,42.21,13.38Z"/><path class="cls-1" d="M26.07,16.54a1.61,1.61,0,0,0,2.18.58,1.6,1.6,0,0,0,.58-2.18L24.36,7.2A1.6,1.6,0,1,0,21.6,8.8Z"/><path class="cls-1" d="M76.31,59.15l-7.73-4.46A1.6,1.6,0,0,0,67,57.45l7.74,4.47a1.61,1.61,0,0,0,.79.21,1.6,1.6,0,0,0,.8-3Z"/><path class="cls-1" d="M8.11,23.46l7.73,4.47a1.65,1.65,0,0,0,.8.21,1.57,1.57,0,0,0,1.38-.8,1.6,1.6,0,0,0-.58-2.18L9.7,20.7a1.59,1.59,0,1,0-1.59,2.76Z"/><path class="cls-1" d="M80.67,39.71H71.73a1.6,1.6,0,1,0,0,3.19h8.94a1.6,1.6,0,0,0,0-3.19Z"/><path class="cls-1" d="M14.28,41.31a1.6,1.6,0,0,0-1.59-1.6H3.75a1.6,1.6,0,0,0,0,3.19h8.94A1.59,1.59,0,0,0,14.28,41.31Z"/><path class="cls-1" d="M67.78,28.14a1.65,1.65,0,0,0,.8-.21l7.73-4.47a1.59,1.59,0,1,0-1.59-2.76L67,25.16a1.6,1.6,0,0,0-.58,2.18A1.57,1.57,0,0,0,67.78,28.14Z"/><path class="cls-1" d="M15.84,54.69,8.11,59.15a1.6,1.6,0,0,0,.8,3,1.61,1.61,0,0,0,.79-.21l7.74-4.47a1.6,1.6,0,0,0-1.6-2.76Z"/><path class="cls-1" d="M56.17,17.12a1.61,1.61,0,0,0,2.18-.58L62.82,8.8a1.6,1.6,0,1,0-2.76-1.6l-4.47,7.74A1.6,1.6,0,0,0,56.17,17.12Z"/></svg>