<?xml version="1.0" encoding="utf-8"?>
<!-- Generator: Adobe Illustrator 26.0.1, SVG Export Plug-In . SVG Version: 6.00 Build 0)  -->
<svg version="1.1" id="Layer_1" xmlns="http://www.w3.org/2000/svg" xmlns:xlink="http://www.w3.org/1999/xlink" x="0px" y="0px"
	 viewBox="0 0 100 100.8" style="enable-background:new 0 0 100 100.8;" xml:space="preserve">
<style type="text/css">
	.st0{fill:#445FAC;fill-opacity:0.75;}
</style>
<path class="st0" d="M69.9,56.1c8.3-11,6.2-26.6-4.8-34.9S38.5,15,30.2,26c-6.7,8.9-6.7,21.2,0,30.1c5.5,7.1,8.4,15.8,8.5,24.8v9.6
	c0,4.3,3.5,7.7,7.7,7.7h7.2c4.3,0,7.7-3.5,7.7-7.7v-9.6C61.4,71.9,64.4,63.2,69.9,56.1z M32.8,54.2c-2.9-3.8-4.5-8.5-4.4-13.3
	c0.2-11.8,9.6-21.3,21.4-21.5c12-0.2,21.8,9.4,22,21.4c0.1,4.8-1.5,9.6-4.4,13.4c-5.8,7.5-9,16.7-9.2,26.1H41.9
	C41.7,70.8,38.5,61.7,32.8,54.2z M41.9,89.4v-1.3L58.2,90v0.5c0,0.3,0,0.5-0.1,0.8L41.9,89.4z M41.9,84.9v-1.4h16.3v3.3L41.9,84.9z
	 M46.5,95.1c-1.7,0-3.2-0.9-4-2.3l13.7,1.6c-0.8,0.5-1.6,0.8-2.5,0.8H46.5z"/>
<path class="st0" d="M34.3,43.4c-0.1-0.8-0.2-1.7-0.2-2.5c-0.1-0.9-0.8-1.5-1.7-1.5c-0.8,0.1-1.4,0.7-1.5,1.5c0,1,0.1,2,0.2,3
	c0.1,0.8,0.8,1.4,1.6,1.4c0.1,0,0.2,0,0.2,0C33.8,45.1,34.4,44.3,34.3,43.4C34.3,43.4,34.3,43.4,34.3,43.4z"/>
<path class="st0" d="M43.7,67.7c0.2,0,0.3,0,0.5-0.1c0.8-0.3,1.3-1.2,1-2c-1.8-5.4-4.4-10.4-7.8-14.9c-0.6-0.7-1.1-1.5-1.5-2.4
	c-0.4-0.8-1.4-1-2.2-0.6c-0.7,0.4-1,1.3-0.7,2.1c0.5,1,1.1,1.9,1.8,2.8c3.2,4.2,5.7,8.9,7.3,14C42.4,67.2,43,67.7,43.7,67.7z"/>
<path class="st0" d="M66.8,46.5c-0.8-0.3-1.8,0-2.1,0.8c-0.5,1.2-1.2,2.3-1.9,3.3c-0.5,0.7-0.4,1.7,0.3,2.2c0,0,0,0,0,0
	c0.3,0.2,0.6,0.3,1,0.3c0.5,0,1-0.2,1.3-0.6c0.9-1.2,1.7-2.6,2.3-4C68,47.8,67.7,46.8,66.8,46.5z"/>
<path class="st0" d="M50.1,25.1c8.8,0,16,7.2,16,16c0,0.5,0,1-0.1,1.5c-0.1,0.9,0.6,1.6,1.4,1.7c0,0,0,0,0,0h0.2
	c0.8,0,1.5-0.6,1.6-1.5c0-0.6,0.1-1.2,0.1-1.8c0-10.6-8.6-19.2-19.2-19.2c0,0,0,0,0,0c-0.9-0.1-1.7,0.6-1.7,1.5s0.6,1.7,1.5,1.7
	C49.9,25.1,50,25.1,50.1,25.1z"/>
<path class="st0" d="M50.1,13.4c0.9,0,1.6-0.7,1.6-1.6V2.8c0-0.9-0.7-1.6-1.6-1.6c-0.9,0-1.6,0.7-1.6,1.6v8.9
	C48.5,12.7,49.2,13.4,50.1,13.4z"/>
<path class="st0" d="M33.9,16.5c0.4,0.8,1.4,1,2.2,0.6c0.8-0.4,1-1.4,0.6-2.2l-4.5-7.7c-0.4-0.8-1.3-1.1-2.1-0.8
	c-0.8,0.4-1.1,1.3-0.8,2.1c0,0.1,0.1,0.1,0.1,0.2L33.9,16.5z"/>
<path class="st0" d="M84.2,59.2l-7.7-4.5c-0.8-0.4-1.8,0-2.1,0.8c-0.3,0.7-0.1,1.5,0.5,1.9l7.7,4.5c0.2,0.1,0.5,0.2,0.8,0.2
	c0.9,0,1.6-0.7,1.6-1.6C85,60,84.7,59.4,84.2,59.2L84.2,59.2z"/>
<path class="st0" d="M16,23.5l7.7,4.5c0.2,0.1,0.5,0.2,0.8,0.2c0.6,0,1.1-0.3,1.4-0.8c0.4-0.8,0.2-1.7-0.6-2.2l-7.7-4.5
	c-0.8-0.4-1.7-0.2-2.2,0.6C14.9,22,15.2,23,16,23.5C16,23.5,16,23.5,16,23.5z"/>
<path class="st0" d="M88.5,39.7h-8.9c-0.9-0.1-1.7,0.6-1.7,1.5c-0.1,0.9,0.6,1.7,1.5,1.7c0.1,0,0.2,0,0.3,0h8.9
	c0.9-0.1,1.5-0.8,1.5-1.7C89.9,40.4,89.3,39.8,88.5,39.7z"/>
<path class="st0" d="M22.1,41.3c0-0.9-0.7-1.6-1.6-1.6h-8.9c-0.9,0.1-1.5,0.8-1.5,1.7c0.1,0.8,0.7,1.4,1.5,1.5h8.9
	C21.4,42.9,22.1,42.2,22.1,41.3L22.1,41.3z"/>
<path class="st0" d="M75.6,28.1c0.3,0,0.6-0.1,0.8-0.2l7.7-4.5c0.8-0.4,1-1.4,0.6-2.2c-0.4-0.8-1.4-1-2.2-0.6l-7.7,4.5
	c-0.8,0.4-1,1.4-0.6,2.2C74.5,27.8,75.1,28.1,75.6,28.1z"/>
<path class="st0" d="M23.7,54.7L16,59.2c-0.8,0.4-1.1,1.4-0.6,2.2c0.3,0.5,0.8,0.8,1.4,0.8c0.3,0,0.5-0.1,0.8-0.2l7.7-4.5
	c0.7-0.5,0.9-1.5,0.4-2.2C25.3,54.6,24.4,54.4,23.7,54.7L23.7,54.7z"/>
<path class="st0" d="M64,17.1c0.8,0.4,1.7,0.2,2.2-0.6l4.5-7.7c0.5-0.7,0.3-1.7-0.4-2.2S68.5,6.3,68,7c0,0.1-0.1,0.1-0.1,0.2
	l-4.5,7.7C63,15.7,63.3,16.7,64,17.1z"/>
</svg>
