<?xml version="1.0" encoding="UTF-8"?><svg id="Layer_2" xmlns="http://www.w3.org/2000/svg" viewBox="0 0 71.43 64.94"><defs><style>.cls-1{fill:#141c52;}</style></defs><g id="Icons"><g><path class="cls-1" d="M70.54,21.16h-2.92c-.49,0-.89,.4-.89,.89v.16s-.07,0-.1-.01c-.16-.48-.3-.97-.45-1.48-.29-1.04-.6-2.12-1.13-3.27h0v-.03l-.05-.09c-.5-1.06-1.55-3.27-4.45-3.27h-11.95c-2.9,0-3.95,2.21-4.45,3.27l-.04,.09h0v.03c-.53,1.15-.84,2.23-1.14,3.27-.14,.51-.29,1-.45,1.48-.03,0-.07,0-.1,.01v-.16c0-.49-.4-.89-.89-.89h-2.92c-.49,0-.89,.4-.89,.89v1.05c0,.49,.4,.89,.89,.89h1.67c-.17,.41-.25,.85-.21,1.31,.25,2.92,.21,5.26,.48,8.2,.06,.66,.48,1.19,1.05,1.42v1.89c0,.49,.4,.89,.89,.89h2.9c.49,0,.89-.4,.89-.89v-1.84c5.48-.09,11.12-.09,16.6,0v1.84c0,.49,.4,.89,.89,.89h2.9c.49,0,.89-.4,.89-.89v-1.89c.58-.23,.99-.76,1.05-1.42,.27-2.94,.23-5.28,.48-8.2,.04-.45-.04-.9-.21-1.31h1.67c.49,0,.89-.4,.89-.89v-1.05c0-.49-.4-.89-.89-.89Zm-24.16-2.67c.47-.99,.86-1.91,2.21-1.91h11.95c1.35,0,1.74,.93,2.21,1.91,.55,1.19,.83,2.37,1.18,3.56-6.24-.26-12.5-.26-18.74,0,.35-1.19,.64-2.37,1.18-3.56Zm-1.48,9.28c-1.05,0-1.9-.85-1.9-1.9s.85-1.9,1.9-1.9,1.9,.85,1.9,1.9-.85,1.9-1.9,1.9Zm16.24,1.49c-1.42,2.13-3.81,3.36-6.57,3.36s-5.15-1.22-6.57-3.36c-.15-.23-.13-.54,.07-.74,.19-.2,.5-.24,.73-.1,2.58,1.57,4.3,1.78,5.77,1.78s3.19-.22,5.77-1.78c.24-.14,.54-.1,.73,.1,.19,.2,.22,.51,.07,.74Zm3.11-1.49c-1.05,0-1.9-.85-1.9-1.9s.85-1.9,1.9-1.9,1.9,.85,1.9,1.9-.85,1.9-1.9,1.9Z"/><path class="cls-1" d="M36.99,33.73l-13.26,10.4c-1.72-1.55-3.99-2.5-6.49-2.5-5.36,0-9.71,4.35-9.71,9.71s4.35,9.71,9.71,9.71,9.71-4.35,9.71-9.71c0-1.66-.42-3.22-1.15-4.59l13.25-10.39-2.06-2.62Z"/><path class="cls-1" d="M14.1,24.42l20.87,2.57,.41-3.31-20.87-2.57c-.39-3.65-3.48-6.49-7.24-6.49-4.02,0-7.28,3.26-7.28,7.28s3.26,7.28,7.28,7.28c3.13,0,5.8-1.98,6.82-4.76Z"/><path class="cls-1" d="M50.02,50.58v-10.98h-3.33v10.98c-3.22,.75-5.61,3.63-5.61,7.08,0,4.02,3.26,7.28,7.28,7.28s7.28-3.26,7.28-7.28c0-3.45-2.4-6.33-5.61-7.08Z"/><path class="cls-1" d="M27.58,12.38c1.1,0,2.14-.29,3.03-.8l7.09,7.09,2.36-2.36-7.09-7.09c.51-.9,.8-1.93,.8-3.03,0-3.42-2.77-6.19-6.19-6.19s-6.19,2.77-6.19,6.19,2.77,6.19,6.19,6.19Z"/></g></g></svg>