<?xml version="1.0" encoding="utf-8"?>
<!-- Generator: Adobe Illustrator 26.0.1, SVG Export Plug-In . SVG Version: 6.00 Build 0)  -->
<svg version="1.1" id="Layer_2_00000156563371905123522130000012130284221690309286_"
	 xmlns="http://www.w3.org/2000/svg" xmlns:xlink="http://www.w3.org/1999/xlink" x="0px" y="0px" viewBox="0 0 71.4 64.9"
	 style="enable-background:new 0 0 71.4 64.9;" xml:space="preserve">
<style type="text/css">
	.st0{fill:#FFFFFF;}
</style>
<g id="Icons">
	<g>
		<path class="st0" d="M70.5,21.2h-2.9c-0.5,0-0.9,0.4-0.9,0.9v0.2c0,0-0.1,0-0.1,0c-0.2-0.5-0.3-1-0.4-1.5c-0.3-1-0.6-2.1-1.1-3.3
			l0,0v0L65,17.3c-0.5-1.1-1.5-3.3-4.5-3.3h-12c-2.9,0-4,2.2-4.5,3.3l0,0.1l0,0v0c-0.5,1.1-0.8,2.2-1.1,3.3c-0.1,0.5-0.3,1-0.5,1.5
			c0,0-0.1,0-0.1,0V22c0-0.5-0.4-0.9-0.9-0.9h-2.9c-0.5,0-0.9,0.4-0.9,0.9v1c0,0.5,0.4,0.9,0.9,0.9h1.7c-0.2,0.4-0.2,0.9-0.2,1.3
			c0.2,2.9,0.2,5.3,0.5,8.2c0.1,0.7,0.5,1.2,1,1.4v1.9c0,0.5,0.4,0.9,0.9,0.9h2.9c0.5,0,0.9-0.4,0.9-0.9V35c5.5-0.1,11.1-0.1,16.6,0
			v1.8c0,0.5,0.4,0.9,0.9,0.9h2.9c0.5,0,0.9-0.4,0.9-0.9v-1.9c0.6-0.2,1-0.8,1.1-1.4c0.3-2.9,0.2-5.3,0.5-8.2c0-0.5,0-0.9-0.2-1.3
			h1.7c0.5,0,0.9-0.4,0.9-0.9v-1C71.4,21.6,71,21.2,70.5,21.2L70.5,21.2z M46.4,18.5c0.5-1,0.9-1.9,2.2-1.9h12
			c1.3,0,1.7,0.9,2.2,1.9c0.5,1.2,0.8,2.4,1.2,3.6c-6.2-0.3-12.5-0.3-18.7,0C45.5,20.9,45.8,19.7,46.4,18.5L46.4,18.5z M44.9,27.8
			c-1,0-1.9-0.9-1.9-1.9s0.8-1.9,1.9-1.9s1.9,0.9,1.9,1.9S46,27.8,44.9,27.8z M61.1,29.3c-1.4,2.1-3.8,3.4-6.6,3.4s-5.2-1.2-6.6-3.4
			c-0.2-0.2-0.1-0.5,0.1-0.7c0.2-0.2,0.5-0.2,0.7-0.1c2.6,1.6,4.3,1.8,5.8,1.8s3.2-0.2,5.8-1.8c0.2-0.1,0.5-0.1,0.7,0.1
			S61.3,29,61.1,29.3z M64.2,27.8c-1,0-1.9-0.9-1.9-1.9s0.8-1.9,1.9-1.9s1.9,0.9,1.9,1.9S65.3,27.8,64.2,27.8z"/>
		<path class="st0" d="M37,33.7L23.7,44.1c-1.7-1.5-4-2.5-6.5-2.5c-5.4,0-9.7,4.3-9.7,9.7s4.3,9.7,9.7,9.7s9.7-4.3,9.7-9.7
			c0-1.7-0.4-3.2-1.1-4.6l13.3-10.4L37,33.7L37,33.7z"/>
		<path class="st0" d="M14.1,24.4L35,27l0.4-3.3l-20.9-2.6c-0.4-3.6-3.5-6.5-7.2-6.5c-4,0-7.3,3.3-7.3,7.3s3.3,7.3,7.3,7.3
			C10.4,29.2,13.1,27.2,14.1,24.4L14.1,24.4z"/>
		<path class="st0" d="M50,50.6v-11h-3.3v11c-3.2,0.8-5.6,3.6-5.6,7.1c0,4,3.3,7.3,7.3,7.3s7.3-3.3,7.3-7.3
			C55.6,54.2,53.2,51.3,50,50.6L50,50.6z"/>
		<path class="st0" d="M27.6,12.4c1.1,0,2.1-0.3,3-0.8l7.1,7.1l2.4-2.4L33,9.2c0.5-0.9,0.8-1.9,0.8-3C33.8,2.8,31,0,27.6,0
			s-6.2,2.8-6.2,6.2S24.2,12.4,27.6,12.4z"/>
	</g>
</g>
</svg>
