<?xml version="1.0" encoding="UTF-8"?><svg id="Layer_2" xmlns="http://www.w3.org/2000/svg" viewBox="0 0 54.45 43.32"><defs><style>.cls-1{fill:#141c52;}</style></defs><g id="Icons"><g><path class="cls-1" d="M33.31,12.6l-4.61,7.99c-2.81-.62-5.82,.61-7.34,3.23-1.87,3.24-.76,7.39,2.48,9.26,3.24,1.87,7.39,.76,9.26-2.48,1.52-2.63,1.07-5.84-.87-7.97l4.61-7.99-3.54-2.04Z"/><path class="cls-1" d="M40.84,3.64C27.84-3.86,11.16,.61,3.66,13.6c-5.09,8.82-4.85,19.64,.62,28.24l.94,1.47H49.24l.94-1.47c.21-.34,.42-.68,.63-1.02,7.5-13,3.03-29.68-9.96-37.18Zm4.83,33.32H8.79c-3.35-6.33-3.24-13.91,.38-20.18C14.92,6.82,27.7,3.4,37.66,9.15c9.74,5.62,13.23,17.96,8.01,27.81Z"/></g></g></svg>