<?xml version="1.0" encoding="UTF-8"?><svg id="Layer_2" xmlns="http://www.w3.org/2000/svg" viewBox="0 0 59.04 63.15"><defs><style>.cls-1{fill:#141c52;}</style></defs><g id="Icons"><g><path class="cls-1" d="M14.99,24.16h5.97c.57,0,1.04-.46,1.04-1.04v-1.25c0-.57-.46-1.04-1.04-1.04h-3.43c-.14,0-.25-.11-.25-.25V1.04c0-.57-.46-1.04-1.04-1.04h-1.25c-.57,0-1.04,.46-1.04,1.04V23.12c0,.57,.46,1.04,1.04,1.04Z"/><path class="cls-1" d="M24.28,24.16h5.97c.57,0,1.04-.46,1.04-1.04v-1.25c0-.57-.46-1.04-1.04-1.04h-3.43c-.14,0-.25-.11-.25-.25V1.04c0-.57-.46-1.04-1.04-1.04h-1.25c-.57,0-1.04,.46-1.04,1.04V23.12c0,.57,.46,1.04,1.04,1.04Z"/><path class="cls-1" d="M4.3,20.51h3.86c.21,0,.46,.18,.5,.39l.5,2.43c.07,.46,.54,.82,1,.82h1.29c.71,0,1.14-.57,1.04-1.25L7.84,.82c-.11-.46-.54-.82-1-.82h-1.32c-.46,0-.93,.36-1.04,.82L.02,22.91c-.11,.68,.32,1.25,1.04,1.25h1.29c.46,0,.89-.39,1-.86l.46-2.36c.04-.25,.25-.43,.5-.43Zm1.64-10.65c.11-.68,.36-.68,.5,0l1.43,7.04c.04,.14-.07,.29-.25,.29h-2.75c-.18,0-.29-.11-.29-.29l1.36-7.04Z"/><path class="cls-1" d="M30.93,12.33h6.9c.57,0,1.04-.46,1.04-1.04v-1.29c0-.57-.46-1-1.04-1h-6.9c-.54,0-1,.43-1,1v1.29c0,.57,.46,1.04,1,1.04Z"/><path class="cls-1" d="M36.09,28.65c-9.53,0-17.25,7.72-17.25,17.25s7.72,17.25,17.25,17.25,17.25-7.72,17.25-17.25-7.72-17.25-17.25-17.25Zm1.75,26.67h-3.5v-15.91h-2.65v-2.93h6.15v18.84Z"/><rect class="cls-1" x="41.17" width="3.32" height="24.16" rx="1.04" ry="1.04"/><path class="cls-1" d="M10.41,36.89c-3.84,0-6.95,3.11-6.95,6.95s3.11,6.95,6.95,6.95,6.95-3.11,6.95-6.95-3.11-6.95-6.95-6.95Z"/><path class="cls-1" d="M58,0h-1.25c-.57,0-1.04,.46-1.04,1.04V12.65c0,.82-.21,.86-.5,.07L51.11,.72c-.14-.39-.57-.72-.97-.72h-1.46c-.57,0-1.04,.46-1.04,1.04V23.12c0,.57,.46,1.04,1.04,1.04h1.25c.54,0,1-.46,1-1.04V11.51c0-.86,.25-.89,.5-.07l4.15,12.01c.14,.39,.57,.72,.96,.72h1.47c.57,0,1.04-.46,1.04-1.04V1.04c0-.57-.46-1.04-1.04-1.04Z"/><path class="cls-1" d="M21.67,32.48c0-2.18-1.77-3.95-3.95-3.95s-3.95,1.77-3.95,3.95,1.77,3.95,3.95,3.95,3.95-1.77,3.95-3.95Z"/></g></g></svg>