<?xml version="1.0" encoding="UTF-8"?><svg id="Layer_2" xmlns="http://www.w3.org/2000/svg" viewBox="0 0 59.25 62.15"><defs><style>.cls-1{fill:#141c52;}</style></defs><g id="Icons"><g><path class="cls-1" d="M21.14,15.98c-1.8-.73-3.85,.14-4.58,1.94-.73,1.8,.14,3.85,1.94,4.58,1.8,.73,3.85-.14,4.58-1.94,.73-1.8-.14-3.85-1.94-4.58Z"/><path class="cls-1" d="M59.25,24.82l-7.21-2.91,3.89-4.72L13.41,0,1.85,28.63l18.11,7.32v9.49h-6.77c-.96-3.36-3.55-6.04-6.87-7.1v-3.92H0v27.73H6.32v-3.92c3.32-1.06,5.92-3.73,6.87-7.1h12.47v-12.89l9.7,3.92,2.69-3.27,13.34,5.39,7.87-19.47ZM6.32,54.32c-.18,.09-.37,.18-.55,.26-.26,.11-.52,.22-.8,.29v-13.17c.28,.08,.54,.18,.8,.29,.19,.08,.37,.17,.55,.26,2.17,1.14,3.67,3.41,3.67,6.03s-1.5,4.89-3.67,6.03Zm3.75-29.18l6.83-16.91,20.3,8.2h0l8.38,3.38-3.89,4.72h0l-8.26,10.04L10.07,25.14Zm37.83,10.92l-5.64-2.28,5.57-6.77,3.2,1.29-3.13,7.75Z"/></g></g></svg>