<?xml version="1.0" encoding="UTF-8"?><svg id="Layer_2" xmlns="http://www.w3.org/2000/svg" viewBox="0 0 68.57 53.21"><defs><style>.cls-1{fill:#141c52;}</style></defs><g id="Icons"><g><path class="cls-1" d="M64.2,29.58c-1.91,0-3.51,1.23-4.11,2.93h-2.41l-4.43-4.43h-2.05c1.18-2.24,1.91-4.75,2.11-7.41h3.56c.62,1.67,2.21,2.86,4.09,2.86,2.41,0,4.37-1.96,4.37-4.37s-1.96-4.37-4.37-4.37c-1.93,0-3.55,1.26-4.13,3h-3.51c-.2-2.71-.96-5.27-2.18-7.55h2.12l4.43-4.43h2.41c.6,1.7,2.2,2.93,4.11,2.93,2.41,0,4.37-1.96,4.37-4.37s-1.96-4.37-4.37-4.37c-1.91,0-3.51,1.23-4.11,2.93h-3.61l-4.43,4.43h-2.83C45.72,2.97,40.34,.14,34.28,.14s-11.44,2.83-14.94,7.22h-2.83L12.09,2.93h-3.61C7.88,1.23,6.28,0,4.37,0,1.96,0,0,1.96,0,4.37s1.96,4.37,4.37,4.37c1.91,0,3.51-1.23,4.11-2.93h2.41l4.43,4.43h2.12c-1.22,2.28-1.98,4.84-2.18,7.55h-3.51c-.58-1.74-2.2-3-4.13-3-2.41,0-4.37,1.96-4.37,4.37s1.96,4.37,4.37,4.37c1.88,0,3.47-1.19,4.09-2.86h3.56c.2,2.66,.93,5.17,2.11,7.41h-2.05l-4.43,4.43h-2.41c-.6-1.7-2.2-2.93-4.11-2.93-2.41,0-4.37,1.96-4.37,4.37s1.96,4.37,4.37,4.37c1.91,0,3.51-1.23,4.11-2.93h3.61l4.43-4.43h2.72c2.4,3.07,5.7,5.39,9.52,6.54v4.46h2.17v11.25h6.72v-11.25h2.17v-4.46c3.82-1.15,7.12-3.47,9.52-6.54h2.73l4.43,4.43h3.61c.6,1.7,2.2,2.93,4.11,2.93,2.41,0,4.37-1.96,4.37-4.37s-1.96-4.37-4.37-4.37Zm-29.91,2.02c-6.82,0-12.37-5.55-12.37-12.37s5.55-12.37,12.37-12.37,12.37,5.55,12.37,12.37-5.55,12.37-12.37,12.37Z"/><path class="cls-1" d="M35.57,10.67c-2.67-.54-5.39,.34-7.46,2.41-2.07,2.07-2.95,4.79-2.41,7.46,.06,.29,.31,.5,.6,.5,.29,0,.55-.19,.62-.48,.76-3.12,1.89-4.57,3-5.68s2.56-2.23,5.68-3c.29-.07,.48-.33,.48-.62,0-.29-.22-.54-.5-.6Z"/></g></g></svg>