<?xml version="1.0" encoding="UTF-8"?><svg id="Layer_2" xmlns="http://www.w3.org/2000/svg" viewBox="0 0 66.74 61.2"><defs><style>.cls-1{fill:#141c52;}</style></defs><g id="Icons"><g><path class="cls-1" d="M21.89,41.41c-5.47,0-9.9,4.43-9.9,9.9s4.43,9.9,9.9,9.9,9.9-4.43,9.9-9.9-4.43-9.9-9.9-9.9Zm6.27,11.27h-4.9v4.9h-2.75v-4.9h-4.9v-2.75h4.9v-4.9h2.75v4.9h4.9v2.75Z"/><path class="cls-1" d="M60.4,25.81h-2.61c2.33-2.03,3.8-5,3.8-8.32,0-6.1-4.96-11.06-11.05-11.06s-11.05,4.96-11.05,11.06c0,3.32,1.48,6.3,3.8,8.32h-.03c2.32,2.2,3.77,5.3,3.77,8.74v12.4h19.7v-14.79c0-3.5-2.85-6.35-6.35-6.35Zm-3.95-5.71c-1.27,1.92-3.43,3.02-5.91,3.02s-4.63-1.1-5.91-3.02c-.14-.21-.11-.48,.06-.66,.17-.18,.45-.22,.66-.09,2.32,1.41,3.87,1.6,5.19,1.6s2.87-.19,5.19-1.6c.21-.13,.49-.09,.66,.09,.17,.18,.2,.45,.06,.66Z"/><path class="cls-1" d="M34.98,25.75h-2.52c2.76-2.73,4.48-6.51,4.48-10.69C36.94,6.75,30.19,0,21.89,0S6.84,6.75,6.84,15.05c0,4.18,1.71,7.96,4.48,10.69h-2.52c-4.85,0-8.8,3.95-8.8,8.8v20.02H9.64c-.28-1.04-.44-2.13-.44-3.26s.16-2.21,.44-3.26h-3.13v-13.5c0-1.26,1.03-2.29,2.29-2.29h26.19c1.26,0,2.29,1.03,2.29,2.29v13.5h-3.13c.28,1.04,.44,2.13,.44,3.26s-.16,2.21-.44,3.26h9.64v-20.02c0-4.85-3.95-8.8-8.8-8.8Zm-13.09-2.15c-4.71,0-8.54-3.83-8.54-8.54s3.83-8.54,8.54-8.54,8.54,3.83,8.54,8.54-3.83,8.54-8.54,8.54Z"/><path class="cls-1" d="M21.89,18.29c-1.47,0-3.18-.21-5.75-1.77-.23-.14-.54-.1-.73,.1-.19,.2-.22,.5-.07,.73,1.41,2.13,3.8,3.35,6.54,3.35s5.13-1.22,6.54-3.35c.15-.23,.13-.53-.07-.73-.19-.2-.49-.24-.73-.1-2.57,1.56-4.28,1.77-5.75,1.77Z"/></g></g></svg>