<?xml version="1.0" encoding="UTF-8"?><svg id="Layer_2" xmlns="http://www.w3.org/2000/svg" viewBox="0 0 68.4 48.32"><defs><style>.cls-1{fill:#141c52;}</style></defs><g id="Icons"><g><path class="cls-1" d="M63.45,21.82l-14.64,9.68v-3.68h-15.49l-8.45-2.26H13.27v-2.48H0v25.23H13.27v-2.59l6.49-2.03,23.24,3.69,25.39-18.27-4.95-7.3Zm-21.18,22.51l-22.73-3.61-6.28,1.96v-14.2h11.22l8.45,2.26h12.96v3.26h-13.1v2.91h13.1l16.76-11.07,1.74,2.57-22.12,15.92Z"/><path class="cls-1" d="M39.47,23.93c6.6,0,11.96-5.35,11.96-11.96S46.07,.01,39.47,.01s-11.96,5.35-11.96,11.96,5.35,11.96,11.96,11.96Zm-7.58-13.62h5.92V4.39h3.32v5.92h5.92v3.32h-5.92v5.92h-3.32v-5.92h-5.92v-3.32Z"/><path class="cls-1" d="M21.78,15.39c2.65,0,4.8-2.15,4.8-4.8s-2.15-4.8-4.8-4.8-4.8,2.15-4.8,4.8,2.15,4.8,4.8,4.8Zm-3.04-5.47h2.38v-2.38h1.33v2.38h2.38v1.33h-2.38v2.38h-1.33v-2.38h-2.38v-1.33Z"/><path class="cls-1" d="M26.82,5.47c1.51,0,2.73-1.22,2.73-2.73s-1.22-2.73-2.73-2.73-2.73,1.22-2.73,2.73,1.22,2.73,2.73,2.73Z"/></g></g></svg>