<?xml version="1.0" encoding="UTF-8"?><svg id="Layer_2" xmlns="http://www.w3.org/2000/svg" viewBox="0 0 48.02 63.36"><defs><style>.cls-1{fill:#001554;}</style></defs><g id="Icons"><g><path class="cls-1" d="M46.76,39.82h-4.16c-.7,0-1.26,.56-1.26,1.26v.22s-.09-.01-.14-.02c-.23-.68-.43-1.38-.64-2.11-.42-1.49-.85-3.02-1.6-4.66v-.02l-.02-.02-.06-.13c-.72-1.51-2.21-4.65-6.34-4.65H15.5c-4.14,0-5.63,3.14-6.34,4.65l-.06,.13v.02l-.02,.02c-.75,1.63-1.19,3.17-1.61,4.66-.21,.73-.41,1.43-.64,2.11-.05,0-.09,.01-.14,.02v-.22c0-.7-.57-1.26-1.26-1.26H1.26c-.7,0-1.26,.56-1.26,1.26v1.49c0,.7,.57,1.26,1.26,1.26H3.65c-.24,.58-.35,1.21-.3,1.86,.36,4.17,.3,7.5,.69,11.68,.09,.94,.68,1.69,1.5,2.02v2.69c0,.7,.57,1.26,1.26,1.26h4.13c.7,0,1.26-.57,1.26-1.26v-2.63c7.8-.13,15.84-.13,23.64,0v2.63c0,.7,.56,1.26,1.26,1.26h4.13c.7,0,1.26-.57,1.26-1.26v-2.69c.82-.33,1.42-1.08,1.5-2.02,.38-4.18,.33-7.52,.69-11.68,.05-.65-.06-1.28-.3-1.86h2.38c.7,0,1.26-.57,1.26-1.26v-1.49c0-.7-.57-1.26-1.26-1.26Zm-34.41-3.8c.67-1.41,1.23-2.73,3.15-2.73h17.02c1.92,0,2.48,1.32,3.15,2.73,.78,1.69,1.19,3.38,1.68,5.07-8.88-.36-17.81-.36-26.69,0,.49-1.69,.9-3.38,1.68-5.07Zm-2.11,13.22c-1.5,0-2.71-1.21-2.71-2.71s1.21-2.71,2.71-2.71,2.71,1.21,2.71,2.71-1.21,2.71-2.71,2.71Zm23.13,2.12c-2.02,3.04-5.43,4.79-9.35,4.79s-7.34-1.74-9.36-4.79c-.22-.33-.18-.76,.09-1.05,.27-.28,.71-.34,1.04-.14,3.68,2.23,6.12,2.54,8.22,2.54s4.54-.31,8.22-2.54c.33-.2,.77-.15,1.04,.14,.27,.28,.31,.72,.09,1.05Zm4.43-2.12c-1.5,0-2.71-1.21-2.71-2.71s1.21-2.71,2.71-2.71,2.71,1.21,2.71,2.71-1.21,2.71-2.71,2.71Z"/><path class="cls-1" d="M25.41,24.62c2.47,1.43,5.63,1.47,8.14,.11,2.61-1.42,4.33-4.25,4.36-7.23h0V2.96l-12.31,7.11s-.01,0-.02,.01c-2.56,1.46-4.25,4.13-4.33,7.1-.08,3.01,1.56,5.93,4.17,7.43Z"/><path class="cls-1" d="M12.41,18.45c-1.09,.62-1.8,1.75-1.84,3.02-.03,1.28,.66,2.52,1.77,3.16,1.05,.61,2.39,.62,3.46,.05,1.11-.6,1.84-1.81,1.85-3.07h0v-6.17l-5.23,3.02h0Z"/><path class="cls-1" d="M12.62,13.04c1.49,.86,3.39,.88,4.9,.06,1.57-.85,2.6-2.56,2.63-4.35h0V0l-7.41,4.28h-.01c-1.54,.89-2.56,2.5-2.61,4.28-.05,1.81,.94,3.57,2.51,4.47Z"/></g></g></svg>