<?xml version="1.0" encoding="UTF-8"?><svg id="Layer_2" xmlns="http://www.w3.org/2000/svg" viewBox="0 0 54.66 52.5"><defs><style>.cls-1{fill:#141c52;}</style></defs><g id="Icons"><g><path class="cls-1" d="M37.62,26.49l-10.29,10.29-10.29-10.29c-2.11-2.11-2.11-5.52,0-7.63,2.11-2.11,5.52-2.11,7.63,0l2.66,2.66,2.66-2.66c2.11-2.11,5.52-2.11,7.63,0s2.11,5.52,0,7.63Z"/><g><path class="cls-1" d="M22.56,49.44c0,1.53-1.23,3.07-4.09,3.07-1.23,0-2.57-.27-3.52-.8l1.02-2.22c.77,.45,1.65,.65,2.4,.65,.68,0,1.16-.23,1.16-.69,0-.38-.29-.61-1.06-.61h-1.19v-1.85l1.32-1.34h-3.19v-2.27h6.67v1.85l-1.66,1.69c1.4,.34,2.15,1.3,2.15,2.54Z"/><path class="cls-1" d="M31.31,49.37c0,1.92-1.61,3.13-3.63,3.13-2.55,0-4.29-1.47-4.29-4.39,0-3.13,2-4.96,4.96-4.96,1.06,0,2.09,.26,2.77,.7l-1.09,2.11c-.52-.37-1.06-.47-1.62-.47-1.02,0-1.74,.52-1.94,1.52,.45-.32,1.02-.5,1.78-.5,1.63,0,3.07,1.11,3.07,2.86Zm-2.91,.14c0-.56-.38-.92-.92-.92s-.92,.36-.92,.92,.38,.91,.92,.91,.92-.34,.92-.91Z"/><path class="cls-1" d="M32.1,47.83c0-2.96,1.69-4.67,4.05-4.67s4.05,1.71,4.05,4.67-1.69,4.67-4.05,4.67-4.05-1.71-4.05-4.67Zm5.07,0c0-1.72-.43-2.26-1.02-2.26s-1.02,.54-1.02,2.26,.43,2.26,1.02,2.26,1.02-.54,1.02-2.26Z"/></g><path class="cls-1" d="M46.66,46.66l-4.52-4.52c8.17-8.17,8.17-21.46,0-29.63-8.17-8.17-21.46-8.17-29.63,0-8.17,8.17-8.17,21.46,0,29.63l-4.52,4.52C-2.66,36-2.66,18.66,7.99,7.99c10.66-10.66,28.01-10.66,38.67,0,10.66,10.66,10.66,28.01,0,38.67Z"/></g></g></svg>