<?xml version="1.0" encoding="UTF-8"?><svg id="Layer_1" xmlns="http://www.w3.org/2000/svg" viewBox="0 0 91.333 77.508"><defs><style>.cls-1{fill:#111c4e;}</style></defs><path class="cls-1" d="m31.473,45.636c6.22,3.771,10.356,4.291,13.899,4.291,3.544,0,7.681-.52,13.901-4.291.568-.346,1.303-.248,1.763.231.462.481.528,1.217.159,1.772-3.414,5.143-9.181,8.093-15.823,8.093-6.641,0-12.408-2.95-15.822-8.093-.368-.555-.302-1.291.159-1.772.462-.48,1.196-.579,1.763-.231Z"/><circle class="cls-1" cx="33.729" cy="35.83" r="4.999"/><circle class="cls-1" cx="57.604" cy="35.83" r="4.999"/><path class="cls-1" d="m13.48,49.31c-7.445,0-13.48-6.035-13.48-13.48s6.035-13.48,13.48-13.48v26.96Z"/><path class="cls-1" d="m77.853,22.35c7.445,0,13.48,6.035,13.48,13.48,0,7.445-6.035,13.48-13.48,13.48v-26.96Z"/><circle class="cls-1" cx="45.373" cy="68.148" r="9.36"/><path class="cls-1" d="m45.373,0c20.108,0,36.409,16.301,36.409,36.409,0,4.544-.839,8.89-2.36,12.9h-10.254c2.089-3.837,3.276-8.233,3.276-12.9,0-14.928-12.144-27.072-27.072-27.072-14.928,0-27.072,12.144-27.072,27.072,0,14.928,12.144,27.072,27.072,27.072v9.337c-20.108,0-36.409-16.301-36.409-36.409C8.964,16.301,25.265,0,45.373,0Z"/></svg>