<?xml version="1.0" encoding="UTF-8"?><svg id="Layer_2" xmlns="http://www.w3.org/2000/svg" viewBox="0 0 60.26 52.24"><defs><style>.cls-1{fill:#141c52;}</style></defs><g id="Icons"><g><path class="cls-1" d="M55.1,42.42h-2.12c1.89-1.65,3.1-4.07,3.1-6.78,0-4.96-4.04-9-9-9s-9,4.04-9,9c0,2.7,1.2,5.12,3.1,6.78h-2.12c-2.85,0-5.16,2.32-5.16,5.16v4.65h26.37v-4.65c0-2.85-2.32-5.16-5.17-5.16Zm-3.21-4.65c-1.04,1.56-2.79,2.46-4.81,2.46s-3.77-.9-4.81-2.46c-.11-.17-.09-.39,.05-.54,.14-.15,.36-.18,.54-.07,1.89,1.15,3.15,1.3,4.22,1.3s2.33-.16,4.22-1.3c.17-.11,.4-.08,.54,.07,.14,.15,.16,.37,.05,.54Z"/><polygon class="cls-1" points="42.25 15.24 27.01 0 11.76 15.24 17.69 21.17 22.82 16.04 22.82 52.24 31.2 52.24 31.2 19.54 31.2 16.04 36.32 21.17 42.25 15.24"/><rect class="cls-1" x="11.41" y="24.97" width="8.38" height="27.27"/><rect class="cls-1" y="30.4" width="8.38" height="21.84"/></g></g></svg>