<?xml version="1.0" encoding="UTF-8"?><svg id="Layer_2" xmlns="http://www.w3.org/2000/svg" viewBox="0 0 56.38 62.64"><defs><style>.cls-1{fill:#141c52;}</style></defs><g id="Icons"><g><path class="cls-1" d="M10.68,12.31c1.01,.41,2.17-.08,2.58-1.09s-.08-2.17-1.09-2.58c-1.01-.41-2.17,.08-2.58,1.09-.41,1.01,.08,2.17,1.09,2.58Z"/><path class="cls-1" d="M21.8,12.31c1.01,.41,2.17-.08,2.58-1.09,.41-1.01-.08-2.17-1.09-2.58-1.01-.41-2.17,.08-2.58,1.09-.41,1.01,.08,2.17,1.09,2.58Z"/><path class="cls-1" d="M16.24,12.31c1.01,.41,2.17-.08,2.58-1.09s-.08-2.17-1.09-2.58c-1.01-.41-2.17,.08-2.58,1.09-.41,1.01,.08,2.17,1.09,2.58Z"/><path class="cls-1" d="M23.72,34.82c-3.66,0-6.64,2.98-6.64,6.64,0,2.93,1.91,5.42,4.55,6.3l1.01,6.77h4.84l-.95-6.36,12.39,2.82V31.94l-12.67,2.89h-2.53Zm1.2,10.27h-1.2c-2,0-3.64-1.63-3.64-3.64s1.63-3.64,3.64-3.64h1.2v7.27Zm3-7.58l8-1.82v11.53l-8-1.82v-7.88Z"/><path class="cls-1" d="M0,62.64H56.38V23.47H0V62.64ZM5,28.47H51.38v29.17H5V28.47Z"/><path class="cls-1" d="M0,0V20.95H56.38V0H0ZM51.38,15.95H5V5H51.38V15.95Z"/></g></g></svg>