<?xml version="1.0" encoding="UTF-8"?><svg id="Layer_2" xmlns="http://www.w3.org/2000/svg" viewBox="0 0 44.53 44.53"><defs><style>.cls-1{fill:#141c52;}</style></defs><g id="Icons"><g><polygon class="cls-1" points="29.37 20.35 25.27 24.46 25.27 10.74 19.27 10.74 19.27 24.46 15.16 20.35 10.92 24.6 22.27 35.95 33.62 24.6 29.37 20.35"/><polygon class="cls-1" points="6 29.49 0 29.49 0 44.53 15.04 44.53 15.04 38.54 6 38.54 6 29.49"/><polygon class="cls-1" points="6 5.99 15.04 5.99 15.04 0 0 0 0 15.04 6 15.04 6 5.99"/><polygon class="cls-1" points="38.54 38.54 29.49 38.54 29.49 44.53 44.53 44.53 44.53 29.49 38.54 29.49 38.54 38.54"/><polygon class="cls-1" points="29.49 0 29.49 5.99 38.54 5.99 38.54 15.04 44.53 15.04 44.53 0 29.49 0"/></g></g></svg>