<?xml version="1.0" encoding="UTF-8"?><svg id="Layer_2" xmlns="http://www.w3.org/2000/svg" viewBox="0 0 75.6 45.17"><defs><style>.cls-1{fill:#141c52;}</style></defs><g id="Icons"><path class="cls-1" d="M49.96,19.82v1.33c0,.61,.49,1.1,1.1,1.1h2.61c.15,0,.27,.12,.27,.27v20.72c0,.61,.49,1.1,1.1,1.1h1.33c.61,0,1.1-.49,1.1-1.1V22.51c0-.15,.11-.27,.27-.27h2.58c.61,0,1.1-.49,1.1-1.1v-1.33c0-.61-.49-1.1-1.1-1.1h-9.24c-.61,0-1.1,.49-1.1,1.1m-9.82,10.25c-.1,.16-.1,.35-.02,.51l7.24,14.29c.09,.18,.27,.29,.47,.29,.06,0,.12-.01,.18-.03,.25-.09,.39-.35,.33-.61l-2.47-10.9h3.55c.18,0,.35-.09,.45-.25s.1-.35,.02-.51l-7.24-14.29c-.09-.18-.27-.29-.46-.29h-.02c-.06,0-.12,.01-.17,.03-.25,.09-.39,.35-.33,.61l2.47,10.9h-3.55c-.18,0-.35,.09-.45,.25M9.92,21.04c-.46,.8-.72,1.82-.72,2.84v15.23c0,1.02,.26,2.04,.72,2.84,.38,.72,.95,1.29,1.7,1.7,.83,.49,1.93,.76,3.22,.76s2.31-.27,3.18-.76c.72-.38,1.29-.95,1.7-1.67,.45-.8,.72-1.82,.72-2.88v-6.55c0-.45-.38-.83-.83-.83h-3.26c-.46,0-.83,.38-.83,.83v1.86c0,.46,.38,.83,.83,.83h.3c.15,0,.27,.11,.27,.27v3.6c0,.11,0,.64-.3,1.14-.34,.61-.95,.91-1.78,.91s-1.51-.34-1.85-.98c-.27-.53-.27-1.06-.27-1.06v-15.23c0-.91,.76-2.08,2.12-2.08,1.1,0,1.74,.72,1.97,1.59,.15,.45,.57,.8,1.06,.8h1.4c.64,0,1.17-.61,1.06-1.25-.07-.76-.3-1.4-.61-1.89-.42-.72-.99-1.29-1.67-1.7-.87-.49-1.97-.76-3.22-.76s-2.39,.27-3.22,.76c-.76,.42-1.33,.98-1.7,1.7M0,19.82v23.41c0,.61,.49,1.1,1.1,1.1h1.33c.61,0,1.1-.49,1.1-1.1V19.82c0-.61-.49-1.1-1.1-1.1H1.1c-.61,0-1.1,.49-1.1,1.1M8.23,2.48v-.6c0-.49-.31-.78-.82-.78H.83C.33,1.1,.01,1.4,.01,1.9V11.69c0,.5,.31,.82,.82,.82H7.45c.5,0,.8-.3,.8-.8v-.6c0-.5-.29-.78-.8-.78H2.59v-2.49h3.59c.5,0,.82-.31,.82-.8v-.51c0-.49-.31-.78-.82-.78H2.59V3.28H7.41c.51,0,.82-.31,.82-.8m8.69,1.94c.1-.21,.09-.41-.01-.57-.11-.17-.33-.27-.59-.27h-.87c-.59,0-.81,.4-.93,.74l-2.02,4.99-2.04-4.99c-.15-.38-.37-.74-.93-.74h-.99c-.26,0-.47,.1-.59,.28-.1,.16-.11,.36-.01,.57l3.55,7.45c.21,.46,.55,.71,.96,.71h.1c.41,0,.75-.25,.96-.71l3.41-7.46Zm6.44,2.64h-4.07c.21-1.03,.98-1.67,2.04-1.67,.61,0,1.12,.2,1.48,.6,.27,.27,.46,.63,.55,1.07m2.52,.84c0-1.24-.47-2.41-1.29-3.21-.8-.8-1.95-1.24-3.23-1.24-2.64,0-4.63,2-4.63,4.64s2.02,4.64,4.8,4.64c1.1,0,2.74-.35,3.71-1.35,.31-.34,.31-.66,0-.97l-.41-.41c-.38-.41-.74-.22-1-.01-.64,.49-1.34,.74-2.09,.74-1.1,0-2.27-.62-2.47-2h5.78c.57,0,.84-.27,.84-.84m.82,10.83c-.61,0-1.1,.49-1.1,1.1v23.41c0,.61,.49,1.1,1.1,1.1h1.33c.57,0,1.06-.49,1.06-1.1v-12.31c0-.91,.27-.95,.53-.08l4.39,12.73c.15,.42,.61,.76,1.02,.76h1.55c.61,0,1.1-.49,1.1-1.1V19.82c0-.61-.49-1.1-1.1-1.1h-1.33c-.61,0-1.1,.49-1.1,1.1v12.31c0,.87-.23,.91-.53,.08l-4.36-12.73c-.15-.42-.61-.76-1.02-.76h-1.55Zm6.28-15.12c-.37-.11-.71-.16-1.12-.16-.97,0-1.78,.38-2.34,1.11-.29-.71-.95-1.11-1.84-1.11-.35,0-.87,.08-1.26,.31-.35,.18-.45,.47-.31,.88l.16,.74c.07,.23,.19,.38,.33,.45,.1,.05,.22,.05,.31,.02,.08-.01,.17-.04,.25-.06,.08-.03,.17-.06,.23-.06,.04,0,.09,0,.09,.14v5.85c0,.5,.29,.8,.77,.8h.99c.48,0,.79-.31,.79-.8V7.63c0-1.21,.62-1.96,1.61-1.96,.24,0,.49,.05,.73,.13,.2,.06,.37,.05,.52-.02,.15-.08,.26-.24,.32-.46l.22-.86c.19-.64-.27-.79-.45-.85m16.37-1.68c.11-.28,.05-.46-.02-.57-.12-.17-.34-.27-.63-.27h-.89c-.52,0-.87,.26-1.04,.74l-2.19,6.47-2.26-6.58c-.15-.47-.46-.71-.93-.71h-.14c-.45,0-.76,.24-.93,.71l-2.21,6.53-2.14-6.41c-.16-.49-.52-.74-1.05-.74h-.98c-.28,0-.5,.09-.62,.26-.07,.11-.14,.29-.04,.57l3.72,9.94c.18,.5,.47,.72,.91,.72h.12c.46,0,.72-.21,.91-.72l2.34-6.49,2.38,6.49c.18,.5,.47,.72,.91,.72h.12c.46,0,.72-.21,.91-.72l3.72-9.94Zm6.24,6.16c0,1.4-.91,2.38-2.21,2.38s-2.25-1-2.25-2.38,.95-2.4,2.25-2.4c1.1,0,2.21,.74,2.21,2.4m2.41,3.62V4.31c0-.48-.3-.78-.78-.78h-.63c-.48,0-.78,.3-.78,.78v.1c-.8-.64-1.74-.97-2.76-.97-2.53,0-4.44,2-4.44,4.64s1.91,4.64,4.44,4.64c1.06,0,2-.38,2.76-1.09v.07c0,.49,.31,.8,.78,.8h.63c.48,0,.78-.31,.78-.8m3.82-5.69c0-.35,.37-.59,.95-.59,.64,0,1.13,.18,1.68,.64,.39,.29,.81,.25,1.13-.11l.24-.3c.37-.44,.36-.8-.05-1.16-.67-.64-1.85-1.05-3-1.05-2.06,0-3.39,1.06-3.39,2.69,0,1.76,1.66,2.33,2.98,2.78l.14,.06c.78,.31,1.26,.53,1.26,1.04,0,.42-.43,.69-1.08,.69-.72,0-1.46-.3-2.07-.84-.41-.34-.8-.32-1.14,.06l-.29,.32c-.19,.2-.28,.39-.27,.58,0,.19,.1,.37,.31,.57,.76,.82,2.13,1.34,3.49,1.34,2.13,0,3.51-1.08,3.51-2.76s-1.28-2.34-2.71-2.92l-.31-.12c-.79-.3-1.37-.52-1.37-.92m13.76,5.69V7.25c0-2.27-1.47-3.8-3.67-3.8-.89,0-1.67,.27-2.28,.77V.78c0-.29-.08-.51-.25-.65-.1-.09-.29-.18-.6-.12l-.93,.17c-.37,.09-.75,.25-.75,.8V11.7c0,.49,.31,.8,.78,.8h.98c.47,0,.77-.31,.77-.8V7.42c0-1.05,.7-1.75,1.74-1.75s1.67,.67,1.67,1.75v4.29c0,.49,.31,.8,.78,.8h.99c.47,0,.77-.31,.77-.8m-6.66,28.57v-4.35c0-.3,.23-.53,.53-.53h1.93c.61,0,1.1-.49,1.1-1.1v-1.33c0-.61-.49-1.1-1.1-1.1h-1.93c-.3,0-.53-.23-.53-.53v-8.56c0-.3,.23-.53,.53-.53h5.04c.61,0,1.1-.49,1.1-1.1v-1.33c0-.61-.49-1.1-1.1-1.1h-7.99c-.61,0-1.1,.49-1.1,1.1v23.41c0,.61,.49,1.1,1.1,1.1h7.99c.61,0,1.1-.49,1.1-1.1v-1.32c0-.61-.49-1.1-1.1-1.1h-5.04c-.3,0-.53-.23-.53-.53"/></g></svg>