<?xml version="1.0" encoding="UTF-8"?><svg id="Layer_2" xmlns="http://www.w3.org/2000/svg" viewBox="0 0 118.8 16.21"><defs><style>.cls-1{fill:#141c52;}</style></defs><g id="Icons"><g><path class="cls-1" d="M9.34,13.18H3.24v-3.13H7.74c.63,0,1.03-.39,1.03-1.01v-.65c0-.62-.38-.99-1.03-.99H3.24v-3.06h6.05c.63,0,1.03-.39,1.03-1.01v-.75c0-.62-.38-.99-1.03-.99H1.03c-.63,0-1.03,.39-1.03,1.01V14.9c0,.63,.39,1.03,1.03,1.03H9.34c.63,0,1.01-.38,1.01-1.01v-.75c0-.63-.37-.99-1.01-.99Z"/><path class="cls-1" d="M21.23,5.78c.12-.26,.11-.51-.02-.71-.14-.22-.41-.34-.74-.34h-1.1c-.74,0-1.01,.5-1.17,.92l-2.53,6.27-2.55-6.27c-.19-.48-.47-.92-1.17-.92h-1.25c-.33,0-.59,.13-.74,.35-.13,.2-.14,.45-.02,.71l4.45,9.36c.26,.58,.69,.89,1.21,.89h.13c.51,0,.94-.32,1.21-.89l4.28-9.36h0Z"/><path class="cls-1" d="M26.79,4.55c-3.31,0-5.81,2.51-5.81,5.83s2.53,5.83,6.02,5.83c1.39,0,3.44-.44,4.67-1.69,.39-.42,.38-.83,0-1.22l-.51-.51c-.48-.51-.92-.28-1.26-.02-.8,.62-1.69,.93-2.63,.93-1.38,0-2.85-.78-3.1-2.5h7.26c.72,0,1.05-.33,1.05-1.05,0-1.56-.59-3.03-1.62-4.04-1-1-2.44-1.56-4.06-1.56Zm-2.6,4.54c.26-1.3,1.23-2.1,2.55-2.1,.77,0,1.41,.26,1.86,.75,.34,.34,.57,.79,.69,1.35h-5.11Z"/><path class="cls-1" d="M61.91,1.94c-.14-.21-.43-.33-.8-.33h-1.12c-.65,0-1.1,.32-1.3,.93l-2.75,8.12-2.83-8.27c-.19-.59-.58-.89-1.17-.89h-.17c-.56,0-.96,.3-1.17,.89l-2.77,8.2-2.68-8.05c-.21-.62-.65-.93-1.32-.93h-1.23c-.35,0-.63,.12-.78,.33-.09,.13-.18,.36-.05,.72l4.67,12.48c.23,.63,.59,.91,1.15,.91h.15c.58,0,.91-.26,1.15-.91l2.94-8.15,2.98,8.15c.23,.63,.59,.91,1.15,.91h.15c.58,0,.91-.26,1.15-.91l4.67-12.48c.14-.35,.06-.58-.03-.71Z"/><path class="cls-1" d="M41.39,4.76c-.46-.14-.9-.2-1.4-.2-1.22,0-2.23,.48-2.94,1.4-.37-.89-1.2-1.4-2.31-1.4-.44,0-1.09,.1-1.58,.39-.44,.23-.56,.59-.39,1.11l.2,.92c.1,.29,.23,.48,.41,.56,.13,.06,.28,.07,.39,.02,.1-.01,.21-.05,.31-.08,.1-.03,.21-.07,.29-.07,.05,0,.11,0,.11,.18v7.34c0,.62,.37,1.01,.96,1.01h1.25c.6,0,.99-.4,.99-1.01v-5.12c0-1.52,.78-2.46,2.03-2.46,.3,0,.62,.06,.92,.16,.25,.08,.47,.07,.65-.03,.19-.1,.33-.3,.41-.58l.28-1.07c.24-.8-.34-.99-.57-1.07Z"/><path class="cls-1" d="M71.82,4.66h-.8c-.61,0-.99,.38-.99,.99v.13c-1-.8-2.19-1.22-3.47-1.22-3.18,0-5.57,2.51-5.57,5.83s2.39,5.83,5.57,5.83c1.33,0,2.52-.47,3.47-1.37v.08c0,.61,.39,1.01,.99,1.01h.8c.6,0,.99-.4,.99-1.01V5.65c0-.61-.38-.99-.99-.99Zm-4.82,8.72c-1.64,0-2.82-1.26-2.82-2.99s1.19-3.02,2.82-3.02c1.38,0,2.78,.93,2.78,3.02,0,1.76-1.14,2.99-2.78,2.99Z"/><path class="cls-1" d="M79.7,9.08l-.4-.15c-.99-.38-1.71-.66-1.71-1.15,0-.45,.47-.74,1.19-.74,.8,0,1.41,.23,2.12,.81,.49,.37,1.02,.32,1.42-.14l.3-.38c.47-.56,.45-1.01-.06-1.46-.84-.8-2.32-1.32-3.77-1.32-2.59,0-4.26,1.32-4.26,3.37,0,2.21,2.08,2.92,3.74,3.49l.18,.07c.98,.39,1.59,.66,1.59,1.3,0,.52-.53,.86-1.36,.86-.91,0-1.83-.37-2.6-1.06-.51-.43-1-.41-1.44,.08l-.36,.41c-.24,.25-.35,.49-.34,.73,0,.24,.13,.47,.39,.71,.96,1.02,2.68,1.68,4.38,1.68,2.68,0,4.41-1.36,4.41-3.46s-1.61-2.94-3.4-3.66Z"/><path class="cls-1" d="M90.27,4.55c-1.11,0-2.1,.33-2.87,.97V1.21c0-.36-.11-.64-.31-.81-.13-.11-.36-.22-.75-.15l-1.17,.22c-.47,.11-.95,.32-.95,1V14.92c0,.61,.39,1.01,.99,1.01h1.23c.59,0,.96-.39,.96-1.01v-5.38c0-1.32,.88-2.2,2.18-2.2s2.09,.84,2.09,2.2v5.38c0,.61,.39,1.01,.99,1.01h1.25c.59,0,.96-.39,.96-1.01v-5.6c0-2.86-1.85-4.77-4.6-4.77Z"/><path class="cls-1" d="M102.42,4.18c.63-.43,.98-1.05,.98-1.78,0-1.39-1.2-2.37-2.91-2.37-1.07,0-1.96,.31-2.72,.94-.17,.13-.27,.29-.28,.46-.02,.15,.03,.3,.14,.43l.24,.31c.25,.29,.6,.32,.92,.07,.45-.38,.9-.54,1.49-.54,.66,0,1.12,.35,1.12,.85,0,.55-.52,.93-1.27,.93h-.35c-.4,0-.64,.24-.64,.65v.23c0,.41,.24,.65,.64,.65h.3c.94,0,1.55,.44,1.55,1.13,0,.62-.52,1.04-1.28,1.04-.62,0-1.28-.29-1.75-.78-.12-.13-.26-.2-.41-.2h0c-.16,0-.33,.08-.5,.25l-.33,.34c-.11,.11-.17,.24-.16,.37,0,.17,.09,.34,.28,.51,.75,.75,1.84,1.19,2.93,1.19,1.93,0,3.27-1.07,3.27-2.61,0-.88-.44-1.6-1.24-2.07Z"/><path class="cls-1" d="M108.07,2.95c-.31,0-.62,.05-.89,.14,.59-.71,1.2-1.33,1.46-1.6,.19-.17,.29-.34,.29-.52,0-.16-.08-.32-.24-.47l-.36-.33c-.3-.26-.72-.22-1.05,.11-1.59,1.69-3.02,3.38-3.01,5.42h0c.03,1.88,1.37,3.15,3.35,3.15s3.38-1.26,3.38-3-1.26-2.91-2.93-2.91Zm-.43,4.32c-.79,0-1.37-.56-1.37-1.33s.59-1.36,1.37-1.36,1.38,.58,1.38,1.36-.58,1.33-1.38,1.33Z"/><path class="cls-1" d="M115.16,.03c-2.18,0-3.64,1.77-3.64,4.41s1.46,4.41,3.64,4.41,3.64-1.77,3.64-4.41S117.34,.03,115.16,.03Zm0,7.08c-.99,0-1.65-1.07-1.65-2.67s.66-2.68,1.65-2.68,1.65,1.08,1.65,2.68-.66,2.67-1.65,2.67Z"/></g></g></svg>