<?xml version="1.0" encoding="UTF-8"?><svg id="Layer_2" xmlns="http://www.w3.org/2000/svg" viewBox="0 0 71.31 45.1"><defs><style>.cls-1{fill:#141c52;}</style></defs><g id="Icons"><g><path class="cls-1" d="M10.28,4.75h1.22c1.62,0,2.63-.84,2.63-2.19S13.11,.36,11.5,.36h-2.62V6.42h1.4v-1.67Zm0-3.24h1.14c.86,0,1.29,.39,1.29,1.06s-.43,1.05-1.29,1.05h-1.14V1.51Z"/><path class="cls-1" d="M17.29,6.49c1.48,0,2.55-1,2.55-2.4s-1.07-2.4-2.55-2.4-2.56,1-2.56,2.4,1.08,2.4,2.56,2.4Zm0-3.69c.68,0,1.19,.48,1.19,1.29s-.51,1.29-1.19,1.29-1.19-.48-1.19-1.29,.52-1.29,1.19-1.29Z"/><polygon class="cls-1" points="23.02 6.42 24.1 3.53 25.15 6.42 26.45 6.42 28.13 1.77 26.94 1.77 25.8 4.91 24.7 1.77 23.55 1.77 22.41 4.91 21.31 1.77 20.04 1.77 21.72 6.42 23.02 6.42"/><path class="cls-1" d="M30.99,6.49c.84,0,1.49-.26,1.92-.75l-.72-.78c-.32,.3-.67,.45-1.17,.45-.71,0-1.2-.35-1.33-.93h3.52c0-.11,.03-.26,.03-.36,0-1.5-1.06-2.41-2.42-2.41s-2.48,1-2.48,2.4,1.05,2.4,2.66,2.4Zm-.17-3.77c.61,0,1.05,.38,1.14,.97h-2.29c.1-.6,.54-.97,1.15-.97Z"/><path class="cls-1" d="M35.54,4.22c0-.89,.49-1.3,1.24-1.3,.1,0,.19,0,.3,.02V1.7c-.72,0-1.27,.23-1.6,.68v-.61h-1.29V6.42h1.35v-2.2Z"/><path class="cls-1" d="M40.2,6.49c.84,0,1.49-.26,1.92-.75l-.72-.78c-.32,.3-.67,.45-1.17,.45-.71,0-1.2-.35-1.33-.93h3.52c0-.11,.03-.26,.03-.36,0-1.5-1.05-2.41-2.42-2.41s-2.48,1-2.48,2.4,1.05,2.4,2.66,2.4Zm-.17-3.77c.61,0,1.05,.38,1.14,.97h-2.29c.1-.6,.54-.97,1.15-.97Z"/><path class="cls-1" d="M45.39,6.49c.62,0,1.12-.2,1.45-.61v.54h1.29V0h-1.35V2.26c-.34-.38-.82-.56-1.39-.56-1.32,0-2.33,.93-2.33,2.4s1.01,2.4,2.33,2.4Zm.23-3.69c.67,0,1.19,.48,1.19,1.29s-.52,1.29-1.19,1.29-1.19-.48-1.19-1.29,.52-1.29,1.19-1.29Z"/><path class="cls-1" d="M53.2,5.88c.34,.41,.84,.61,1.46,.61,1.31,0,2.32-.93,2.32-2.4s-1.01-2.4-2.32-2.4c-.58,0-1.06,.18-1.4,.56V0h-1.35V6.42h1.29v-.54Zm1.23-3.08c.67,0,1.19,.48,1.19,1.29s-.51,1.29-1.19,1.29-1.19-.48-1.19-1.29,.51-1.29,1.19-1.29Z"/><path class="cls-1" d="M58.36,7.08c-.27,0-.55-.11-.76-.29l-.49,.96c.3,.27,.82,.42,1.3,.42,.84,0,1.48-.34,1.93-1.46l2.1-4.94h-1.3l-1.32,3.16-1.31-3.16h-1.39l2.02,4.69-.02,.04c-.18,.42-.39,.58-.76,.58Z"/><path class="cls-1" d="M1.94,23.05H7.97c.46,0,.73-.27,.73-.73v-.55c0-.46-.27-.72-.73-.72H3.55v-2.27h3.27c.46,0,.75-.28,.75-.73v-.47c0-.45-.28-.72-.75-.72H3.55v-2.23H7.94c.46,0,.75-.28,.75-.73v-.55c0-.45-.28-.72-.75-.72H1.94c-.46,0-.75,.28-.75,.73v8.93c0,.46,.29,.75,.75,.75Z"/><path class="cls-1" d="M16.61,15.68c.09-.19,.08-.37-.01-.52-.1-.16-.3-.25-.54-.25h-.8c-.54,0-.74,.36-.85,.67l-1.84,4.55-1.86-4.55c-.14-.35-.34-.67-.85-.67h-.91c-.24,0-.43,.09-.54,.25-.09,.15-.1,.33-.01,.52l3.24,6.8c.19,.42,.5,.65,.88,.65h.09c.37,0,.68-.23,.88-.65l3.11-6.8h0Z"/><path class="cls-1" d="M24.78,18.85c0-1.13-.43-2.2-1.18-2.93-.73-.73-1.78-1.13-2.95-1.13-2.4,0-4.22,1.82-4.22,4.23s1.84,4.23,4.37,4.23c1.01,0,2.5-.32,3.39-1.23,.28-.31,.28-.61,0-.89l-.37-.37c-.35-.37-.67-.2-.91-.01-.58,.45-1.22,.68-1.91,.68-1,0-2.07-.56-2.25-1.82h5.27c.52,0,.76-.24,.76-.76Zm-6.01-.76c.19-.94,.89-1.52,1.86-1.52,.56,0,1.03,.19,1.35,.54,.25,.25,.42,.58,.5,.98h-3.71Z"/><path class="cls-1" d="M46.17,12.88c-.11-.16-.31-.24-.58-.24h-.81c-.47,0-.8,.23-.94,.68l-2,5.9-2.06-6.01c-.14-.43-.42-.65-.85-.65h-.13c-.41,0-.7,.22-.85,.65l-2.01,5.96-1.95-5.85c-.15-.45-.47-.68-.96-.68h-.89c-.26,0-.46,.08-.56,.24-.07,.1-.13,.26-.04,.52l3.39,9.07c.17,.46,.43,.66,.83,.66h.11c.42,0,.66-.19,.83-.66l2.14-5.92,2.17,5.92c.17,.46,.43,.66,.83,.66h.11c.42,0,.66-.19,.83-.66l3.39-9.07c.1-.25,.05-.42-.02-.52Z"/><path class="cls-1" d="M31.17,16.91c.14-.07,.24-.22,.29-.42l.2-.78c.17-.58-.25-.72-.41-.78-.34-.1-.65-.15-1.02-.15-.89,0-1.62,.35-2.13,1.01-.27-.65-.87-1.01-1.68-1.01-.32,0-.79,.07-1.15,.28-.32,.17-.41,.43-.28,.81l.14,.67c.07,.21,.17,.35,.3,.41,.09,.05,.2,.05,.28,.02,.08,0,.15-.03,.23-.06,.08-.02,.15-.05,.21-.05,.03,0,.08,0,.08,.13v5.33c0,.45,.27,.73,.7,.73h.91c.43,0,.72-.29,.72-.73v-3.72c0-1.1,.56-1.78,1.47-1.78,.21,0,.45,.04,.67,.12,.18,.06,.34,.05,.47-.02Z"/><path class="cls-1" d="M54.08,22.32v-6.74c0-.44-.27-.72-.72-.72h-.58c-.44,0-.72,.27-.72,.72v.09c-.73-.58-1.59-.89-2.52-.89-2.31,0-4.05,1.82-4.05,4.23s1.74,4.23,4.05,4.23c.96,0,1.83-.34,2.52-1v.06c0,.44,.28,.73,.72,.73h.58c.43,0,.72-.29,.72-.73Zm-4.22-1.12c-1.19,0-2.05-.92-2.05-2.18s.86-2.19,2.05-2.19c1.01,0,2.02,.68,2.02,2.19,0,1.28-.83,2.18-2.02,2.18Z"/><path class="cls-1" d="M59.09,18.08l-.29-.11c-.72-.28-1.24-.48-1.24-.84,0-.32,.34-.53,.86-.53,.58,0,1.03,.17,1.54,.58,.35,.27,.74,.23,1.03-.1l.22-.28c.34-.4,.33-.73-.04-1.06-.61-.58-1.69-.96-2.74-.96-1.88,0-3.09,.96-3.09,2.45,0,1.61,1.51,2.12,2.72,2.54l.13,.05c.71,.28,1.15,.48,1.15,.94,0,.38-.39,.63-.99,.63-.66,0-1.33-.27-1.89-.77-.37-.31-.73-.3-1.04,.06l-.26,.29c-.17,.18-.25,.35-.25,.53,0,.18,.09,.34,.28,.52,.7,.74,1.95,1.22,3.18,1.22,1.95,0,3.2-.99,3.2-2.51s-1.17-2.14-2.47-2.66Z"/><path class="cls-1" d="M62.38,22.32c0,.44,.28,.73,.72,.73h.89c.43,0,.7-.28,.7-.73v-3.91c0-.96,.64-1.6,1.58-1.6s1.52,.61,1.52,1.6v3.91c0,.44,.28,.73,.72,.73h.91c.43,0,.7-.28,.7-.73v-4.06c0-2.07-1.34-3.47-3.34-3.47-.81,0-1.52,.24-2.08,.71v-3.13c0-.26-.08-.47-.22-.59-.09-.08-.26-.16-.54-.11l-.85,.16c-.34,.08-.69,.23-.69,.73v9.77Z"/><path class="cls-1" d="M5.53,34.1c-3.06,0-5.53,2.44-5.53,5.5s2.47,5.5,5.53,5.5,5.53-2.44,5.53-5.5-2.47-5.5-5.53-5.5Zm0,9.43c-2.17,0-3.83-1.75-3.83-3.92s1.66-3.94,3.83-3.94,3.83,1.77,3.83,3.94-1.66,3.92-3.83,3.92Z"/><polygon class="cls-1" points="20.17 41.04 16.02 34.29 14.81 34.29 14.81 44.92 16.49 44.92 16.46 37.95 19.65 43.12 20.7 43.12 23.86 37.99 23.86 44.92 25.53 44.92 25.53 34.29 24.31 34.29 20.17 41.04"/><polygon class="cls-1" points="38.52 41.95 32.19 34.29 30.89 34.29 30.89 44.92 32.58 44.92 32.58 37.41 38.85 44.92 40.19 44.92 40.19 34.29 38.52 34.29 38.52 41.95"/><rect class="cls-1" x="46.48" y="34.29" width="1.69" height="10.63"/><path class="cls-1" d="M55.74,38.3c-1.05,0-1.99,.91-1.99,1.97s.94,1.97,1.99,1.97,2-.91,2-1.97-.92-1.97-2-1.97Z"/><polygon class="cls-1" points="67.48 39.65 71.2 34.29 69.15 34.29 66.35 38.3 63.55 34.29 61.5 34.29 65.22 39.65 61.41 44.92 63.36 44.92 66.37 40.92 69.35 44.92 71.31 44.92 67.48 39.65"/><polygon class="cls-1" points="34.91 26.04 34.91 27.98 32.93 27.98 32.93 29.37 34.91 29.37 34.91 31.31 36.38 31.31 36.38 29.37 38.37 29.37 38.37 27.98 36.38 27.98 36.38 26.04 34.91 26.04"/></g></g></svg>