<?xml version="1.0" encoding="UTF-8"?><svg id="Layer_1" xmlns="http://www.w3.org/2000/svg" viewBox="0 0 72.87 72.852"><defs><style>.cls-1{fill:#111c4e;}</style></defs><path class="cls-1" d="m62.196,10.655C47.988-3.549,24.867-3.554,10.657,10.655c-14.21,14.21-14.21,37.33,0,51.54,7.105,7.105,16.437,10.657,25.77,10.657s18.665-3.552,25.768-10.657c6.884-6.882,10.675-16.036,10.675-25.77s-3.791-18.888-10.675-25.77Zm-6.582,44.957c-10.579,10.581-27.792,10.579-38.373,0-10.579-10.579-10.579-27.795,0-38.374,10.579-10.579,27.792-10.579,38.373,0,5.125,5.124,7.947,11.938,7.947,19.187s-2.822,14.063-7.947,19.187Z"/><path class="cls-1" d="m35.663,16.586c-8.989,0-14.665,3.708-17.529,9.102l10.001,5c1.18-2.36,3.425-3.821,5.842-3.821,2.079,0,3.766.899,3.766,2.64,0,3.427-7.248,5.45-7.248,12.248h11.573c0-4.326,8.989-5.843,8.989-14.44,0-7.022-6.573-10.73-15.394-10.73Z"/><path class="cls-1" d="m36.281,44.003c-4.382,0-7.416,2.866-7.416,6.63,0,3.708,3.034,6.742,7.416,6.742s7.417-3.033,7.417-6.742c0-3.764-3.035-6.63-7.417-6.63Z"/></svg>