<?xml version="1.0" encoding="UTF-8"?><svg id="Layer_2" xmlns="http://www.w3.org/2000/svg" viewBox="0 0 48.85 57.6"><defs><style>.cls-1{fill:#141c52;}</style></defs><g id="Icons"><g><path class="cls-1" d="M24.23,43.98c-1.75,0-3.76-.57-5.26-1.46l-1.73,3.92c1.37,.84,3.58,1.46,5.85,1.59v2.16h3.21v-2.27c3.53-.62,5.31-2.76,5.31-5.22,0-5.88-8.82-4.28-8.82-6.2,0-.55,.5-1,2.07-1,1.39,0,2.87,.39,4.44,1.18l1.62-3.9c-1.3-.73-2.94-1.16-4.62-1.32v-2.18h-3.21v2.23c-3.74,.52-5.6,2.69-5.6,5.26,0,5.95,8.82,4.33,8.82,6.33,0,.55-.55,.87-2.07,.87Z"/><path class="cls-1" d="M41.81,21.89v-4.51C41.81,7.8,34.01,0,24.42,0S7.04,7.8,7.04,17.38v4.51H0V57.6H48.85V21.89h-7.04Zm-29.4-4.51c0-6.62,5.39-12.01,12.01-12.01s12.01,5.39,12.01,12.01v4.51H12.41v-4.51Zm31.07,34.85H5.37V27.26H43.48v24.97Z"/></g></g></svg>