<?xml version="1.0" encoding="UTF-8"?><svg id="Layer_2" xmlns="http://www.w3.org/2000/svg" viewBox="0 0 46.46 57.6"><defs><style>.cls-1{fill:#141c52;}</style></defs><g id="Icons"><g><path class="cls-1" d="M31.57,38.8l-3.55,5.45c7.46,.63,11.73,2.64,12.56,3.68-.99,1.25-6.91,3.88-17.35,3.88s-16.36-2.63-17.35-3.88c.83-1.04,5.1-3.04,12.56-3.68l-3.55-5.45c-8.23,1.14-14.89,4.08-14.89,9.12,0,6.68,11.67,9.67,23.23,9.67s23.23-2.99,23.23-9.67c0-5.04-6.65-7.98-14.88-9.12Z"/><circle class="cls-1" cx="23.23" cy="16.39" r="5.56" transform="translate(-3.14 5.78) rotate(-13.28)"/><path class="cls-1" d="M23.23,46.29l14.41-22.08c1.27-2.33,1.99-4.99,1.99-7.83C39.62,7.34,32.28,0,23.23,0S6.84,7.34,6.84,16.39c0,2.83,.72,5.5,1.99,7.83l14.41,22.08Zm0-40.42c5.8,0,10.52,4.72,10.52,10.52,0,1.71-.39,3.33-1.17,4.83l-9.34,14.32-9.34-14.32c-.78-1.5-1.17-3.12-1.17-4.83,0-5.8,4.72-10.52,10.52-10.52Z"/></g></g></svg>