<?xml version="1.0" encoding="UTF-8"?><svg id="Layer_2" xmlns="http://www.w3.org/2000/svg" viewBox="0 0 71.42 49.58"><defs><style>.cls-1{fill:#001554;}</style></defs><g id="Icons"><path class="cls-1" d="M9.95,11.97C4.46,11.97,0,16.43,0,21.93s4.46,9.95,9.95,9.95,9.95-4.46,9.95-9.95-4.46-9.95-9.95-9.95M26.07,5.65c0-3.12-2.53-5.65-5.65-5.65s-5.65,2.53-5.65,5.65,2.53,5.65,5.65,5.65,5.65-2.53,5.65-5.65m13.14,21.34c-.22,.23-.25,.58-.08,.85,1.64,2.47,4.4,3.88,7.59,3.88s5.95-1.41,7.58-3.88c.18-.27,.15-.62-.08-.85-.22-.23-.57-.28-.85-.11-2.98,1.81-4.96,2.06-6.66,2.06s-3.68-.25-6.66-2.06c-.27-.17-.63-.12-.85,.11m-3.66-5.26c-1.21,0-2.2,.98-2.2,2.2s.98,2.2,2.2,2.2,2.2-.98,2.2-2.2-.98-2.2-2.2-2.2m22-2.22c-.4-1.37-.73-2.74-1.36-4.11-.54-1.14-1-2.21-2.56-2.21h-13.81c-1.56,0-2.01,1.07-2.56,2.21-.63,1.37-.96,2.74-1.36,4.11,7.2-.29,14.44-.29,21.65,0m2.55,4.41c0-1.21-.98-2.2-2.2-2.2s-2.2,.98-2.2,2.2,.98,2.2,2.2,2.2,2.2-.98,2.2-2.2m6.1-4.42v1.21c0,.57-.46,1.02-1.03,1.02h-1.93c.19,.47,.29,.99,.24,1.51-.29,3.38-.25,6.08-.56,9.47-.07,.76-.55,1.37-1.22,1.64v2.18c0,.57-.46,1.02-1.02,1.02h-3.35c-.57,0-1.02-.46-1.02-1.02v-2.13c-6.33-.1-12.85-.1-19.17,0v2.13c0,.57-.46,1.02-1.02,1.02h-3.35c-.57,0-1.02-.46-1.02-1.02v-2.18c-.67-.27-1.15-.88-1.22-1.64-.31-3.39-.27-6.1-.56-9.47-.04-.53,.05-1.04,.24-1.51h-1.93c-.57,0-1.02-.46-1.02-1.02v-1.21c0-.57,.46-1.02,1.02-1.02h3.38c.57,0,1.02,.46,1.02,1.02v.18s.08-.01,.11-.02c.18-.55,.35-1.12,.52-1.71,.34-1.21,.69-2.46,1.3-3.78v-.02l.02-.02,.05-.1c.58-1.22,1.79-3.77,5.14-3.77h13.81c3.35,0,4.56,2.55,5.14,3.77l.05,.11v.02l.02,.02c.61,1.32,.96,2.57,1.3,3.78,.17,.59,.33,1.16,.52,1.71,.04,0,.08,0,.11,.02v-.18c0-.57,.46-1.02,1.02-1.02h3.38c.57,0,1.03,.46,1.03,1.02m5.23,5.38C71.42,11.24,60.36,.18,46.72,.18S22.02,11.24,22.02,24.88s11.06,24.7,24.7,24.7,24.7-11.06,24.7-24.7"/></g></svg>