<?xml version="1.0" encoding="UTF-8"?><svg id="Layer_2" xmlns="http://www.w3.org/2000/svg" viewBox="0 0 59.79 57.6"><defs><style>.cls-1{fill:#141c52;}</style></defs><g id="Icons"><g><path class="cls-1" d="M32.5,54.08c1.07,2.07,3.67,3.52,6.7,3.52,3.99,0,7.22-2.53,7.22-5.64h-14.44c0,.75,.19,1.46,.52,2.12Z"/><path class="cls-1" d="M47.96,43.06l-17.67,.91c-.74,.04-1.31,.67-1.27,1.41,.04,.72,.63,1.27,1.34,1.27,.02,0,.05,0,.07,0l17.67-.91c.74-.04,1.31-.67,1.27-1.41-.04-.74-.68-1.3-1.41-1.27Z"/><path class="cls-1" d="M47.96,47.21l-17.67,.91c-.74,.04-1.31,.67-1.27,1.41,.04,.72,.63,1.27,1.34,1.27,.02,0,.05,0,.07,0l17.67-.91c.74-.04,1.31-.67,1.27-1.41-.04-.74-.68-1.31-1.41-1.27Z"/><path class="cls-1" d="M39.17,.12C27.78,.12,18.55,9.35,18.55,20.74c0,7.62,4.15,14.27,10.3,17.83v4.01l20.64-1.06v-2.95c6.15-3.57,10.29-10.21,10.29-17.83C59.79,9.35,50.56,.12,39.17,.12Zm-1.63,35.19c-.6-6.45-2.31-11.17-3.54-13.83,2.44,.44,4.25-.31,5.2-.87,.95,.56,2.76,1.31,5.2,.87-1.22,2.64-2.91,7.3-3.53,13.66l-3.33,.17Zm8.53-2.64l-2.42,1.41c1.08-8.77,4.25-13.65,4.68-14.27,.35-.43,.39-1.02,.11-1.5-.18-.31-.47-.53-.81-.62-.34-.09-.7-.04-1.01,.13l-.15,.09c-3.86,2.15-6.07,.35-6.31,.14-.25-.26-.58-.4-.93-.41-.36,0-.69,.12-.95,.37l-.04,.04c-.33,.29-2.53,2-6.36-.17-.46-.32-1.07-.32-1.53,0-.29,.2-.49,.51-.55,.86-.06,.35,.02,.7,.22,1l.06,.08c.45,.67,3.59,5.62,4.67,14.29l-2.47-1.43c-4.26-2.47-6.9-7.04-6.9-11.94,0-7.61,6.19-13.8,13.8-13.8s13.8,6.19,13.8,13.8c0,4.89-2.64,9.46-6.9,11.93Z"/><path class="cls-1" d="M8.32,10.01C3.72,10.01,0,13.74,0,18.33s3.72,8.32,8.32,8.32,8.32-3.72,8.32-8.32-3.72-8.32-8.32-8.32Z"/><path class="cls-1" d="M21.8,4.73c0-2.61-2.12-4.73-4.73-4.73s-4.73,2.12-4.73,4.73,2.12,4.73,4.73,4.73,4.73-2.12,4.73-4.73Z"/></g></g></svg>