<?xml version="1.0" encoding="UTF-8"?><svg id="Layer_2" xmlns="http://www.w3.org/2000/svg" viewBox="0 0 48.02 63.36"><defs><style>.cls-1{fill:#001554;}</style></defs><g id="Icons"><g><path class="cls-1" d="M46.76,39.82h-4.16c-.7,0-1.26,.56-1.26,1.26v.22s-.09-.01-.14-.02c-.23-.68-.43-1.38-.64-2.11-.42-1.49-.85-3.02-1.6-4.66v-.02l-.02-.02-.06-.13c-.72-1.51-2.21-4.65-6.34-4.65H15.5c-4.14,0-5.63,3.14-6.34,4.65l-.06,.13v.02l-.02,.02c-.75,1.63-1.19,3.17-1.61,4.66-.21,.73-.41,1.43-.64,2.11-.05,0-.09,.01-.14,.02v-.22c0-.7-.57-1.26-1.26-1.26H1.26c-.7,0-1.26,.56-1.26,1.26v1.49c0,.7,.57,1.26,1.26,1.26H3.65c-.24,.58-.35,1.21-.3,1.86,.36,4.17,.3,7.5,.69,11.68,.09,.94,.68,1.69,1.5,2.02v2.69c0,.7,.57,1.26,1.26,1.26h4.13c.7,0,1.26-.57,1.26-1.26v-2.63c7.8-.13,15.84-.13,23.64,0v2.63c0,.7,.56,1.26,1.26,1.26h4.13c.7,0,1.26-.57,1.26-1.26v-2.69c.82-.33,1.42-1.08,1.5-2.02,.38-4.18,.33-7.52,.69-11.68,.05-.65-.06-1.28-.3-1.86h2.38c.7,0,1.26-.57,1.26-1.26v-1.49c0-.7-.57-1.26-1.26-1.26Zm-34.41-3.8c.67-1.41,1.23-2.73,3.15-2.73h17.02c1.92,0,2.48,1.32,3.15,2.73,.78,1.69,1.19,3.38,1.68,5.07-8.88-.36-17.81-.36-26.69,0,.49-1.69,.9-3.38,1.68-5.07Zm-2.11,13.22c-1.5,0-2.71-1.21-2.71-2.71s1.21-2.71,2.71-2.71,2.71,1.21,2.71,2.71-1.21,2.71-2.71,2.71Zm23.13,2.12c-2.02,3.04-5.43,4.79-9.35,4.79s-7.34-1.74-9.36-4.79c-.22-.33-.18-.76,.09-1.05,.27-.28,.71-.34,1.04-.14,3.68,2.23,6.12,2.54,8.22,2.54s4.54-.31,8.22-2.54c.33-.2,.77-.15,1.04,.14,.27,.28,.31,.72,.09,1.05Zm4.43-2.12c-1.5,0-2.71-1.21-2.71-2.71s1.21-2.71,2.71-2.71,2.71,1.21,2.71,2.71-1.21,2.71-2.71,2.71Z"/><path class="cls-1" d="M22.33,15.22l1.42,.4c1.72,.48,3.47,2.3,3.87,4.04l1.11,4.75c.41,1.74,1.08,1.74,1.48,0l1.11-4.75c.41-1.74,2.15-3.56,3.87-4.04l1.42-.4c1.72-.48,1.72-1.27,0-1.76l-1.42-.4c-1.72-.48-3.47-2.3-3.87-4.04l-1.11-4.75c-.41-1.74-1.08-1.74-1.48,0l-1.11,4.75c-.41,1.74-2.15,3.56-3.87,4.04l-1.42,.4c-1.72,.48-1.72,1.27,0,1.76Z"/><path class="cls-1" d="M10.89,7.4l.86,.24c1.04,.29,2.09,1.39,2.34,2.44l.67,2.87c.25,1.05,.65,1.05,.9,0l.67-2.87c.25-1.05,1.3-2.15,2.34-2.44l.86-.24c1.04-.29,1.04-.77,0-1.06l-.86-.24c-1.04-.29-2.09-1.39-2.34-2.44l-.67-2.87c-.25-1.05-.65-1.05-.9,0l-.67,2.87c-.25,1.05-1.3,2.15-2.34,2.44l-.86,.24c-1.04,.29-1.04,.77,0,1.06Z"/><path class="cls-1" d="M16.58,19.71c-.73-.21-1.47-.98-1.64-1.72l-.47-2.02c-.17-.74-.46-.74-.63,0l-.47,2.02c-.17,.74-.91,1.51-1.64,1.72l-.6,.17c-.73,.21-.73,.54,0,.75l.6,.17c.73,.21,1.47,.98,1.64,1.72l.47,2.02c.17,.74,.46,.74,.63,0l.47-2.02c.17-.74,.91-1.51,1.64-1.72l.6-.17c.73-.21,.73-.54,0-.75l-.6-.17Z"/></g></g></svg>