<?xml version="1.0" encoding="UTF-8"?><svg id="Layer_2" xmlns="http://www.w3.org/2000/svg" viewBox="0 0 55.47 47.39"><defs><style>.cls-1{fill:#001554;}</style></defs><g id="Icons"><g><path class="cls-1" d="M10,18.6c.46-1.58,.85-3.17,1.58-4.75,.63-1.32,1.15-2.56,2.95-2.56h15.77l1.83-3.17c-.49-.13-1.03-.21-1.64-.21H14.53c-3.88,0-5.27,2.95-5.95,4.36l-.06,.12v.02l-.02,.02c-.7,1.53-1.11,2.97-1.51,4.37-.19,.68-.38,1.34-.6,1.98-.04,0-.09,.01-.13,.02v-.21c0-.65-.53-1.18-1.18-1.18H1.18c-.65,0-1.18,.53-1.18,1.18v1.4c0,.65,.53,1.18,1.18,1.18H3.42c-.22,.54-.33,1.14-.28,1.75,.33,3.91,.29,7.03,.64,10.95,.08,.88,.64,1.59,1.41,1.9v2.53c0,.65,.53,1.18,1.18,1.18h3.87c.65,0,1.18-.53,1.18-1.18v-2.46c3.47-.06,6.98-.08,10.5-.09-.98-4.33-.37-9.01,1.8-13.05v-.03l2.47-4.28c-5.4-.07-10.81,0-16.2,.22Zm-.41,7.64c-1.4,0-2.54-1.14-2.54-2.54s1.14-2.54,2.54-2.54,2.54,1.14,2.54,2.54-1.14,2.54-2.54,2.54Z"/><path class="cls-1" d="M53.48,23.86h0L39.7,0l-13.48,23.33s0,.03-.02,.04c-2.82,4.83-3.06,10.81-.38,15.77,2.72,5.02,8.18,8.25,13.88,8.25s10.63-2.92,13.46-7.54c2.95-4.81,3.07-11.08,.31-16Zm-4.77,13.47c-1.94,2.93-5.22,4.6-9,4.6s-7.06-1.68-9-4.6c-.21-.32-.17-.73,.09-1.01,.26-.27,.68-.33,1-.13,3.54,2.14,5.89,2.44,7.91,2.44s4.37-.3,7.9-2.44c.32-.2,.74-.14,1,.13,.26,.27,.3,.69,.09,1.01Z"/></g></g></svg>