<?xml version="1.0" encoding="UTF-8"?><svg id="Layer_2" xmlns="http://www.w3.org/2000/svg" viewBox="0 0 56.59 63.36"><defs><style>.cls-1{fill:#141c52;}</style></defs><g id="Icons"><g><rect class="cls-1" x="37.89" y="39.13" width="12.26" height="23.3" transform="translate(48.8 -16.25) rotate(45)"/><rect class="cls-1" x="32.73" y="17.6" width="3.07" height="15.7"/><polygon class="cls-1" points="35.76 53.02 26.81 44.06 26.81 17.59 30.54 17.59 26.41 0 33.88 0 44 23.11 45.02 39.62 52 46.59 49.83 48.76 42.03 40.96 40.97 23.85 31.87 3.07 30.28 3.07 34.41 20.66 29.88 20.66 29.88 42.79 37.94 50.85 35.76 53.02"/><rect class="cls-1" x="6.44" y="39.13" width="12.26" height="23.3" transform="translate(57.37 77.81) rotate(135)"/><rect class="cls-1" x="20.79" y="17.6" width="3.07" height="15.7"/><polygon class="cls-1" points="20.83 53.02 18.65 50.85 26.71 42.79 26.71 20.66 22.18 20.66 26.31 3.07 24.72 3.07 15.62 23.85 14.56 40.96 6.76 48.76 4.59 46.59 11.57 39.62 12.59 23.11 22.71 0 30.18 0 26.05 17.59 29.78 17.59 29.78 44.06 20.83 53.02"/></g></g></svg>