<?xml version="1.0" encoding="UTF-8"?><svg id="Layer_2" xmlns="http://www.w3.org/2000/svg" viewBox="0 0 137.24 18"><defs><style>.cls-1{fill:#141c52;}</style></defs><g id="Icons"><g><path class="cls-1" d="M77.14,7.08c-.15-.5-.27-.99-.5-1.49-.2-.41-.36-.8-.93-.8h-5.01c-.57,0-.73,.39-.93,.8-.23,.5-.35,1-.5,1.49,2.62-.11,5.24-.11,7.86,0"/><path class="cls-1" d="M59.86,4.35c-2,0-3.61,1.62-3.61,3.61s1.62,3.61,3.61,3.61,3.61-1.62,3.61-3.61-1.62-3.61-3.61-3.61"/><path class="cls-1" d="M65.71,2.05c0-1.13-.92-2.05-2.05-2.05s-2.05,.92-2.05,2.05,.92,2.05,2.05,2.05,2.05-.92,2.05-2.05"/><path class="cls-1" d="M69.15,7.89c-.44,0-.8,.36-.8,.8s.36,.8,.8,.8,.8-.36,.8-.8-.36-.8-.8-.8"/><path class="cls-1" d="M75.63,9.76c-1.08,.66-1.8,.75-2.42,.75s-1.34-.09-2.42-.75c-.1-.06-.23-.04-.31,.04-.08,.08-.09,.21-.03,.31,.59,.89,1.6,1.41,2.75,1.41s2.16-.51,2.75-1.41c.06-.1,.05-.22-.03-.31-.08-.08-.21-.1-.31-.04"/><path class="cls-1" d="M80.28,7.08v.44c0,.21-.17,.37-.37,.37h-.7c.07,.17,.1,.36,.09,.55-.11,1.23-.09,2.21-.2,3.44-.03,.28-.2,.5-.44,.6v.79c0,.21-.17,.37-.37,.37h-1.22c-.21,0-.37-.17-.37-.37v-.77c-2.3-.04-4.66-.04-6.96,0v.77c0,.21-.17,.37-.37,.37h-1.21c-.21,0-.37-.17-.37-.37v-.79c-.24-.1-.42-.32-.44-.6-.11-1.23-.1-2.21-.2-3.44-.02-.19,.02-.38,.09-.55h-.7c-.21,0-.37-.17-.37-.37v-.44c0-.2,.17-.37,.37-.37h1.23c.2,0,.37,.17,.37,.37v.07s.03,0,.04,0c.07-.2,.13-.41,.19-.62,.12-.44,.25-.89,.47-1.37h0l.02-.05c.21-.45,.65-1.37,1.87-1.37h5.01c1.22,0,1.66,.92,1.87,1.37l.02,.04h0c.22,.49,.35,.94,.47,1.38,.06,.22,.12,.42,.19,.62,.01,0,.03,0,.04,0v-.07c0-.2,.17-.37,.37-.37h1.23c.21,0,.37,.17,.37,.37M73.21,.07c-4.95,0-8.97,4.02-8.97,8.97s4.01,8.97,8.97,8.97,8.97-4.01,8.97-8.97S78.16,.07,73.21,.07"/><path class="cls-1" d="M77.26,7.89c-.44,0-.8,.36-.8,.8s.36,.8,.8,.8,.8-.36,.8-.8-.36-.8-.8-.8"/><path class="cls-1" d="M90.18,11.03h-3.35v-1.72h2.48c.35,0,.57-.21,.57-.55v-.36c0-.34-.21-.54-.57-.54h-2.48v-1.69h3.33c.35,0,.57-.21,.57-.56v-.41c0-.34-.21-.54-.57-.54h-4.55c-.35,0-.57,.21-.57,.55v6.76c0,.35,.22,.57,.57,.57h4.57c.35,0,.55-.21,.55-.55v-.41c0-.34-.2-.54-.55-.54"/><path class="cls-1" d="M96.72,6.96c.06-.14,.06-.28,0-.39-.08-.12-.23-.19-.41-.19h-.6c-.41,0-.56,.27-.64,.51l-1.39,3.45-1.41-3.45c-.1-.26-.26-.51-.64-.51h-.69c-.18,0-.33,.07-.41,.19-.07,.11-.07,.25,0,.39l2.45,5.15c.15,.32,.38,.49,.67,.49h.07c.28,0,.52-.17,.66-.49l2.36-5.15Z"/><path class="cls-1" d="M98.35,8.78c.14-.71,.67-1.15,1.4-1.15,.42,0,.78,.14,1.02,.41,.19,.19,.31,.44,.38,.74h-2.81Zm1.43-2.5c-1.82,0-3.19,1.38-3.19,3.21s1.39,3.2,3.31,3.2c.76,0,1.89-.24,2.57-.93,.21-.23,.21-.46,0-.67l-.28-.28c-.26-.28-.51-.15-.69,0-.44,.34-.93,.51-1.45,.51-.76,0-1.57-.43-1.71-1.38h3.99c.39,0,.58-.18,.58-.58,0-.86-.32-1.67-.89-2.22-.55-.55-1.34-.86-2.23-.86"/><path class="cls-1" d="M119.1,4.85c-.08-.12-.24-.18-.44-.18h-.61c-.36,0-.6,.18-.72,.51l-1.51,4.47-1.56-4.55c-.1-.32-.32-.49-.64-.49h-.1c-.31,0-.53,.16-.64,.49l-1.52,4.51-1.48-4.43c-.11-.34-.36-.51-.73-.51h-.68c-.19,0-.35,.06-.43,.18-.05,.07-.1,.2-.03,.4l2.57,6.87c.13,.35,.32,.5,.63,.5h.08c.32,0,.5-.14,.63-.5l1.62-4.48,1.64,4.48c.13,.35,.32,.5,.63,.5h.08c.32,0,.5-.14,.63-.5l2.57-6.86c.08-.19,.03-.32-.01-.39"/><path class="cls-1" d="M107.81,6.4c-.26-.08-.49-.11-.77-.11-.67,0-1.23,.26-1.62,.77-.2-.49-.66-.77-1.27-.77-.24,0-.6,.06-.87,.21-.24,.13-.31,.33-.21,.61l.11,.51c.05,.16,.13,.26,.23,.31,.07,.03,.15,.04,.21,.01,.06,0,.12-.03,.17-.04,.06-.02,.12-.04,.16-.04,.03,0,.06,0,.06,.1v4.04c0,.34,.2,.55,.53,.55h.69c.33,0,.54-.22,.54-.55v-2.82c0-.83,.43-1.35,1.11-1.35,.16,0,.34,.03,.5,.09,.14,.04,.26,.04,.36-.02,.1-.06,.18-.16,.22-.32l.15-.59c.13-.44-.19-.55-.31-.59"/><path class="cls-1" d="M121.9,11.14c-.9,0-1.55-.69-1.55-1.65s.65-1.66,1.55-1.66c.76,0,1.53,.51,1.53,1.66,0,.97-.63,1.65-1.53,1.65m2.65-4.8h-.44c-.33,0-.54,.21-.54,.54v.07c-.55-.44-1.21-.67-1.91-.67-1.75,0-3.06,1.38-3.06,3.21s1.32,3.21,3.06,3.21c.73,0,1.38-.26,1.91-.75v.05c0,.34,.21,.55,.54,.55h.44c.33,0,.54-.22,.54-.55V6.89c0-.33-.21-.54-.54-.54"/><path class="cls-1" d="M128.89,8.78l-.22-.08c-.55-.21-.94-.36-.94-.64,0-.25,.26-.4,.65-.4,.44,0,.78,.13,1.16,.44,.27,.2,.56,.18,.78-.08l.16-.21c.26-.31,.25-.55-.03-.8-.46-.44-1.28-.72-2.08-.72-1.42,0-2.34,.73-2.34,1.86,0,1.22,1.14,1.61,2.06,1.92l.1,.04c.54,.21,.87,.36,.87,.72,0,.29-.29,.48-.75,.48-.5,0-1.01-.21-1.43-.58-.28-.24-.55-.22-.79,.05l-.2,.22c-.13,.14-.19,.27-.19,.4,0,.13,.07,.26,.21,.39,.53,.56,1.47,.93,2.41,.93,1.47,0,2.42-.75,2.42-1.9s-.88-1.62-1.87-2.02"/><path class="cls-1" d="M134.71,6.29c-.61,0-1.15,.18-1.58,.54v-2.37c0-.2-.06-.35-.17-.45-.07-.06-.2-.12-.41-.08l-.64,.12c-.26,.06-.52,.18-.52,.55v7.4c0,.34,.21,.55,.54,.55h.68c.33,0,.53-.21,.53-.55v-2.96c0-.72,.48-1.21,1.2-1.21s1.15,.46,1.15,1.21v2.96c0,.34,.21,.55,.54,.55h.69c.33,0,.53-.21,.53-.55v-3.08c0-1.57-1.02-2.63-2.53-2.63"/><g><path class="cls-1" d="M5.25,8.03c0,1.35-1.01,2.19-2.63,2.19H1.4v1.67H0V5.83H2.62c1.62,0,2.63,.84,2.63,2.2Zm-1.42,0c0-.67-.43-1.06-1.29-1.06H1.4v2.1h1.14c.86,0,1.29-.39,1.29-1.05Z"/><path class="cls-1" d="M5.85,9.56c0-1.4,1.08-2.4,2.56-2.4s2.55,1,2.55,2.4-1.07,2.4-2.55,2.4-2.56-1-2.56-2.4Zm3.75,0c0-.8-.51-1.29-1.19-1.29s-1.19,.48-1.19,1.29,.52,1.29,1.19,1.29,1.19-.48,1.19-1.29Z"/><path class="cls-1" d="M19.26,7.23l-1.69,4.65h-1.3l-1.05-2.89-1.08,2.89h-1.3l-1.68-4.65h1.27l1.1,3.15,1.14-3.15h1.14l1.11,3.15,1.13-3.15h1.19Z"/><path class="cls-1" d="M24.34,9.94h-3.52c.13,.58,.62,.93,1.33,.93,.49,0,.85-.15,1.17-.45l.72,.78c-.43,.49-1.08,.75-1.92,.75-1.61,0-2.66-1.01-2.66-2.4s1.06-2.4,2.48-2.4,2.42,.92,2.42,2.41c0,.1-.02,.25-.03,.36Zm-3.54-.79h2.29c-.09-.59-.54-.97-1.14-.97s-1.06,.37-1.15,.97Z"/><path class="cls-1" d="M28.2,7.16v1.25c-.11,0-.2-.02-.3-.02-.74,0-1.24,.41-1.24,1.3v2.2h-1.35V7.23h1.29v.61c.33-.45,.88-.68,1.6-.68Z"/><path class="cls-1" d="M33.55,9.94h-3.52c.13,.58,.62,.93,1.33,.93,.49,0,.85-.15,1.17-.45l.72,.78c-.43,.49-1.08,.75-1.92,.75-1.61,0-2.66-1.01-2.66-2.4s1.06-2.4,2.48-2.4,2.42,.92,2.42,2.41c0,.1-.02,.25-.03,.36Zm-3.54-.79h2.29c-.1-.59-.54-.97-1.14-.97s-1.05,.37-1.15,.97Z"/><path class="cls-1" d="M39.26,5.46v6.42h-1.29v-.54c-.34,.41-.83,.61-1.45,.61-1.32,0-2.33-.93-2.33-2.4s1.01-2.4,2.33-2.4c.57,0,1.05,.18,1.39,.56v-2.26h1.35Zm-1.32,4.09c0-.8-.52-1.29-1.19-1.29s-1.19,.48-1.19,1.29,.52,1.29,1.19,1.29,1.19-.48,1.19-1.29Z"/><path class="cls-1" d="M48.11,9.56c0,1.46-1.01,2.4-2.32,2.4-.62,0-1.12-.2-1.46-.61v.54h-1.29V5.46h1.35v2.26c.35-.38,.82-.56,1.4-.56,1.31,0,2.32,.93,2.32,2.4Zm-1.37,0c0-.8-.51-1.29-1.19-1.29s-1.19,.48-1.19,1.29,.51,1.29,1.19,1.29,1.19-.48,1.19-1.29Z"/><path class="cls-1" d="M53.56,7.23l-2.1,4.94c-.45,1.12-1.09,1.46-1.93,1.46-.48,0-1-.16-1.3-.42l.49-.96c.21,.18,.49,.29,.76,.29,.37,0,.58-.16,.76-.58l.02-.04-2.02-4.69h1.39l1.31,3.16,1.32-3.16h1.3Z"/></g></g></g></svg>