<?xml version="1.0" encoding="UTF-8"?><svg id="Layer_2" xmlns="http://www.w3.org/2000/svg" viewBox="0 0 64.8 40.45"><defs><style>.cls-1{fill:#141c52;}</style></defs><g id="Icons"><g><path class="cls-1" d="M23.34,12.07c-4.39,0-8.79,.08-13.17,.26,.47-1.61,.86-3.22,1.6-4.83,.64-1.34,1.17-2.6,3-2.6h13.01c.23-.26,.45-.52,.7-.77,.99-.99,2.06-1.86,3.18-2.63-.21-.02-.43-.03-.66-.03H14.77c-3.94,0-5.36,3-6.04,4.43l-.06,.12v.02l-.02,.02c-.72,1.56-1.13,3.02-1.53,4.44-.2,.69-.39,1.36-.61,2.01-.05,0-.09,.01-.13,.02v-.21c0-.67-.54-1.2-1.2-1.2H1.2c-.66,0-1.2,.54-1.2,1.2v1.42c0,.66,.54,1.2,1.2,1.2H3.47c-.23,.55-.34,1.16-.28,1.78,.34,3.97,.29,7.15,.65,11.14,.08,.9,.65,1.61,1.43,1.93v2.57c0,.66,.54,1.2,1.2,1.2h3.94c.66,0,1.2-.54,1.2-1.2v-2.5c4.06-.07,8.19-.09,12.32-.09-2.57-5.58-2.78-11.98-.6-17.69Zm-13.59,8.03c-1.43,0-2.58-1.16-2.58-2.58s1.16-2.58,2.58-2.58,2.58,1.16,2.58,2.58-1.16,2.58-2.58,2.58Z"/><path class="cls-1" d="M44.58,0c-11.17,0-20.22,9.05-20.22,20.22s9.05,20.22,20.22,20.22,20.22-9.05,20.22-20.22S55.75,0,44.58,0Zm0,33.33c-7.23,0-13.11-5.88-13.11-13.11s5.88-13.11,13.11-13.11,13.11,5.88,13.11,13.11-5.88,13.11-13.11,13.11Z"/><rect class="cls-1" x="43.31" y="28.42" width="2.54" height="3.42"/><rect class="cls-1" x="32.95" y="18.95" width="3.42" height="2.54"/><path class="cls-1" d="M44.58,8.63v2.03c4.75,0,8.7,3.49,9.43,8.04h-1.2c-.72-3.89-4.13-6.85-8.23-6.85v2.03c2.97,0,5.46,2.06,6.15,4.82h-1.09c-.66-2.18-2.66-3.78-5.06-3.78v2.03c1.25,0,2.33,.71,2.88,1.75h-5.08v3.05h13.82v-3.05h-.14c-.75-5.67-5.61-10.07-11.48-10.07Z"/></g></g></svg>