<?xml version="1.0" encoding="UTF-8"?><svg id="Layer_1" xmlns="http://www.w3.org/2000/svg" viewBox="0 0 77.805 63.603"><defs><style>.cls-1{fill:#111c4e;}</style></defs><path class="cls-1" d="m70.406,30.085h-3.037c2.711-2.364,4.435-5.833,4.435-9.705,0-7.106-5.781-12.887-12.887-12.887s-12.887,5.781-12.887,12.887c0,3.871,1.724,7.341,4.435,9.705h-.032c2.703,2.562,4.4,6.176,4.4,10.186v14.454h22.971v-17.242c0-4.079-3.319-7.398-7.399-7.398Zm-4.601-6.66c-1.486,2.239-3.997,3.523-6.888,3.523s-5.402-1.284-6.888-3.523c-.16-.242-.132-.562.069-.771.2-.209.52-.251.768-.1,2.708,1.642,4.508,1.868,6.051,1.868s3.343-.226,6.051-1.868c.247-.152.566-.109.768.1.201.209.23.53.069.771Z"/><path class="cls-1" d="m51.038,63.603v-23.333c0-5.655-4.6-10.255-10.255-10.255h-2.933c3.218-3.183,5.217-7.595,5.217-12.467C43.067,7.872,35.195,0,25.519,0S7.972,7.872,7.972,17.548c0,4.872,1.999,9.284,5.217,12.467h-2.933c-5.655,0-10.256,4.6-10.256,10.255v23.333h51.038Zm-43.448-7.591v-15.742c0-1.469,1.196-2.664,2.665-2.664h30.527c1.469,0,2.664,1.195,2.664,2.664v15.742H7.591Zm17.929-28.508c-5.49,0-9.957-4.466-9.957-9.957s4.467-9.957,9.957-9.957,9.957,4.467,9.957,9.957-4.466,9.957-9.957,9.957Z"/><path class="cls-1" d="m25.52,21.32c-1.708,0-3.702-.251-6.7-2.068-.274-.167-.628-.12-.85.111-.223.232-.254.587-.077.854,1.645,2.479,4.425,3.901,7.626,3.901s5.98-1.422,7.625-3.901c.177-.267.146-.622-.077-.854-.223-.231-.576-.279-.85-.111-2.998,1.818-4.991,2.068-6.699,2.068Z"/></svg>