<?xml version="1.0" encoding="UTF-8"?><svg id="Layer_1" xmlns="http://www.w3.org/2000/svg" viewBox="0 0 72.87 80.724"><defs><style>.cls-1{fill:#111c4e;}</style></defs><path class="cls-1" d="m0,0v74.648h37.053c-1.384-2.289-2.353-4.849-2.811-7.589H7.589V7.589h44.28v34.527c1.216-.212,2.46-.344,3.737-.344,1.317,0,2.6.137,3.852.361V0H0Z"/><path class="cls-1" d="m16.124,52.414c-1.303-.526-2.785.103-3.312,1.406-.526,1.303.103,2.785,1.406,3.312,1.303.526,2.785-.103,3.312-1.406s-.103-2.785-1.406-3.312Z"/><rect class="cls-1" x="12.626" y="14.372" width="34.207" height="6.624"/><path class="cls-1" d="m19.698,39.101v6.624h23.449c1.152-.811,2.384-1.512,3.685-2.089v-4.535h-27.135Z"/><rect class="cls-1" x="19.698" y="26.737" width="27.135" height="6.624"/><path class="cls-1" d="m37.543,51.466h-17.845v6.624h14.918c.61-2.39,1.597-4.627,2.926-6.624Z"/><path class="cls-1" d="m16.124,40.054c-1.303-.526-2.785.103-3.312,1.406-.526,1.303.103,2.786,1.406,3.312,1.303.526,2.785-.103,3.312-1.406.526-1.303-.103-2.786-1.406-3.312Z"/><path class="cls-1" d="m16.124,27.69c-1.303-.526-2.785.103-3.312,1.406-.526,1.303.103,2.785,1.406,3.312,1.303.526,2.785-.103,3.312-1.406.526-1.303-.103-2.785-1.406-3.312Z"/><path class="cls-1" d="m55.607,80.724c-9.519,0-17.264-7.745-17.264-17.264s7.745-17.263,17.264-17.263,17.263,7.744,17.263,17.263-7.744,17.264-17.263,17.264Zm0-28.076c-5.962,0-10.813,4.85-10.813,10.812s4.852,10.813,10.813,10.813,10.812-4.852,10.812-10.813-4.85-10.812-10.812-10.812Z"/><polygon class="cls-1" points="54.325 72.404 46.967 62.385 51.248 59.24 54.115 63.143 59.369 55.264 63.79 58.211 54.325 72.404"/></svg>