<?xml version="1.0" encoding="UTF-8"?><svg id="Layer_2" xmlns="http://www.w3.org/2000/svg" viewBox="0 0 56.38 68.19"><defs><style>.cls-1{fill:#141c52;}</style></defs><g id="Icons"><g><path class="cls-1" d="M56.38,19.51V0H0V19.51H5v2.51H0V61.2H5v6.99h5v-6.99H46.38v6.99h5v-6.99h5V22.03h-5v-2.51h5ZM5,5H51.38V14.51H5V5ZM51.38,56.2H5V27.03H51.38v29.17Zm-5-34.17H10v-2.51H46.38v2.51Z"/><path class="cls-1" d="M10.74,34.59c.93,.38,1.99-.07,2.37-1.01,.38-.93-.07-1.99-1.01-2.37-.93-.38-1.99,.07-2.37,1.01-.38,.93,.07,1.99,1.01,2.37Z"/><path class="cls-1" d="M43.56,34.27c-.57,0-1.21-.18-1.7-.47l-.56,1.27c.44,.27,1.16,.47,1.89,.52v.71h1.04v-.74c1.14-.2,1.71-.89,1.71-1.69,0-1.9-2.85-1.38-2.85-2,0-.18,.16-.32,.67-.32,.45,0,.93,.13,1.43,.38l.52-1.26c-.42-.24-.95-.38-1.49-.43v-.71h-1.04v.73c-1.21,.17-1.81,.87-1.81,1.7,0,1.92,2.85,1.4,2.85,2.05,0,.18-.18,.28-.67,.28Z"/><path class="cls-1" d="M10.74,43.3c.93,.38,1.99-.07,2.37-1.01,.38-.93-.07-1.99-1.01-2.37-.93-.38-1.99,.07-2.37,1.01-.38,.93,.07,1.99,1.01,2.37Z"/><path class="cls-1" d="M43.19,45h1.04v-.74c1.14-.2,1.71-.89,1.71-1.69,0-1.9-2.85-1.38-2.85-2,0-.18,.16-.32,.67-.32,.45,0,.93,.13,1.43,.38l.52-1.26c-.42-.24-.95-.38-1.49-.43v-.71h-1.04v.73c-1.21,.17-1.81,.87-1.81,1.7,0,1.92,2.85,1.4,2.85,2.05,0,.18-.18,.28-.67,.28-.57,0-1.21-.18-1.7-.47l-.56,1.27c.44,.27,1.16,.47,1.89,.52v.71Z"/><path class="cls-1" d="M10.74,52.01c.93,.38,1.99-.07,2.37-1.01s-.07-1.99-1.01-2.37c-.93-.38-1.99,.07-2.37,1.01-.38,.93,.07,1.99,1.01,2.37Z"/><path class="cls-1" d="M43.19,53.71h1.04v-.74c1.14-.2,1.71-.89,1.71-1.68,0-1.9-2.85-1.38-2.85-2,0-.18,.16-.32,.67-.32,.45,0,.93,.13,1.43,.38l.52-1.26c-.42-.24-.95-.38-1.49-.43v-.71h-1.04v.73c-1.21,.17-1.81,.87-1.81,1.7,0,1.92,2.85,1.4,2.85,2.05,0,.18-.18,.28-.67,.28-.57,0-1.21-.18-1.7-.47l-.56,1.27c.44,.27,1.16,.47,1.89,.52v.71Z"/><rect class="cls-1" x="14.84" y="30.53" width="24.32" height="4.74"/><rect class="cls-1" x="14.84" y="39.24" width="24.32" height="4.74"/><rect class="cls-1" x="14.84" y="47.96" width="24.32" height="4.74"/></g></g></svg>