<?xml version="1.0" encoding="UTF-8"?><svg id="Layer_2" xmlns="http://www.w3.org/2000/svg" viewBox="0 0 50.4 49.01"><defs><style>.cls-1{fill:#141c52;}</style></defs><g id="Icons"><g><path class="cls-1" d="M0,0V36.85H25.38l14.95,12.17v-12.17h10.08V0H0ZM44.86,31.31h-10.08v6.05l-7.44-6.05H5.54V5.54H44.86V31.31Z"/><path class="cls-1" d="M14.32,21.59c1.75,.71,3.74-.14,4.45-1.89,.71-1.75-.14-3.74-1.89-4.45-1.75-.71-3.74,.14-4.45,1.89-.71,1.75,.14,3.74,1.89,4.45Z"/><path class="cls-1" d="M33.52,21.59c1.75,.71,3.74-.14,4.45-1.89,.71-1.75-.14-3.74-1.89-4.45-1.75-.71-3.74,.14-4.45,1.89-.71,1.75,.14,3.74,1.89,4.45Z"/><path class="cls-1" d="M23.92,21.59c1.75,.71,3.74-.14,4.45-1.89,.71-1.75-.14-3.74-1.89-4.45-1.75-.71-3.74,.14-4.45,1.89-.71,1.75,.14,3.74,1.89,4.45Z"/></g></g></svg>