<?xml version="1.0" encoding="UTF-8"?><svg id="Layer_2" xmlns="http://www.w3.org/2000/svg" viewBox="0 0 75.6 62.51"><defs><style>.cls-1{fill:#141c52;}</style></defs><g id="Icons"><g><path class="cls-1" d="M25.3,8.16c-1.06-.43-2.15-.63-3.22-.63-3.4,0-6.63,2.03-7.98,5.38-1.78,4.41,.35,9.42,4.76,11.2,1.06,.43,2.15,.63,3.22,.63,3.4,0,6.63-2.03,7.98-5.38,1.78-4.41-.35-9.42-4.76-11.2Zm2,10.09c-.87,2.14-2.92,3.53-5.23,3.53-.72,0-1.43-.14-2.11-.41-2.88-1.16-4.28-4.46-3.12-7.34,.87-2.14,2.92-3.53,5.23-3.53,.72,0,1.43,.14,2.11,.41,1.4,.56,2.49,1.64,3.08,3.02,.59,1.39,.6,2.92,.04,4.32Z"/><path class="cls-1" d="M44.15,19.58V0H0V32.28H8.83v10.66l13.09-10.66h9.53v19.58h22.23l13.09,10.66v-10.66h8.83V19.58h-31.45Zm-12.7,7.85h-11.26l-6.51,5.3v-5.3H4.85V4.85H39.3v14.73h-7.85v7.85Zm39.3,19.58h-8.83v5.3l-6.51-5.3h-19.1V24.43h34.45v22.57Z"/><path class="cls-1" d="M53.52,42.41l7.07-7.06c1.45-1.45,1.45-3.79,0-5.24-1.45-1.45-3.79-1.45-5.24,0l-1.82,1.82-1.82-1.82c-1.45-1.45-3.79-1.45-5.24,0-1.45,1.45-1.45,3.79,0,5.24l7.06,7.06Z"/><path class="cls-1" d="M23.46,12.83c-1.9-.77-4.06,.15-4.82,2.05-.77,1.9,.15,4.06,2.05,4.82,1.9,.77,4.06-.15,4.82-2.05,.77-1.9-.15-4.06-2.05-4.82Z"/></g></g></svg>