<?xml version="1.0" encoding="UTF-8"?><svg id="Layer_2" xmlns="http://www.w3.org/2000/svg" viewBox="0 0 75.6 48.1"><defs><style>.cls-1{fill:#141c52;}</style></defs><g id="Icons"><g><path class="cls-1" d="M70.95,4.64c-6.18-6.18-16.25-6.18-22.43,0-5.79,5.79-6.16,14.99-1.09,21.22l-5.33,5.33c-2.09-1.24-4.7-1.24-6.79,0l-4.65-4.65c1.52-2.56,1.2-5.9-.99-8.1-2.6-2.6-6.81-2.6-9.41,0-2.2,2.2-2.52,5.55-.99,8.1l-9.21,9.21c-2.56-1.52-5.9-1.21-8.1,.99-2.6,2.6-2.6,6.81,0,9.41,2.6,2.6,6.81,2.6,9.41,0,2.2-2.2,2.52-5.54,.99-8.1l9.21-9.21c2.09,1.24,4.7,1.24,6.79,0l4.65,4.65c-1.52,2.56-1.2,5.9,.99,8.1,2.6,2.6,6.81,2.6,9.41,0,2.2-2.2,2.52-5.55,.99-8.1l5.33-5.33c2.9,2.36,6.45,3.54,10,3.54,4.06,0,8.12-1.55,11.21-4.64,3-3,4.65-6.98,4.65-11.22s-1.65-8.22-4.65-11.22Zm-2.86,19.57c-4.61,4.61-12.11,4.61-16.72,0-4.61-4.61-4.61-12.11,0-16.72,4.61-4.61,12.11-4.61,16.72,0,2.23,2.23,3.46,5.2,3.46,8.36s-1.23,6.13-3.46,8.36Z"/><path class="cls-1" d="M59.41,7.2c-3.92,0-6.4,1.62-7.64,3.97l4.36,2.18c.51-1.03,1.49-1.67,2.55-1.67,.91,0,1.64,.39,1.64,1.15,0,1.49-3.16,2.38-3.16,5.34h5.05c0-1.89,3.92-2.55,3.92-6.3,0-3.06-2.87-4.68-6.71-4.68Z"/><path class="cls-1" d="M59.68,19.16c-1.91,0-3.23,1.25-3.23,2.89s1.32,2.94,3.23,2.94,3.23-1.32,3.23-2.94-1.32-2.89-3.23-2.89Z"/></g></g></svg>