<?xml version="1.0" encoding="utf-8"?>
<!-- Generator: Adobe Illustrator 26.0.1, SVG Export Plug-In . SVG Version: 6.00 Build 0)  -->
<svg version="1.1" id="Layer_1" xmlns="http://www.w3.org/2000/svg" xmlns:xlink="http://www.w3.org/1999/xlink" x="0px" y="0px"
	 viewBox="0 0 222.5 51.2" style="enable-background:new 0 0 222.5 51.2;" xml:space="preserve">
<style type="text/css">
	.st0{fill:#FFFFFF;}
</style>
<g>
	<path class="st0" d="M58.3,20.7c-0.4-1.3-0.7-2.7-1.3-4c-0.5-1.1-1-2.2-2.5-2.2c-2.7,0-6,0-9.1,0c-1.5,0-3,0-4.4,0
		c-1.5,0-2,1-2.5,2.2c-0.6,1.3-0.9,2.7-1.3,4C44.2,20.4,51.2,20.4,58.3,20.7z"/>
	<path class="st0" d="M11.8,13.3c-5.4,0-9.7,4.3-9.7,9.7s4.3,9.7,9.7,9.7s9.7-4.3,9.7-9.7S17.2,13.3,11.8,13.3z"/>
	<path class="st0" d="M27.6,7.1c0-3-2.5-5.5-5.5-5.5s-5.5,2.5-5.5,5.5s2.5,5.5,5.5,5.5C25.1,12.7,27.6,10.2,27.6,7.1z"/>
	<path class="st0" d="M36.8,22.8c-1.2,0-2.1,1-2.1,2.1c0,1.2,1,2.1,2.1,2.1c1.2,0,2.1-1,2.1-2.1S38,22.8,36.8,22.8z"/>
	<path class="st0" d="M54.2,27.8c-2.9,1.8-4.8,2-6.5,2s-3.6-0.2-6.5-2c-0.3-0.2-0.6-0.1-0.8,0.1c-0.2,0.2-0.2,0.6-0.1,0.8
		c1.6,2.4,4.3,3.8,7.4,3.8s5.8-1.4,7.4-3.8c0.2-0.3,0.1-0.6-0.1-0.8C54.8,27.7,54.5,27.7,54.2,27.8z"/>
	<path class="st0" d="M47.7,1.8c-13.3,0-24.1,10.8-24.1,24.1S34.4,50,47.7,50s24.1-10.8,24.1-24.1C71.8,12.6,61,1.8,47.7,1.8z
		 M66.7,20.6v1.2c0,0.6-0.4,1-1,1h-1.9c0.2,0.5,0.3,1,0.2,1.5c-0.3,3.3-0.2,5.9-0.5,9.2c-0.1,0.7-0.5,1.3-1.2,1.6v2.1
		c0,0.6-0.4,1-1,1H58c-0.6,0-1-0.4-1-1v-2.1c-6.2-0.1-12.5-0.1-18.7,0v2.1c0,0.6-0.4,1-1,1H34c-0.6,0-1-0.4-1-1v-2.1
		c-0.6-0.3-1.1-0.9-1.2-1.6c-0.3-3.3-0.3-5.9-0.5-9.2c0-0.5,0-1,0.2-1.5h-1.9c-0.6,0-1-0.4-1-1v-1.2c0-0.6,0.4-1,1-1h3.3
		c0.6,0,1,0.4,1,1v0.2H34c0.2-0.5,0.3-1.1,0.5-1.7c0.3-1.2,0.7-2.4,1.3-3.7l0,0l0,0v-0.1c0.6-1.2,1.7-3.7,5-3.7h4.4h9.1
		c3.3,0,4.4,2.5,5,3.7v0.1l0,0l0,0c0.6,1.3,0.9,2.5,1.3,3.7c0.2,0.6,0.3,1.1,0.5,1.7h0.1v-0.2c0-0.6,0.4-1,1-1h3.3
		C66.2,19.6,66.7,20.1,66.7,20.6z"/>
	<path class="st0" d="M58.6,22.8c-1.2,0-2.1,1-2.1,2.1c0,1.2,1,2.1,2.1,2.1s2.1-1,2.1-2.1S59.8,22.8,58.6,22.8z"/>
	<path class="st0" d="M93.3,31.3h-9v-4.6H91c0.9,0,1.5-0.6,1.5-1.5v-1c0-0.9-0.6-1.5-1.5-1.5h-6.7v-4.5h8.9c0.9,0,1.5-0.6,1.5-1.5
		v-1.1c0-0.9-0.6-1.5-1.5-1.5H81c-0.9,0-1.5,0.6-1.5,1.5v18.2c0,0.9,0.6,1.5,1.5,1.5h12.3c0.9,0,1.5-0.6,1.5-1.5v-1.1
		C94.8,31.8,94.2,31.3,93.3,31.3z"/>
	<path class="st0" d="M110.8,20.3c0.2-0.4,0.2-0.8,0-1.1s-0.6-0.5-1.1-0.5h-1.6c-1.1,0-1.5,0.7-1.7,1.4l-3.7,9.3l-3.8-9.3
		c-0.3-0.7-0.7-1.4-1.7-1.4h-1.8c-0.5,0-0.9,0.2-1.1,0.5s-0.2,0.7,0,1.1l6.6,13.8c0.4,0.9,1,1.3,1.8,1.3h0.2c0.8,0,1.4-0.5,1.8-1.3
		L110.8,20.3L110.8,20.3z"/>
	<path class="st0" d="M119.1,18.5c-4.9,0-8.6,3.7-8.6,8.6c0,5,3.7,8.6,8.9,8.6c2,0,5.1-0.7,6.9-2.5c0.6-0.6,0.6-1.2,0-1.8l-0.8-0.8
		c-0.7-0.8-1.4-0.4-1.9,0c-1.2,0.9-2.5,1.4-3.9,1.4c-2,0-4.2-1.1-4.6-3.7h10.8c1.1,0,1.6-0.5,1.6-1.6c0-2.3-0.9-4.5-2.4-6
		C123.6,19.3,121.5,18.5,119.1,18.5z M115.2,25.2c0.4-1.9,1.8-3.1,3.8-3.1c1.1,0,2.1,0.4,2.7,1.1c0.5,0.5,0.8,1.2,1,2H115.2z"/>
	<path class="st0" d="M171,14.6c-0.2-0.3-0.6-0.5-1.2-0.5h-1.7c-1,0-1.6,0.5-1.9,1.4l-4.1,12l-4.2-12.2c-0.3-0.9-0.9-1.3-1.7-1.3
		h-0.3c-0.8,0-1.4,0.4-1.7,1.3l-4.1,12.1l-4-11.9c-0.3-0.9-1-1.4-2-1.4h-1.8c-0.5,0-0.9,0.2-1.1,0.5c-0.1,0.2-0.3,0.5-0.1,1.1
		l6.9,18.4c0.3,0.9,0.9,1.3,1.7,1.3h0.2c0.9,0,1.3-0.4,1.7-1.3l4.3-12l4.4,12c0.3,0.9,0.9,1.3,1.7,1.3h0.2c0.9,0,1.3-0.4,1.7-1.3
		l6.9-18.4C171.2,15.2,171.1,14.8,171,14.6z"/>
	<path class="st0" d="M140.6,18.8c-0.7-0.2-1.3-0.3-2.1-0.3c-1.8,0-3.3,0.7-4.3,2.1c-0.5-1.3-1.8-2.1-3.4-2.1
		c-0.7,0-1.6,0.2-2.3,0.6c-0.7,0.3-0.8,0.9-0.6,1.6l0.3,1.4c0.1,0.4,0.3,0.7,0.6,0.8c0.2,0.1,0.4,0.1,0.6,0c0.2,0,0.3-0.1,0.5-0.1
		c0.2-0.1,0.3-0.1,0.4-0.1c0.1,0,0.2,0,0.2,0.3v10.8c0,0.9,0.5,1.5,1.4,1.5h1.8c0.9,0,1.5-0.6,1.5-1.5v-7.6c0-2.2,1.1-3.6,3-3.6
		c0.4,0,0.9,0.1,1.4,0.2c0.4,0.1,0.7,0.1,1,0c0.3-0.2,0.5-0.4,0.6-0.9l0.4-1.6C141.8,19.2,141,18.9,140.6,18.8z"/>
	<path class="st0" d="M185.6,18.7h-1.2c-0.9,0-1.5,0.6-1.5,1.5v0.2c-1.5-1.2-3.2-1.8-5.1-1.8c-4.7,0-8.2,3.7-8.2,8.6
		s3.5,8.6,8.2,8.6c2,0,3.7-0.7,5.1-2v0.1c0,0.9,0.6,1.5,1.5,1.5h1.2c0.9,0,1.5-0.6,1.5-1.5V20.2C187,19.2,186.5,18.7,185.6,18.7z
		 M178.5,31.5c-2.4,0-4.2-1.9-4.2-4.4c0-2.6,1.8-4.5,4.2-4.5c2,0,4.1,1.4,4.1,4.5C182.6,29.7,180.9,31.5,178.5,31.5z"/>
	<path class="st0" d="M197.2,25.2l-0.6-0.2c-1.5-0.6-2.5-1-2.5-1.7s0.7-1.1,1.8-1.1c1.2,0,2.1,0.3,3.1,1.2c0.7,0.5,1.5,0.5,2.1-0.2
		l0.4-0.6c0.7-0.8,0.7-1.5-0.1-2.2c-1.2-1.2-3.4-1.9-5.6-1.9c-3.8,0-6.3,2-6.3,5c0,3.3,3.1,4.3,5.5,5.2l0.3,0.1
		c1.5,0.6,2.3,1,2.3,1.9c0,0.8-0.8,1.3-2,1.3c-1.3,0-2.7-0.6-3.8-1.6c-0.8-0.6-1.5-0.6-2.1,0.1l-0.5,0.6c-0.3,0.4-0.5,0.7-0.5,1.1
		c0,0.4,0.2,0.7,0.6,1.1c1.4,1.5,4,2.5,6.5,2.5c4,0,6.5-2,6.5-5.1C202.3,27.5,199.9,26.3,197.2,25.2z"/>
	<path class="st0" d="M212.9,18.5c-1.6,0-3.1,0.5-4.2,1.4v-6.4c0-0.5-0.2-0.9-0.5-1.2c-0.2-0.2-0.5-0.3-1.1-0.2l-1.7,0.3
		c-0.7,0.2-1.4,0.5-1.4,1.5v19.9c0,0.9,0.6,1.5,1.5,1.5h1.8c0.9,0,1.4-0.6,1.4-1.5v-7.9c0-1.9,1.3-3.2,3.2-3.2s3.1,1.2,3.1,3.2v7.9
		c0,0.9,0.6,1.5,1.5,1.5h1.8c0.9,0,1.4-0.6,1.4-1.5v-8.3C219.7,21.3,216.9,18.5,212.9,18.5z"/>
</g>
</svg>
