<svg id="Layer_1" data-name="Layer 1" xmlns="http://www.w3.org/2000/svg" viewBox="0 0 309.7 7.21"><defs><style>.cls-1{fill:none;stroke:#1d1d1b;stroke-miterlimit:10;}.cls-2{fill:#1d1d1b;}</style></defs><path class="cls-1" d="M193.27,155.69" transform="translate(-50.11 -12.82)"/><path class="cls-2" d="M359.45,14.83c.45,0,.29-.38.36-.46C359,14.46,359.46,14.94,359.45,14.83Z" transform="translate(-50.11 -12.82)"/><polygon class="cls-2" points="301.78 2.91 301.91 2.74 300.8 3.16 301.78 2.91"/><path class="cls-2" d="M344.83,15.69c.67.72,2.56-.1,3.82.16l.21.16.57-.57A27.61,27.61,0,0,1,344.83,15.69Z" transform="translate(-50.11 -12.82)"/><path class="cls-2" d="M341.08,14.12c.23.28-.81.24.88.09l-.16-.07A6.82,6.82,0,0,1,341.08,14.12Z" transform="translate(-50.11 -12.82)"/><path class="cls-2" d="M341.8,14.14c.74,0-.49-.23,0,0Z" transform="translate(-50.11 -12.82)"/><path class="cls-2" d="M338.37,14.28l1-.24c-.21-.17-1.08-.21-.75-.33C337.59,13.84,337.8,14,338.37,14.28Z" transform="translate(-50.11 -12.82)"/><path class="cls-2" d="M337.43,14.8l.51-.1C337.85,14.63,337.72,14.6,337.43,14.8Z" transform="translate(-50.11 -12.82)"/><path class="cls-2" d="M339,14.48l-1.08.22c.14.11.16.34.5-.08C338.35,14.83,338.56,14.63,339,14.48Z" transform="translate(-50.11 -12.82)"/><path class="cls-2" d="M339.63,14.59c.55.16,1.26.26.27.5C341.77,15,341.5,14.5,339.63,14.59Z" transform="translate(-50.11 -12.82)"/><path class="cls-2" d="M344.47,16.42l.73.22.64-.24C345.52,16.52,344.43,16.2,344.47,16.42Z" transform="translate(-50.11 -12.82)"/><path class="cls-2" d="M332.27,13.88c-.06.15.33.4.4.6l.72-.17C333,14.2,332.32,14.1,332.27,13.88Z" transform="translate(-50.11 -12.82)"/><path class="cls-2" d="M332.67,14.48l-1.09.25C332.55,14.77,332.73,14.65,332.67,14.48Z" transform="translate(-50.11 -12.82)"/><polygon class="cls-2" points="287.14 2.77 288.92 2.23 286.8 2.77 287.14 2.77"/><polygon class="cls-2" points="278.02 1.01 278.64 0.66 277.54 1.19 278.02 1.01"/><path class="cls-2" d="M325.39,13.88c.46-.29-.61-.5-.13-.67a6.26,6.26,0,0,0-2,.51A4.31,4.31,0,0,1,325.39,13.88Z" transform="translate(-50.11 -12.82)"/><path class="cls-2" d="M322.34,14a6.35,6.35,0,0,0,1-.32A4,4,0,0,0,322.34,14Z" transform="translate(-50.11 -12.82)"/><path class="cls-2" d="M329.74,14.65a1.14,1.14,0,0,0-.85-.44l.43.43Z" transform="translate(-50.11 -12.82)"/><path class="cls-2" d="M329.33,14.65h0l-.92,0Z" transform="translate(-50.11 -12.82)"/><path class="cls-2" d="M329.85,14.65h-.11S329.81,14.7,329.85,14.65Z" transform="translate(-50.11 -12.82)"/><path class="cls-2" d="M334.42,15.19c-.64.23-2,.48-.68.85C334.2,15.75,333.46,15.54,334.42,15.19Z" transform="translate(-50.11 -12.82)"/><path class="cls-2" d="M330.37,15.19l1.15.1c0-.11-.23-.28.09-.39Z" transform="translate(-50.11 -12.82)"/><polygon class="cls-2" points="279.7 2.5 280.26 2.37 279.83 2.33 279.7 2.5"/><path class="cls-2" d="M324.3,14.46a5.63,5.63,0,0,1-1.65.22,16.77,16.77,0,0,0,2,.14C324.72,14.68,325,14.44,324.3,14.46Z" transform="translate(-50.11 -12.82)"/><path class="cls-2" d="M326.75,14.59l-.11,0C326.7,14.65,326.76,14.66,326.75,14.59Z" transform="translate(-50.11 -12.82)"/><path class="cls-2" d="M316.61,14.64l.1.08a.24.24,0,0,1,0-.08Z" transform="translate(-50.11 -12.82)"/><path class="cls-2" d="M324.74,14.9a1.66,1.66,0,0,0,1.07-.15,10.86,10.86,0,0,1-1.18.07C324.59,14.88,324.58,14.92,324.74,14.9Z" transform="translate(-50.11 -12.82)"/><path class="cls-2" d="M320.65,14.23a6.28,6.28,0,0,0,.86.24C321.25,14.34,320.74,14.12,320.65,14.23Z" transform="translate(-50.11 -12.82)"/><path class="cls-2" d="M326.47,14.49l.07,0C326.38,14.38,326.4,14.43,326.47,14.49Z" transform="translate(-50.11 -12.82)"/><path class="cls-2" d="M326.47,14.49a3.36,3.36,0,0,0-.66.26,6.23,6.23,0,0,0,.83-.14A.43.43,0,0,1,326.47,14.49Z" transform="translate(-50.11 -12.82)"/><path class="cls-2" d="M314.76,17.37c.09-.39,1.4-.75,2.51-.32,1.11-.29.4-1.6-.56-2.33,0,.17,0,.33-1.18.56.4.22,2.52.52,1.56.87-1.51.2-1.23-.15-2-.36.62.5-1.92.71-1.6,1.43l1.32-.24C314.88,17.09,314.4,17.27,314.76,17.37Z" transform="translate(-50.11 -12.82)"/><path class="cls-2" d="M318.87,14.77l.47,0a5.56,5.56,0,0,1-1.62-.54c-.77.19-.94.33-1,.46l2.3.07Z" transform="translate(-50.11 -12.82)"/><path class="cls-2" d="M321.44,14.74c-.37.42-1.49.6-.81,1.07,1.37,0,1-.35,1.78-.54-2.21.1.64-.23-1-.49a8.94,8.94,0,0,1,1.2-.1c-.4-.06-.78-.12-1.14-.21l.05,0h0c.1.05.13.08,0,.05h0a.54.54,0,0,1-.1.16c-.64-.09-.1-.11.1-.16,0,0,0,0,0-.06h0l-2.22.22A12.21,12.21,0,0,0,321.44,14.74Z" transform="translate(-50.11 -12.82)"/><path class="cls-2" d="M332.55,17c-.07,0-.07-.07-.07-.1S332.28,17,332.55,17Z" transform="translate(-50.11 -12.82)"/><path class="cls-2" d="M331.64,16.7a1.19,1.19,0,0,1,.82-.19c.45.13,0,.21,0,.35.32-.11,1.11-.3.12-.52l-.16.06c-.89-.15-2-.7-1.88-.76A3.3,3.3,0,0,0,331.64,16.7Z" transform="translate(-50.11 -12.82)"/><path class="cls-2" d="M326.47,15.82l-1.84.21.93.37,0-.22C326.57,16.27,326.34,16,326.47,15.82Z" transform="translate(-50.11 -12.82)"/><polygon class="cls-2" points="266.29 1.6 266.53 1.15 265.46 1.78 266.29 1.6"/><polygon class="cls-2" points="263.89 1.64 263.98 1.25 263.34 1.48 263.89 1.64"/><path class="cls-2" d="M178.58,18.59l-.54.11A2.6,2.6,0,0,0,178.58,18.59Z" transform="translate(-50.11 -12.82)"/><path class="cls-2" d="M182.51,18.64l.1-.19C182.43,18.55,182.35,18.63,182.51,18.64Z" transform="translate(-50.11 -12.82)"/><path class="cls-2" d="M255.08,14.17c-.79-.38-1.67-.95-1.58-.51l.24.44A3.17,3.17,0,0,1,255.08,14.17Z" transform="translate(-50.11 -12.82)"/><path class="cls-2" d="M214.71,16.53l.23.13.53-.41Z" transform="translate(-50.11 -12.82)"/><path class="cls-2" d="M214.14,18.32l-1-.29A5.13,5.13,0,0,0,214.14,18.32Z" transform="translate(-50.11 -12.82)"/><path class="cls-2" d="M157.13,18.93l-.63.44C157.49,19.37,157.05,19.14,157.13,18.93Z" transform="translate(-50.11 -12.82)"/><path class="cls-2" d="M289.43,14.48a8.51,8.51,0,0,0-1.7-.27C288.55,14.46,289.21,14.84,289.43,14.48Z" transform="translate(-50.11 -12.82)"/><path class="cls-2" d="M180.16,14c-.34.07-.48.16-.47.26C180,14.19,180.23,14.1,180.16,14Z" transform="translate(-50.11 -12.82)"/><path class="cls-2" d="M285.76,14.2c.12.05.24.07.36.11a8.14,8.14,0,0,1,1.61-.1A2.73,2.73,0,0,0,285.76,14.2Z" transform="translate(-50.11 -12.82)"/><path class="cls-2" d="M79.34,18.12l-.17-.05C79.15,18.12,79.23,18.13,79.34,18.12Z" transform="translate(-50.11 -12.82)"/><path class="cls-2" d="M56.7,13.61a8.65,8.65,0,0,1,.94,0A3.47,3.47,0,0,0,56.7,13.61Z" transform="translate(-50.11 -12.82)"/><path class="cls-2" d="M304.35,14.22c.51,0,.08-.05,0,0Z" transform="translate(-50.11 -12.82)"/><path class="cls-2" d="M306.81,16c-.11.05-.19.11-.2.21A.38.38,0,0,1,306.81,16Z" transform="translate(-50.11 -12.82)"/><path class="cls-2" d="M280.67,16.87h0C280.78,17,280.75,16.94,280.67,16.87Z" transform="translate(-50.11 -12.82)"/><path class="cls-2" d="M305.11,14.42a5,5,0,0,0-.65-.13A5.36,5.36,0,0,0,305.11,14.42Z" transform="translate(-50.11 -12.82)"/><path class="cls-2" d="M305,14.22l.45,0C305.52,14.19,305.46,14.14,305,14.22Z" transform="translate(-50.11 -12.82)"/><path class="cls-2" d="M303.64,14.24a5.39,5.39,0,0,1,.82,0c-.1,0-.14-.06-.11-.07Z" transform="translate(-50.11 -12.82)"/><path class="cls-2" d="M121,17.2l-.11,0C120.41,17.33,120.63,17.31,121,17.2Z" transform="translate(-50.11 -12.82)"/><path class="cls-2" d="M241.81,18.6a.11.11,0,0,1,.06,0l-.08,0Z" transform="translate(-50.11 -12.82)"/><path class="cls-2" d="M240,18.91a1.94,1.94,0,0,1,1.81-.35l-.6-1.25Z" transform="translate(-50.11 -12.82)"/><path class="cls-2" d="M169.18,18.66l1.28.4c-1.55.63-2.67.4-1.47,1,.19-1.36,5-.11,5.18-1.47l.84.29c-.24,0-.28.07-.52.05,1.64.66,1.23-1,3.35-.77.73.11,1.25.31.74.47l1.65-.32c.48,0,.36.26-.11.23l2.51-.09,0,0a12.19,12.19,0,0,1,1.57-.68c.64.2-.32.15-.16.32l1.39-.33c.57.36-.59.69-1.55.64,1.29,1.36,1.16-.34,4,.47L186.5,19c.84.77,1.87.5,3.35,1-.35-.26-3-1.23-1.45-1.56a3,3,0,0,0,1.8-.11c0,.48.8.37,1.79.35l-.07.64c1.08-.18,1-.51,1.63-.79a1.78,1.78,0,0,1,1.72,1c1.92.12-1.32-.8,1-.91a12,12,0,0,0,4.62-.37c1.12.23-.19.39.21.58l1-.51c.24,0,.16.17.12.25.84-.19.08-.64,1.39-.8.36-.71,2.69,1,4.31.25.4.18-.19.39-.07.64a17.22,17.22,0,0,0,3.74-1.07l1.56.43c-1.14-.49.32-1.05,1.61-1.5a10,10,0,0,0-1-.54l2.05-.33c.25.1,0,.32-.3.59l.38-.15c.73.24.35.6-.18,1l-.73-.4c-.51.38-1,.81-.88,1.19a1.84,1.84,0,0,1,.67-.17c-.13.1-.22.2-.16.26s.29-.07.62-.23l.46.71.12-.28,2.67.46c1.92-.71,3.59-1.75,6.63-2-.76.52-.17.85-.21,1.47-.83-.66-2.36.27-3.93.13.82.07.64.36.43.47l2.81-.58c-.07.5.59.38,1.33.59-.55-1,2.09-.65,3.24-.95.07.33-.21.68-1.6.59,1.53.76,2-1.17,3.5-.52-.34,0-.53-.05-.66.12.79-.29,2.74,0,2.28.25h-.34c2.26.14,6.88.05,7.22-.8a4.21,4.21,0,0,1-.44,1.2l4.05-2.84c-.36.73,1,2.47-.88,2.88a5.12,5.12,0,0,0,2.33,0c-.36-.11-.9-1.06-.4-1.13a12.08,12.08,0,0,0,2.64,1.15c-.55-.16.07-1.31.94-1.26-.14.17.07,1.13-.25,1.24l2.17-1.11c-.54.2-.1.95.38,1.28-.22-.23,1.87,0,2.45-.08l-.92-.27c2.45.19,2.43-1.56,4.85-1.49-.3.23-.73,1.42.5,1.57.57-.57,2.52-2.75,4.66-3.18l.41.33,1.65-.37a33,33,0,0,1-5.49,3.37c.91.27.25.39,1.62.37.48.31-.75.46-1.15.48l3.19.22c-.14-.68,2.44-.67,2.32-1.23l-3.47.68c-.13-.67,2-1.9,4.27-1.76.58.27-.43,1.19-.39,1.41a5,5,0,0,1,2.36-.26l-1,.35c1.25.26,2.05-.87,3.56-.22.52,0,1.55.87,1.65.47-.85-.77-1-3.14-.43-3.72a23.2,23.2,0,0,1,3.33,1.14c.85.6-1.3,1.42-.57,1.94,0-.18.5-.4.7-.48.55.16-.23.57,1,.49.21-.68,2.42.08.57-.57,1.16-.19,1.24.15,2.6.13-.43-.45,1.24-1.49,2.41-1.68-.07.17.19.4.31.5,2.39.08,3.67.39,5.89.41.21.17,1.28.38.82.67a3,3,0,0,1,1.31-.36c1.32.59-1.54.08-.53.79.09-.39,1.78-.53,2.76-.78-.3-.61-2.26-.13-3.24.12,0-.85,1.71-1.72,4-2.1,1.85-.2.8.55,1.12.43,3.47.17,3-1.45,5.85-.83,1.14.55,0,1.07.29,1.46-1.5.2-2.31-.35-3.33-.34l1.26.26a4.12,4.12,0,0,1-2,.15c1,.49,5.87.13,8.55.59.47-.18,1.3-.36.91-.58l-.85.07c-.78-.44,1.6-.59.53-.8a9,9,0,0,1,4-.51l.3.61c0-.18-1-.37-1.49-.19.66-.26,2.45.85,3.18.05l-1.12-.43c1.14-.3,2.56-1,4-.74-.64-.61-.33.06-1.33-.65.86.89-3.63-.06-2.23.88-1-.83-1.79-.36-3.14-1.07,0,.2.48.39-.71.28a1.81,1.81,0,0,1-.27.18l-.08,0,.07,0c-.05,0-.06,0,0,0a1.31,1.31,0,0,1,.61.32c-.6.46-2.49.43-3.13.67-.71-.1.3-.23-.09-.45l-1,.35c-.09-.45-1.87-.75-.2-1l-1.5,0a6.53,6.53,0,0,0-2.85-.18c-.7-.1-1.78.49-1.17.14l-2.35.27,0-.12c-2.32-.07-4.78.72-7.42-.1a10.73,10.73,0,0,1-2.9.1L283,14c-1,.13-3-.4-3.44,0-1.07-1-4.86-.26-6.62-.45l-.07.5a25.7,25.7,0,0,0-3.89.3l.09.45c-1.3.36-3.33-.34-5.39-.31.14-.17.66-.12,1,0-2.45-1-5.18.7-7.4-.05a2.16,2.16,0,0,1-1.34,0l.13,0h-.22c-.25-.08-.5-.17-.77-.24a3,3,0,0,0,.64.24,12.55,12.55,0,0,0-1.71.17l-.27-.48h-.14c-.63-.18-.51.22-.18.59a4.58,4.58,0,0,0-.84.28c-.5-.78-1.67.26-2.36-.58-.43.41-3.19.29-3.54,1.14,0-.11-.21-.17.14-.17a4.33,4.33,0,0,0-2.06,0l-.29-.61-1.55.81c-.94-.38-1.33-.6-.4-1.06-2.25.71-1.83.26-3.75,1l.1-.4c-.69,0-1.79.54-2.2.21-1.53-.76-7.58-.15-11.51-.87.75,1.17-1.83-.53-2,.37-.23-.28-.77-.44-.14-.67-2,.26-3-.46-4.4.3-.23-.28.43-.41.23-.57-.16.06-.64.24-.85.07s.3-.23.61-.35c-2.05,0-2.26.88-2.41,1.68a2.11,2.11,0,0,0-2.31.19c-.36-.27-1-.54.31-.63-.72,0-4.38-.41-4.46.23a2.09,2.09,0,0,0-1.19,0C207,15,206.81,15,205.23,15l.44.1c-.63.77-1.31.17-2.59.25l0-.08c-2.92-.57-1.26.26-4.14-.39l.15.48c-.27,1-2.55-.62-4.22-.24l.6.28c-.92.35-2.54-1.42-3.46-1.55-.2-.09.32-.14.6-.21-2.4-.62-.32.63-2.11.77-.33-.35.43-.86-.77-.93-.6-.28-3.5,1.08-5.14.42.36.26.72.52-.12.71-1.27.09-3.44-1-4.59-.19-.16-.07-.22-.14-.23-.2-1,.2-3.17.33-3.75.78-.9-1.67-6.06.77-6-.76l-3,.06.08-.15a5.1,5.1,0,0,0-3.27.61c-.44-.11-.12-.25-.08-.33a9.11,9.11,0,0,0-5.42.49l-.24-.5c-.64.29-4-.8-6.79-.24,0-.05.08-.15.3-.22-3.09.57-7.38-1.41-8.52.38l-2,.44c2.63.15-.4.78.68,1.08-1,.1-2.68-.56-1.4-.64l.2.09c.47-.94-3.28-.35-3.2-1-5.19,0-10.24-.54-15.1-.6l.56.73-1.7-.05c-.44-.17-.59-.58.62-.54-.63-.42-2,.34-2.07.49-2.36-.31.93-.84.21-.86l-1,0,.22.09a3.9,3.9,0,0,1-2.32.57c-.92-.15-.47-.46-.83-.49,0-.05-.12-.07-.56,0l-2.13-.08.85.59c-1,.28-2-.05-1,.61-1.44-1-8-.4-8.85-.72a12.37,12.37,0,0,1-4.25.34c.4.12.64.77-.76.68.52-1.34-2.56-.59-3.68-1.57,1,.65-4,.14-2.4,1.06-1.16-.12-.07-.51-1-.83-2.78.51-6.11-.37-9.55-.21,0,.17.52.44-.22.7l-1.8-.89c-.68.08-.63,1-1.87.4.18.15.44.37,0,.42-6.71-.89-13.74.63-20.56-1,.93.34.31.37-.39.38.45.09,0,.44.07.67l-2.85-.67c-.53.65-3.07,0-3.37.65l.91-.11c-1.21.74,1.67,1.67,1.49,2.63,1.35-.84,3.55,1.28,5.76.08.49.19-.41.3-.15.53a3.12,3.12,0,0,1,2.49-.3l-.14.1c3.52-.08,5,.33,9,.63l-.29-.48a4.44,4.44,0,0,1,1.42.34c1-.71-2.39-.06-1.49-.84,1.12,1,6,.05,6.75,1.15,1.31,0-.38-.55.93-.54l.35.3.33-.38c.86.07,1.29.44,1.32.69a4.78,4.78,0,0,0-.82.09c1.11.35,3.14-.1,3.52,0l-1.25-.19c3.57-.25,7.93.16,11.38-.42l-.26-.23c2.64-.4,2.11.26,5,.09l-.1.05a5.66,5.66,0,0,1,2.14-.3c-.73.26,1.38.52.42.8,2.86-.43,1.41-.34,3.3-1.16l.44.38a3.5,3.5,0,0,1,2.14-.6c-1.19.31.92.57-.41,1,3,.83,4.51-.79,5.89.4,1.4-1-2.62-.58-1.84-.8-.65-.34,1.16-.76,2.11-.65s1.64,1.32,4.07,1.32c-.24,0-.26.07-.5.06.91.27,1.79-.34,2.91.09.63-.61,1.45.05,1.63-.74l-2.23.17c1.27-.2,2.46-1.12,4.54-.66a4.08,4.08,0,0,1-1.21.48c.61.23,1.18-.15,1.81.09-.19.79-2.72.16-4.08.76.65.33,2.57-.56,1.88.29,1-1.08,2.4.15,4.06-.67l-.11.47a4.54,4.54,0,0,1,1.28-.28l-.87.61c1.34-.51,2.57.48,3.85.2-2.68,0-.6-.58-1.73-.93,3.31-.61,1.9,1.25,5.6,1.05-.5.06-1.88-.3-1.09-.51a7.08,7.08,0,0,1,2.06.54c2.46-.09-.37-.49.68-.78.83.58,1.2-.23,2.28-.41v.49c2.8.32.75-1,3.27-.62l-1.07.67,1.31-.17-.27.55a6.5,6.5,0,0,1,3.27-.13c-.32-.34.19-.87,1.43-.88.84.29-.48.45,1.28.39a1.23,1.23,0,0,1-1.6.23c-.08.16-.39.3-.47.46a8.87,8.87,0,0,0,2.92.09,2.52,2.52,0,0,1-.69-.12l2.55-.66c.4.19.08.33-.23.47a14.36,14.36,0,0,1,1.63-.3c-.2.39-.15.79-1.23,1l2.43-.42c.16.17,1.24.48.93.62,1.34.24,3.3-.74,5.08-.43a1.42,1.42,0,0,1,.66-.2c1.67.1,3.16.59,5.15.06l1.12.71c1.55-.15-1.52-.89,1.07-1.14,1.83-.22.68.6,1.32.8a6,6,0,0,1,4.19-.48A9.9,9.9,0,0,1,169.18,18.66Zm19.18-.2c-.37.1-1.11.41-1.38.12C187.4,18,187.73,18.3,188.36,18.46Zm29.17-1a1.48,1.48,0,0,1-1.19-.11A3,3,0,0,1,217.53,17.47Zm81.24-2.89,0,0C297.9,14.41,298.19,14.49,298.77,14.58Zm1.72.22c.17-.07.16-.13.09-.2a1.55,1.55,0,0,1-.95.09C299.75,14.82,300,14.9,300.49,14.8Zm-184.88-.88.34.13C115.19,14.18,115.4,14.06,115.61,13.92Z" transform="translate(-50.11 -12.82)"/><path class="cls-2" d="M214.22,18.11a.39.39,0,0,1-.16-.26C213.91,17.93,213.91,18,214.22,18.11Z" transform="translate(-50.11 -12.82)"/><path class="cls-2" d="M157.25,18.85h-.06a.24.24,0,0,0-.06.09Z" transform="translate(-50.11 -12.82)"/><path class="cls-2" d="M273.8,18.74a1.86,1.86,0,0,1-.68-.26C273.1,18.6,273.26,18.7,273.8,18.74Z" transform="translate(-50.11 -12.82)"/><path class="cls-2" d="M309.62,14l-1.11.12a2.25,2.25,0,0,1,1,.17C309.48,14.2,309.27,14,309.62,14Z" transform="translate(-50.11 -12.82)"/><path class="cls-2" d="M319.17,17.07c.16-.06.34,0,.5-.06l0-.22C318.94,16.8,318.46,17,319.17,17.07Z" transform="translate(-50.11 -12.82)"/><path class="cls-2" d="M310.63,15.64c.08.41.78.27,1.55.2H312C312.27,15.28,311.45,15.46,310.63,15.64Z" transform="translate(-50.11 -12.82)"/><path class="cls-2" d="M312.36,15.83a4.22,4.22,0,0,1,.71,0C313.16,15.6,312.78,15.78,312.36,15.83Z" transform="translate(-50.11 -12.82)"/><path class="cls-2" d="M302.67,14.54c.37.11.24-.51.44-.35C303.53,13.68,300.67,14.8,302.67,14.54Z" transform="translate(-50.11 -12.82)"/><polygon class="cls-2" points="261.13 4.16 260.86 3.66 260.42 4.06 261.13 4.16"/><path class="cls-2" d="M305.15,16.58l1.23.14c0-.08.14-.13.33-.16C306,16.53,305.12,16.43,305.15,16.58Z" transform="translate(-50.11 -12.82)"/><path class="cls-2" d="M306.71,16.56a3.19,3.19,0,0,0,1-.08A6.44,6.44,0,0,0,306.71,16.56Z" transform="translate(-50.11 -12.82)"/><polygon class="cls-2" points="259.44 4.3 259.08 4.19 258.21 4.15 259.44 4.3"/><path class="cls-2" d="M291.88,16.41l-1.35.13c-.14.17.23.28.73.21C291.59,16.64,292.09,16.57,291.88,16.41Z" transform="translate(-50.11 -12.82)"/><path class="cls-2" d="M296,17.8a1.32,1.32,0,0,1-.6-.38l0,.62Z" transform="translate(-50.11 -12.82)"/><path class="cls-2" d="M292,17.92c-.14.17-2,.49-.25.46C291.91,18.21,293.26,18.07,292,17.92Z" transform="translate(-50.11 -12.82)"/><polygon class="cls-2" points="221.61 4.2 221.95 4.19 221.91 3.17 221.61 4.2"/><path class="cls-2" d="M253.82,19.35c1.6.26.38-.62,1.83-.31.37-.24-1.18-.26-.8-.46C253.89,18.83,253.38,18.68,253.82,19.35Z" transform="translate(-50.11 -12.82)"/><path class="cls-2" d="M254.85,18.58l.5-.15A2.19,2.19,0,0,0,254.85,18.58Z" transform="translate(-50.11 -12.82)"/><polygon class="cls-2" points="2.83 0.22 1.81 0 2.47 0.35 2.83 0.22"/><path class="cls-2" d="M51,13.78l-.24-.65-.62.59C50.35,13.69,50.8,13.64,51,13.78Z" transform="translate(-50.11 -12.82)"/><path class="cls-2" d="M191.21,19.79l.08-.16c-.16-.17-.4-.18-.88-.21Z" transform="translate(-50.11 -12.82)"/><polygon class="cls-2" points="127.17 6.4 127.41 6.41 126.97 5.82 127.17 6.4"/><path class="cls-2" d="M165.6,19.9c.48,0,1-.1,1.52-.07C166.08,19.93,165.47,19.17,165.6,19.9Z" transform="translate(-50.11 -12.82)"/></svg>