<?xml version="1.0" encoding="utf-8"?>
<!-- Generator: Adobe Illustrator 26.3.1, SVG Export Plug-In . SVG Version: 6.00 Build 0)  -->
<svg version="1.1" id="Layer_1" xmlns="http://www.w3.org/2000/svg" xmlns:xlink="http://www.w3.org/1999/xlink" x="0px" y="0px"
	 viewBox="0 0 1366 768" style="enable-background:new 0 0 1366 768;" xml:space="preserve">
<style type="text/css">
	.st0{fill:none;}
	.st1{fill:#FFFFFF;}
	.st2{clip-path:url(#SVGID_00000091715884964592093070000003214468214440214461_);fill:#D4D8EE;}
	.st3{clip-path:url(#SVGID_00000091715884964592093070000003214468214440214461_);}
	.st4{opacity:0.95;clip-path:url(#SVGID_00000097461812260660032850000001893630273585497775_);}
	.st5{filter:url(#Adobe_OpacityMaskFilter);}
	
		.st6{clip-path:url(#SVGID_00000153677555691825118230000017204812308449703562_);fill:url(#SVGID_00000096765519302743703840000007357608246372315047_);}
	
		.st7{clip-path:url(#SVGID_00000153677555691825118230000017204812308449703562_);mask:url(#SVGID_00000049202182892514720220000012244290231899362962_);}
	
		.st8{clip-path:url(#SVGID_00000019674964427667537930000010777758424089773730_);fill:url(#SVGID_00000063598740046334433980000015204857128252108697_);}
</style>
<pattern  width="93.5" height="93.5" patternUnits="userSpaceOnUse" id="Unnamed_Pattern" viewBox="0 -93.5 93.5 93.5" style="overflow:visible;">
	<g>
		<rect x="0" y="-93.5" class="st0" width="93.5" height="93.5"/>
		<path class="st1" d="M93.5-55.5c-5.2,0-8-2.1-10.1-3.6c-1.8-1.3-2.8-2-5.5-2c-2.6,0-3.7,0.8-5.5,2c-2.1,1.5-4.9,3.6-10.1,3.6
			c-5.2,0-8-2.1-10.1-3.6c-1.8-1.3-2.8-2-5.5-2s-3.7,0.8-5.5,2c-2.1,1.5-4.9,3.6-10.1,3.6c-5.2,0-8-2.1-10.1-3.6
			c-1.8-1.3-2.8-2-5.4-2c-2.6,0-3.7,0.8-5.4,2C8-57.6,5.2-55.5,0-55.5v-8c2.6,0,3.7-0.8,5.5-2.1c2.1-1.5,4.9-3.6,10.1-3.6
			s8,2.1,10.1,3.6c1.8,1.3,2.8,2.1,5.4,2.1c2.6,0,3.7-0.8,5.5-2.1c2.1-1.5,4.9-3.6,10.1-3.6s8,2.1,10.1,3.6c1.8,1.3,2.8,2.1,5.5,2.1
			c2.6,0,3.7-0.8,5.5-2.1c2.1-1.5,4.9-3.6,10.1-3.6c5.2,0,8,2.1,10.1,3.6c1.8,1.3,2.8,2.1,5.5,2.1V-55.5z"/>
		<path class="st1" d="M93.5-45.1c-5.2,0-8-2.1-10.1-3.6c-1.8-1.3-2.8-2-5.5-2c-2.6,0-3.7,0.8-5.5,2c-2.1,1.5-4.9,3.6-10.1,3.6
			c-5.2,0-8-2.1-10.1-3.6c-1.8-1.3-2.8-2-5.5-2s-3.7,0.8-5.5,2c-2.1,1.5-4.9,3.6-10.1,3.6c-5.2,0-8-2.1-10.1-3.6
			c-1.8-1.3-2.8-2-5.4-2c-2.6,0-3.7,0.8-5.4,2C8-47.2,5.2-45.1,0-45.1v-8c2.6,0,3.7-0.8,5.5-2.1c2.1-1.5,4.9-3.6,10.1-3.6
			c5.2,0,8,2.1,10.1,3.6c1.8,1.3,2.8,2.1,5.4,2.1c2.6,0,3.7-0.8,5.5-2.1c2.1-1.5,4.9-3.6,10.1-3.6s8,2.1,10.1,3.6
			c1.8,1.3,2.8,2.1,5.5,2.1s3.7-0.8,5.5-2.1c2.1-1.5,4.9-3.6,10.1-3.6s8,2.1,10.1,3.6c1.8,1.3,2.8,2.1,5.5,2.1V-45.1z"/>
		<path class="st1" d="M93.5-66c-5.2,0-8-2.1-10.1-3.6c-1.8-1.3-2.8-2.1-5.5-2.1c-2.6,0-3.7,0.8-5.5,2.1C70.3-68,67.5-66,62.3-66
			c-5.2,0-8-2.1-10.1-3.6c-1.8-1.3-2.8-2-5.5-2s-3.7,0.8-5.5,2C39.2-68,36.3-66,31.1-66c-5.2,0-8-2.1-10.1-3.6c-1.8-1.3-2.8-2-5.4-2
			c-2.6,0-3.7,0.8-5.4,2C8-68,5.2-66,0-66v-8c2.6,0,3.7-0.8,5.5-2.1c2.1-1.5,4.9-3.6,10.1-3.6s8,2.1,10.1,3.6
			c1.8,1.3,2.8,2.1,5.4,2.1c2.6,0,3.7-0.8,5.5-2.1c2.1-1.5,4.9-3.6,10.1-3.6s8,2.1,10.1,3.6c1.8,1.3,2.8,2.1,5.5,2.1
			c2.6,0,3.7-0.8,5.5-2.1c2.1-1.5,4.9-3.6,10.1-3.6c5.2,0,8,2.1,10.1,3.6c1.8,1.3,2.8,2.1,5.5,2.1V-66z"/>
		<path class="st1" d="M77.9-82c-2.6,0-3.7,0.8-5.5,2c-2.1,1.5-4.9,3.6-10.1,3.6c-5.2,0-8-2.1-10.1-3.6c-1.8-1.3-2.8-2-5.5-2
			s-3.7,0.8-5.5,2c-2.1,1.5-4.9,3.6-10.1,3.6c-5.2,0-8-2.1-10.1-3.6c-1.8-1.3-2.8-2-5.4-2c-2.6,0-3.7,0.8-5.5,2
			C8-78.4,5.2-76.4,0-76.4v-8c2.6,0,3.7-0.8,5.5-2c2.1-1.5,4.9-3.6,10.1-3.6c5.2,0,8,2.1,10.1,3.6c1.8,1.3,2.8,2,5.4,2
			c2.6,0,3.7-0.8,5.5-2c2.1-1.5,4.9-3.6,10.1-3.6s8,2.1,10.1,3.6c1.8,1.3,2.8,2,5.5,2c2.6,0,3.7-0.8,5.5-2c2.1-1.5,4.9-3.6,10.1-3.6
			c5.2,0,8,2.1,10.1,3.6c1.8,1.3,2.8,2,5.5,2v8c-5.2,0-8-2.1-10.1-3.6C81.6-81.2,80.5-82,77.9-82"/>
		<path class="st1" d="M93.5-34.7c-5.2,0-8-2.1-10.1-3.6c-1.8-1.3-2.8-2-5.5-2c-2.6,0-3.7,0.8-5.5,2c-2.1,1.5-4.9,3.6-10.1,3.6
			c-5.2,0-8-2.1-10.1-3.6c-1.8-1.3-2.8-2-5.5-2s-3.7,0.8-5.5,2c-2.1,1.5-4.9,3.6-10.1,3.6c-5.2,0-8-2.1-10.1-3.6
			c-1.8-1.3-2.8-2-5.4-2c-2.6,0-3.7,0.8-5.4,2C8-36.8,5.2-34.7,0-34.7v-8c2.6,0,3.7-0.8,5.5-2c2.1-1.5,4.9-3.6,10.1-3.6
			c5.2,0,8,2.1,10.1,3.6c1.8,1.3,2.8,2,5.4,2c2.6,0,3.7-0.8,5.5-2c2.1-1.5,4.9-3.6,10.1-3.6s8,2.1,10.1,3.6c1.8,1.3,2.8,2,5.5,2
			s3.7-0.8,5.5-2c2.1-1.5,4.9-3.6,10.1-3.6s8,2.1,10.1,3.6c1.8,1.3,2.8,2,5.5,2V-34.7z"/>
		<path class="st1" d="M93.5-93.5v6.7c-5.2,0-8-2.1-10.1-3.6c-1.8-1.3-2.8-2.1-5.5-2.1c-2.6,0-3.7,0.8-5.5,2.1
			c-2.1,1.5-4.9,3.6-10.1,3.6c-5.2,0-8-2.1-10.1-3.6c-1.8-1.3-2.8-2.1-5.5-2.1s-3.7,0.8-5.5,2.1c-2.1,1.5-4.9,3.6-10.1,3.6
			c-5.2,0-8-2.1-10.1-3.6c-1.8-1.3-2.8-2.1-5.4-2.1c-2.6,0-3.7,0.8-5.4,2.1C8-88.9,5.2-86.8,0-86.8v-6.7H93.5z"/>
		<path class="st1" d="M0,0v-1.1c2.6,0,3.7-0.8,5.5-2.1c2.1-1.5,4.9-3.6,10.1-3.6c5.2,0,8,2.1,10.1,3.6c1.8,1.3,2.8,2.1,5.4,2.1
			c2.6,0,3.7-0.8,5.5-2.1c2.1-1.5,4.9-3.6,10.1-3.6s8,2.1,10.1,3.6c1.8,1.3,2.8,2.1,5.5,2.1c2.6,0,3.7-0.8,5.5-2.1
			c2.1-1.5,4.9-3.6,10.1-3.6c5.2,0,8,2.1,10.1,3.6c1.8,1.3,2.8,2.1,5.5,2.1V0H0z"/>
		<path class="st1" d="M93.5-24.3c-5.2,0-8-2.1-10.1-3.6c-1.8-1.3-2.8-2-5.5-2c-2.6,0-3.7,0.8-5.5,2c-2.1,1.5-4.9,3.6-10.1,3.6
			c-5.2,0-8-2.1-10.1-3.6c-1.8-1.3-2.8-2-5.5-2s-3.7,0.8-5.5,2c-2.1,1.5-4.9,3.6-10.1,3.6c-5.2,0-8-2.1-10.1-3.6
			c-1.8-1.3-2.8-2-5.4-2c-2.6,0-3.7,0.8-5.4,2C8-26.4,5.2-24.3,0-24.3v-8c2.6,0,3.7-0.8,5.5-2.1c2.1-1.5,4.9-3.6,10.1-3.6
			c5.2,0,8,2.1,10.1,3.6c1.8,1.3,2.8,2.1,5.4,2.1c2.6,0,3.7-0.8,5.5-2.1c2.1-1.5,4.9-3.6,10.1-3.6s8,2.1,10.1,3.6
			c1.8,1.3,2.8,2.1,5.5,2.1s3.7-0.8,5.5-2.1c2.1-1.5,4.9-3.6,10.1-3.6s8,2.1,10.1,3.6c1.8,1.3,2.8,2.1,5.5,2.1V-24.3z"/>
		<path class="st1" d="M93.5-3.5c-5.2,0-8-2.1-10.1-3.6c-1.8-1.3-2.8-2-5.5-2c-2.6,0-3.7,0.8-5.5,2c-2.1,1.5-4.9,3.6-10.1,3.6
			c-5.2,0-8-2.1-10.1-3.6c-1.8-1.3-2.8-2-5.5-2s-3.7,0.8-5.5,2c-2.1,1.5-4.9,3.6-10.1,3.6C26-3.5,23.1-5.5,21-7
			c-1.8-1.3-2.8-2-5.4-2c-2.6,0-3.7,0.8-5.4,2C8-5.5,5.2-3.5,0-3.5v-8c2.6,0,3.7-0.8,5.5-2.1c2.1-1.5,4.9-3.6,10.1-3.6
			c5.2,0,8,2.1,10.1,3.6c1.8,1.3,2.8,2.1,5.4,2.1c2.6,0,3.7-0.8,5.5-2.1c2.1-1.5,4.9-3.6,10.1-3.6s8,2.1,10.1,3.6
			c1.8,1.3,2.8,2.1,5.5,2.1s3.7-0.8,5.5-2.1c2.1-1.5,4.9-3.6,10.1-3.6s8,2.1,10.1,3.6c1.8,1.3,2.8,2.1,5.5,2.1V-3.5z"/>
		<path class="st1" d="M93.5-13.9c-5.2,0-8-2.1-10.1-3.6c-1.8-1.3-2.8-2-5.5-2c-2.6,0-3.7,0.8-5.5,2c-2.1,1.5-4.9,3.6-10.1,3.6
			c-5.2,0-8-2.1-10.1-3.6c-1.8-1.3-2.8-2-5.5-2s-3.7,0.8-5.5,2c-2.1,1.5-4.9,3.6-10.1,3.6c-5.2,0-8-2.1-10.1-3.6
			c-1.8-1.3-2.8-2-5.4-2c-2.6,0-3.7,0.8-5.4,2C8-15.9,5.2-13.9,0-13.9v-8c2.6,0,3.7-0.8,5.5-2.1c2.1-1.5,4.9-3.6,10.1-3.6
			c5.2,0,8,2.1,10.1,3.6c1.8,1.3,2.8,2.1,5.4,2.1c2.6,0,3.7-0.8,5.5-2.1c2.1-1.5,4.9-3.6,10.1-3.6s8,2.1,10.1,3.6
			c1.8,1.3,2.8,2.1,5.5,2.1s3.7-0.8,5.5-2.1c2.1-1.5,4.9-3.6,10.1-3.6s8,2.1,10.1,3.6c1.8,1.3,2.8,2.1,5.5,2.1V-13.9z"/>
	</g>
</pattern>
<g>
	<defs>
		<rect id="SVGID_1_" x="-2" y="-739" width="1368" height="2250"/>
	</defs>
	<clipPath id="SVGID_00000113314301386404636670000010202540420933337773_">
		<use xlink:href="#SVGID_1_"  style="overflow:visible;"/>
	</clipPath>
	
		<rect x="-2" y="-739" style="clip-path:url(#SVGID_00000113314301386404636670000010202540420933337773_);fill:#D4D8EE;" width="1368" height="2250"/>
	<g style="clip-path:url(#SVGID_00000113314301386404636670000010202540420933337773_);">
		<defs>
			<rect id="SVGID_00000058578258118516291690000014209221482714986634_" x="-2" y="-739" width="1368" height="2250"/>
		</defs>
		<clipPath id="SVGID_00000049188952905089684170000007049785820948615596_">
			<use xlink:href="#SVGID_00000058578258118516291690000014209221482714986634_"  style="overflow:visible;"/>
		</clipPath>
		<g style="opacity:0.95;clip-path:url(#SVGID_00000049188952905089684170000007049785820948615596_);">
			<g>
				<defs>
					<rect id="SVGID_00000159449537371028357170000013161716513339035576_" x="-11.4" y="-746.2" width="1386.7" height="2258.3"/>
				</defs>
				<clipPath id="SVGID_00000106864337864249518590000015015121618075612577_">
					<use xlink:href="#SVGID_00000159449537371028357170000013161716513339035576_"  style="overflow:visible;"/>
				</clipPath>
				<defs>
					<filter id="Adobe_OpacityMaskFilter" filterUnits="userSpaceOnUse" x="-11.4" y="-746.2" width="1386.7" height="2258.3">
						<feFlood  style="flood-color:white;flood-opacity:1" result="back"/>
						<feBlend  in="SourceGraphic" in2="back" mode="normal"/>
					</filter>
				</defs>
				
					<mask maskUnits="userSpaceOnUse" x="-11.4" y="-746.2" width="1386.7" height="2258.3" id="SVGID_00000036215333468423977350000015548690321665347241_">
					<g class="st5">
						
							<linearGradient id="SVGID_00000095338838322385407500000014678885868960689066_" gradientUnits="userSpaceOnUse" x1="1.6276" y1="768.2584" x2="2.6607" y2="768.2584" gradientTransform="matrix(0 1158.6667 1158.6667 0 -889473.375 -837.0001)">
							<stop  offset="0" style="stop-color:#FFFFFF"/>
							<stop  offset="1" style="stop-color:#000000"/>
						</linearGradient>
						
							<rect x="-11.4" y="-746.2" style="clip-path:url(#SVGID_00000106864337864249518590000015015121618075612577_);fill:url(#SVGID_00000095338838322385407500000014678885868960689066_);" width="1386.7" height="2258.3"/>
					</g>
				</mask>
				
					<g style="clip-path:url(#SVGID_00000106864337864249518590000015015121618075612577_);mask:url(#SVGID_00000036215333468423977350000015548690321665347241_);">
					<g>
						<defs>
							
								<rect id="SVGID_00000006686435558427383310000004361724153245913524_" x="-11.4" y="-746.2" width="1386.7" height="2258.3"/>
						</defs>
						<clipPath id="SVGID_00000165956516182424290010000010957103111468201604_">
							<use xlink:href="#SVGID_00000006686435558427383310000004361724153245913524_"  style="overflow:visible;"/>
						</clipPath>
						
							<pattern  id="SVGID_00000160180869463017146560000011492079700281158549_" xlink:href="#Unnamed_Pattern" patternTransform="matrix(1.5 0 0 -1.5 624.7767 2396.541)">
						</pattern>
						
							<rect x="-2" y="-739" style="clip-path:url(#SVGID_00000165956516182424290010000010957103111468201604_);fill:url(#SVGID_00000160180869463017146560000011492079700281158549_);" width="1368" height="2250"/>
					</g>
				</g>
			</g>
		</g>
	</g>
</g>
</svg>
