<?xml version="1.0" standalone="no"?>
<!DOCTYPE svg PUBLIC "-//W3C//DTD SVG 20010904//EN"
 "http://www.w3.org/TR/2001/REC-SVG-20010904/DTD/svg10.dtd">
<svg version="1.0" xmlns="http://www.w3.org/2000/svg"
 width="416.000000pt" height="416.000000pt" viewBox="0 0 416.000000 416.000000"
 preserveAspectRatio="xMidYMid meet">
<metadata>
Created by potrace 1.14, written by Peter Selinger 2001-2017
</metadata>
<g transform="translate(0.000000,416.000000) scale(0.100000,-0.100000)"
fill="#000000" stroke="none">
<path d="M1120 3413 c-28 -10 -66 -37 -101 -72 -71 -72 -94 -132 -87 -235 11
-173 150 -295 320 -283 176 12 297 148 286 322 -8 117 -68 207 -173 257 -49
23 -73 28 -130 27 -38 0 -90 -8 -115 -16z"/>
<path d="M2459 3409 c-671 -98 -1167 -702 -1136 -1380 12 -257 81 -469 222
-684 192 -293 492 -496 845 -572 119 -25 420 -26 537 0 476 103 863 450 1007
904 44 141 59 246 59 408 0 361 -122 666 -370 926 -200 208 -465 348 -745 394
-99 16 -324 18 -419 4z m688 -558 c29 -13 69 -42 89 -64 47 -51 105 -175 139
-297 28 -98 44 -138 45 -111 0 8 7 23 17 33 14 15 32 18 129 18 136 0 144 -5
144 -89 0 -31 -5 -62 -12 -69 -7 -7 -40 -12 -79 -12 l-68 0 9 -29 c7 -27 1
-203 -19 -484 -7 -114 -9 -119 -39 -150 -29 -30 -32 -39 -32 -97 0 -95 -8
-100 -143 -100 -140 0 -147 5 -147 102 l0 68 -520 0 -520 0 0 -63 c0 -101 -8
-107 -142 -107 -141 0 -148 5 -148 101 0 62 -2 70 -24 85 -14 8 -30 30 -35 47
-13 39 -43 556 -34 597 l6 30 -66 0 c-80 0 -92 12 -92 87 0 77 11 83 152 83
l113 0 18 -30 19 -30 32 108 c81 267 153 364 291 393 19 4 222 6 450 6 414 -2
415 -2 467 -26z"/>
<path d="M2235 2711 c-49 -21 -91 -97 -138 -247 l-24 -79 584 0 c339 0 583 4
583 9 0 25 -46 159 -75 216 -57 114 -15 105 -494 107 -229 1 -425 -2 -436 -6z"/>
<path d="M2005 2246 c-117 -52 -76 -226 52 -226 38 0 50 5 79 34 27 27 34 42
34 75 0 74 -32 114 -101 125 -20 3 -47 0 -64 -8z"/>
<path d="M3214 2246 c-45 -20 -64 -52 -64 -109 0 -42 5 -54 34 -83 29 -29 41
-34 81 -34 40 0 52 5 81 34 40 40 46 78 23 138 -21 52 -98 79 -155 54z"/>
<path d="M2245 1959 c-9 -28 36 -92 100 -140 219 -165 542 -130 702 75 29 38
35 51 26 64 -17 28 -41 25 -111 -11 -106 -55 -190 -77 -299 -77 -117 0 -163
11 -282 66 -105 49 -127 53 -136 23z"/>
<path d="M615 2779 c-278 -23 -485 -250 -485 -534 0 -228 134 -423 348 -506
71 -28 229 -37 311 -19 129 29 259 120 333 234 110 171 110 411 0 582 -73 112
-204 206 -327 232 -78 17 -94 18 -180 11z"/>
</g>
</svg>
